%
M48
M72
T01C0.0240
T02C0.0320
T03C0.0360
T04C0.0394
T05C0.0400
T06C0.0900
T07C0.1083
T08C0.1250
T09C0.1300
%
T01
X6743Y1118
X8680Y2368
X9430Y2743
X9430Y1743
X10868Y2368
X10743Y4743
X8430Y5555
X10555Y6743
X10930Y7555
X10618Y8368
X8805Y9805
X9180Y10805
X8055Y11555
X6305Y11618
X4805Y10055
X4430Y8743
X4368Y5993
X10180Y12305
X12743Y12743
X14368Y14743
X15743Y14618
X17243Y13743
X18118Y13368
X18930Y11868
X21118Y8993
X21555Y7618
X23680Y6805
X24868Y5993
X23680Y12368
X22930Y13493
X23180Y15805
X21118Y15618
X23555Y17743
X21493Y19555
X18618Y18805
X16805Y20493
X15618Y21805
X16618Y22493
X17993Y22243
X17743Y23555
X16118Y24055
X14618Y26055
X14618Y26555
X15243Y27243
X12868Y27868
X8118Y24618
X8243Y21118
X8368Y20368
X10680Y20118
X12368Y19618
X13993Y19055
X12180Y17305
X13118Y16680
X12368Y16493
X15118Y16555
X16118Y17305
X9555Y16118
X7118Y13618
X4555Y13805
X5368Y15805
X2180Y17055
X1805Y15993
X4243Y19118
X5805Y18243
X12930Y23805
X13493Y23743
X13305Y22930
X17868Y27618
X19993Y27618
X21118Y27618
X22618Y25680
X24055Y25618
X24805Y24743
X24430Y24368
X21743Y23368
X20805Y23368
X20305Y23368
X23368Y21868
X26805Y26743
X25118Y27118
X24743Y27743
X21680Y30055
X20118Y30180
X13243Y32743
X7618Y29118
X26618Y16743
X26055Y13555
X26430Y12743
X29243Y12180
X32993Y12618
X32993Y21243
X35743Y24243
X14743Y9618
T02
X13680Y9180
X13680Y8180
X13680Y7180
X13680Y6180
X13680Y5180
X13680Y4180
X13680Y3180
X13680Y2180
X11680Y2180
X11680Y3180
X11680Y4180
X11680Y5180
X11680Y6180
X11680Y7180
X11680Y8180
X11680Y9180
X11680Y10180
X11680Y11180
X11680Y12180
X11680Y13180
X11680Y14180
X11680Y15180
X11680Y16680
X10680Y16680
X10180Y18180
X9180Y18180
X11180Y18180
X12180Y18180
X13180Y18180
X14180Y18180
X15180Y18180
X16180Y18180
X17180Y18180
X18180Y18180
X18680Y16680
X19680Y16680
X19680Y15180
X19680Y14180
X19680Y13180
X19680Y12180
X19680Y11180
X19680Y10180
X19680Y9180
X19680Y8180
X19680Y7180
X19680Y6180
X19680Y5180
X19680Y4180
X19680Y3180
X19680Y2180
X21180Y2680
X21180Y3680
X22180Y3180
X22180Y2180
X22180Y4180
X22180Y5180
X22180Y6180
X22180Y7180
X22180Y8180
X22180Y9180
X22180Y10180
X22180Y11180
X22180Y12180
X22180Y13180
X22180Y14180
X22180Y15180
X22180Y16180
X22180Y17180
X22180Y18180
X22180Y19180
X22180Y20180
X22180Y21180
X20180Y22530
X18180Y21180
X17180Y21180
X16180Y21180
X15180Y21180
X14180Y21180
X13180Y21180
X12180Y21180
X12180Y22180
X11180Y22180
X11180Y21180
X10180Y21180
X9180Y21180
X7430Y19680
X6430Y19680
X8680Y23680
X8680Y24680
X8680Y26680
X9680Y26680
X10680Y26680
X11680Y26680
X12680Y26680
X13680Y26680
X15180Y26680
X16180Y27680
X16180Y28680
X15180Y29680
X13680Y29680
X12680Y29680
X11680Y29680
X10680Y29680
X9680Y29680
X8680Y29680
X7680Y29680
X7680Y26680
X12180Y24680
X13180Y24680
X17180Y22530
X18180Y25680
X17680Y26680
X18680Y26680
X19680Y26680
X20680Y26680
X21180Y25680
X22180Y26180
X23180Y26180
X23180Y25180
X23180Y24180
X23180Y23180
X26180Y23180
X26180Y24180
X26180Y25180
X27180Y25680
X28180Y25680
X28180Y24680
X29180Y24680
X30680Y25180
X31680Y25180
X32680Y25180
X33680Y25180
X34680Y25180
X34680Y28180
X33680Y28180
X32680Y28180
X31680Y28180
X30680Y28180
X29180Y29180
X28180Y28680
X27180Y28680
X26180Y28180
X26180Y29180
X26180Y27180
X26180Y26180
X29180Y26180
X23180Y27180
X22180Y27180
X23180Y28180
X23180Y29180
X20680Y29680
X19680Y29680
X18680Y29680
X17680Y29680
X28180Y21180
X28180Y20180
X28180Y19180
X28180Y18180
X28180Y17180
X28180Y16180
X28180Y15180
X28180Y14180
X28180Y13180
X28180Y12180
X28180Y11180
X28180Y10180
X28180Y9180
X28180Y8180
X28180Y7180
X28180Y6180
X28180Y5180
X28180Y4180
X28180Y3180
X28180Y2180
X30180Y3180
X31180Y3180
X31180Y4680
X30180Y5180
X30180Y6180
X31180Y6680
X31180Y5680
X31180Y7680
X30180Y7680
X30180Y8680
X31180Y8680
X31180Y9680
X30180Y10180
X31180Y10680
X31180Y11680
X30180Y11180
X30180Y13180
X31180Y13180
X29680Y14680
X29680Y15680
X29680Y16680
X29680Y17680
X29680Y18680
X29680Y19680
X29680Y20680
X33680Y16180
X33680Y13180
X34180Y11680
X34180Y10680
X34180Y9680
X34180Y8680
X34180Y7680
X34180Y6680
X34180Y5680
X34180Y4680
X13680Y10180
X13680Y11180
X13680Y12180
X13680Y13180
X13680Y14180
X13680Y15180
X5680Y15180
X5680Y14180
X5680Y13180
X5680Y12180
X5680Y11180
X5680Y10180
X5680Y9180
X5680Y8180
X5680Y7180
X5680Y6180
X5680Y5180
X5680Y4180
X5680Y3180
X5680Y2180
T03
X5680Y17180
X6680Y17180
X20180Y18680
X20180Y19680
X20180Y20680
X31180Y19680
X31180Y18680
X31180Y17680
X31180Y16680
X31180Y15680
X31180Y14680
X32180Y14680
X32180Y15680
X32180Y16680
X32180Y17680
X32180Y18680
X32180Y19680
X32180Y22680
X32180Y23680
X33180Y23680
X33180Y22680
X37180Y30680
X38180Y30680
X39180Y30680
X33680Y3180
X32680Y3180
X32680Y2180
X33680Y2180
X4680Y32180
X3680Y32180
T04
X8680Y32208
X9680Y32208
X10680Y32208
X11680Y32208
X12680Y32208
X13680Y32208
X14680Y32208
X15680Y32208
X16680Y32208
X17680Y32208
X18680Y32208
X19680Y32208
X20680Y32208
X21680Y32208
X22680Y32208
X23680Y32208
X24680Y32208
X25680Y32208
X26680Y32208
X27680Y32208
X27680Y31208
X26680Y31208
X25680Y31208
X24680Y31208
X23680Y31208
X22680Y31208
X21680Y31208
X20680Y31208
X19680Y31208
X18680Y31208
X17680Y31208
X16680Y31208
X15680Y31208
X14680Y31208
X13680Y31208
X12680Y31208
X11680Y31208
X10680Y31208
X9680Y31208
X8680Y31208
T05
X3680Y30180
X3680Y29180
X3680Y28180
X3680Y27180
X3680Y26180
X3680Y23680
X3680Y22680
X2680Y22680
X2680Y23680
X2680Y21680
X3680Y21680
X3680Y20680
X2680Y20680
X2680Y19680
X3680Y19680
X3680Y18680
X2680Y18680
X2680Y17680
X3680Y17680
X3680Y16680
X2680Y16680
X2680Y15680
X3680Y15680
X3680Y14680
X2680Y14680
X2680Y13680
X3680Y13680
X3680Y12680
X2680Y12680
X2680Y11680
X2680Y10680
X3680Y10680
X3680Y11680
X3680Y9680
X2680Y9680
X2680Y8680
X3680Y8680
X3680Y7680
X2680Y7680
X2680Y6680
X3680Y6680
X3680Y5680
X2680Y5680
X2680Y4680
X3680Y4680
X5430Y19680
X8680Y22680
X11180Y24680
X16180Y26680
X27180Y24680
X32180Y29680
X33180Y29680
X34180Y29680
X35180Y29680
X35180Y32680
X34180Y32680
X33180Y32680
X32180Y32680
X35680Y20200
X36680Y19660
X35680Y19110
X36680Y18570
X35680Y18030
X36680Y17480
X35680Y16940
X36680Y16400
X35680Y15850
X34880Y15830
X34880Y14830
X35680Y14770
X36680Y15310
X36680Y14220
X35680Y13680
X36680Y13140
X35680Y12590
X36680Y12050
X35680Y11510
X36680Y10960
X35680Y10420
X36680Y9880
X35680Y9330
X36680Y8790
X35680Y8250
X36680Y7700
X35680Y7160
X34680Y13180
T06
X38861Y26680
X37680Y28570
T07
X29597Y31708
X29597Y22652
X6763Y22652
X6763Y31708
T08
X2180Y1680
X36460Y26680
X39180Y32680
X2180Y32680
X39180Y1680
T09
X36180Y4420
X36180Y22940
M30
