G75*
%MOIN*%
%OFA0B0*%
%FSLAX24Y24*%
%IPPOS*%
%LPD*%
%AMOC8*
5,1,8,0,0,1.08239X$1,22.5*
%
%ADD10C,0.0000*%
D10*
X001180Y000680D02*
X001180Y033680D01*
X040180Y033680D01*
X040180Y000680D01*
X001180Y000680D01*
X001555Y001680D02*
X001557Y001730D01*
X001563Y001779D01*
X001573Y001828D01*
X001586Y001875D01*
X001604Y001922D01*
X001625Y001967D01*
X001649Y002010D01*
X001677Y002051D01*
X001708Y002090D01*
X001742Y002126D01*
X001779Y002160D01*
X001819Y002190D01*
X001860Y002217D01*
X001904Y002241D01*
X001949Y002261D01*
X001996Y002277D01*
X002044Y002290D01*
X002093Y002299D01*
X002143Y002304D01*
X002192Y002305D01*
X002242Y002302D01*
X002291Y002295D01*
X002340Y002284D01*
X002387Y002270D01*
X002433Y002251D01*
X002478Y002229D01*
X002521Y002204D01*
X002561Y002175D01*
X002599Y002143D01*
X002635Y002109D01*
X002668Y002071D01*
X002697Y002031D01*
X002723Y001989D01*
X002746Y001945D01*
X002765Y001899D01*
X002781Y001852D01*
X002793Y001803D01*
X002801Y001754D01*
X002805Y001705D01*
X002805Y001655D01*
X002801Y001606D01*
X002793Y001557D01*
X002781Y001508D01*
X002765Y001461D01*
X002746Y001415D01*
X002723Y001371D01*
X002697Y001329D01*
X002668Y001289D01*
X002635Y001251D01*
X002599Y001217D01*
X002561Y001185D01*
X002521Y001156D01*
X002478Y001131D01*
X002433Y001109D01*
X002387Y001090D01*
X002340Y001076D01*
X002291Y001065D01*
X002242Y001058D01*
X002192Y001055D01*
X002143Y001056D01*
X002093Y001061D01*
X002044Y001070D01*
X001996Y001083D01*
X001949Y001099D01*
X001904Y001119D01*
X001860Y001143D01*
X001819Y001170D01*
X001779Y001200D01*
X001742Y001234D01*
X001708Y001270D01*
X001677Y001309D01*
X001649Y001350D01*
X001625Y001393D01*
X001604Y001438D01*
X001586Y001485D01*
X001573Y001532D01*
X001563Y001581D01*
X001557Y001630D01*
X001555Y001680D01*
X038555Y001680D02*
X038557Y001730D01*
X038563Y001779D01*
X038573Y001828D01*
X038586Y001875D01*
X038604Y001922D01*
X038625Y001967D01*
X038649Y002010D01*
X038677Y002051D01*
X038708Y002090D01*
X038742Y002126D01*
X038779Y002160D01*
X038819Y002190D01*
X038860Y002217D01*
X038904Y002241D01*
X038949Y002261D01*
X038996Y002277D01*
X039044Y002290D01*
X039093Y002299D01*
X039143Y002304D01*
X039192Y002305D01*
X039242Y002302D01*
X039291Y002295D01*
X039340Y002284D01*
X039387Y002270D01*
X039433Y002251D01*
X039478Y002229D01*
X039521Y002204D01*
X039561Y002175D01*
X039599Y002143D01*
X039635Y002109D01*
X039668Y002071D01*
X039697Y002031D01*
X039723Y001989D01*
X039746Y001945D01*
X039765Y001899D01*
X039781Y001852D01*
X039793Y001803D01*
X039801Y001754D01*
X039805Y001705D01*
X039805Y001655D01*
X039801Y001606D01*
X039793Y001557D01*
X039781Y001508D01*
X039765Y001461D01*
X039746Y001415D01*
X039723Y001371D01*
X039697Y001329D01*
X039668Y001289D01*
X039635Y001251D01*
X039599Y001217D01*
X039561Y001185D01*
X039521Y001156D01*
X039478Y001131D01*
X039433Y001109D01*
X039387Y001090D01*
X039340Y001076D01*
X039291Y001065D01*
X039242Y001058D01*
X039192Y001055D01*
X039143Y001056D01*
X039093Y001061D01*
X039044Y001070D01*
X038996Y001083D01*
X038949Y001099D01*
X038904Y001119D01*
X038860Y001143D01*
X038819Y001170D01*
X038779Y001200D01*
X038742Y001234D01*
X038708Y001270D01*
X038677Y001309D01*
X038649Y001350D01*
X038625Y001393D01*
X038604Y001438D01*
X038586Y001485D01*
X038573Y001532D01*
X038563Y001581D01*
X038557Y001630D01*
X038555Y001680D01*
X038555Y032680D02*
X038557Y032730D01*
X038563Y032779D01*
X038573Y032828D01*
X038586Y032875D01*
X038604Y032922D01*
X038625Y032967D01*
X038649Y033010D01*
X038677Y033051D01*
X038708Y033090D01*
X038742Y033126D01*
X038779Y033160D01*
X038819Y033190D01*
X038860Y033217D01*
X038904Y033241D01*
X038949Y033261D01*
X038996Y033277D01*
X039044Y033290D01*
X039093Y033299D01*
X039143Y033304D01*
X039192Y033305D01*
X039242Y033302D01*
X039291Y033295D01*
X039340Y033284D01*
X039387Y033270D01*
X039433Y033251D01*
X039478Y033229D01*
X039521Y033204D01*
X039561Y033175D01*
X039599Y033143D01*
X039635Y033109D01*
X039668Y033071D01*
X039697Y033031D01*
X039723Y032989D01*
X039746Y032945D01*
X039765Y032899D01*
X039781Y032852D01*
X039793Y032803D01*
X039801Y032754D01*
X039805Y032705D01*
X039805Y032655D01*
X039801Y032606D01*
X039793Y032557D01*
X039781Y032508D01*
X039765Y032461D01*
X039746Y032415D01*
X039723Y032371D01*
X039697Y032329D01*
X039668Y032289D01*
X039635Y032251D01*
X039599Y032217D01*
X039561Y032185D01*
X039521Y032156D01*
X039478Y032131D01*
X039433Y032109D01*
X039387Y032090D01*
X039340Y032076D01*
X039291Y032065D01*
X039242Y032058D01*
X039192Y032055D01*
X039143Y032056D01*
X039093Y032061D01*
X039044Y032070D01*
X038996Y032083D01*
X038949Y032099D01*
X038904Y032119D01*
X038860Y032143D01*
X038819Y032170D01*
X038779Y032200D01*
X038742Y032234D01*
X038708Y032270D01*
X038677Y032309D01*
X038649Y032350D01*
X038625Y032393D01*
X038604Y032438D01*
X038586Y032485D01*
X038573Y032532D01*
X038563Y032581D01*
X038557Y032630D01*
X038555Y032680D01*
X001555Y032680D02*
X001557Y032730D01*
X001563Y032779D01*
X001573Y032828D01*
X001586Y032875D01*
X001604Y032922D01*
X001625Y032967D01*
X001649Y033010D01*
X001677Y033051D01*
X001708Y033090D01*
X001742Y033126D01*
X001779Y033160D01*
X001819Y033190D01*
X001860Y033217D01*
X001904Y033241D01*
X001949Y033261D01*
X001996Y033277D01*
X002044Y033290D01*
X002093Y033299D01*
X002143Y033304D01*
X002192Y033305D01*
X002242Y033302D01*
X002291Y033295D01*
X002340Y033284D01*
X002387Y033270D01*
X002433Y033251D01*
X002478Y033229D01*
X002521Y033204D01*
X002561Y033175D01*
X002599Y033143D01*
X002635Y033109D01*
X002668Y033071D01*
X002697Y033031D01*
X002723Y032989D01*
X002746Y032945D01*
X002765Y032899D01*
X002781Y032852D01*
X002793Y032803D01*
X002801Y032754D01*
X002805Y032705D01*
X002805Y032655D01*
X002801Y032606D01*
X002793Y032557D01*
X002781Y032508D01*
X002765Y032461D01*
X002746Y032415D01*
X002723Y032371D01*
X002697Y032329D01*
X002668Y032289D01*
X002635Y032251D01*
X002599Y032217D01*
X002561Y032185D01*
X002521Y032156D01*
X002478Y032131D01*
X002433Y032109D01*
X002387Y032090D01*
X002340Y032076D01*
X002291Y032065D01*
X002242Y032058D01*
X002192Y032055D01*
X002143Y032056D01*
X002093Y032061D01*
X002044Y032070D01*
X001996Y032083D01*
X001949Y032099D01*
X001904Y032119D01*
X001860Y032143D01*
X001819Y032170D01*
X001779Y032200D01*
X001742Y032234D01*
X001708Y032270D01*
X001677Y032309D01*
X001649Y032350D01*
X001625Y032393D01*
X001604Y032438D01*
X001586Y032485D01*
X001573Y032532D01*
X001563Y032581D01*
X001557Y032630D01*
X001555Y032680D01*
M02*
