%
M48
M72
T01C0.0240
T02C0.0320
T03C0.0400
T04C0.0450
T05C0.0700
%
T01
X7118Y3993
X6243Y4993
X5805Y5243
X7118Y5993
X8243Y5055
X8868Y4743
X11868Y4180
X12618Y4930
X12618Y6368
X13180Y6743
X14243Y7055
X16805Y6368
X14868Y5055
X15618Y4555
X11180Y7118
X12055Y9868
X13618Y9993
X15118Y9993
X15493Y11118
X14618Y11118
X14743Y11868
X17118Y11118
X18680Y12180
X17680Y13305
X18868Y13930
X19180Y13555
X20555Y13555
X21118Y12430
X24243Y14493
X22555Y15243
X26555Y15118
X27180Y15243
X19805Y18618
X17243Y18993
X17180Y20618
X15055Y18993
X11868Y19243
X10305Y20493
X6930Y19930
X4243Y18993
X6243Y17680
X6618Y17368
X8243Y17493
X9055Y16430
X9243Y15805
X7680Y15993
X9993Y17368
X11118Y16743
X13618Y16555
X14618Y14243
X12618Y13430
X11305Y12368
X12055Y11805
X10243Y11305
X10305Y10180
X8493Y10180
X7305Y10930
X6680Y11305
X6180Y11305
X5680Y11305
X6868Y10055
X6180Y9743
X3180Y11055
X5618Y12805
X4243Y13680
X3180Y13805
X4805Y15993
X8118Y12555
X8868Y12555
X10305Y14493
X17305Y15368
X19805Y20618
X22555Y8743
X22555Y5993
X3118Y5993
X2243Y5993
T02
X1680Y1680
X2680Y1680
X3680Y1680
X4680Y1680
X5680Y1680
X6680Y1680
X7680Y1680
X8680Y1680
X9680Y1680
X10680Y1680
X11680Y1680
X12680Y1680
X13680Y1680
X14680Y1680
X15680Y1680
X16680Y1680
X17680Y1680
X18680Y1680
X19680Y1680
X20680Y1680
X20680Y3180
X19680Y3180
X18680Y3180
X17680Y3180
X16680Y3180
X15680Y3180
X14680Y3180
X13680Y3180
X12680Y3180
X11680Y3180
X10680Y3180
X9680Y3180
X8680Y3180
X7680Y3180
X6680Y3180
X5680Y3180
X4680Y3180
X3680Y3180
X2680Y3180
X2680Y7680
X1680Y7680
X3680Y7680
X4680Y7680
X5680Y7680
X6680Y7680
X7680Y7680
X8680Y7680
X9680Y7680
X10680Y7680
X11680Y7680
X12680Y7680
X13680Y7680
X14680Y7680
X15680Y7680
X16680Y7680
X17680Y7680
X18680Y7680
X19680Y7680
X20680Y7680
X20680Y9180
X19680Y9180
X18680Y9180
X17680Y9180
X16680Y9180
X15680Y9180
X14680Y9180
X13680Y9180
X12680Y9180
X11680Y9180
X10680Y9180
X9680Y9180
X8680Y9180
X7680Y9180
X6680Y9180
X5680Y9180
X4680Y9180
X3680Y9180
X2680Y9180
X3180Y10180
X4180Y10180
X5180Y14180
X6180Y14180
X5680Y15180
X4680Y15180
X3680Y15180
X2680Y15180
X1680Y15180
X6680Y15180
X7680Y15180
X8680Y15180
X9680Y15180
X10680Y15180
X11680Y15180
X12680Y15180
X13680Y15180
X14680Y15180
X16180Y15180
X16180Y16180
X16180Y17180
X16180Y18180
X16180Y19180
X16180Y20180
X16180Y21180
X14680Y21180
X13680Y21180
X12680Y21180
X11680Y21180
X10680Y21180
X9680Y21180
X8680Y21180
X7680Y21180
X6680Y21180
X5680Y21180
X4680Y21180
X3680Y21180
X2680Y21180
X1680Y21180
X19180Y21180
X19180Y20180
X20680Y21180
X21680Y21180
X22680Y21180
X25180Y21180
X25180Y20180
X25180Y19180
X25180Y18180
X25180Y17180
X25180Y16180
X25180Y15180
X25180Y14180
X28180Y14180
X28180Y15180
X28180Y16180
X28180Y17180
X28180Y18180
X28180Y19180
X28180Y20180
X29180Y20180
X29180Y21180
X28180Y21180
X22680Y18180
X21680Y18180
X20680Y18180
X19180Y18180
X19180Y17180
X20680Y16680
X20680Y15680
X19180Y15180
X19180Y16180
X19180Y19180
X21680Y9180
X29680Y5630
X30680Y5680
X30680Y6680
X30680Y3680
X29680Y3730
X30680Y2680
X21680Y3180
T03
X30680Y1680
X30680Y7680
T04
X29680Y9680
X28680Y9680
X27680Y9680
X26680Y9680
X21680Y11180
X20680Y11180
X19680Y11180
X18680Y11180
T05
X17355Y12230
X23005Y12230
X25355Y10730
X31005Y10730
M30
