G75*
%MOIN*%
%OFA0B0*%
%FSLAX24Y24*%
%IPPOS*%
%LPD*%
%AMOC8*
5,1,8,0,0,1.08239X$1,22.5*
%
%ADD10C,0.0160*%
%ADD11C,0.0060*%
%ADD12C,0.0100*%
%ADD13C,0.0050*%
%ADD14C,0.0070*%
%ADD15C,0.0320*%
%ADD16C,0.0120*%
%ADD17R,0.0200X0.0150*%
%ADD18C,0.0020*%
D10*
X015180Y010180D02*
X018680Y010180D01*
X018680Y010680D01*
X021680Y010680D02*
X021680Y010180D01*
X022180Y010180D01*
X026680Y009180D02*
X026680Y008680D01*
X027680Y008680D01*
X027680Y009180D01*
X028680Y009180D02*
X028680Y008680D01*
X029680Y008680D01*
X029680Y009180D01*
X021180Y014680D02*
X020680Y014680D01*
X020680Y013680D01*
X019680Y013680D02*
X019680Y014180D01*
X015680Y014180D01*
D11*
X001180Y004230D02*
X001180Y002030D01*
X021180Y002030D01*
X021180Y007330D01*
X001180Y007330D01*
X001180Y005030D01*
X001219Y005028D01*
X001258Y005022D01*
X001296Y005013D01*
X001333Y005000D01*
X001369Y004983D01*
X001402Y004963D01*
X001434Y004939D01*
X001463Y004913D01*
X001489Y004884D01*
X001513Y004852D01*
X001533Y004819D01*
X001550Y004783D01*
X001563Y004746D01*
X001572Y004708D01*
X001578Y004669D01*
X001580Y004630D01*
X001578Y004591D01*
X001572Y004552D01*
X001563Y004514D01*
X001550Y004477D01*
X001533Y004441D01*
X001513Y004408D01*
X001489Y004376D01*
X001463Y004347D01*
X001434Y004321D01*
X001402Y004297D01*
X001369Y004277D01*
X001333Y004260D01*
X001296Y004247D01*
X001258Y004238D01*
X001219Y004232D01*
X001180Y004230D01*
X002180Y003530D02*
X002180Y005730D01*
X002219Y005732D01*
X002258Y005738D01*
X002296Y005747D01*
X002333Y005760D01*
X002369Y005777D01*
X002402Y005797D01*
X002434Y005821D01*
X002463Y005847D01*
X002489Y005876D01*
X002513Y005908D01*
X002533Y005941D01*
X002550Y005977D01*
X002563Y006014D01*
X002572Y006052D01*
X002578Y006091D01*
X002580Y006130D01*
X002578Y006169D01*
X002572Y006208D01*
X002563Y006246D01*
X002550Y006283D01*
X002533Y006319D01*
X002513Y006352D01*
X002489Y006384D01*
X002463Y006413D01*
X002434Y006439D01*
X002402Y006463D01*
X002369Y006483D01*
X002333Y006500D01*
X002296Y006513D01*
X002258Y006522D01*
X002219Y006528D01*
X002180Y006530D01*
X002180Y008830D01*
X022180Y008830D01*
X022180Y003530D01*
X002180Y003530D01*
X003809Y005110D02*
X003809Y005324D01*
X003809Y005217D02*
X004450Y005217D01*
X004450Y005110D02*
X004450Y005324D01*
X004343Y005540D02*
X003916Y005540D01*
X003809Y005646D01*
X003809Y005860D01*
X003916Y005967D01*
X003916Y006184D02*
X003809Y006291D01*
X003809Y006505D01*
X003916Y006611D01*
X004023Y006611D01*
X004450Y006184D01*
X004450Y006611D01*
X004343Y005967D02*
X004450Y005860D01*
X004450Y005646D01*
X004343Y005540D01*
X004530Y009680D02*
X002830Y009680D01*
X002813Y009682D01*
X002796Y009686D01*
X002780Y009693D01*
X002766Y009703D01*
X002753Y009716D01*
X002743Y009730D01*
X002736Y009746D01*
X002732Y009763D01*
X002730Y009780D01*
X002730Y010580D01*
X002732Y010597D01*
X002736Y010614D01*
X002743Y010630D01*
X002753Y010644D01*
X002766Y010657D01*
X002780Y010667D01*
X002796Y010674D01*
X002813Y010678D01*
X002830Y010680D01*
X004530Y010680D01*
X004547Y010678D01*
X004564Y010674D01*
X004580Y010667D01*
X004594Y010657D01*
X004607Y010644D01*
X004617Y010630D01*
X004624Y010614D01*
X004628Y010597D01*
X004630Y010580D01*
X004630Y009780D01*
X004628Y009763D01*
X004624Y009746D01*
X004617Y009730D01*
X004607Y009716D01*
X004594Y009703D01*
X004580Y009693D01*
X004564Y009686D01*
X004547Y009682D01*
X004530Y009680D01*
X003830Y010180D02*
X003780Y010180D01*
X003580Y010180D02*
X003530Y010180D01*
X004030Y011280D02*
X002330Y011280D01*
X002313Y011282D01*
X002296Y011286D01*
X002280Y011293D01*
X002266Y011303D01*
X002253Y011316D01*
X002243Y011330D01*
X002236Y011346D01*
X002232Y011363D01*
X002230Y011380D01*
X002230Y011980D01*
X002232Y011997D01*
X002236Y012014D01*
X002243Y012030D01*
X002253Y012044D01*
X002266Y012057D01*
X002280Y012067D01*
X002296Y012074D01*
X002313Y012078D01*
X002330Y012080D01*
X004030Y012080D01*
X004047Y012078D01*
X004064Y012074D01*
X004080Y012067D01*
X004094Y012057D01*
X004107Y012044D01*
X004117Y012030D01*
X004124Y012014D01*
X004128Y011997D01*
X004130Y011980D01*
X004130Y011380D01*
X004128Y011363D01*
X004124Y011346D01*
X004117Y011330D01*
X004107Y011316D01*
X004094Y011303D01*
X004080Y011293D01*
X004064Y011286D01*
X004047Y011282D01*
X004030Y011280D01*
X005230Y010980D02*
X005230Y010380D01*
X005232Y010363D01*
X005236Y010346D01*
X005243Y010330D01*
X005253Y010316D01*
X005266Y010303D01*
X005280Y010293D01*
X005296Y010286D01*
X005313Y010282D01*
X005330Y010280D01*
X007030Y010280D01*
X007047Y010282D01*
X007064Y010286D01*
X007080Y010293D01*
X007094Y010303D01*
X007107Y010316D01*
X007117Y010330D01*
X007124Y010346D01*
X007128Y010363D01*
X007130Y010380D01*
X007130Y010980D01*
X007128Y010997D01*
X007124Y011014D01*
X007117Y011030D01*
X007107Y011044D01*
X007094Y011057D01*
X007080Y011067D01*
X007064Y011074D01*
X007047Y011078D01*
X007030Y011080D01*
X005330Y011080D01*
X005313Y011078D01*
X005296Y011074D01*
X005280Y011067D01*
X005266Y011057D01*
X005253Y011044D01*
X005243Y011030D01*
X005236Y011014D01*
X005232Y010997D01*
X005230Y010980D01*
X004030Y012780D02*
X002330Y012780D01*
X002313Y012782D01*
X002296Y012786D01*
X002280Y012793D01*
X002266Y012803D01*
X002253Y012816D01*
X002243Y012830D01*
X002236Y012846D01*
X002232Y012863D01*
X002230Y012880D01*
X002230Y013480D01*
X002232Y013497D01*
X002236Y013514D01*
X002243Y013530D01*
X002253Y013544D01*
X002266Y013557D01*
X002280Y013567D01*
X002296Y013574D01*
X002313Y013578D01*
X002330Y013580D01*
X004030Y013580D01*
X004047Y013578D01*
X004064Y013574D01*
X004080Y013567D01*
X004094Y013557D01*
X004107Y013544D01*
X004117Y013530D01*
X004124Y013514D01*
X004128Y013497D01*
X004130Y013480D01*
X004130Y012880D01*
X004128Y012863D01*
X004124Y012846D01*
X004117Y012830D01*
X004107Y012816D01*
X004094Y012803D01*
X004080Y012793D01*
X004064Y012786D01*
X004047Y012782D01*
X004030Y012780D01*
X004830Y013680D02*
X006530Y013680D01*
X006547Y013682D01*
X006564Y013686D01*
X006580Y013693D01*
X006594Y013703D01*
X006607Y013716D01*
X006617Y013730D01*
X006624Y013746D01*
X006628Y013763D01*
X006630Y013780D01*
X006630Y014580D01*
X006628Y014597D01*
X006624Y014614D01*
X006617Y014630D01*
X006607Y014644D01*
X006594Y014657D01*
X006580Y014667D01*
X006564Y014674D01*
X006547Y014678D01*
X006530Y014680D01*
X004830Y014680D01*
X004813Y014678D01*
X004796Y014674D01*
X004780Y014667D01*
X004766Y014657D01*
X004753Y014644D01*
X004743Y014630D01*
X004736Y014614D01*
X004732Y014597D01*
X004730Y014580D01*
X004730Y013780D01*
X004732Y013763D01*
X004736Y013746D01*
X004743Y013730D01*
X004753Y013716D01*
X004766Y013703D01*
X004780Y013693D01*
X004796Y013686D01*
X004813Y013682D01*
X004830Y013680D01*
X005530Y014180D02*
X005580Y014180D01*
X005780Y014180D02*
X005830Y014180D01*
X007730Y013480D02*
X007730Y012880D01*
X007732Y012863D01*
X007736Y012846D01*
X007743Y012830D01*
X007753Y012816D01*
X007766Y012803D01*
X007780Y012793D01*
X007796Y012786D01*
X007813Y012782D01*
X007830Y012780D01*
X009530Y012780D01*
X009547Y012782D01*
X009564Y012786D01*
X009580Y012793D01*
X009594Y012803D01*
X009607Y012816D01*
X009617Y012830D01*
X009624Y012846D01*
X009628Y012863D01*
X009630Y012880D01*
X009630Y013480D01*
X009628Y013497D01*
X009624Y013514D01*
X009617Y013530D01*
X009607Y013544D01*
X009594Y013557D01*
X009580Y013567D01*
X009564Y013574D01*
X009547Y013578D01*
X009530Y013580D01*
X007830Y013580D01*
X007813Y013578D01*
X007796Y013574D01*
X007780Y013567D01*
X007766Y013557D01*
X007753Y013544D01*
X007743Y013530D01*
X007736Y013514D01*
X007732Y013497D01*
X007730Y013480D01*
X007830Y012080D02*
X009530Y012080D01*
X009547Y012078D01*
X009564Y012074D01*
X009580Y012067D01*
X009594Y012057D01*
X009607Y012044D01*
X009617Y012030D01*
X009624Y012014D01*
X009628Y011997D01*
X009630Y011980D01*
X009630Y011380D01*
X009628Y011363D01*
X009624Y011346D01*
X009617Y011330D01*
X009607Y011316D01*
X009594Y011303D01*
X009580Y011293D01*
X009564Y011286D01*
X009547Y011282D01*
X009530Y011280D01*
X007830Y011280D01*
X007813Y011282D01*
X007796Y011286D01*
X007780Y011293D01*
X007766Y011303D01*
X007753Y011316D01*
X007743Y011330D01*
X007736Y011346D01*
X007732Y011363D01*
X007730Y011380D01*
X007730Y011980D01*
X007732Y011997D01*
X007736Y012014D01*
X007743Y012030D01*
X007753Y012044D01*
X007766Y012057D01*
X007780Y012067D01*
X007796Y012074D01*
X007813Y012078D01*
X007830Y012080D01*
X010680Y011470D02*
X015836Y011470D01*
X015649Y011244D02*
X015649Y010817D01*
X015542Y010710D01*
X015329Y010710D01*
X015222Y010817D01*
X015222Y011244D01*
X015329Y011351D01*
X015542Y011351D01*
X015649Y011244D01*
X015435Y010924D02*
X015649Y010710D01*
X015004Y010710D02*
X014577Y010710D01*
X014577Y011351D01*
X015004Y011351D01*
X014791Y011030D02*
X014577Y011030D01*
X014360Y011030D02*
X014253Y010924D01*
X013933Y010924D01*
X014146Y010924D02*
X014360Y010710D01*
X013933Y010710D02*
X013933Y011351D01*
X014253Y011351D01*
X014360Y011244D01*
X014360Y011030D01*
X013715Y010924D02*
X013715Y010817D01*
X013608Y010710D01*
X013288Y010710D01*
X013288Y011351D01*
X013608Y011351D01*
X013715Y011244D01*
X013715Y011137D01*
X013608Y011030D01*
X013288Y011030D01*
X013608Y011030D02*
X013715Y010924D01*
X013071Y011351D02*
X012644Y010710D01*
X012426Y010710D02*
X012426Y011137D01*
X012213Y011351D01*
X011999Y011137D01*
X011999Y010710D01*
X011782Y010710D02*
X011782Y011351D01*
X011568Y011137D01*
X011355Y011351D01*
X011355Y010710D01*
X011137Y010817D02*
X011137Y011244D01*
X011030Y011351D01*
X010710Y011351D01*
X010710Y010710D01*
X011030Y010710D01*
X011137Y010817D01*
X011999Y011030D02*
X012426Y011030D01*
X013210Y013210D02*
X013210Y013851D01*
X013637Y013851D01*
X013855Y013851D02*
X014068Y013851D01*
X013961Y013851D02*
X013961Y013210D01*
X013855Y013210D02*
X014068Y013210D01*
X014284Y013210D02*
X014284Y013851D01*
X014605Y013851D01*
X014711Y013744D01*
X014711Y013530D01*
X014605Y013424D01*
X014284Y013424D01*
X014498Y013424D02*
X014711Y013210D01*
X014929Y013317D02*
X015036Y013210D01*
X015249Y013210D01*
X015356Y013317D01*
X015356Y013744D01*
X015249Y013851D01*
X015036Y013851D01*
X014929Y013744D01*
X014929Y013317D01*
X015142Y013424D02*
X015356Y013210D01*
X015543Y013970D02*
X013180Y013970D01*
X013210Y013530D02*
X013424Y013530D01*
X015130Y015580D02*
X001230Y015580D01*
X001230Y017680D01*
X001274Y017682D01*
X001317Y017688D01*
X001359Y017697D01*
X001401Y017710D01*
X001441Y017727D01*
X001480Y017747D01*
X001517Y017770D01*
X001551Y017797D01*
X001584Y017826D01*
X001613Y017859D01*
X001640Y017893D01*
X001663Y017930D01*
X001683Y017969D01*
X001700Y018009D01*
X001713Y018051D01*
X001722Y018093D01*
X001728Y018136D01*
X001730Y018180D01*
X001728Y018224D01*
X001722Y018267D01*
X001713Y018309D01*
X001700Y018351D01*
X001683Y018391D01*
X001663Y018430D01*
X001640Y018467D01*
X001613Y018501D01*
X001584Y018534D01*
X001551Y018563D01*
X001517Y018590D01*
X001480Y018613D01*
X001441Y018633D01*
X001401Y018650D01*
X001359Y018663D01*
X001317Y018672D01*
X001274Y018678D01*
X001230Y018680D01*
X001230Y020780D01*
X015130Y020780D01*
X015130Y015580D01*
X016530Y014680D02*
X018830Y014680D01*
X018830Y021680D01*
X018080Y021680D01*
X018078Y021641D01*
X018072Y021602D01*
X018063Y021564D01*
X018050Y021527D01*
X018033Y021491D01*
X018013Y021458D01*
X017989Y021426D01*
X017963Y021397D01*
X017934Y021371D01*
X017902Y021347D01*
X017869Y021327D01*
X017833Y021310D01*
X017796Y021297D01*
X017758Y021288D01*
X017719Y021282D01*
X017680Y021280D01*
X017641Y021282D01*
X017602Y021288D01*
X017564Y021297D01*
X017527Y021310D01*
X017491Y021327D01*
X017458Y021347D01*
X017426Y021371D01*
X017397Y021397D01*
X017371Y021426D01*
X017347Y021458D01*
X017327Y021491D01*
X017310Y021527D01*
X017297Y021564D01*
X017288Y021602D01*
X017282Y021641D01*
X017280Y021680D01*
X016530Y021680D01*
X016530Y014680D01*
X020180Y015330D02*
X020180Y017030D01*
X020182Y017047D01*
X020186Y017064D01*
X020193Y017080D01*
X020203Y017094D01*
X020216Y017107D01*
X020230Y017117D01*
X020246Y017124D01*
X020263Y017128D01*
X020280Y017130D01*
X021080Y017130D01*
X021097Y017128D01*
X021114Y017124D01*
X021130Y017117D01*
X021144Y017107D01*
X021157Y017094D01*
X021167Y017080D01*
X021174Y017064D01*
X021178Y017047D01*
X021180Y017030D01*
X021180Y015330D01*
X021178Y015313D01*
X021174Y015296D01*
X021167Y015280D01*
X021157Y015266D01*
X021144Y015253D01*
X021130Y015243D01*
X021114Y015236D01*
X021097Y015232D01*
X021080Y015230D01*
X020280Y015230D01*
X020263Y015232D01*
X020246Y015236D01*
X020230Y015243D01*
X020216Y015253D01*
X020203Y015266D01*
X020193Y015280D01*
X020186Y015296D01*
X020182Y015313D01*
X020180Y015330D01*
X020680Y016030D02*
X020680Y016080D01*
X020680Y016280D02*
X020680Y016330D01*
X021710Y014851D02*
X021924Y014637D01*
X022137Y014851D01*
X022137Y014210D01*
X022355Y014210D02*
X022355Y014851D01*
X022675Y014851D01*
X022782Y014744D01*
X022782Y014530D01*
X022675Y014424D01*
X022355Y014424D01*
X022568Y014424D02*
X022782Y014210D01*
X022999Y014210D02*
X023319Y014210D01*
X023426Y014317D01*
X023426Y014744D01*
X023319Y014851D01*
X022999Y014851D01*
X022999Y014210D01*
X023644Y014744D02*
X023857Y014530D01*
X023857Y014210D01*
X023857Y014530D02*
X024071Y014744D01*
X024071Y014851D01*
X023644Y014851D02*
X023644Y014744D01*
X025530Y013680D02*
X027830Y013680D01*
X027830Y021680D01*
X027080Y021680D01*
X027078Y021641D01*
X027072Y021602D01*
X027063Y021564D01*
X027050Y021527D01*
X027033Y021491D01*
X027013Y021458D01*
X026989Y021426D01*
X026963Y021397D01*
X026934Y021371D01*
X026902Y021347D01*
X026869Y021327D01*
X026833Y021310D01*
X026796Y021297D01*
X026758Y021288D01*
X026719Y021282D01*
X026680Y021280D01*
X026641Y021282D01*
X026602Y021288D01*
X026564Y021297D01*
X026527Y021310D01*
X026491Y021327D01*
X026458Y021347D01*
X026426Y021371D01*
X026397Y021397D01*
X026371Y021426D01*
X026347Y021458D01*
X026327Y021491D01*
X026310Y021527D01*
X026297Y021564D01*
X026288Y021602D01*
X026282Y021641D01*
X026280Y021680D01*
X025530Y021680D01*
X025530Y013680D01*
X021710Y014210D02*
X021710Y014851D01*
X021980Y018680D02*
X021380Y018680D01*
X021363Y018682D01*
X021346Y018686D01*
X021330Y018693D01*
X021316Y018703D01*
X021303Y018716D01*
X021293Y018730D01*
X021286Y018746D01*
X021282Y018763D01*
X021280Y018780D01*
X021280Y018930D01*
X021330Y018980D01*
X021330Y020380D01*
X021280Y020430D01*
X021280Y020580D01*
X021282Y020597D01*
X021286Y020614D01*
X021293Y020630D01*
X021303Y020644D01*
X021316Y020657D01*
X021330Y020667D01*
X021346Y020674D01*
X021363Y020678D01*
X021380Y020680D01*
X021980Y020680D01*
X021997Y020678D01*
X022014Y020674D01*
X022030Y020667D01*
X022044Y020657D01*
X022057Y020644D01*
X022067Y020630D01*
X022074Y020614D01*
X022078Y020597D01*
X022080Y020580D01*
X022080Y020430D01*
X022030Y020380D01*
X022030Y018980D01*
X022080Y018930D01*
X022080Y018780D01*
X022078Y018763D01*
X022074Y018746D01*
X022067Y018730D01*
X022057Y018716D01*
X022044Y018703D01*
X022030Y018693D01*
X022014Y018686D01*
X021997Y018682D01*
X021980Y018680D01*
X022280Y018780D02*
X022280Y018930D01*
X022330Y018980D01*
X022330Y020380D01*
X022280Y020430D01*
X022280Y020580D01*
X022282Y020597D01*
X022286Y020614D01*
X022293Y020630D01*
X022303Y020644D01*
X022316Y020657D01*
X022330Y020667D01*
X022346Y020674D01*
X022363Y020678D01*
X022380Y020680D01*
X022980Y020680D01*
X022997Y020678D01*
X023014Y020674D01*
X023030Y020667D01*
X023044Y020657D01*
X023057Y020644D01*
X023067Y020630D01*
X023074Y020614D01*
X023078Y020597D01*
X023080Y020580D01*
X023080Y020430D01*
X023030Y020380D01*
X023030Y018980D01*
X023080Y018930D01*
X023080Y018780D01*
X023078Y018763D01*
X023074Y018746D01*
X023067Y018730D01*
X023057Y018716D01*
X023044Y018703D01*
X023030Y018693D01*
X023014Y018686D01*
X022997Y018682D01*
X022980Y018680D01*
X022380Y018680D01*
X022363Y018682D01*
X022346Y018686D01*
X022330Y018693D01*
X022316Y018703D01*
X022303Y018716D01*
X022293Y018730D01*
X022286Y018746D01*
X022282Y018763D01*
X022280Y018780D01*
X021080Y018780D02*
X021080Y018930D01*
X021030Y018980D01*
X021030Y020380D01*
X021080Y020430D01*
X021080Y020580D01*
X021078Y020597D01*
X021074Y020614D01*
X021067Y020630D01*
X021057Y020644D01*
X021044Y020657D01*
X021030Y020667D01*
X021014Y020674D01*
X020997Y020678D01*
X020980Y020680D01*
X020380Y020680D01*
X020363Y020678D01*
X020346Y020674D01*
X020330Y020667D01*
X020316Y020657D01*
X020303Y020644D01*
X020293Y020630D01*
X020286Y020614D01*
X020282Y020597D01*
X020280Y020580D01*
X020280Y020430D01*
X020330Y020380D01*
X020330Y018980D01*
X020280Y018930D01*
X020280Y018780D01*
X020282Y018763D01*
X020286Y018746D01*
X020293Y018730D01*
X020303Y018716D01*
X020316Y018703D01*
X020330Y018693D01*
X020346Y018686D01*
X020363Y018682D01*
X020380Y018680D01*
X020980Y018680D01*
X020997Y018682D01*
X021014Y018686D01*
X021030Y018693D01*
X021044Y018703D01*
X021057Y018716D01*
X021067Y018730D01*
X021074Y018746D01*
X021078Y018763D01*
X021080Y018780D01*
X028680Y019830D02*
X028680Y021530D01*
X028682Y021547D01*
X028686Y021564D01*
X028693Y021580D01*
X028703Y021594D01*
X028716Y021607D01*
X028730Y021617D01*
X028746Y021624D01*
X028763Y021628D01*
X028780Y021630D01*
X029580Y021630D01*
X029597Y021628D01*
X029614Y021624D01*
X029630Y021617D01*
X029644Y021607D01*
X029657Y021594D01*
X029667Y021580D01*
X029674Y021564D01*
X029678Y021547D01*
X029680Y021530D01*
X029680Y019830D01*
X029678Y019813D01*
X029674Y019796D01*
X029667Y019780D01*
X029657Y019766D01*
X029644Y019753D01*
X029630Y019743D01*
X029614Y019736D01*
X029597Y019732D01*
X029580Y019730D01*
X028780Y019730D01*
X028763Y019732D01*
X028746Y019736D01*
X028730Y019743D01*
X028716Y019753D01*
X028703Y019766D01*
X028693Y019780D01*
X028686Y019796D01*
X028682Y019813D01*
X028680Y019830D01*
X029180Y020530D02*
X029180Y020580D01*
X029180Y020780D02*
X029180Y020830D01*
X023675Y010351D02*
X023461Y010351D01*
X023355Y010244D01*
X023355Y010137D01*
X023461Y010030D01*
X023675Y010030D01*
X023782Y009924D01*
X023782Y009817D01*
X023675Y009710D01*
X023461Y009710D01*
X023355Y009817D01*
X023137Y009817D02*
X023137Y009924D01*
X023030Y010030D01*
X022710Y010030D01*
X022710Y009710D02*
X023030Y009710D01*
X023137Y009817D01*
X023030Y010030D02*
X023137Y010137D01*
X023137Y010244D01*
X023030Y010351D01*
X022710Y010351D01*
X022710Y009710D01*
X023675Y010351D02*
X023782Y010244D01*
X026710Y008244D02*
X026817Y008351D01*
X027030Y008351D01*
X027137Y008244D01*
X027137Y007817D01*
X027030Y007710D01*
X026817Y007710D01*
X026710Y007817D01*
X026710Y008244D01*
X026924Y007924D02*
X027137Y007710D01*
X028710Y007710D02*
X029137Y007710D01*
X028924Y008030D02*
X028710Y008030D01*
X028710Y007710D02*
X028710Y008351D01*
X029137Y008351D01*
X030280Y007130D02*
X031080Y007130D01*
X031097Y007128D01*
X031114Y007124D01*
X031130Y007117D01*
X031144Y007107D01*
X031157Y007094D01*
X031167Y007080D01*
X031174Y007064D01*
X031178Y007047D01*
X031180Y007030D01*
X031180Y005330D01*
X031178Y005313D01*
X031174Y005296D01*
X031167Y005280D01*
X031157Y005266D01*
X031144Y005253D01*
X031130Y005243D01*
X031114Y005236D01*
X031097Y005232D01*
X031080Y005230D01*
X030280Y005230D01*
X030263Y005232D01*
X030246Y005236D01*
X030230Y005243D01*
X030216Y005253D01*
X030203Y005266D01*
X030193Y005280D01*
X030186Y005296D01*
X030182Y005313D01*
X030180Y005330D01*
X030180Y007030D01*
X030182Y007047D01*
X030186Y007064D01*
X030193Y007080D01*
X030203Y007094D01*
X030216Y007107D01*
X030230Y007117D01*
X030246Y007124D01*
X030263Y007128D01*
X030280Y007130D01*
X030680Y006330D02*
X030680Y006280D01*
X030680Y006080D02*
X030680Y006030D01*
X028930Y006680D02*
X024030Y006680D01*
X024000Y006678D01*
X023970Y006673D01*
X023941Y006664D01*
X023914Y006651D01*
X023888Y006636D01*
X023864Y006617D01*
X023843Y006596D01*
X023824Y006572D01*
X023809Y006546D01*
X023796Y006519D01*
X023787Y006490D01*
X023782Y006460D01*
X023780Y006430D01*
X023780Y002930D01*
X023782Y002900D01*
X023787Y002870D01*
X023796Y002841D01*
X023809Y002814D01*
X023824Y002788D01*
X023843Y002764D01*
X023864Y002743D01*
X023888Y002724D01*
X023914Y002709D01*
X023941Y002696D01*
X023970Y002687D01*
X024000Y002682D01*
X024030Y002680D01*
X028930Y002680D01*
X030180Y002330D02*
X030180Y004030D01*
X030182Y004047D01*
X030186Y004064D01*
X030193Y004080D01*
X030203Y004094D01*
X030216Y004107D01*
X030230Y004117D01*
X030246Y004124D01*
X030263Y004128D01*
X030280Y004130D01*
X031080Y004130D01*
X031097Y004128D01*
X031114Y004124D01*
X031130Y004117D01*
X031144Y004107D01*
X031157Y004094D01*
X031167Y004080D01*
X031174Y004064D01*
X031178Y004047D01*
X031180Y004030D01*
X031180Y002330D01*
X031178Y002313D01*
X031174Y002296D01*
X031167Y002280D01*
X031157Y002266D01*
X031144Y002253D01*
X031130Y002243D01*
X031114Y002236D01*
X031097Y002232D01*
X031080Y002230D01*
X030280Y002230D01*
X030263Y002232D01*
X030246Y002236D01*
X030230Y002243D01*
X030216Y002253D01*
X030203Y002266D01*
X030193Y002280D01*
X030186Y002296D01*
X030182Y002313D01*
X030180Y002330D01*
X030680Y003030D02*
X030680Y003080D01*
X030680Y003280D02*
X030680Y003330D01*
X024930Y003930D02*
X024930Y004310D01*
X024930Y005050D02*
X024930Y005430D01*
X012979Y018710D02*
X012552Y018710D01*
X012979Y019137D01*
X012979Y019244D01*
X012872Y019351D01*
X012659Y019351D01*
X012552Y019244D01*
X012012Y019244D02*
X011585Y018817D01*
X011692Y018710D01*
X011905Y018710D01*
X012012Y018817D01*
X012012Y019244D01*
X011905Y019351D01*
X011692Y019351D01*
X011585Y019244D01*
X011585Y018817D01*
X012230Y018817D02*
X012230Y018710D01*
X012337Y018710D01*
X012337Y018817D01*
X012230Y018817D01*
X012337Y019760D02*
X012230Y019867D01*
X012230Y020080D01*
X012337Y020187D01*
X012550Y020187D01*
X012657Y020080D01*
X012657Y019867D01*
X012550Y019760D01*
X012337Y019760D01*
X012012Y019760D02*
X011692Y019760D01*
X011585Y019867D01*
X011585Y020080D01*
X011692Y020187D01*
X012012Y020187D01*
X011370Y019867D02*
X011370Y019760D01*
X011263Y019760D01*
X011263Y019867D01*
X011370Y019867D01*
X011046Y020187D02*
X010939Y020187D01*
X010726Y019974D01*
X010726Y020187D02*
X010726Y019760D01*
X010508Y019974D02*
X010081Y019974D01*
X010081Y020080D02*
X010188Y020187D01*
X010402Y020187D01*
X010508Y020080D01*
X010508Y019974D01*
X010402Y019760D02*
X010188Y019760D01*
X010081Y019867D01*
X010081Y020080D01*
X009864Y020187D02*
X009544Y019974D01*
X009864Y019760D01*
X009544Y019760D02*
X009544Y020401D01*
X009327Y020080D02*
X009220Y020187D01*
X009006Y020187D01*
X009006Y019974D02*
X009327Y019974D01*
X009327Y020080D02*
X009327Y019760D01*
X009006Y019760D01*
X008900Y019867D01*
X009006Y019974D01*
X008682Y020080D02*
X008682Y019867D01*
X008575Y019760D01*
X008255Y019760D01*
X008255Y020401D01*
X008255Y020187D02*
X008575Y020187D01*
X008682Y020080D01*
X008038Y020080D02*
X008038Y019760D01*
X007824Y019760D02*
X007824Y020080D01*
X007931Y020187D01*
X008038Y020080D01*
X007824Y020080D02*
X007717Y020187D01*
X007610Y020187D01*
X007610Y019760D01*
X007393Y019867D02*
X007286Y019974D01*
X007073Y019974D01*
X006966Y020080D01*
X007073Y020187D01*
X007393Y020187D01*
X007393Y019867D02*
X007286Y019760D01*
X006966Y019760D01*
X006750Y019760D02*
X006644Y019760D01*
X006644Y019867D01*
X006750Y019867D01*
X006750Y019760D01*
X006426Y019867D02*
X006426Y020187D01*
X005999Y020187D02*
X005999Y019867D01*
X006106Y019760D01*
X006213Y019867D01*
X006319Y019760D01*
X006426Y019867D01*
X006212Y019351D02*
X005998Y019351D01*
X005892Y019244D01*
X005675Y019137D02*
X005568Y019137D01*
X005355Y018924D01*
X005355Y019137D02*
X005355Y018710D01*
X005137Y018924D02*
X004710Y018924D01*
X004710Y019030D02*
X004710Y018817D01*
X004817Y018710D01*
X005030Y018710D01*
X005137Y018924D02*
X005137Y019030D01*
X005030Y019137D01*
X004817Y019137D01*
X004710Y019030D01*
X004817Y019760D02*
X004924Y019867D01*
X005030Y019760D01*
X005137Y019867D01*
X005137Y020187D01*
X005355Y020187D02*
X005355Y019867D01*
X005461Y019760D01*
X005568Y019867D01*
X005675Y019760D01*
X005782Y019867D01*
X005782Y020187D01*
X004817Y019760D02*
X004710Y019867D01*
X004710Y020187D01*
X006212Y019351D02*
X006319Y019244D01*
X006319Y019137D01*
X006212Y019030D01*
X006319Y018924D01*
X006319Y018817D01*
X006212Y018710D01*
X005998Y018710D01*
X005892Y018817D01*
X006105Y019030D02*
X006212Y019030D01*
X006536Y019030D02*
X006963Y019030D01*
X007181Y018817D02*
X007608Y019244D01*
X007608Y018817D01*
X007501Y018710D01*
X007288Y018710D01*
X007181Y018817D01*
X007181Y019244D01*
X007288Y019351D01*
X007501Y019351D01*
X007608Y019244D01*
X007825Y019030D02*
X008252Y019030D01*
X008470Y019030D02*
X008897Y019030D01*
X009114Y018924D02*
X009328Y019137D01*
X009435Y019137D01*
X009652Y019030D02*
X009758Y019137D01*
X009972Y019137D01*
X010079Y019030D01*
X010079Y018924D01*
X009652Y018924D01*
X009652Y019030D02*
X009652Y018817D01*
X009758Y018710D01*
X009972Y018710D01*
X010296Y019137D02*
X010510Y018710D01*
X010723Y019137D01*
X009114Y019137D02*
X009114Y018710D01*
X008146Y018710D02*
X008146Y019351D01*
X007825Y019030D01*
X006856Y018710D02*
X006856Y019351D01*
X006536Y019030D01*
X012874Y019760D02*
X012874Y020187D01*
X012981Y020187D01*
X013088Y020080D01*
X013195Y020187D01*
X013301Y020080D01*
X013301Y019760D01*
X013088Y019760D02*
X013088Y020080D01*
D12*
X020380Y016280D02*
X020680Y016280D01*
X020980Y016280D01*
X020980Y016080D02*
X020680Y016080D01*
X020380Y016080D01*
X028880Y020580D02*
X029180Y020580D01*
X029480Y020580D01*
X029480Y020780D02*
X029180Y020780D01*
X028880Y020780D01*
X030380Y006280D02*
X030680Y006280D01*
X030980Y006280D01*
X030980Y006080D02*
X030680Y006080D01*
X030380Y006080D01*
X030380Y003280D02*
X030680Y003280D01*
X030980Y003280D01*
X030980Y003080D02*
X030680Y003080D01*
X030380Y003080D01*
X005780Y013880D02*
X005780Y014180D01*
X005780Y014480D01*
X005580Y014480D02*
X005580Y014180D01*
X005580Y013880D01*
X003780Y010480D02*
X003780Y010180D01*
X003780Y009880D01*
X003580Y009880D02*
X003580Y010180D01*
X003580Y010480D01*
D13*
X005255Y011280D02*
X005330Y011205D01*
X005480Y011205D01*
X005555Y011280D01*
X005555Y011355D01*
X005480Y011430D01*
X005330Y011430D01*
X005255Y011505D01*
X005255Y011580D01*
X005330Y011655D01*
X005480Y011655D01*
X005555Y011580D01*
X005866Y011655D02*
X006016Y011655D01*
X005941Y011655D02*
X005941Y011280D01*
X005866Y011205D01*
X005790Y011205D01*
X005715Y011280D01*
X006176Y011205D02*
X006476Y011205D01*
X006326Y011205D02*
X006326Y011655D01*
X006176Y011505D01*
X007755Y012280D02*
X007830Y012205D01*
X007980Y012205D01*
X008055Y012280D01*
X008055Y012355D01*
X007980Y012430D01*
X007830Y012430D01*
X007755Y012505D01*
X007755Y012580D01*
X007830Y012655D01*
X007980Y012655D01*
X008055Y012580D01*
X008366Y012655D02*
X008516Y012655D01*
X008441Y012655D02*
X008441Y012280D01*
X008366Y012205D01*
X008290Y012205D01*
X008215Y012280D01*
X008676Y012280D02*
X008751Y012205D01*
X008901Y012205D01*
X008976Y012280D01*
X008976Y012430D01*
X008901Y012505D01*
X008826Y012505D01*
X008676Y012430D01*
X008676Y012655D01*
X008976Y012655D01*
X008901Y013705D02*
X008901Y014155D01*
X008676Y013930D01*
X008976Y013930D01*
X008516Y014155D02*
X008366Y014155D01*
X008441Y014155D02*
X008441Y013780D01*
X008366Y013705D01*
X008290Y013705D01*
X008215Y013780D01*
X008055Y013780D02*
X007980Y013705D01*
X007830Y013705D01*
X007755Y013780D01*
X007830Y013930D02*
X007755Y014005D01*
X007755Y014080D01*
X007830Y014155D01*
X007980Y014155D01*
X008055Y014080D01*
X007980Y013930D02*
X008055Y013855D01*
X008055Y013780D01*
X007980Y013930D02*
X007830Y013930D01*
X003476Y014005D02*
X003476Y014080D01*
X003401Y014155D01*
X003251Y014155D01*
X003176Y014080D01*
X003016Y014155D02*
X002866Y014155D01*
X002941Y014155D02*
X002941Y013780D01*
X002866Y013705D01*
X002790Y013705D01*
X002715Y013780D01*
X002555Y013780D02*
X002480Y013705D01*
X002330Y013705D01*
X002255Y013780D01*
X002330Y013930D02*
X002255Y014005D01*
X002255Y014080D01*
X002330Y014155D01*
X002480Y014155D01*
X002555Y014080D01*
X002480Y013930D02*
X002555Y013855D01*
X002555Y013780D01*
X002480Y013930D02*
X002330Y013930D01*
X003176Y013705D02*
X003476Y014005D01*
X003476Y013705D02*
X003176Y013705D01*
X003251Y012655D02*
X003176Y012580D01*
X003251Y012655D02*
X003401Y012655D01*
X003476Y012580D01*
X003476Y012505D01*
X003401Y012430D01*
X003476Y012355D01*
X003476Y012280D01*
X003401Y012205D01*
X003251Y012205D01*
X003176Y012280D01*
X003326Y012430D02*
X003401Y012430D01*
X003016Y012655D02*
X002866Y012655D01*
X002941Y012655D02*
X002941Y012280D01*
X002866Y012205D01*
X002790Y012205D01*
X002715Y012280D01*
X002555Y012280D02*
X002555Y012355D01*
X002480Y012430D01*
X002330Y012430D01*
X002255Y012505D01*
X002255Y012580D01*
X002330Y012655D01*
X002480Y012655D01*
X002555Y012580D01*
X002555Y012280D02*
X002480Y012205D01*
X002330Y012205D01*
X002255Y012280D01*
X016580Y013880D02*
X016580Y010580D01*
X023780Y010580D01*
X023780Y013880D01*
X016580Y013880D01*
X021305Y016259D02*
X021380Y016184D01*
X021680Y016184D01*
X021755Y016259D01*
X021755Y016409D01*
X021680Y016484D01*
X021680Y016645D02*
X021755Y016720D01*
X021755Y016870D01*
X021680Y016945D01*
X021605Y016945D01*
X021530Y016870D01*
X021530Y016645D01*
X021680Y016645D01*
X021530Y016645D02*
X021380Y016795D01*
X021305Y016945D01*
X021380Y016484D02*
X021305Y016409D01*
X021305Y016259D01*
X024580Y012380D02*
X024580Y009080D01*
X031780Y009080D01*
X031780Y012380D01*
X024580Y012380D01*
X031755Y005945D02*
X031755Y005645D01*
X031755Y005795D02*
X031305Y005795D01*
X031455Y005645D01*
X031380Y005484D02*
X031305Y005409D01*
X031305Y005259D01*
X031380Y005184D01*
X031680Y005184D01*
X031755Y005259D01*
X031755Y005409D01*
X031680Y005484D01*
X031755Y003945D02*
X031755Y003645D01*
X031455Y003945D01*
X031380Y003945D01*
X031305Y003870D01*
X031305Y003720D01*
X031380Y003645D01*
X031380Y003484D02*
X031305Y003409D01*
X031305Y003259D01*
X031380Y003184D01*
X031680Y003184D01*
X031755Y003259D01*
X031755Y003409D01*
X031680Y003484D01*
X028095Y002055D02*
X027795Y002055D01*
X027945Y002055D02*
X027945Y002505D01*
X027795Y002355D01*
X027634Y002430D02*
X027634Y002130D01*
X027559Y002055D01*
X027409Y002055D01*
X027334Y002130D01*
X027334Y002430D01*
X027409Y002505D01*
X027559Y002505D01*
X027634Y002430D01*
X027484Y002205D02*
X027634Y002055D01*
X027048Y020355D02*
X026897Y020355D01*
X026822Y020430D01*
X026662Y020430D02*
X026587Y020355D01*
X026437Y020355D01*
X026362Y020430D01*
X026362Y020730D01*
X026437Y020805D01*
X026587Y020805D01*
X026662Y020730D01*
X026822Y020730D02*
X026897Y020805D01*
X027048Y020805D01*
X027123Y020730D01*
X027123Y020655D01*
X027048Y020580D01*
X027123Y020505D01*
X027123Y020430D01*
X027048Y020355D01*
X027048Y020580D02*
X026972Y020580D01*
X026205Y020355D02*
X026055Y020355D01*
X026130Y020355D02*
X026130Y020805D01*
X026055Y020805D02*
X026205Y020805D01*
X029805Y020759D02*
X029880Y020684D01*
X030180Y020684D01*
X030255Y020759D01*
X030255Y020909D01*
X030180Y020984D01*
X030180Y021145D02*
X030255Y021220D01*
X030255Y021370D01*
X030180Y021445D01*
X030105Y021445D01*
X030030Y021370D01*
X030030Y021295D01*
X030030Y021370D02*
X029955Y021445D01*
X029880Y021445D01*
X029805Y021370D01*
X029805Y021220D01*
X029880Y021145D01*
X029880Y020984D02*
X029805Y020909D01*
X029805Y020759D01*
X018073Y020580D02*
X017772Y020580D01*
X017998Y020805D01*
X017998Y020355D01*
X017612Y020430D02*
X017537Y020355D01*
X017387Y020355D01*
X017312Y020430D01*
X017312Y020730D01*
X017387Y020805D01*
X017537Y020805D01*
X017612Y020730D01*
X017155Y020805D02*
X017005Y020805D01*
X017080Y020805D02*
X017080Y020355D01*
X017005Y020355D02*
X017155Y020355D01*
D14*
X003145Y018605D02*
X003145Y018394D01*
X003040Y018289D01*
X002830Y018289D02*
X002725Y018499D01*
X002725Y018605D01*
X002830Y018710D01*
X003040Y018710D01*
X003145Y018605D01*
X002830Y018289D02*
X002514Y018289D01*
X002514Y018710D01*
X002620Y018065D02*
X002514Y017960D01*
X002514Y017750D01*
X002620Y017645D01*
X003040Y017645D01*
X003145Y017750D01*
X003145Y017960D01*
X003040Y018065D01*
X003145Y017425D02*
X003145Y017215D01*
X003145Y017320D02*
X002514Y017320D01*
X002514Y017215D02*
X002514Y017425D01*
D15*
X028930Y006680D02*
X028930Y002680D01*
D16*
X025430Y004310D02*
X024930Y004310D01*
X024430Y004310D01*
X024430Y004550D02*
X024430Y004800D01*
X025430Y004800D01*
X025430Y004550D01*
X024430Y004550D01*
X024430Y005050D02*
X024930Y005050D01*
X025430Y005050D01*
D17*
X022680Y018605D03*
X021680Y018605D03*
X020680Y018605D03*
X020680Y020755D03*
X021680Y020755D03*
X022680Y020755D03*
D18*
X022660Y019558D02*
X022660Y019411D01*
X022660Y019484D02*
X022440Y019484D01*
X022513Y019411D01*
X022477Y019337D02*
X022550Y019337D01*
X022587Y019300D01*
X022587Y019190D01*
X022660Y019190D02*
X022440Y019190D01*
X022440Y019300D01*
X022477Y019337D01*
X022587Y019263D02*
X022660Y019337D01*
X021660Y019337D02*
X021587Y019263D01*
X021587Y019300D02*
X021587Y019190D01*
X021660Y019190D02*
X021440Y019190D01*
X021440Y019300D01*
X021477Y019337D01*
X021550Y019337D01*
X021587Y019300D01*
X021660Y019411D02*
X021513Y019558D01*
X021477Y019558D01*
X021440Y019521D01*
X021440Y019448D01*
X021477Y019411D01*
X021660Y019411D02*
X021660Y019558D01*
X020660Y019521D02*
X020660Y019448D01*
X020623Y019411D01*
X020660Y019337D02*
X020587Y019263D01*
X020587Y019300D02*
X020587Y019190D01*
X020660Y019190D02*
X020440Y019190D01*
X020440Y019300D01*
X020477Y019337D01*
X020550Y019337D01*
X020587Y019300D01*
X020477Y019411D02*
X020440Y019448D01*
X020440Y019521D01*
X020477Y019558D01*
X020513Y019558D01*
X020550Y019521D01*
X020587Y019558D01*
X020623Y019558D01*
X020660Y019521D01*
X020550Y019521D02*
X020550Y019484D01*
M02*
