G75*
%MOIN*%
%OFA0B0*%
%FSLAX24Y24*%
%IPPOS*%
%LPD*%
%AMOC8*
5,1,8,0,0,1.08239X$1,22.5*
%
%ADD10C,0.0060*%
D10*
X003199Y017210D02*
X003626Y017210D01*
X003199Y017637D01*
X003199Y017744D01*
X003306Y017851D01*
X003520Y017851D01*
X003626Y017744D01*
X004166Y017744D02*
X004593Y017317D01*
X004486Y017210D01*
X004273Y017210D01*
X004166Y017317D01*
X004166Y017744D01*
X004273Y017851D01*
X004486Y017851D01*
X004593Y017744D01*
X004593Y017317D01*
X003949Y017317D02*
X003842Y017317D01*
X003842Y017210D01*
X003949Y017210D01*
X003949Y017317D01*
X004059Y018260D02*
X004059Y018580D01*
X004165Y018687D01*
X004272Y018580D01*
X004272Y018260D01*
X004486Y018260D02*
X004486Y018687D01*
X004379Y018687D01*
X004272Y018580D01*
X004703Y018580D02*
X004703Y018367D01*
X004810Y018260D01*
X005023Y018260D01*
X005130Y018367D01*
X005130Y018580D01*
X005023Y018687D01*
X004810Y018687D01*
X004703Y018580D01*
X005348Y018687D02*
X005668Y018687D01*
X005775Y018580D01*
X005775Y018367D01*
X005668Y018260D01*
X005348Y018260D01*
X005455Y017637D02*
X005669Y017210D01*
X005882Y017637D01*
X006100Y017530D02*
X006100Y017424D01*
X006527Y017424D01*
X006527Y017530D02*
X006420Y017637D01*
X006207Y017637D01*
X006100Y017530D01*
X006207Y017210D02*
X006420Y017210D01*
X006527Y017317D01*
X006527Y017530D01*
X006744Y017637D02*
X006850Y017637D01*
X007064Y017424D01*
X007064Y017637D02*
X007064Y017210D01*
X007926Y017530D02*
X008353Y017530D01*
X008354Y018260D02*
X008033Y018260D01*
X008033Y018580D01*
X008140Y018687D01*
X008354Y018687D01*
X008354Y018474D02*
X008033Y018474D01*
X007816Y018474D02*
X007496Y018687D01*
X007279Y018580D02*
X007279Y018367D01*
X007172Y018260D01*
X006958Y018260D01*
X006852Y018474D02*
X007279Y018474D01*
X007279Y018580D02*
X007172Y018687D01*
X006958Y018687D01*
X006852Y018580D01*
X006852Y018474D01*
X006634Y018474D02*
X006421Y018687D01*
X006314Y018687D01*
X006634Y018687D02*
X006634Y018260D01*
X006097Y018260D02*
X005990Y018260D01*
X005990Y018367D01*
X006097Y018367D01*
X006097Y018260D01*
X007496Y018260D02*
X007816Y018474D01*
X007816Y018260D02*
X007816Y018901D01*
X008354Y018474D02*
X008460Y018367D01*
X008354Y018260D01*
X008678Y018367D02*
X008678Y018580D01*
X008785Y018687D01*
X009105Y018687D01*
X009105Y018901D02*
X009105Y018260D01*
X008785Y018260D01*
X008678Y018367D01*
X009322Y018260D02*
X009322Y018580D01*
X009429Y018687D01*
X009536Y018580D01*
X009536Y018260D01*
X009750Y018260D02*
X009750Y018687D01*
X009643Y018687D01*
X009536Y018580D01*
X009967Y018687D02*
X010287Y018687D01*
X010394Y018580D01*
X010287Y018474D01*
X010074Y018474D01*
X009967Y018367D01*
X010074Y018260D01*
X010394Y018260D01*
X010610Y018260D02*
X010716Y018260D01*
X010716Y018367D01*
X010610Y018367D01*
X010610Y018260D01*
X010934Y018367D02*
X010934Y018687D01*
X010934Y018367D02*
X011041Y018260D01*
X011147Y018367D01*
X011254Y018260D01*
X011361Y018367D01*
X011361Y018687D01*
X011578Y018687D02*
X011578Y018367D01*
X011685Y018260D01*
X011792Y018367D01*
X011899Y018260D01*
X012005Y018367D01*
X012005Y018687D01*
X012223Y018687D02*
X012223Y018367D01*
X012330Y018260D01*
X012436Y018367D01*
X012543Y018260D01*
X012650Y018367D01*
X012650Y018687D01*
X012543Y017637D02*
X012330Y017637D01*
X012223Y017530D01*
X012223Y017424D01*
X012650Y017424D01*
X012650Y017530D02*
X012543Y017637D01*
X012650Y017530D02*
X012650Y017317D01*
X012543Y017210D01*
X012330Y017210D01*
X011899Y017317D02*
X011899Y017744D01*
X012005Y017637D02*
X011792Y017637D01*
X011576Y017744D02*
X011469Y017851D01*
X011255Y017851D01*
X011149Y017744D01*
X011149Y017637D01*
X011255Y017530D01*
X011149Y017424D01*
X011149Y017317D01*
X011255Y017210D01*
X011469Y017210D01*
X011576Y017317D01*
X011792Y017210D02*
X011899Y017317D01*
X011362Y017530D02*
X011255Y017530D01*
X010931Y017530D02*
X010504Y017530D01*
X010287Y017317D02*
X009860Y017744D01*
X009860Y017317D01*
X009966Y017210D01*
X010180Y017210D01*
X010287Y017317D01*
X010287Y017744D01*
X010180Y017851D01*
X009966Y017851D01*
X009860Y017744D01*
X009642Y017530D02*
X009215Y017530D01*
X009322Y017210D02*
X009322Y017851D01*
X009642Y017530D01*
X010611Y017210D02*
X010611Y017851D01*
X010931Y017530D01*
M02*
