G75*
%MOIN*%
%OFA0B0*%
%FSLAX24Y24*%
%IPPOS*%
%LPD*%
%AMOC8*
5,1,8,0,0,1.08239X$1,22.5*
%
%ADD10C,0.0000*%
D10*
X000680Y000680D02*
X000680Y022176D01*
X032050Y022176D01*
X032050Y000680D01*
X000680Y000680D01*
X017005Y012230D02*
X017007Y012267D01*
X017013Y012304D01*
X017023Y012340D01*
X017036Y012375D01*
X017053Y012408D01*
X017074Y012439D01*
X017098Y012467D01*
X017125Y012493D01*
X017154Y012516D01*
X017185Y012536D01*
X017219Y012552D01*
X017254Y012565D01*
X017290Y012574D01*
X017327Y012579D01*
X017364Y012580D01*
X017401Y012577D01*
X017438Y012570D01*
X017474Y012559D01*
X017508Y012545D01*
X017541Y012527D01*
X017571Y012505D01*
X017599Y012481D01*
X017624Y012453D01*
X017647Y012423D01*
X017666Y012391D01*
X017681Y012357D01*
X017693Y012322D01*
X017701Y012286D01*
X017705Y012249D01*
X017705Y012211D01*
X017701Y012174D01*
X017693Y012138D01*
X017681Y012103D01*
X017666Y012069D01*
X017647Y012037D01*
X017624Y012007D01*
X017599Y011979D01*
X017571Y011955D01*
X017541Y011933D01*
X017508Y011915D01*
X017474Y011901D01*
X017438Y011890D01*
X017401Y011883D01*
X017364Y011880D01*
X017327Y011881D01*
X017290Y011886D01*
X017254Y011895D01*
X017219Y011908D01*
X017185Y011924D01*
X017154Y011944D01*
X017125Y011967D01*
X017098Y011993D01*
X017074Y012021D01*
X017053Y012052D01*
X017036Y012085D01*
X017023Y012120D01*
X017013Y012156D01*
X017007Y012193D01*
X017005Y012230D01*
X022655Y012230D02*
X022657Y012267D01*
X022663Y012304D01*
X022673Y012340D01*
X022686Y012375D01*
X022703Y012408D01*
X022724Y012439D01*
X022748Y012467D01*
X022775Y012493D01*
X022804Y012516D01*
X022835Y012536D01*
X022869Y012552D01*
X022904Y012565D01*
X022940Y012574D01*
X022977Y012579D01*
X023014Y012580D01*
X023051Y012577D01*
X023088Y012570D01*
X023124Y012559D01*
X023158Y012545D01*
X023191Y012527D01*
X023221Y012505D01*
X023249Y012481D01*
X023274Y012453D01*
X023297Y012423D01*
X023316Y012391D01*
X023331Y012357D01*
X023343Y012322D01*
X023351Y012286D01*
X023355Y012249D01*
X023355Y012211D01*
X023351Y012174D01*
X023343Y012138D01*
X023331Y012103D01*
X023316Y012069D01*
X023297Y012037D01*
X023274Y012007D01*
X023249Y011979D01*
X023221Y011955D01*
X023191Y011933D01*
X023158Y011915D01*
X023124Y011901D01*
X023088Y011890D01*
X023051Y011883D01*
X023014Y011880D01*
X022977Y011881D01*
X022940Y011886D01*
X022904Y011895D01*
X022869Y011908D01*
X022835Y011924D01*
X022804Y011944D01*
X022775Y011967D01*
X022748Y011993D01*
X022724Y012021D01*
X022703Y012052D01*
X022686Y012085D01*
X022673Y012120D01*
X022663Y012156D01*
X022657Y012193D01*
X022655Y012230D01*
X025005Y010730D02*
X025007Y010767D01*
X025013Y010804D01*
X025023Y010840D01*
X025036Y010875D01*
X025053Y010908D01*
X025074Y010939D01*
X025098Y010967D01*
X025125Y010993D01*
X025154Y011016D01*
X025185Y011036D01*
X025219Y011052D01*
X025254Y011065D01*
X025290Y011074D01*
X025327Y011079D01*
X025364Y011080D01*
X025401Y011077D01*
X025438Y011070D01*
X025474Y011059D01*
X025508Y011045D01*
X025541Y011027D01*
X025571Y011005D01*
X025599Y010981D01*
X025624Y010953D01*
X025647Y010923D01*
X025666Y010891D01*
X025681Y010857D01*
X025693Y010822D01*
X025701Y010786D01*
X025705Y010749D01*
X025705Y010711D01*
X025701Y010674D01*
X025693Y010638D01*
X025681Y010603D01*
X025666Y010569D01*
X025647Y010537D01*
X025624Y010507D01*
X025599Y010479D01*
X025571Y010455D01*
X025541Y010433D01*
X025508Y010415D01*
X025474Y010401D01*
X025438Y010390D01*
X025401Y010383D01*
X025364Y010380D01*
X025327Y010381D01*
X025290Y010386D01*
X025254Y010395D01*
X025219Y010408D01*
X025185Y010424D01*
X025154Y010444D01*
X025125Y010467D01*
X025098Y010493D01*
X025074Y010521D01*
X025053Y010552D01*
X025036Y010585D01*
X025023Y010620D01*
X025013Y010656D01*
X025007Y010693D01*
X025005Y010730D01*
X030655Y010730D02*
X030657Y010767D01*
X030663Y010804D01*
X030673Y010840D01*
X030686Y010875D01*
X030703Y010908D01*
X030724Y010939D01*
X030748Y010967D01*
X030775Y010993D01*
X030804Y011016D01*
X030835Y011036D01*
X030869Y011052D01*
X030904Y011065D01*
X030940Y011074D01*
X030977Y011079D01*
X031014Y011080D01*
X031051Y011077D01*
X031088Y011070D01*
X031124Y011059D01*
X031158Y011045D01*
X031191Y011027D01*
X031221Y011005D01*
X031249Y010981D01*
X031274Y010953D01*
X031297Y010923D01*
X031316Y010891D01*
X031331Y010857D01*
X031343Y010822D01*
X031351Y010786D01*
X031355Y010749D01*
X031355Y010711D01*
X031351Y010674D01*
X031343Y010638D01*
X031331Y010603D01*
X031316Y010569D01*
X031297Y010537D01*
X031274Y010507D01*
X031249Y010479D01*
X031221Y010455D01*
X031191Y010433D01*
X031158Y010415D01*
X031124Y010401D01*
X031088Y010390D01*
X031051Y010383D01*
X031014Y010380D01*
X030977Y010381D01*
X030940Y010386D01*
X030904Y010395D01*
X030869Y010408D01*
X030835Y010424D01*
X030804Y010444D01*
X030775Y010467D01*
X030748Y010493D01*
X030724Y010521D01*
X030703Y010552D01*
X030686Y010585D01*
X030673Y010620D01*
X030663Y010656D01*
X030657Y010693D01*
X030655Y010730D01*
M02*
