G75*
%MOIN*%
%OFA0B0*%
%FSLAX24Y24*%
%IPPOS*%
%LPD*%
%AMOC8*
5,1,8,0,0,1.08239X$1,22.5*
%
%ADD10OC8,0.0520*%
%ADD11C,0.0520*%
%ADD12C,0.0520*%
%ADD13R,0.0675X0.0675*%
%ADD14R,0.0460X0.0630*%
%ADD15OC8,0.0600*%
%ADD16C,0.0100*%
%ADD17C,0.0400*%
%ADD18C,0.0240*%
D10*
X003180Y010180D03*
X004180Y010180D03*
X005180Y014180D03*
X006180Y014180D03*
X020680Y015680D03*
X020680Y016680D03*
X020680Y018180D03*
X021680Y018180D03*
X022680Y018180D03*
X022680Y021180D03*
X021680Y021180D03*
X020680Y021180D03*
X029180Y021180D03*
X029180Y020180D03*
X030680Y006680D03*
X030680Y005680D03*
X030680Y003680D03*
X030680Y002680D03*
D11*
X001680Y001940D02*
X001680Y001420D01*
X002680Y001420D02*
X002680Y001940D01*
X003680Y001940D02*
X003680Y001420D01*
X004680Y001420D02*
X004680Y001940D01*
X005680Y001940D02*
X005680Y001420D01*
X006680Y001420D02*
X006680Y001940D01*
X007680Y001940D02*
X007680Y001420D01*
X008680Y001420D02*
X008680Y001940D01*
X009680Y001940D02*
X009680Y001420D01*
X010680Y001420D02*
X010680Y001940D01*
X011680Y001940D02*
X011680Y001420D01*
X012680Y001420D02*
X012680Y001940D01*
X013680Y001940D02*
X013680Y001420D01*
X014680Y001420D02*
X014680Y001940D01*
X015680Y001940D02*
X015680Y001420D01*
X016680Y001420D02*
X016680Y001940D01*
X017680Y001940D02*
X017680Y001420D01*
X018680Y001420D02*
X018680Y001940D01*
X019680Y001940D02*
X019680Y001420D01*
X020680Y001420D02*
X020680Y001940D01*
X020680Y002920D02*
X020680Y003440D01*
X019680Y003440D02*
X019680Y002920D01*
X018680Y002920D02*
X018680Y003440D01*
X017680Y003440D02*
X017680Y002920D01*
X016680Y002920D02*
X016680Y003440D01*
X015680Y003440D02*
X015680Y002920D01*
X014680Y002920D02*
X014680Y003440D01*
X013680Y003440D02*
X013680Y002920D01*
X012680Y002920D02*
X012680Y003440D01*
X011680Y003440D02*
X011680Y002920D01*
X010680Y002920D02*
X010680Y003440D01*
X009680Y003440D02*
X009680Y002920D01*
X008680Y002920D02*
X008680Y003440D01*
X007680Y003440D02*
X007680Y002920D01*
X006680Y002920D02*
X006680Y003440D01*
X005680Y003440D02*
X005680Y002920D01*
X004680Y002920D02*
X004680Y003440D01*
X003680Y003440D02*
X003680Y002920D01*
X002680Y002920D02*
X002680Y003440D01*
X002680Y007420D02*
X002680Y007940D01*
X001680Y007940D02*
X001680Y007420D01*
X003680Y007420D02*
X003680Y007940D01*
X004680Y007940D02*
X004680Y007420D01*
X005680Y007420D02*
X005680Y007940D01*
X006680Y007940D02*
X006680Y007420D01*
X007680Y007420D02*
X007680Y007940D01*
X008680Y007940D02*
X008680Y007420D01*
X009680Y007420D02*
X009680Y007940D01*
X010680Y007940D02*
X010680Y007420D01*
X011680Y007420D02*
X011680Y007940D01*
X012680Y007940D02*
X012680Y007420D01*
X013680Y007420D02*
X013680Y007940D01*
X014680Y007940D02*
X014680Y007420D01*
X015680Y007420D02*
X015680Y007940D01*
X016680Y007940D02*
X016680Y007420D01*
X017680Y007420D02*
X017680Y007940D01*
X018680Y007940D02*
X018680Y007420D01*
X019680Y007420D02*
X019680Y007940D01*
X020680Y007940D02*
X020680Y007420D01*
X020680Y008920D02*
X020680Y009440D01*
X019680Y009440D02*
X019680Y008920D01*
X018680Y008920D02*
X018680Y009440D01*
X017680Y009440D02*
X017680Y008920D01*
X016680Y008920D02*
X016680Y009440D01*
X015680Y009440D02*
X015680Y008920D01*
X014680Y008920D02*
X014680Y009440D01*
X013680Y009440D02*
X013680Y008920D01*
X012680Y008920D02*
X012680Y009440D01*
X011680Y009440D02*
X011680Y008920D01*
X010680Y008920D02*
X010680Y009440D01*
X009680Y009440D02*
X009680Y008920D01*
X008680Y008920D02*
X008680Y009440D01*
X007680Y009440D02*
X007680Y008920D01*
X006680Y008920D02*
X006680Y009440D01*
X005680Y009440D02*
X005680Y008920D01*
X004680Y008920D02*
X004680Y009440D01*
X003680Y009440D02*
X003680Y008920D01*
X002680Y008920D02*
X002680Y009440D01*
X002680Y014920D02*
X002680Y015440D01*
X001680Y015440D02*
X001680Y014920D01*
X003680Y014920D02*
X003680Y015440D01*
X004680Y015440D02*
X004680Y014920D01*
X005680Y014920D02*
X005680Y015440D01*
X006680Y015440D02*
X006680Y014920D01*
X007680Y014920D02*
X007680Y015440D01*
X008680Y015440D02*
X008680Y014920D01*
X009680Y014920D02*
X009680Y015440D01*
X010680Y015440D02*
X010680Y014920D01*
X011680Y014920D02*
X011680Y015440D01*
X012680Y015440D02*
X012680Y014920D01*
X013680Y014920D02*
X013680Y015440D01*
X014680Y015440D02*
X014680Y014920D01*
X015920Y015180D02*
X016440Y015180D01*
X016440Y016180D02*
X015920Y016180D01*
X015920Y017180D02*
X016440Y017180D01*
X016440Y018180D02*
X015920Y018180D01*
X015920Y019180D02*
X016440Y019180D01*
X016440Y020180D02*
X015920Y020180D01*
X015920Y021180D02*
X016440Y021180D01*
X014680Y020920D02*
X014680Y021440D01*
X013680Y021440D02*
X013680Y020920D01*
X012680Y020920D02*
X012680Y021440D01*
X011680Y021440D02*
X011680Y020920D01*
X010680Y020920D02*
X010680Y021440D01*
X009680Y021440D02*
X009680Y020920D01*
X008680Y020920D02*
X008680Y021440D01*
X007680Y021440D02*
X007680Y020920D01*
X006680Y020920D02*
X006680Y021440D01*
X005680Y021440D02*
X005680Y020920D01*
X004680Y020920D02*
X004680Y021440D01*
X003680Y021440D02*
X003680Y020920D01*
X002680Y020920D02*
X002680Y021440D01*
X001680Y021440D02*
X001680Y020920D01*
X018920Y021180D02*
X019440Y021180D01*
X019440Y020180D02*
X018920Y020180D01*
X018920Y019180D02*
X019440Y019180D01*
X019440Y018180D02*
X018920Y018180D01*
X018920Y017180D02*
X019440Y017180D01*
X019440Y016180D02*
X018920Y016180D01*
X018920Y015180D02*
X019440Y015180D01*
X024920Y015180D02*
X025440Y015180D01*
X025440Y014180D02*
X024920Y014180D01*
X024920Y016180D02*
X025440Y016180D01*
X025440Y017180D02*
X024920Y017180D01*
X024920Y018180D02*
X025440Y018180D01*
X025440Y019180D02*
X024920Y019180D01*
X024920Y020180D02*
X025440Y020180D01*
X025440Y021180D02*
X024920Y021180D01*
X027920Y021180D02*
X028440Y021180D01*
X028440Y020180D02*
X027920Y020180D01*
X027920Y019180D02*
X028440Y019180D01*
X028440Y018180D02*
X027920Y018180D01*
X027920Y017180D02*
X028440Y017180D01*
X028440Y016180D02*
X027920Y016180D01*
X027920Y015180D02*
X028440Y015180D01*
X028440Y014180D02*
X027920Y014180D01*
X021680Y009440D02*
X021680Y008920D01*
X021680Y003440D02*
X021680Y002920D01*
D12*
X029680Y003730D03*
X029680Y005630D03*
D13*
X029680Y009680D03*
X028680Y009680D03*
X027680Y009680D03*
X026680Y009680D03*
X021680Y011180D03*
X020680Y011180D03*
X019680Y011180D03*
X018680Y011180D03*
D14*
X009280Y011680D03*
X008680Y011680D03*
X008080Y011680D03*
X006780Y010680D03*
X006180Y010680D03*
X005580Y010680D03*
X003780Y011680D03*
X003180Y011680D03*
X002580Y011680D03*
X002580Y013180D03*
X003180Y013180D03*
X003780Y013180D03*
X008080Y013180D03*
X008680Y013180D03*
X009280Y013180D03*
D15*
X030680Y007680D03*
X030680Y001680D03*
D16*
X030680Y003680D02*
X029680Y003680D01*
X029680Y003730D01*
X029680Y003743D01*
X027993Y005430D01*
X005993Y005430D01*
X005805Y005243D01*
X006243Y004993D02*
X006680Y004555D01*
X008555Y004555D01*
X009243Y003868D01*
X010805Y003868D01*
X011243Y003430D01*
X011243Y002493D01*
X014430Y002493D01*
X014461Y002461D01*
X013680Y001680D01*
X014680Y001680D02*
X015493Y002493D01*
X015993Y002493D01*
X016680Y003180D01*
X016555Y003118D01*
X015805Y003868D01*
X012180Y003868D01*
X011868Y004180D01*
X012618Y004930D02*
X012430Y005118D01*
X008305Y005118D01*
X008243Y005055D01*
X008868Y004743D02*
X009055Y004555D01*
X015618Y004555D01*
X014993Y004930D02*
X019743Y004930D01*
X021555Y003118D01*
X021680Y003180D01*
X020993Y002493D01*
X020493Y002493D01*
X019680Y001680D01*
X019493Y002493D02*
X019993Y002493D01*
X020680Y003180D01*
X019680Y003180D02*
X018993Y002493D01*
X018493Y002493D01*
X017680Y001680D01*
X017493Y002493D02*
X017993Y002493D01*
X018680Y003180D01*
X017680Y003180D02*
X016993Y002493D01*
X016493Y002493D01*
X015680Y001680D01*
X016680Y001680D02*
X017493Y002493D01*
X018680Y001680D02*
X019493Y002493D01*
X015680Y003180D02*
X014993Y002493D01*
X014493Y002493D01*
X014461Y002461D01*
X014993Y004930D02*
X014868Y005055D01*
X016805Y006368D02*
X017430Y006993D01*
X020805Y006993D01*
X022555Y008743D01*
X020680Y009180D02*
X019493Y010368D01*
X010493Y010368D01*
X010305Y010180D01*
X010118Y009868D02*
X010180Y009805D01*
X010493Y009805D01*
X010555Y009868D01*
X012055Y009868D01*
X012555Y009868D02*
X011805Y009118D01*
X011680Y009180D01*
X012680Y008180D01*
X012680Y007680D01*
X013680Y007680D02*
X014118Y007680D01*
X014118Y009430D01*
X014555Y009868D01*
X014993Y009868D01*
X015118Y009993D01*
X014680Y009180D02*
X014680Y008680D01*
X015680Y007680D01*
X015993Y006993D02*
X016680Y007680D01*
X015993Y006993D02*
X014305Y006993D01*
X014243Y007055D01*
X013180Y006743D02*
X003243Y006743D01*
X003243Y007930D01*
X002805Y008368D01*
X002180Y008368D01*
X002180Y013555D01*
X002805Y014180D01*
X003743Y014180D01*
X003743Y013180D01*
X003780Y013180D01*
X008080Y013180D01*
X008680Y013180D02*
X008680Y012555D01*
X008868Y012555D01*
X008680Y012243D02*
X008430Y012243D01*
X008118Y012555D01*
X008680Y012243D02*
X008680Y011680D01*
X008118Y011680D02*
X008080Y011680D01*
X003780Y011680D01*
X003180Y011680D02*
X003180Y011055D01*
X003743Y010305D02*
X003743Y009868D01*
X003805Y009868D01*
X004243Y009430D01*
X004243Y008430D01*
X006930Y008430D01*
X007680Y007680D01*
X008243Y006993D02*
X011055Y006993D01*
X011180Y007118D01*
X010680Y007680D02*
X010680Y008180D01*
X009680Y009180D01*
X010118Y009868D02*
X008805Y009868D01*
X008493Y010180D01*
X007805Y009868D02*
X008243Y009430D01*
X008243Y006993D01*
X007118Y005993D02*
X022555Y005993D01*
X020680Y007680D02*
X019680Y008680D01*
X019680Y009180D01*
X017368Y010743D02*
X018430Y011805D01*
X019993Y011805D01*
X021555Y013368D01*
X025305Y013368D01*
X027180Y015243D01*
X026555Y015118D02*
X025243Y015118D01*
X025180Y015180D01*
X024930Y015618D02*
X028555Y015618D01*
X028868Y015305D01*
X028868Y014180D01*
X028180Y014180D01*
X028180Y015180D02*
X026055Y013055D01*
X022555Y013055D01*
X020680Y011180D01*
X019680Y011180D02*
X020930Y012430D01*
X021118Y012430D01*
X020555Y013555D02*
X023305Y013555D01*
X024243Y014493D01*
X024930Y015618D02*
X022930Y017618D01*
X015930Y017618D01*
X015618Y017930D01*
X006493Y017930D01*
X006243Y017680D01*
X006618Y017368D02*
X006430Y017180D01*
X003555Y017180D01*
X002118Y015743D01*
X002118Y013805D01*
X001993Y013680D01*
X001993Y008180D01*
X002243Y007930D01*
X002243Y006618D01*
X003055Y006618D01*
X003305Y006368D01*
X012618Y006368D01*
X009680Y007680D02*
X008680Y008680D01*
X008680Y009180D01*
X007805Y009868D02*
X007055Y009868D01*
X006868Y010055D01*
X006930Y010555D02*
X024368Y010555D01*
X024993Y009930D01*
X026055Y009930D01*
X026305Y010180D01*
X028180Y010180D01*
X028680Y009680D01*
X029680Y009680D01*
X029680Y015493D01*
X028555Y016618D01*
X025743Y016618D01*
X025180Y017180D01*
X027743Y018743D02*
X028180Y019180D01*
X028555Y019618D02*
X028868Y019305D01*
X028868Y017180D01*
X028180Y017180D01*
X028180Y016180D02*
X028555Y015805D01*
X028680Y015805D01*
X029055Y015430D01*
X029055Y011555D01*
X023493Y011555D01*
X023118Y011180D01*
X021680Y011180D01*
X018680Y012180D02*
X021743Y015243D01*
X022555Y015243D01*
X019180Y015180D02*
X017493Y015180D01*
X017305Y015368D01*
X016180Y016180D02*
X011680Y016180D01*
X011118Y016743D01*
X010868Y016993D02*
X010993Y017118D01*
X013055Y017118D01*
X013618Y016555D01*
X015493Y017743D02*
X016055Y017180D01*
X016180Y017180D01*
X015493Y017743D02*
X008493Y017743D01*
X008243Y017493D01*
X007680Y015993D02*
X008243Y015430D01*
X008243Y014118D01*
X014493Y014118D01*
X014618Y014243D01*
X015055Y013680D02*
X013555Y012180D01*
X011618Y012180D01*
X010368Y010930D01*
X007805Y010930D01*
X007430Y011305D01*
X006680Y011305D01*
X006180Y011305D02*
X006180Y010680D01*
X006780Y010680D02*
X006805Y010680D01*
X006930Y010555D01*
X007305Y010930D02*
X007493Y010743D01*
X017368Y010743D01*
X017430Y011118D02*
X017118Y011118D01*
X017430Y011118D02*
X018180Y011868D01*
X018180Y012805D01*
X017680Y013305D01*
X017930Y013555D02*
X017805Y013680D01*
X015055Y013680D01*
X014743Y011868D02*
X015493Y011118D01*
X014618Y011118D02*
X012743Y011118D01*
X012055Y011805D01*
X011555Y012368D02*
X011305Y012368D01*
X011555Y012368D02*
X012618Y013430D01*
X010993Y014493D02*
X010305Y014493D01*
X010993Y014493D02*
X011680Y015180D01*
X010868Y016993D02*
X003680Y016993D01*
X003680Y015180D01*
X003180Y013805D02*
X003180Y013180D01*
X005680Y011305D02*
X005680Y010680D01*
X005580Y010680D01*
X005555Y010680D01*
X005493Y010618D01*
X004055Y010618D01*
X003743Y010305D01*
X002680Y009180D02*
X003493Y008368D01*
X003993Y008368D01*
X004680Y007680D01*
X003118Y005993D02*
X002680Y006430D01*
X002118Y006430D01*
X001243Y007305D01*
X001243Y018618D01*
X017805Y018618D01*
X018805Y019618D01*
X028555Y019618D01*
X027743Y018743D02*
X021243Y018743D01*
X020680Y018180D01*
X019805Y018618D02*
X018805Y018618D01*
X018618Y018430D01*
X016430Y018430D01*
X016180Y018180D01*
X017243Y018993D02*
X016618Y019618D01*
X011180Y019618D01*
X011118Y019555D01*
X006555Y019555D01*
X006555Y020055D01*
X007680Y021180D01*
X006680Y021180D02*
X005993Y020493D01*
X005743Y020493D01*
X004243Y018993D01*
X006930Y019930D02*
X015118Y019930D01*
X015805Y020618D01*
X017180Y020618D01*
X017930Y021618D02*
X018930Y020618D01*
X019805Y020618D01*
X017930Y021618D02*
X015493Y021618D01*
X015493Y021180D01*
X014430Y020118D01*
X009743Y020118D01*
X008680Y021180D01*
X010305Y020493D02*
X011993Y020493D01*
X012680Y021180D01*
X011868Y019243D02*
X012118Y018993D01*
X015055Y018993D01*
X018743Y015743D02*
X019180Y016180D01*
X018743Y015743D02*
X015805Y015743D01*
X015680Y015868D01*
X009305Y015868D01*
X009243Y015805D01*
X008118Y011680D02*
X008118Y011180D01*
X010118Y011180D01*
X010243Y011305D01*
X012555Y009868D02*
X013493Y009868D01*
X013618Y009993D01*
X017930Y013555D02*
X019180Y013555D01*
X026680Y009680D02*
X027680Y009680D01*
X029680Y005680D02*
X029680Y005630D01*
X029680Y005618D01*
X002618Y005618D01*
X002243Y005993D01*
X004243Y004368D02*
X007243Y004368D01*
X007680Y003930D01*
X007680Y003180D01*
X007493Y002493D02*
X007993Y002493D01*
X008680Y003180D01*
X009493Y002493D02*
X009993Y002493D01*
X010680Y003180D01*
X009493Y002493D02*
X008680Y001680D01*
X007493Y002493D02*
X006680Y001680D01*
X005805Y002493D02*
X006243Y002930D01*
X006243Y003993D01*
X007118Y003993D01*
X005680Y003180D02*
X004993Y002493D01*
X004493Y002493D01*
X003680Y001680D01*
X003805Y002493D02*
X003493Y002493D01*
X002680Y001680D01*
X003805Y002493D02*
X004243Y002930D01*
X004243Y004368D01*
X005493Y002493D02*
X005805Y002493D01*
X005493Y002493D02*
X004680Y001680D01*
X029680Y005680D02*
X030680Y005680D01*
D17*
X022555Y005993D03*
X022555Y008743D03*
X018680Y012180D03*
X017680Y013305D03*
X018868Y013930D03*
X019180Y013555D03*
X020555Y013555D03*
X021118Y012430D03*
X024243Y014493D03*
X022555Y015243D03*
X026555Y015118D03*
X027180Y015243D03*
X019805Y018618D03*
X017243Y018993D03*
X017180Y020618D03*
X015055Y018993D03*
X011868Y019243D03*
X010305Y020493D03*
X006930Y019930D03*
X004243Y018993D03*
X006243Y017680D03*
X006618Y017368D03*
X008243Y017493D03*
X009055Y016430D03*
X009243Y015805D03*
X007680Y015993D03*
X009993Y017368D03*
X011118Y016743D03*
X013618Y016555D03*
X014618Y014243D03*
X012618Y013430D03*
X011305Y012368D03*
X012055Y011805D03*
X010243Y011305D03*
X010305Y010180D03*
X008493Y010180D03*
X007305Y010930D03*
X006680Y011305D03*
X006180Y011305D03*
X005680Y011305D03*
X006868Y010055D03*
X006180Y009743D03*
X003180Y011055D03*
X005618Y012805D03*
X004243Y013680D03*
X003180Y013805D03*
X004805Y015993D03*
X008118Y012555D03*
X008868Y012555D03*
X010305Y014493D03*
X014743Y011868D03*
X014618Y011118D03*
X015493Y011118D03*
X015118Y009993D03*
X013618Y009993D03*
X012055Y009868D03*
X011180Y007118D03*
X012618Y006368D03*
X013180Y006743D03*
X014243Y007055D03*
X016805Y006368D03*
X014868Y005055D03*
X015618Y004555D03*
X012618Y004930D03*
X011868Y004180D03*
X008868Y004743D03*
X008243Y005055D03*
X007118Y005993D03*
X005805Y005243D03*
X006243Y004993D03*
X007118Y003993D03*
X003118Y005993D03*
X002243Y005993D03*
X017118Y011118D03*
X017305Y015368D03*
X019805Y020618D03*
D18*
X019180Y021180D02*
X020680Y021180D01*
X021680Y021180D01*
X022680Y021180D01*
X023180Y020680D01*
X027680Y020680D01*
X028180Y021180D01*
X029180Y021180D01*
X029180Y020180D02*
X028180Y020180D01*
X023680Y015680D02*
X020680Y015680D01*
X019680Y016680D01*
X015743Y016680D01*
X015055Y017368D01*
X009993Y017368D01*
X009055Y016430D02*
X006180Y016430D01*
X006180Y014180D01*
X006430Y013743D02*
X006368Y013680D01*
X004243Y013680D01*
X004743Y014180D01*
X005180Y014180D01*
X005180Y015618D01*
X004805Y015993D01*
X006430Y013743D02*
X009180Y013743D01*
X009305Y013868D01*
X012805Y013868D01*
X012868Y013805D01*
X014805Y013805D01*
X014930Y013930D01*
X018868Y013930D01*
X019680Y014680D02*
X020680Y015680D01*
X020680Y016680D02*
X020305Y017055D01*
X019305Y017055D01*
X019180Y017180D01*
X016680Y014680D02*
X016180Y015180D01*
X014680Y015180D01*
X016680Y014680D02*
X019680Y014680D01*
X023680Y015680D02*
X025180Y014180D01*
X026180Y009180D02*
X021680Y009180D01*
X026180Y009180D02*
X027680Y007680D01*
X030680Y007680D01*
X030680Y006680D01*
X030680Y002680D02*
X030680Y001680D01*
X009680Y003180D02*
X008930Y002430D01*
X008430Y002430D01*
X007680Y001680D01*
X002680Y003180D02*
X001680Y003180D01*
X001680Y001680D01*
X006180Y009743D02*
X005805Y010118D01*
X004243Y010118D01*
X004180Y010180D01*
X003180Y010180D02*
X002680Y010680D01*
X002680Y011618D01*
X002580Y011680D01*
X002618Y011680D01*
X002618Y012618D01*
X005430Y012618D01*
X005618Y012805D01*
X002618Y012618D02*
X002618Y013180D01*
X002580Y013180D01*
X009180Y013243D02*
X009280Y013180D01*
X009305Y013180D01*
X009305Y011680D01*
X009280Y011680D01*
X009180Y013243D02*
X009180Y013743D01*
X002680Y021180D02*
X001680Y021180D01*
M02*
