%
M48
M72
T01C0.0240
T02C0.0320
T03C0.0360
T04C0.0394
T05C0.0400
T06C0.0900
T07C0.1083
T08C0.1250
T09C0.1300
%
T01
X3555Y3618
X4493Y2805
X2493Y4180
X1430Y4743
X4055Y6368
X6305Y6368
X6680Y6743
X6680Y7743
X6680Y8493
X7680Y8805
X8055Y9805
X7680Y10555
X7305Y11555
X7305Y12680
X6243Y12618
X4305Y11055
X5868Y10805
X3930Y8180
X2680Y10055
X6993Y4805
X7555Y4243
X10430Y5555
X9618Y11805
X9180Y12555
X9243Y14243
X9993Y14680
X10555Y16180
X8368Y16555
X11368Y18930
X11430Y19930
X13243Y20555
X16805Y18180
X18555Y18680
X18930Y17805
X18618Y17055
X20055Y18118
X20430Y17243
X20618Y15868
X18118Y14743
X16430Y13368
X15493Y13743
X15368Y15243
X11743Y13680
X18305Y10618
X18555Y9618
X18555Y8618
X20118Y6243
X22555Y5180
X25118Y5618
X26243Y12243
X24680Y14743
X20618Y12618
X24680Y18243
X26368Y18243
X22743Y18680
X22368Y19555
X20618Y19118
X19618Y21618
X17743Y20743
X19805Y23118
X21305Y23430
X20743Y24430
X19430Y24868
X17118Y25868
X15805Y24243
X12368Y27368
X12368Y28868
X15180Y28493
X15180Y30305
X17618Y29743
X18368Y27868
X19368Y27493
X22118Y27493
X22118Y25305
X22993Y23805
X24243Y24680
X24993Y24055
X27368Y22368
X30618Y24368
X31618Y20493
X25368Y27118
X24868Y28743
X24430Y30430
X32368Y30430
X15680Y32680
X13680Y32680
X10368Y25493
X9055Y24680
X8868Y20118
X4743Y19868
X4743Y16868
T02
X5680Y18180
X6680Y18180
X7680Y18180
X8680Y18180
X9680Y18180
X10680Y18180
X11680Y18180
X12680Y18180
X13680Y18180
X14680Y18180
X16680Y19180
X16680Y20180
X16680Y21180
X16680Y22180
X16680Y23180
X16680Y24180
X16680Y25180
X15680Y26680
X16680Y27680
X16680Y28680
X15680Y29680
X14180Y29680
X13180Y29680
X12180Y29680
X11180Y29680
X10180Y29680
X9180Y29680
X8180Y29680
X8180Y26680
X9180Y26680
X10180Y26680
X11180Y26680
X12180Y26680
X13180Y26680
X14180Y26680
X13680Y24680
X12680Y24680
X9180Y22180
X8180Y22180
X7680Y21180
X6680Y21180
X5680Y21180
X8680Y21180
X9680Y21180
X10680Y21180
X11680Y21180
X12680Y21180
X13680Y21180
X14680Y21180
X11180Y16680
X10180Y16680
X11180Y15180
X11180Y14180
X11180Y13180
X11180Y12180
X11180Y11180
X11180Y10180
X11180Y9180
X11180Y8180
X11180Y7180
X11180Y6180
X11180Y5180
X11180Y4180
X11180Y3180
X11180Y2180
X13180Y2180
X13180Y3180
X13180Y4180
X13180Y5180
X13180Y6180
X13180Y7180
X13180Y8180
X13180Y9180
X13180Y10180
X13180Y11180
X13180Y12180
X13180Y13180
X13180Y14180
X13180Y15180
X18180Y16680
X19180Y16680
X19180Y15180
X19180Y14180
X19180Y13180
X19180Y12180
X19180Y11180
X19180Y10180
X19180Y9180
X19180Y8180
X19180Y7180
X19180Y6180
X19180Y5180
X19180Y4180
X19180Y3180
X19180Y2180
X20680Y2680
X21680Y3180
X20680Y3680
X21680Y4180
X21680Y5180
X21680Y6180
X21680Y7180
X21680Y8180
X21680Y9180
X21680Y10180
X21680Y11180
X21680Y12180
X21680Y13180
X21680Y14180
X21680Y15180
X21680Y16180
X21680Y17180
X21680Y18180
X21680Y19180
X21680Y20180
X21680Y21180
X23680Y23180
X23680Y24180
X23680Y25180
X23680Y26180
X23680Y27180
X23680Y28180
X23680Y29180
X22680Y27180
X22680Y26180
X21680Y25680
X21180Y26680
X20180Y26680
X19180Y26680
X18180Y26680
X18680Y25680
X18180Y29680
X19180Y29680
X20180Y29680
X21180Y29680
X26680Y29180
X27680Y28680
X28680Y28680
X29680Y29180
X30680Y28180
X31680Y28180
X32680Y28180
X33680Y28180
X34680Y28180
X34680Y31180
X33680Y31180
X32680Y31180
X31680Y31180
X30680Y31180
X26680Y28180
X26680Y27180
X26680Y26180
X27680Y25680
X28680Y25680
X28680Y24680
X29680Y24680
X29680Y26180
X26680Y25180
X26680Y24180
X26680Y23180
X27680Y21180
X27680Y20180
X27680Y19180
X27680Y18180
X27680Y17180
X27680Y16180
X27680Y15180
X27680Y14180
X27680Y13180
X27680Y12180
X27680Y11180
X27680Y10180
X27680Y9180
X27680Y8180
X27680Y7180
X27680Y6180
X27680Y5180
X27680Y4180
X27680Y3180
X27680Y2180
X29680Y3180
X30680Y3180
X30680Y4680
X29680Y5180
X30680Y5680
X29680Y6180
X30680Y6680
X30680Y7680
X29680Y7680
X29680Y8680
X30680Y8680
X30680Y9680
X29680Y10180
X30680Y10680
X29680Y11180
X30680Y11680
X30680Y13180
X29680Y13180
X29680Y14680
X29680Y15680
X29680Y16680
X29680Y17680
X29680Y18680
X29680Y19680
X29680Y20680
X32680Y20680
X33680Y20680
X33680Y19680
X32680Y19680
X32680Y18680
X32680Y17680
X32680Y16680
X32680Y15680
X32680Y14680
X33680Y11680
X33680Y10680
X33680Y9680
X33680Y8680
X33680Y7680
X33680Y6680
X33680Y5680
X33680Y4680
X21680Y2180
X5180Y2180
X5180Y3180
X5180Y4180
X5180Y5180
X5180Y6180
X5180Y7180
X5180Y8180
X5180Y9180
X5180Y10180
X5180Y11180
X5180Y12180
X5180Y13180
X5180Y14180
X5180Y15180
T03
X12180Y22680
X13180Y22680
X14180Y22680
X18180Y22180
X19180Y22180
X19180Y21180
X18180Y21180
X18180Y20180
X19180Y20180
X19180Y19180
X18180Y19180
X18180Y23180
X19180Y23180
X19180Y24180
X18180Y24180
X31680Y23680
X31680Y22680
X32680Y22680
X32680Y23680
X32680Y25180
X33680Y25180
X33680Y26680
X32680Y26680
X31680Y26680
X31680Y25180
X36180Y30680
X37180Y30680
X38180Y30680
X33180Y3180
X32180Y3180
X32180Y2180
X33180Y2180
T04
X27180Y31208
X26180Y31208
X26180Y32208
X27180Y32208
X25180Y32208
X24180Y32208
X23180Y32208
X22180Y32208
X21180Y32208
X20180Y32208
X19180Y32208
X18180Y32208
X17180Y32208
X16180Y32208
X15180Y32208
X14180Y32208
X13180Y32208
X12180Y32208
X11180Y32208
X10180Y32208
X9180Y32208
X8180Y32208
X8180Y31208
X9180Y31208
X10180Y31208
X11180Y31208
X12180Y31208
X13180Y31208
X14180Y31208
X15180Y31208
X16180Y31208
X17180Y31208
X18180Y31208
X19180Y31208
X20180Y31208
X21180Y31208
X22180Y31208
X23180Y31208
X24180Y31208
X25180Y31208
T05
X32180Y32680
X33180Y32680
X34180Y32680
X35180Y32680
X35180Y20200
X36180Y19660
X35180Y19110
X36180Y18570
X35180Y18030
X36180Y17480
X35180Y16940
X36180Y16400
X35180Y15850
X34380Y15830
X34380Y14830
X35180Y14770
X36180Y15310
X36180Y14220
X35180Y13680
X36180Y13140
X35180Y12590
X36180Y12050
X35180Y11510
X36180Y10960
X35180Y10420
X36180Y9880
X35180Y9330
X36180Y8790
X35180Y8250
X36180Y7700
X35180Y7160
X30680Y1680
X3180Y5680
X2180Y5680
X2180Y6680
X3180Y6680
X3180Y7680
X2180Y7680
X2180Y8680
X3180Y8680
X3180Y9680
X2180Y9680
X2180Y10680
X3180Y10680
X3180Y11680
X2180Y11680
X2180Y12680
X3180Y12680
X3180Y13680
X2180Y13680
X2180Y14680
X3180Y14680
X3180Y15680
X2180Y15680
X2180Y16680
X3180Y16680
X3180Y17680
X2180Y17680
X2180Y18680
X3180Y18680
X3180Y19680
X2180Y19680
X2180Y20680
X3180Y20680
X3180Y21680
X3180Y22680
X2180Y22680
X2180Y21680
X2180Y23680
X3180Y23680
X3180Y24680
X2180Y24680
X3180Y26680
X3180Y27680
X3180Y28680
X3180Y29680
X3180Y30680
T06
X37180Y28570
X38361Y26680
T07
X29097Y22652
X29097Y31708
X6263Y31708
X6263Y22652
T08
X1680Y1680
X35960Y26680
X38680Y32680
X1680Y32680
X38680Y1680
T09
X35680Y4420
X35680Y22940
M30
