G75*
%MOIN*%
%OFA0B0*%
%FSLAX24Y24*%
%IPPOS*%
%LPD*%
%AMOC8*
5,1,8,0,0,1.08239X$1,22.5*
%
%ADD10OC8,0.0520*%
%ADD11C,0.0520*%
%ADD12C,0.0560*%
%ADD13OC8,0.0560*%
%ADD14C,0.0600*%
%ADD15OC8,0.0600*%
%ADD16C,0.2000*%
%ADD17R,0.0700X0.0700*%
%ADD18C,0.0700*%
%ADD19C,0.1483*%
%ADD20C,0.1750*%
%ADD21C,0.1500*%
%ADD22C,0.0100*%
%ADD23C,0.0400*%
%ADD24C,0.0240*%
D10*
X020680Y002680D03*
X020680Y003680D03*
X029680Y003180D03*
X030680Y003180D03*
X029680Y005180D03*
X029680Y006180D03*
X029680Y007680D03*
X029680Y008680D03*
X029680Y010180D03*
X029680Y011180D03*
X029680Y013180D03*
X030680Y013180D03*
X033680Y019680D03*
X033680Y020680D03*
X029680Y024680D03*
X028680Y024680D03*
X027680Y025680D03*
X030680Y028180D03*
X031680Y028180D03*
X032680Y028180D03*
X033680Y028180D03*
X034680Y028180D03*
X034680Y031180D03*
X033680Y031180D03*
X032680Y031180D03*
X031680Y031180D03*
X030680Y031180D03*
X027680Y028680D03*
X022680Y027180D03*
X022680Y026180D03*
X021680Y025680D03*
X021180Y026680D03*
X020180Y026680D03*
X019180Y026680D03*
X018180Y026680D03*
X018680Y025680D03*
X016680Y027680D03*
X016680Y028680D03*
X015680Y029680D03*
X014180Y029680D03*
X013180Y029680D03*
X012180Y029680D03*
X011180Y029680D03*
X010180Y029680D03*
X009180Y029680D03*
X008180Y029680D03*
X008180Y026680D03*
X009180Y026680D03*
X010180Y026680D03*
X011180Y026680D03*
X012180Y026680D03*
X013180Y026680D03*
X014180Y026680D03*
X015680Y026680D03*
X013680Y024680D03*
X012680Y024680D03*
X009180Y022180D03*
X008180Y022180D03*
X010180Y016680D03*
X011180Y016680D03*
X018180Y016680D03*
X019180Y016680D03*
X019180Y029680D03*
X018180Y029680D03*
X020180Y029680D03*
X021180Y029680D03*
D11*
X023420Y029180D02*
X023940Y029180D01*
X023940Y028180D02*
X023420Y028180D01*
X023420Y027180D02*
X023940Y027180D01*
X023940Y026180D02*
X023420Y026180D01*
X023420Y025180D02*
X023940Y025180D01*
X023940Y024180D02*
X023420Y024180D01*
X023420Y023180D02*
X023940Y023180D01*
X026420Y023180D02*
X026940Y023180D01*
X026940Y024180D02*
X026420Y024180D01*
X026420Y025180D02*
X026940Y025180D01*
X026940Y026180D02*
X026420Y026180D01*
X026420Y027180D02*
X026940Y027180D01*
X026940Y028180D02*
X026420Y028180D01*
X026420Y029180D02*
X026940Y029180D01*
X028680Y028940D02*
X028680Y028420D01*
X029680Y028920D02*
X029680Y029440D01*
X029680Y026440D02*
X029680Y025920D01*
X028680Y025940D02*
X028680Y025420D01*
X027940Y021180D02*
X027420Y021180D01*
X027420Y020180D02*
X027940Y020180D01*
X027940Y019180D02*
X027420Y019180D01*
X027420Y018180D02*
X027940Y018180D01*
X027940Y017180D02*
X027420Y017180D01*
X027420Y016180D02*
X027940Y016180D01*
X027940Y015180D02*
X027420Y015180D01*
X027420Y014180D02*
X027940Y014180D01*
X027940Y013180D02*
X027420Y013180D01*
X027420Y012180D02*
X027940Y012180D01*
X027940Y011180D02*
X027420Y011180D01*
X027420Y010180D02*
X027940Y010180D01*
X027940Y009180D02*
X027420Y009180D01*
X027420Y008180D02*
X027940Y008180D01*
X027940Y007180D02*
X027420Y007180D01*
X027420Y006180D02*
X027940Y006180D01*
X027940Y005180D02*
X027420Y005180D01*
X027420Y004180D02*
X027940Y004180D01*
X027940Y003180D02*
X027420Y003180D01*
X027420Y002180D02*
X027940Y002180D01*
X030420Y004680D02*
X030940Y004680D01*
X030940Y005680D02*
X030420Y005680D01*
X030420Y006680D02*
X030940Y006680D01*
X030940Y007680D02*
X030420Y007680D01*
X030420Y008680D02*
X030940Y008680D01*
X030940Y009680D02*
X030420Y009680D01*
X030420Y010680D02*
X030940Y010680D01*
X030940Y011680D02*
X030420Y011680D01*
X033420Y011680D02*
X033940Y011680D01*
X033940Y010680D02*
X033420Y010680D01*
X033420Y009680D02*
X033940Y009680D01*
X033940Y008680D02*
X033420Y008680D01*
X033420Y007680D02*
X033940Y007680D01*
X033940Y006680D02*
X033420Y006680D01*
X033420Y005680D02*
X033940Y005680D01*
X033940Y004680D02*
X033420Y004680D01*
X021940Y004180D02*
X021420Y004180D01*
X021420Y003180D02*
X021940Y003180D01*
X021940Y002180D02*
X021420Y002180D01*
X019440Y002180D02*
X018920Y002180D01*
X018920Y003180D02*
X019440Y003180D01*
X019440Y004180D02*
X018920Y004180D01*
X018920Y005180D02*
X019440Y005180D01*
X019440Y006180D02*
X018920Y006180D01*
X018920Y007180D02*
X019440Y007180D01*
X019440Y008180D02*
X018920Y008180D01*
X018920Y009180D02*
X019440Y009180D01*
X019440Y010180D02*
X018920Y010180D01*
X018920Y011180D02*
X019440Y011180D01*
X019440Y012180D02*
X018920Y012180D01*
X018920Y013180D02*
X019440Y013180D01*
X019440Y014180D02*
X018920Y014180D01*
X018920Y015180D02*
X019440Y015180D01*
X021420Y015180D02*
X021940Y015180D01*
X021940Y014180D02*
X021420Y014180D01*
X021420Y013180D02*
X021940Y013180D01*
X021940Y012180D02*
X021420Y012180D01*
X021420Y011180D02*
X021940Y011180D01*
X021940Y010180D02*
X021420Y010180D01*
X021420Y009180D02*
X021940Y009180D01*
X021940Y008180D02*
X021420Y008180D01*
X021420Y007180D02*
X021940Y007180D01*
X021940Y006180D02*
X021420Y006180D01*
X021420Y005180D02*
X021940Y005180D01*
X013440Y005180D02*
X012920Y005180D01*
X012920Y004180D02*
X013440Y004180D01*
X013440Y003180D02*
X012920Y003180D01*
X012920Y002180D02*
X013440Y002180D01*
X011440Y002180D02*
X010920Y002180D01*
X010920Y003180D02*
X011440Y003180D01*
X011440Y004180D02*
X010920Y004180D01*
X010920Y005180D02*
X011440Y005180D01*
X011440Y006180D02*
X010920Y006180D01*
X010920Y007180D02*
X011440Y007180D01*
X011440Y008180D02*
X010920Y008180D01*
X010920Y009180D02*
X011440Y009180D01*
X011440Y010180D02*
X010920Y010180D01*
X010920Y011180D02*
X011440Y011180D01*
X011440Y012180D02*
X010920Y012180D01*
X010920Y013180D02*
X011440Y013180D01*
X011440Y014180D02*
X010920Y014180D01*
X010920Y015180D02*
X011440Y015180D01*
X012920Y015180D02*
X013440Y015180D01*
X013440Y014180D02*
X012920Y014180D01*
X012920Y013180D02*
X013440Y013180D01*
X013440Y012180D02*
X012920Y012180D01*
X012920Y011180D02*
X013440Y011180D01*
X013440Y010180D02*
X012920Y010180D01*
X012920Y009180D02*
X013440Y009180D01*
X013440Y008180D02*
X012920Y008180D01*
X012920Y007180D02*
X013440Y007180D01*
X013440Y006180D02*
X012920Y006180D01*
X005440Y006180D02*
X004920Y006180D01*
X004920Y005180D02*
X005440Y005180D01*
X005440Y004180D02*
X004920Y004180D01*
X004920Y003180D02*
X005440Y003180D01*
X005440Y002180D02*
X004920Y002180D01*
X004920Y007180D02*
X005440Y007180D01*
X005440Y008180D02*
X004920Y008180D01*
X004920Y009180D02*
X005440Y009180D01*
X005440Y010180D02*
X004920Y010180D01*
X004920Y011180D02*
X005440Y011180D01*
X005440Y012180D02*
X004920Y012180D01*
X004920Y013180D02*
X005440Y013180D01*
X005440Y014180D02*
X004920Y014180D01*
X004920Y015180D02*
X005440Y015180D01*
X005680Y017920D02*
X005680Y018440D01*
X006680Y018440D02*
X006680Y017920D01*
X007680Y017920D02*
X007680Y018440D01*
X008680Y018440D02*
X008680Y017920D01*
X009680Y017920D02*
X009680Y018440D01*
X010680Y018440D02*
X010680Y017920D01*
X011680Y017920D02*
X011680Y018440D01*
X012680Y018440D02*
X012680Y017920D01*
X013680Y017920D02*
X013680Y018440D01*
X014680Y018440D02*
X014680Y017920D01*
X016420Y019180D02*
X016940Y019180D01*
X016940Y020180D02*
X016420Y020180D01*
X016420Y021180D02*
X016940Y021180D01*
X016940Y022180D02*
X016420Y022180D01*
X016420Y023180D02*
X016940Y023180D01*
X016940Y024180D02*
X016420Y024180D01*
X016420Y025180D02*
X016940Y025180D01*
X014680Y021440D02*
X014680Y020920D01*
X013680Y020920D02*
X013680Y021440D01*
X012680Y021440D02*
X012680Y020920D01*
X011680Y020920D02*
X011680Y021440D01*
X010680Y021440D02*
X010680Y020920D01*
X009680Y020920D02*
X009680Y021440D01*
X008680Y021440D02*
X008680Y020920D01*
X007680Y020920D02*
X007680Y021440D01*
X006680Y021440D02*
X006680Y020920D01*
X005680Y020920D02*
X005680Y021440D01*
X021420Y021180D02*
X021940Y021180D01*
X021940Y020180D02*
X021420Y020180D01*
X021420Y019180D02*
X021940Y019180D01*
X021940Y018180D02*
X021420Y018180D01*
X021420Y017180D02*
X021940Y017180D01*
X021940Y016180D02*
X021420Y016180D01*
X029420Y015680D02*
X029940Y015680D01*
X029940Y014680D02*
X029420Y014680D01*
X029420Y016680D02*
X029940Y016680D01*
X029940Y017680D02*
X029420Y017680D01*
X029420Y018680D02*
X029940Y018680D01*
X029940Y019680D02*
X029420Y019680D01*
X029420Y020680D02*
X029940Y020680D01*
X032420Y020680D02*
X032940Y020680D01*
X032940Y019680D02*
X032420Y019680D01*
X032420Y018680D02*
X032940Y018680D01*
X032940Y017680D02*
X032420Y017680D01*
X032420Y016680D02*
X032940Y016680D01*
X032940Y015680D02*
X032420Y015680D01*
X032420Y014680D02*
X032940Y014680D01*
D12*
X032680Y024900D02*
X032680Y025460D01*
X032680Y026400D02*
X032680Y026960D01*
X033680Y026960D02*
X033680Y026400D01*
X033680Y025460D02*
X033680Y024900D01*
X031680Y024900D02*
X031680Y025460D01*
X031680Y026400D02*
X031680Y026960D01*
X036180Y030400D02*
X036180Y030960D01*
X037180Y030960D02*
X037180Y030400D01*
X038180Y030400D02*
X038180Y030960D01*
X014180Y022960D02*
X014180Y022400D01*
X013180Y022400D02*
X013180Y022960D01*
X012180Y022960D02*
X012180Y022400D01*
D13*
X018180Y022180D03*
X019180Y022180D03*
X019180Y021180D03*
X018180Y021180D03*
X018180Y020180D03*
X019180Y020180D03*
X019180Y019180D03*
X018180Y019180D03*
X018180Y023180D03*
X019180Y023180D03*
X019180Y024180D03*
X018180Y024180D03*
X031680Y023680D03*
X031680Y022680D03*
X032680Y022680D03*
X032680Y023680D03*
X032180Y003180D03*
X033180Y003180D03*
X033180Y002180D03*
X032180Y002180D03*
D14*
X003480Y026680D02*
X002880Y026680D01*
X002880Y027680D02*
X003480Y027680D01*
X003480Y028680D02*
X002880Y028680D01*
X002880Y029680D02*
X003480Y029680D01*
X003480Y030680D02*
X002880Y030680D01*
X032180Y032380D02*
X032180Y032980D01*
X033180Y032980D02*
X033180Y032380D01*
X034180Y032380D02*
X034180Y032980D01*
X035180Y032980D02*
X035180Y032380D01*
D15*
X035180Y020200D03*
X036180Y019660D03*
X035180Y019110D03*
X036180Y018570D03*
X035180Y018030D03*
X036180Y017480D03*
X035180Y016940D03*
X036180Y016400D03*
X035180Y015850D03*
X034380Y015830D03*
X034380Y014830D03*
X035180Y014770D03*
X036180Y015310D03*
X036180Y014220D03*
X035180Y013680D03*
X036180Y013140D03*
X035180Y012590D03*
X036180Y012050D03*
X035180Y011510D03*
X036180Y010960D03*
X035180Y010420D03*
X036180Y009880D03*
X035180Y009330D03*
X036180Y008790D03*
X035180Y008250D03*
X036180Y007700D03*
X035180Y007160D03*
X030680Y001680D03*
X003180Y005680D03*
X002180Y005680D03*
X002180Y006680D03*
X003180Y006680D03*
X003180Y007680D03*
X002180Y007680D03*
X002180Y008680D03*
X003180Y008680D03*
X003180Y009680D03*
X002180Y009680D03*
X002180Y010680D03*
X003180Y010680D03*
X003180Y011680D03*
X002180Y011680D03*
X002180Y012680D03*
X003180Y012680D03*
X003180Y013680D03*
X002180Y013680D03*
X002180Y014680D03*
X003180Y014680D03*
X003180Y015680D03*
X002180Y015680D03*
X002180Y016680D03*
X003180Y016680D03*
X003180Y017680D03*
X002180Y017680D03*
X002180Y018680D03*
X003180Y018680D03*
X003180Y019680D03*
X002180Y019680D03*
X002180Y020680D03*
X003180Y020680D03*
X003180Y021680D03*
X003180Y022680D03*
X002180Y022680D03*
X002180Y021680D03*
X002180Y023680D03*
X003180Y023680D03*
X003180Y024680D03*
X002180Y024680D03*
D16*
X035680Y022940D03*
X035680Y004420D03*
D17*
X027180Y031208D03*
D18*
X026180Y031208D03*
X026180Y032208D03*
X027180Y032208D03*
X025180Y032208D03*
X024180Y032208D03*
X023180Y032208D03*
X022180Y032208D03*
X021180Y032208D03*
X020180Y032208D03*
X019180Y032208D03*
X018180Y032208D03*
X017180Y032208D03*
X016180Y032208D03*
X015180Y032208D03*
X014180Y032208D03*
X013180Y032208D03*
X012180Y032208D03*
X011180Y032208D03*
X010180Y032208D03*
X009180Y032208D03*
X008180Y032208D03*
X008180Y031208D03*
X009180Y031208D03*
X010180Y031208D03*
X011180Y031208D03*
X012180Y031208D03*
X013180Y031208D03*
X014180Y031208D03*
X015180Y031208D03*
X016180Y031208D03*
X017180Y031208D03*
X018180Y031208D03*
X019180Y031208D03*
X020180Y031208D03*
X021180Y031208D03*
X022180Y031208D03*
X023180Y031208D03*
X024180Y031208D03*
X025180Y031208D03*
D19*
X029097Y031708D03*
X029097Y022652D03*
X006263Y022652D03*
X006263Y031708D03*
D20*
X035960Y026680D03*
D21*
X037180Y028570D03*
X038361Y026680D03*
D22*
X005180Y003180D02*
X001055Y003180D01*
X001055Y019555D01*
X002180Y020680D01*
X002680Y020868D02*
X002993Y021180D01*
X003368Y021180D01*
X004055Y020493D01*
X009993Y020493D01*
X010680Y021180D01*
X009493Y021868D02*
X009368Y021743D01*
X008993Y021743D01*
X008868Y021868D01*
X008493Y021868D01*
X008368Y021743D01*
X007993Y021743D01*
X007868Y021868D01*
X007368Y021868D01*
X006680Y021180D01*
X008243Y020243D02*
X009180Y019305D01*
X012555Y019305D01*
X013680Y018180D01*
X014118Y017868D02*
X014118Y019368D01*
X012805Y019368D01*
X012618Y019555D01*
X009430Y019555D01*
X008868Y020118D01*
X008243Y020243D02*
X003618Y020243D01*
X003180Y020680D01*
X002680Y020868D02*
X002680Y019680D01*
X003180Y019680D01*
X002680Y019680D02*
X002180Y019680D01*
X001993Y018180D02*
X001680Y017868D01*
X001680Y013180D01*
X002368Y013180D01*
X002868Y012680D01*
X003180Y012680D01*
X002680Y013180D02*
X004305Y013180D01*
X004868Y012618D01*
X006243Y012618D01*
X005805Y011930D02*
X005555Y011680D01*
X003180Y011680D01*
X002680Y011180D02*
X004180Y011180D01*
X004305Y011055D01*
X005180Y011180D02*
X010305Y011180D01*
X010743Y010743D01*
X012555Y010743D01*
X012993Y011180D01*
X013180Y011180D01*
X012743Y011618D02*
X018743Y011618D01*
X019180Y011180D01*
X019180Y012180D02*
X018805Y012180D01*
X018368Y012618D01*
X012743Y012618D01*
X012618Y012493D01*
X011493Y012493D01*
X011180Y012180D01*
X010743Y011743D02*
X012555Y011743D01*
X012993Y012180D01*
X013180Y012180D01*
X012743Y011618D02*
X012618Y011493D01*
X011493Y011493D01*
X011180Y011180D01*
X011368Y011430D01*
X007430Y011430D01*
X007305Y011555D01*
X007680Y010555D02*
X007805Y010430D01*
X011368Y010430D01*
X011180Y010180D01*
X011493Y010493D01*
X012618Y010493D01*
X012743Y010618D01*
X017805Y010618D01*
X018243Y010180D01*
X019180Y010180D01*
X018555Y009618D02*
X021993Y009618D01*
X023993Y011618D01*
X028368Y011618D01*
X028368Y012493D01*
X027680Y013180D01*
X027680Y012180D02*
X027368Y011868D01*
X023243Y011868D01*
X021993Y010618D01*
X018305Y010618D01*
X017555Y009618D02*
X017993Y009180D01*
X019180Y009180D01*
X018555Y008618D02*
X025118Y008618D01*
X027680Y011180D01*
X026243Y012243D02*
X026118Y012118D01*
X022493Y012118D01*
X022118Y011743D01*
X020493Y011743D01*
X019493Y012743D01*
X018555Y012743D01*
X017930Y013368D01*
X016430Y013368D01*
X015493Y013743D02*
X018618Y013743D01*
X019180Y013180D01*
X019743Y014493D02*
X019493Y014743D01*
X018118Y014743D01*
X019743Y014493D02*
X021368Y014493D01*
X021680Y014180D01*
X021243Y014743D02*
X024680Y014743D01*
X023868Y015743D02*
X026368Y018243D01*
X027680Y017180D02*
X023118Y012618D01*
X020618Y012618D01*
X021243Y014743D02*
X020368Y015618D01*
X013118Y015618D01*
X011618Y017118D01*
X009993Y017118D01*
X009868Y016993D01*
X004868Y016993D01*
X004743Y016868D01*
X004493Y016493D02*
X008305Y016493D01*
X008368Y016555D01*
X009993Y017493D02*
X004055Y017493D01*
X003368Y018180D01*
X001993Y018180D01*
X002680Y017180D02*
X003805Y017180D01*
X004493Y016493D01*
X002680Y016180D02*
X010555Y016180D01*
X011243Y017368D02*
X011680Y017368D01*
X012805Y016243D01*
X020868Y016243D01*
X021368Y016743D01*
X023180Y016743D01*
X024680Y018243D01*
X023180Y018618D02*
X022180Y017618D01*
X019243Y017618D01*
X019055Y017430D01*
X014555Y017430D01*
X014118Y017868D01*
X012243Y018493D02*
X012243Y017118D01*
X018555Y017118D01*
X018618Y017055D01*
X018930Y017805D02*
X015993Y017805D01*
X013243Y020555D01*
X012680Y021180D02*
X011430Y019930D01*
X011368Y018930D02*
X011430Y018868D01*
X011868Y018868D01*
X012243Y018493D01*
X011243Y018493D02*
X011243Y017368D01*
X010680Y018180D02*
X009993Y017493D01*
X011243Y018493D02*
X010868Y018868D01*
X005743Y018868D01*
X004743Y019868D01*
X002680Y017180D02*
X002180Y016680D01*
X002680Y016180D02*
X002180Y015680D01*
X002180Y014680D02*
X002680Y014180D01*
X002680Y013180D01*
X002180Y012680D02*
X001930Y012430D01*
X001618Y012430D01*
X001430Y012243D01*
X001430Y006180D01*
X002368Y006180D01*
X002680Y006493D01*
X002680Y007180D01*
X005180Y007180D01*
X005243Y007118D01*
X010368Y007118D01*
X010743Y006743D01*
X012555Y006743D01*
X012993Y007180D01*
X013180Y007180D01*
X013618Y007618D01*
X028618Y007618D01*
X028618Y015243D01*
X027680Y016180D01*
X028868Y018618D02*
X023180Y018618D01*
X022743Y018680D02*
X022680Y018743D01*
X020243Y018743D01*
X019243Y019743D01*
X018743Y019743D01*
X018305Y020180D01*
X018180Y020180D01*
X018243Y019743D02*
X017993Y019743D01*
X017743Y019993D01*
X017743Y020743D01*
X018180Y021180D02*
X016680Y021180D01*
X016680Y022180D02*
X018180Y022180D01*
X018618Y021743D01*
X019493Y021743D01*
X019618Y021618D01*
X019243Y020743D02*
X018618Y020743D01*
X018180Y021180D01*
X019243Y020743D02*
X020243Y019743D01*
X022180Y019743D01*
X022368Y019555D01*
X021680Y019180D02*
X021618Y019118D01*
X020618Y019118D01*
X021368Y018493D02*
X019243Y018493D01*
X018618Y019118D01*
X018618Y019555D01*
X018430Y019555D01*
X018243Y019743D01*
X018180Y019180D02*
X016680Y019180D01*
X016805Y018180D02*
X014118Y020868D01*
X014118Y021868D01*
X009493Y021868D01*
X009055Y024680D02*
X003180Y024680D01*
X003180Y023680D02*
X019743Y023680D01*
X020680Y022743D01*
X026993Y022743D01*
X027368Y022368D01*
X028493Y024243D02*
X029868Y024243D01*
X031243Y025618D01*
X031243Y025930D01*
X031930Y025930D01*
X032680Y026680D01*
X032930Y027430D02*
X033680Y026680D01*
X033430Y025930D02*
X032680Y025180D01*
X032868Y024368D02*
X033680Y025180D01*
X033430Y025930D02*
X034118Y025930D01*
X034118Y028243D01*
X035368Y029493D01*
X038618Y029493D01*
X038618Y031180D01*
X036368Y033430D01*
X014430Y033430D01*
X013680Y032680D01*
X015680Y032680D02*
X015743Y032743D01*
X023680Y032743D01*
X024180Y032243D01*
X024180Y032208D01*
X023180Y032180D02*
X023180Y032208D01*
X023180Y032180D02*
X022680Y032180D01*
X022680Y030993D01*
X022118Y030430D01*
X020743Y030430D01*
X020743Y029618D01*
X020368Y029243D01*
X016618Y029243D01*
X016368Y028993D01*
X012493Y028993D01*
X012368Y028868D01*
X012618Y028118D02*
X018118Y028118D01*
X018743Y028743D01*
X022368Y028743D01*
X023680Y030055D01*
X028118Y030055D01*
X028118Y028493D01*
X027368Y027743D01*
X025993Y027743D01*
X025368Y027118D01*
X025368Y028743D02*
X024930Y029180D01*
X023680Y029180D01*
X023368Y028743D02*
X024868Y028743D01*
X025368Y028743D02*
X027618Y028743D01*
X027680Y028680D01*
X028680Y028680D02*
X029180Y028680D01*
X029680Y029180D01*
X030680Y028180D02*
X031680Y028180D01*
X032680Y028180D02*
X033680Y028180D01*
X036180Y030680D01*
X034930Y031430D02*
X034680Y031180D01*
X033680Y031180D01*
X032743Y031180D02*
X032680Y031180D01*
X032743Y031180D02*
X032743Y030305D01*
X032493Y030055D01*
X028118Y030055D01*
X030055Y027430D02*
X032930Y027430D01*
X030055Y027430D02*
X029368Y026743D01*
X022493Y026743D01*
X022118Y027118D01*
X013618Y027118D01*
X013180Y026680D01*
X012618Y028118D02*
X011180Y026680D01*
X010618Y026243D02*
X021118Y026243D01*
X021680Y025680D01*
X022243Y025743D02*
X021305Y026680D01*
X021180Y026680D01*
X022243Y025743D02*
X027618Y025743D01*
X027680Y025680D01*
X028118Y024618D02*
X028493Y024243D01*
X028118Y024618D02*
X025555Y024618D01*
X024993Y024055D01*
X023680Y024180D02*
X020993Y024180D01*
X020743Y024430D01*
X021305Y023430D02*
X023430Y023430D01*
X023680Y023180D01*
X023118Y023680D02*
X022993Y023805D01*
X023118Y023680D02*
X031680Y023680D01*
X032118Y024118D01*
X036868Y024118D01*
X036868Y013180D01*
X036368Y012680D01*
X035680Y012680D01*
X035680Y008055D01*
X035368Y007743D01*
X034743Y007743D01*
X033680Y006680D01*
X033680Y007680D02*
X034680Y008680D01*
X034680Y013180D01*
X035368Y013180D01*
X035680Y013493D01*
X035680Y021743D01*
X032618Y021743D01*
X031680Y022680D01*
X031680Y022618D01*
X030805Y021743D01*
X021180Y021743D01*
X019805Y023118D01*
X018180Y024180D02*
X016680Y024180D01*
X016243Y024743D02*
X018805Y024743D01*
X019305Y025243D01*
X022055Y025243D01*
X022118Y025305D01*
X019180Y026680D02*
X018180Y026680D01*
X017118Y025868D02*
X005993Y025868D01*
X003180Y028680D01*
X008180Y029680D02*
X009368Y028493D01*
X015180Y028493D01*
X015680Y029680D02*
X016118Y030118D01*
X018743Y030118D01*
X019180Y029680D01*
X020180Y029680D01*
X020493Y028993D02*
X021180Y029680D01*
X020493Y028993D02*
X016993Y028993D01*
X016680Y028680D01*
X016305Y029243D02*
X016805Y029743D01*
X017618Y029743D01*
X016305Y029243D02*
X009618Y029243D01*
X009180Y029680D01*
X011180Y029680D02*
X011805Y030305D01*
X015180Y030305D01*
X015305Y029930D02*
X016055Y030680D01*
X021680Y030680D01*
X022180Y031180D01*
X022180Y031208D01*
X023368Y028743D02*
X022930Y028305D01*
X018805Y028305D01*
X018368Y027868D01*
X015305Y029930D02*
X014430Y029930D01*
X014180Y029680D01*
X010618Y026243D02*
X010180Y026680D01*
X010368Y025493D02*
X010743Y025118D01*
X015868Y025118D01*
X016243Y024743D01*
X015805Y024243D02*
X013118Y024243D01*
X012680Y024680D01*
X018555Y018680D02*
X018993Y018243D01*
X019930Y018243D01*
X020055Y018118D01*
X020430Y017243D02*
X021618Y017243D01*
X021680Y017180D01*
X021680Y018180D02*
X021368Y018493D01*
X021680Y020180D02*
X022180Y020680D01*
X029680Y020680D01*
X031493Y020493D02*
X031618Y020493D01*
X031493Y020493D02*
X029680Y018680D01*
X028868Y018618D02*
X028868Y005368D01*
X027680Y004180D01*
X029680Y006180D02*
X030180Y006680D01*
X030680Y006680D01*
X030680Y007680D02*
X029680Y007680D01*
X029680Y008680D02*
X030680Y008680D01*
X030680Y009680D02*
X030180Y009680D01*
X029680Y010180D01*
X029680Y011180D02*
X030180Y011680D01*
X030680Y011680D01*
X034380Y014830D02*
X034430Y014805D01*
X035180Y014805D01*
X035180Y014770D01*
X035180Y015805D02*
X034430Y015805D01*
X034380Y015830D01*
X035180Y015805D02*
X035180Y015850D01*
X032868Y024368D02*
X030618Y024368D01*
X037430Y031430D02*
X038180Y030680D01*
X037430Y031430D02*
X034930Y031430D01*
X023868Y015743D02*
X020743Y015743D01*
X020618Y015868D01*
X017555Y009618D02*
X012743Y009618D01*
X012618Y009493D01*
X011493Y009493D01*
X011180Y009180D01*
X011618Y008743D02*
X011743Y008868D01*
X012868Y008868D01*
X013180Y009180D01*
X012555Y009743D02*
X012993Y010180D01*
X013180Y010180D01*
X012555Y009743D02*
X010743Y009743D01*
X010305Y010180D01*
X005180Y010180D01*
X002805Y010180D01*
X002680Y010055D01*
X002180Y009680D02*
X002680Y009180D01*
X005180Y009180D01*
X007805Y009180D01*
X008243Y008743D01*
X011618Y008743D01*
X011493Y008493D02*
X011180Y008180D01*
X011180Y008243D01*
X010993Y008430D01*
X006743Y008430D01*
X006680Y008493D01*
X006430Y008743D02*
X006555Y008868D01*
X007618Y008868D01*
X007680Y008805D01*
X007930Y009680D02*
X003180Y009680D01*
X003243Y008743D02*
X006430Y008743D01*
X006680Y007743D02*
X006618Y007680D01*
X003180Y007680D01*
X002680Y008180D02*
X003930Y008180D01*
X003243Y008743D02*
X003180Y008680D01*
X002680Y008180D02*
X002180Y007680D01*
X001680Y007180D02*
X001680Y012180D01*
X005180Y012180D01*
X010305Y012180D01*
X010743Y011743D01*
X010743Y012743D02*
X012555Y012743D01*
X012993Y013180D01*
X013180Y013180D01*
X013180Y014180D02*
X012743Y014618D01*
X010743Y014618D01*
X010430Y014305D01*
X009243Y014305D01*
X009243Y014243D01*
X009243Y014305D02*
X005305Y014305D01*
X005180Y014180D01*
X005180Y013180D02*
X005305Y013055D01*
X008493Y013055D01*
X008618Y012930D01*
X010555Y012930D01*
X010743Y012743D01*
X011743Y013680D02*
X003180Y013680D01*
X002180Y011680D02*
X002680Y011180D01*
X003180Y010680D02*
X002180Y010680D01*
X003180Y010680D02*
X005743Y010680D01*
X005868Y010805D01*
X005805Y011930D02*
X009493Y011930D01*
X009618Y011805D01*
X009180Y012555D02*
X009055Y012680D01*
X007305Y012680D01*
X008055Y009805D02*
X007930Y009680D01*
X010368Y008118D02*
X005243Y008118D01*
X005180Y008180D01*
X006680Y006743D02*
X003243Y006743D01*
X003180Y006680D01*
X004055Y006368D02*
X004243Y006180D01*
X005180Y006180D01*
X005430Y005930D01*
X010555Y005930D01*
X010743Y005743D01*
X012555Y005743D01*
X012993Y006180D01*
X013180Y006180D01*
X013555Y006180D01*
X013993Y005743D01*
X019618Y005743D01*
X020118Y006243D01*
X019805Y005618D02*
X019368Y005180D01*
X019180Y005180D01*
X014243Y005180D01*
X013805Y005618D01*
X012743Y005618D01*
X012618Y005493D01*
X011493Y005493D01*
X011180Y005180D01*
X010743Y004743D02*
X012555Y004743D01*
X012993Y005180D01*
X013180Y005180D01*
X013680Y005180D01*
X014118Y004743D01*
X022118Y004743D01*
X022555Y005180D01*
X025118Y005618D02*
X019805Y005618D01*
X019180Y006180D02*
X018774Y006586D01*
X018805Y006618D01*
X027118Y006618D01*
X027680Y007180D01*
X019180Y008180D02*
X018493Y008180D01*
X018055Y008618D01*
X012743Y008618D01*
X012618Y008493D01*
X011493Y008493D01*
X010743Y007743D02*
X010368Y008118D01*
X010743Y007743D02*
X012743Y007743D01*
X013180Y008180D01*
X012743Y006618D02*
X018743Y006618D01*
X018774Y006586D01*
X019180Y004180D02*
X014368Y004180D01*
X013930Y004618D01*
X012743Y004618D01*
X012618Y004493D01*
X011493Y004493D01*
X011180Y004180D01*
X010743Y003743D02*
X012555Y003743D01*
X012993Y004180D01*
X013180Y004180D01*
X012743Y003618D02*
X018743Y003618D01*
X019180Y003180D01*
X018743Y002618D02*
X019180Y002180D01*
X018743Y002618D02*
X012743Y002618D01*
X012618Y002493D01*
X011493Y002493D01*
X011180Y002180D01*
X011180Y002243D01*
X010930Y002243D01*
X010555Y002618D01*
X004680Y002618D01*
X004493Y002805D01*
X005180Y003180D02*
X005493Y002868D01*
X010618Y002868D01*
X010743Y002743D01*
X012555Y002743D01*
X012993Y003180D01*
X013180Y003180D01*
X012743Y003618D02*
X012618Y003493D01*
X011493Y003493D01*
X011180Y003180D01*
X011180Y003243D01*
X010930Y003243D01*
X010555Y003618D01*
X003555Y003618D01*
X002493Y004180D02*
X005180Y004180D01*
X005493Y003868D01*
X010618Y003868D01*
X010743Y003743D01*
X010743Y004743D02*
X010305Y005180D01*
X005180Y005180D01*
X001868Y005180D01*
X001430Y004743D01*
X003180Y005680D02*
X003243Y005618D01*
X010368Y005618D01*
X010430Y005555D01*
X011180Y006180D02*
X011180Y006243D01*
X006430Y006243D01*
X006305Y006368D01*
X006993Y004805D02*
X007555Y004243D01*
X011180Y006180D02*
X011493Y006493D01*
X012618Y006493D01*
X012743Y006618D01*
X002180Y006680D02*
X001680Y007180D01*
D23*
X003930Y008180D03*
X002680Y010055D03*
X004305Y011055D03*
X005868Y010805D03*
X007305Y011555D03*
X007680Y010555D03*
X008055Y009805D03*
X007680Y008805D03*
X006680Y008493D03*
X006680Y007743D03*
X006680Y006743D03*
X006305Y006368D03*
X006993Y004805D03*
X007555Y004243D03*
X010430Y005555D03*
X004493Y002805D03*
X003555Y003618D03*
X002493Y004180D03*
X001430Y004743D03*
X004055Y006368D03*
X009618Y011805D03*
X009180Y012555D03*
X007305Y012680D03*
X006243Y012618D03*
X009243Y014243D03*
X009993Y014680D03*
X010555Y016180D03*
X008368Y016555D03*
X011368Y018930D03*
X011430Y019930D03*
X013243Y020555D03*
X016805Y018180D03*
X018555Y018680D03*
X018930Y017805D03*
X018618Y017055D03*
X020055Y018118D03*
X020430Y017243D03*
X020618Y015868D03*
X018118Y014743D03*
X016430Y013368D03*
X015493Y013743D03*
X015368Y015243D03*
X011743Y013680D03*
X018305Y010618D03*
X018555Y009618D03*
X018555Y008618D03*
X020118Y006243D03*
X022555Y005180D03*
X025118Y005618D03*
X026243Y012243D03*
X024680Y014743D03*
X020618Y012618D03*
X024680Y018243D03*
X026368Y018243D03*
X022743Y018680D03*
X022368Y019555D03*
X020618Y019118D03*
X019618Y021618D03*
X017743Y020743D03*
X019805Y023118D03*
X021305Y023430D03*
X020743Y024430D03*
X019430Y024868D03*
X017118Y025868D03*
X015805Y024243D03*
X012368Y027368D03*
X012368Y028868D03*
X015180Y028493D03*
X015180Y030305D03*
X017618Y029743D03*
X018368Y027868D03*
X019368Y027493D03*
X022118Y027493D03*
X022118Y025305D03*
X022993Y023805D03*
X024243Y024680D03*
X024993Y024055D03*
X027368Y022368D03*
X030618Y024368D03*
X031618Y020493D03*
X025368Y027118D03*
X024868Y028743D03*
X024430Y030430D03*
X032368Y030430D03*
X015680Y032680D03*
X013680Y032680D03*
X010368Y025493D03*
X009055Y024680D03*
X008868Y020118D03*
X004743Y019868D03*
X004743Y016868D03*
D24*
X003180Y015680D02*
X011180Y015680D01*
X011180Y016680D01*
X011180Y015680D02*
X011180Y015180D01*
X013180Y015180D01*
X015368Y015180D01*
X015368Y015243D01*
X015368Y015180D02*
X019180Y015180D01*
X019180Y021180D02*
X021680Y021180D01*
X019180Y023180D02*
X018680Y022680D01*
X014180Y022680D01*
X012180Y022680D02*
X008680Y022680D01*
X008180Y022180D01*
X012368Y027368D02*
X012618Y027618D01*
X016618Y027618D01*
X016680Y027680D01*
X016930Y027430D01*
X019305Y027430D01*
X019368Y027493D01*
X022118Y027493D01*
X022680Y027180D02*
X023680Y027180D01*
X023680Y025180D02*
X026680Y025180D01*
X028618Y025180D01*
X028680Y025680D01*
X028743Y025743D01*
X029243Y025743D01*
X029680Y026180D01*
X028680Y025680D02*
X028680Y024680D01*
X024243Y024680D02*
X023180Y024680D01*
X022993Y024868D01*
X019430Y024868D01*
X018680Y025680D02*
X018180Y025180D01*
X016680Y025180D01*
X014618Y030618D02*
X007743Y030618D01*
X007680Y030680D01*
X007118Y030118D01*
X003618Y030118D01*
X003180Y029680D01*
X007680Y030680D02*
X008180Y031180D01*
X008180Y031208D01*
X014618Y030618D02*
X015180Y031180D01*
X015180Y031208D01*
X024430Y030430D02*
X024618Y030618D01*
X027618Y030618D01*
X027805Y030805D01*
X028180Y030430D01*
X032368Y030430D01*
X031680Y031180D02*
X032305Y031805D01*
X032368Y031805D01*
X033180Y032618D01*
X033180Y032680D01*
X034680Y028180D02*
X036055Y028180D01*
X036680Y027555D01*
X037430Y027555D01*
X038305Y026680D01*
X038361Y026680D01*
X035180Y020200D02*
X035180Y020180D01*
X034743Y019743D01*
X033743Y019743D01*
X033680Y019680D01*
X033430Y019618D01*
X033430Y017743D01*
X032743Y017743D01*
X032680Y017680D01*
X030680Y017680D01*
X031680Y016680D01*
X029680Y014680D01*
X029680Y013180D01*
X032680Y015680D02*
X034055Y014305D01*
X034555Y014305D01*
X035180Y013680D01*
X033680Y011680D02*
X031180Y009180D01*
X029180Y009180D01*
X029180Y003180D01*
X027680Y003180D01*
X027618Y003118D01*
X022618Y003118D01*
X021680Y002180D01*
X021180Y002680D01*
X020680Y002680D01*
X019930Y002930D02*
X019930Y001680D01*
X029180Y001680D01*
X030680Y003180D01*
X030680Y004680D01*
X030743Y004743D01*
X032743Y004743D01*
X033680Y005680D01*
X030680Y004680D02*
X030180Y004680D01*
X029680Y005180D01*
X029680Y003180D02*
X029180Y003180D01*
X020680Y003680D02*
X019930Y002930D01*
X019930Y001680D02*
X012805Y001680D01*
X012743Y001743D01*
X012680Y001680D01*
X005680Y001680D01*
X005180Y002180D01*
X012743Y001743D02*
X013180Y002180D01*
X009993Y014680D02*
X003180Y014680D01*
X027180Y032180D02*
X027180Y032208D01*
X027180Y032180D02*
X027805Y032180D01*
X027805Y030805D01*
X032680Y019680D02*
X033680Y019680D01*
X030680Y017680D02*
X029680Y016680D01*
X031680Y016680D02*
X032680Y015680D01*
M02*
