G75*
%MOIN*%
%OFA0B0*%
%FSLAX24Y24*%
%IPPOS*%
%LPD*%
%AMOC8*
5,1,8,0,0,1.08239X$1,22.5*
%
%ADD10OC8,0.0520*%
%ADD11C,0.0520*%
%ADD12C,0.0560*%
%ADD13OC8,0.0560*%
%ADD14C,0.0600*%
%ADD15OC8,0.0600*%
%ADD16C,0.2000*%
%ADD17R,0.0700X0.0700*%
%ADD18C,0.0700*%
%ADD19C,0.1483*%
%ADD20C,0.1750*%
%ADD21C,0.1500*%
%ADD22C,0.0100*%
%ADD23C,0.0400*%
%ADD24C,0.0240*%
%ADD25C,0.0160*%
D10*
X010180Y016680D03*
X011180Y016680D03*
X010680Y022180D03*
X011680Y022180D03*
X011680Y024680D03*
X012680Y024680D03*
X012180Y026680D03*
X011180Y026680D03*
X010180Y026680D03*
X009180Y026680D03*
X008180Y026680D03*
X007180Y026680D03*
X007180Y029680D03*
X008180Y029680D03*
X009180Y029680D03*
X010180Y029680D03*
X011180Y029680D03*
X012180Y029680D03*
X013180Y029680D03*
X014680Y029680D03*
X015680Y028680D03*
X015680Y027680D03*
X014680Y026680D03*
X013180Y026680D03*
X017180Y026680D03*
X018180Y026680D03*
X019180Y026680D03*
X020180Y026680D03*
X020680Y025680D03*
X021680Y026180D03*
X021680Y027180D03*
X020180Y029680D03*
X019180Y029680D03*
X018180Y029680D03*
X017180Y029680D03*
X017680Y025680D03*
X018530Y021180D03*
X018530Y018180D03*
X018180Y016680D03*
X019180Y016680D03*
X027680Y024680D03*
X028680Y024680D03*
X030180Y025180D03*
X031180Y025180D03*
X032180Y025180D03*
X033180Y025180D03*
X034180Y025180D03*
X034180Y028180D03*
X033180Y028180D03*
X032180Y028180D03*
X031180Y028180D03*
X030180Y028180D03*
X026680Y028680D03*
X026680Y025680D03*
X033680Y020680D03*
X033680Y019680D03*
X033180Y016180D03*
X033180Y013180D03*
X030680Y013180D03*
X029680Y013180D03*
X029680Y011180D03*
X029680Y010180D03*
X029680Y008680D03*
X029680Y007680D03*
X029680Y006180D03*
X029680Y005180D03*
X029680Y003180D03*
X030680Y003180D03*
X020680Y002680D03*
X020680Y003680D03*
D11*
X021420Y003180D02*
X021940Y003180D01*
X021940Y004180D02*
X021420Y004180D01*
X021420Y005180D02*
X021940Y005180D01*
X021940Y006180D02*
X021420Y006180D01*
X021420Y007180D02*
X021940Y007180D01*
X021940Y008180D02*
X021420Y008180D01*
X021420Y009180D02*
X021940Y009180D01*
X021940Y010180D02*
X021420Y010180D01*
X021420Y011180D02*
X021940Y011180D01*
X021940Y012180D02*
X021420Y012180D01*
X021420Y013180D02*
X021940Y013180D01*
X021940Y014180D02*
X021420Y014180D01*
X021420Y015180D02*
X021940Y015180D01*
X021940Y016180D02*
X021420Y016180D01*
X021420Y017180D02*
X021940Y017180D01*
X021940Y018180D02*
X021420Y018180D01*
X021420Y019180D02*
X021940Y019180D01*
X021940Y020180D02*
X021420Y020180D01*
X021420Y021180D02*
X021940Y021180D01*
X022420Y023180D02*
X022940Y023180D01*
X022940Y024180D02*
X022420Y024180D01*
X022420Y025180D02*
X022940Y025180D01*
X022940Y026180D02*
X022420Y026180D01*
X022420Y027180D02*
X022940Y027180D01*
X022940Y028180D02*
X022420Y028180D01*
X022420Y029180D02*
X022940Y029180D01*
X025420Y029180D02*
X025940Y029180D01*
X025940Y028180D02*
X025420Y028180D01*
X025420Y027180D02*
X025940Y027180D01*
X025940Y026180D02*
X025420Y026180D01*
X025420Y025180D02*
X025940Y025180D01*
X025940Y024180D02*
X025420Y024180D01*
X025420Y023180D02*
X025940Y023180D01*
X027420Y021180D02*
X027940Y021180D01*
X028920Y020680D02*
X029440Y020680D01*
X029440Y019680D02*
X028920Y019680D01*
X027940Y019180D02*
X027420Y019180D01*
X027420Y020180D02*
X027940Y020180D01*
X028920Y018680D02*
X029440Y018680D01*
X029440Y017680D02*
X028920Y017680D01*
X027940Y018180D02*
X027420Y018180D01*
X027420Y017180D02*
X027940Y017180D01*
X028920Y016680D02*
X029440Y016680D01*
X029440Y015680D02*
X028920Y015680D01*
X028920Y014680D02*
X029440Y014680D01*
X027940Y014180D02*
X027420Y014180D01*
X027420Y013180D02*
X027940Y013180D01*
X027940Y012180D02*
X027420Y012180D01*
X027420Y011180D02*
X027940Y011180D01*
X027940Y010180D02*
X027420Y010180D01*
X027420Y009180D02*
X027940Y009180D01*
X027940Y008180D02*
X027420Y008180D01*
X027420Y007180D02*
X027940Y007180D01*
X027940Y006180D02*
X027420Y006180D01*
X027420Y005180D02*
X027940Y005180D01*
X027940Y004180D02*
X027420Y004180D01*
X027420Y003180D02*
X027940Y003180D01*
X027940Y002180D02*
X027420Y002180D01*
X030420Y004680D02*
X030940Y004680D01*
X030940Y005680D02*
X030420Y005680D01*
X030420Y006680D02*
X030940Y006680D01*
X030940Y007680D02*
X030420Y007680D01*
X030420Y008680D02*
X030940Y008680D01*
X030940Y009680D02*
X030420Y009680D01*
X030420Y010680D02*
X030940Y010680D01*
X030940Y011680D02*
X030420Y011680D01*
X033420Y011680D02*
X033940Y011680D01*
X033940Y010680D02*
X033420Y010680D01*
X033420Y009680D02*
X033940Y009680D01*
X033940Y008680D02*
X033420Y008680D01*
X033420Y007680D02*
X033940Y007680D01*
X033940Y006680D02*
X033420Y006680D01*
X033420Y005680D02*
X033940Y005680D01*
X033940Y004680D02*
X033420Y004680D01*
X021940Y002180D02*
X021420Y002180D01*
X019440Y002180D02*
X018920Y002180D01*
X018920Y003180D02*
X019440Y003180D01*
X019440Y004180D02*
X018920Y004180D01*
X018920Y005180D02*
X019440Y005180D01*
X019440Y006180D02*
X018920Y006180D01*
X018920Y007180D02*
X019440Y007180D01*
X019440Y008180D02*
X018920Y008180D01*
X018920Y009180D02*
X019440Y009180D01*
X019440Y010180D02*
X018920Y010180D01*
X018920Y011180D02*
X019440Y011180D01*
X019440Y012180D02*
X018920Y012180D01*
X018920Y013180D02*
X019440Y013180D01*
X019440Y014180D02*
X018920Y014180D01*
X018920Y015180D02*
X019440Y015180D01*
X017180Y017920D02*
X017180Y018440D01*
X016180Y018440D02*
X016180Y017920D01*
X015180Y017920D02*
X015180Y018440D01*
X014180Y018440D02*
X014180Y017920D01*
X013180Y017920D02*
X013180Y018440D01*
X012180Y018440D02*
X012180Y017920D01*
X011180Y017920D02*
X011180Y018440D01*
X010180Y018440D02*
X010180Y017920D01*
X009180Y017920D02*
X009180Y018440D01*
X008180Y018440D02*
X008180Y017920D01*
X005440Y015180D02*
X004920Y015180D01*
X004920Y014180D02*
X005440Y014180D01*
X005440Y013180D02*
X004920Y013180D01*
X004920Y012180D02*
X005440Y012180D01*
X005440Y011180D02*
X004920Y011180D01*
X004920Y010180D02*
X005440Y010180D01*
X005440Y009180D02*
X004920Y009180D01*
X004920Y008180D02*
X005440Y008180D01*
X005440Y007180D02*
X004920Y007180D01*
X004920Y006180D02*
X005440Y006180D01*
X005440Y005180D02*
X004920Y005180D01*
X004920Y004180D02*
X005440Y004180D01*
X005440Y003180D02*
X004920Y003180D01*
X004920Y002180D02*
X005440Y002180D01*
X010920Y002180D02*
X011440Y002180D01*
X011440Y003180D02*
X010920Y003180D01*
X010920Y004180D02*
X011440Y004180D01*
X011440Y005180D02*
X010920Y005180D01*
X010920Y006180D02*
X011440Y006180D01*
X011440Y007180D02*
X010920Y007180D01*
X010920Y008180D02*
X011440Y008180D01*
X011440Y009180D02*
X010920Y009180D01*
X010920Y010180D02*
X011440Y010180D01*
X011440Y011180D02*
X010920Y011180D01*
X010920Y012180D02*
X011440Y012180D01*
X011440Y013180D02*
X010920Y013180D01*
X010920Y014180D02*
X011440Y014180D01*
X011440Y015180D02*
X010920Y015180D01*
X012920Y015180D02*
X013440Y015180D01*
X013440Y014180D02*
X012920Y014180D01*
X012920Y013180D02*
X013440Y013180D01*
X013440Y012180D02*
X012920Y012180D01*
X012920Y011180D02*
X013440Y011180D01*
X013440Y010180D02*
X012920Y010180D01*
X012920Y009180D02*
X013440Y009180D01*
X013440Y008180D02*
X012920Y008180D01*
X012920Y007180D02*
X013440Y007180D01*
X013440Y006180D02*
X012920Y006180D01*
X012920Y005180D02*
X013440Y005180D01*
X013440Y004180D02*
X012920Y004180D01*
X012920Y003180D02*
X013440Y003180D01*
X013440Y002180D02*
X012920Y002180D01*
X027420Y015180D02*
X027940Y015180D01*
X027940Y016180D02*
X027420Y016180D01*
X017180Y020920D02*
X017180Y021440D01*
X016180Y021440D02*
X016180Y020920D01*
X015180Y020920D02*
X015180Y021440D01*
X014180Y021440D02*
X014180Y020920D01*
X013180Y020920D02*
X013180Y021440D01*
X012180Y021440D02*
X012180Y020920D01*
X011180Y020920D02*
X011180Y021440D01*
X010180Y021440D02*
X010180Y020920D01*
X009180Y020920D02*
X009180Y021440D01*
X008180Y021440D02*
X008180Y020920D01*
X027680Y025420D02*
X027680Y025940D01*
X028680Y025920D02*
X028680Y026440D01*
X027680Y028420D02*
X027680Y028940D01*
X028680Y028920D02*
X028680Y029440D01*
D12*
X036680Y030400D02*
X036680Y030960D01*
X037680Y030960D02*
X037680Y030400D01*
X038680Y030400D02*
X038680Y030960D01*
X019960Y020680D02*
X019400Y020680D01*
X019400Y019680D02*
X019960Y019680D01*
X019960Y018680D02*
X019400Y018680D01*
X006180Y017460D02*
X006180Y016900D01*
X005180Y016900D02*
X005180Y017460D01*
X004180Y031900D02*
X004180Y032460D01*
X003180Y032460D02*
X003180Y031900D01*
D13*
X030680Y019680D03*
X031680Y019680D03*
X031680Y018680D03*
X030680Y018680D03*
X030680Y017680D03*
X031680Y017680D03*
X031680Y016680D03*
X030680Y016680D03*
X030680Y015680D03*
X030680Y014680D03*
X031680Y014680D03*
X031680Y015680D03*
X031680Y022680D03*
X031680Y023680D03*
X032680Y023680D03*
X032680Y022680D03*
X032180Y003180D03*
X033180Y003180D03*
X033180Y002180D03*
X032180Y002180D03*
D14*
X003480Y026180D02*
X002880Y026180D01*
X002880Y027180D02*
X003480Y027180D01*
X003480Y028180D02*
X002880Y028180D01*
X002880Y029180D02*
X003480Y029180D01*
X003480Y030180D02*
X002880Y030180D01*
X031680Y029980D02*
X031680Y029380D01*
X032680Y029380D02*
X032680Y029980D01*
X033680Y029980D02*
X033680Y029380D01*
X034680Y029380D02*
X034680Y029980D01*
X034680Y032380D02*
X034680Y032980D01*
X033680Y032980D02*
X033680Y032380D01*
X032680Y032380D02*
X032680Y032980D01*
X031680Y032980D02*
X031680Y032380D01*
D15*
X026680Y024680D03*
X035180Y020200D03*
X036180Y019660D03*
X035180Y019110D03*
X036180Y018570D03*
X035180Y018030D03*
X036180Y017480D03*
X035180Y016940D03*
X036180Y016400D03*
X035180Y015850D03*
X034380Y015830D03*
X034380Y014830D03*
X035180Y014770D03*
X036180Y015310D03*
X036180Y014220D03*
X035180Y013680D03*
X036180Y013140D03*
X035180Y012590D03*
X036180Y012050D03*
X035180Y011510D03*
X036180Y010960D03*
X035180Y010420D03*
X036180Y009880D03*
X035180Y009330D03*
X036180Y008790D03*
X035180Y008250D03*
X036180Y007700D03*
X035180Y007160D03*
X034180Y013180D03*
X015680Y026680D03*
X010680Y024680D03*
X003180Y023680D03*
X003180Y022680D03*
X002180Y022680D03*
X002180Y023680D03*
X002180Y021680D03*
X003180Y021680D03*
X003180Y020680D03*
X002180Y020680D03*
X002180Y019680D03*
X003180Y019680D03*
X003180Y018680D03*
X002180Y018680D03*
X002180Y017680D03*
X003180Y017680D03*
X003180Y016680D03*
X002180Y016680D03*
X002180Y015680D03*
X002180Y014680D03*
X003180Y014680D03*
X003180Y015680D03*
X003180Y013680D03*
X002180Y013680D03*
X002180Y012680D03*
X003180Y012680D03*
X003180Y011680D03*
X002180Y011680D03*
X002180Y010680D03*
X003180Y010680D03*
X003180Y009680D03*
X002180Y009680D03*
X002180Y008680D03*
X002180Y007680D03*
X003180Y007680D03*
X003180Y008680D03*
X003180Y006680D03*
X002180Y006680D03*
X002180Y005680D03*
X003180Y005680D03*
X003180Y004680D03*
X002180Y004680D03*
D16*
X035680Y004420D03*
X035680Y022940D03*
D17*
X027180Y031208D03*
D18*
X026180Y031208D03*
X026180Y032208D03*
X027180Y032208D03*
X025180Y032208D03*
X024180Y032208D03*
X023180Y032208D03*
X022180Y032208D03*
X021180Y032208D03*
X020180Y032208D03*
X019180Y032208D03*
X018180Y032208D03*
X017180Y032208D03*
X016180Y032208D03*
X015180Y032208D03*
X014180Y032208D03*
X013180Y032208D03*
X012180Y032208D03*
X011180Y032208D03*
X010180Y032208D03*
X009180Y032208D03*
X008180Y032208D03*
X008180Y031208D03*
X009180Y031208D03*
X010180Y031208D03*
X011180Y031208D03*
X012180Y031208D03*
X013180Y031208D03*
X014180Y031208D03*
X015180Y031208D03*
X016180Y031208D03*
X017180Y031208D03*
X018180Y031208D03*
X019180Y031208D03*
X020180Y031208D03*
X021180Y031208D03*
X022180Y031208D03*
X023180Y031208D03*
X024180Y031208D03*
X025180Y031208D03*
D19*
X029097Y031708D03*
X029097Y022652D03*
X006263Y022652D03*
X006263Y031708D03*
D20*
X035960Y026680D03*
D21*
X037180Y028570D03*
X038361Y026680D03*
D22*
X038080Y027680D02*
X037030Y026630D01*
X037030Y004130D01*
X034630Y001730D01*
X030130Y001730D01*
X027680Y002180D02*
X027680Y002330D01*
X026980Y003030D01*
X026980Y005330D01*
X027380Y005730D01*
X028080Y005730D01*
X029230Y006880D01*
X029230Y013880D01*
X029880Y014530D01*
X029880Y014830D01*
X029480Y015230D01*
X028780Y015230D01*
X028380Y015630D01*
X028380Y016330D01*
X027980Y016730D01*
X025930Y016730D01*
X025230Y017430D01*
X024880Y017280D02*
X024880Y020280D01*
X029730Y025130D01*
X029730Y025730D01*
X029880Y026080D02*
X029480Y026080D01*
X028230Y024830D01*
X028230Y024630D01*
X025830Y022230D01*
X022930Y022230D01*
X020980Y021630D02*
X020980Y020880D01*
X021680Y020180D01*
X021980Y019730D02*
X021280Y019730D01*
X020630Y020380D01*
X020630Y020930D01*
X017930Y023630D01*
X009280Y023630D01*
X007380Y021730D01*
X004130Y021730D01*
X003180Y022680D01*
X002980Y022230D02*
X002630Y022580D01*
X002630Y024780D01*
X001680Y025730D01*
X001680Y031430D01*
X002730Y032480D01*
X002730Y032630D01*
X003530Y033430D01*
X034880Y033430D01*
X037230Y031080D01*
X037230Y029830D01*
X038080Y028980D01*
X038080Y027680D01*
X036680Y029380D02*
X033180Y025880D01*
X033180Y025180D01*
X031730Y025230D02*
X031730Y024280D01*
X032130Y023880D01*
X032130Y023080D01*
X031730Y022680D01*
X031680Y022680D01*
X032130Y022230D01*
X032730Y022230D01*
X034130Y020830D01*
X034130Y019530D01*
X033180Y018580D01*
X033180Y016180D01*
X032130Y015480D02*
X032130Y021580D01*
X031230Y022480D01*
X031230Y023230D01*
X031680Y023680D01*
X031630Y023680D01*
X030730Y024580D01*
X030730Y025230D01*
X029880Y026080D01*
X030830Y026830D02*
X031355Y027355D01*
X030730Y027980D01*
X030730Y031380D01*
X028980Y033130D01*
X008080Y033130D01*
X007480Y032530D01*
X007480Y031630D01*
X006730Y030880D01*
X006730Y029030D01*
X007030Y028730D01*
X008130Y028730D01*
X008830Y028430D02*
X014580Y028430D01*
X016830Y030680D01*
X025680Y030680D01*
X026180Y031180D01*
X026180Y031208D01*
X026680Y030980D02*
X026680Y032430D01*
X026380Y032730D01*
X025980Y032730D01*
X025680Y032430D01*
X025680Y031730D01*
X025180Y031230D01*
X025180Y031208D01*
X026180Y030480D02*
X026680Y030980D01*
X026180Y030480D02*
X017080Y030480D01*
X016530Y029930D01*
X016530Y028930D01*
X015830Y028230D01*
X015630Y028230D01*
X015130Y027730D01*
X008630Y027730D01*
X008830Y028430D02*
X007580Y027180D01*
X003180Y027180D01*
X007180Y029080D02*
X007680Y029580D01*
X007680Y032430D01*
X008180Y032930D01*
X027180Y032930D01*
X028180Y031930D01*
X028180Y031230D01*
X029730Y029680D01*
X029730Y027230D01*
X031730Y025230D01*
X031355Y027355D02*
X032180Y028180D01*
X028680Y029180D02*
X028130Y029180D01*
X027680Y028730D01*
X027680Y028680D01*
X026230Y030130D01*
X017030Y030130D01*
X016730Y029830D01*
X016730Y026780D01*
X015030Y025080D01*
X013980Y025080D01*
X013580Y024680D01*
X012680Y024680D01*
X012130Y024230D02*
X011680Y024680D01*
X012130Y024230D02*
X014480Y024230D01*
X016930Y026680D01*
X017180Y026680D01*
X016280Y026630D02*
X015880Y026230D01*
X010030Y026230D01*
X009580Y026680D01*
X009180Y026680D01*
X008580Y026680D02*
X009830Y025430D01*
X014830Y025430D01*
X016280Y026630D02*
X016280Y026830D01*
X015830Y027230D02*
X016380Y027780D01*
X016380Y028130D01*
X015680Y028680D02*
X015680Y029030D01*
X016080Y029430D01*
X017180Y029680D02*
X017630Y029230D01*
X018230Y029230D01*
X020630Y026830D01*
X020630Y026380D01*
X022680Y024330D01*
X022680Y024180D01*
X020430Y020830D02*
X017980Y023280D01*
X013480Y023280D01*
X012680Y021780D02*
X012680Y020830D01*
X014530Y018980D01*
X014730Y018980D01*
X014730Y018480D02*
X014730Y010930D01*
X014780Y010880D01*
X014780Y009630D01*
X014130Y008980D01*
X013180Y009180D02*
X012230Y009180D01*
X011680Y009730D01*
X005730Y009730D01*
X005180Y009180D01*
X005180Y009030D01*
X003380Y007230D01*
X001980Y007230D01*
X001730Y007480D01*
X001730Y008230D01*
X002180Y008680D01*
X002630Y008130D02*
X002180Y007680D01*
X002630Y008130D02*
X003280Y008130D01*
X003630Y008480D01*
X003630Y008630D01*
X005180Y010180D01*
X005330Y010180D01*
X005780Y010630D01*
X011580Y010630D01*
X012030Y010180D01*
X013180Y010180D01*
X012180Y010730D02*
X014430Y010730D01*
X013180Y011180D02*
X012030Y011180D01*
X011480Y011730D01*
X009380Y011730D01*
X007780Y013330D01*
X007480Y013330D01*
X005330Y011180D01*
X005180Y011180D01*
X003030Y011180D01*
X002630Y010780D01*
X002630Y009480D01*
X002280Y009130D01*
X001980Y009130D01*
X001530Y008680D01*
X001530Y007330D01*
X002180Y006680D01*
X003180Y006680D02*
X003330Y006680D01*
X004380Y007730D01*
X004880Y007730D02*
X005580Y007730D01*
X006580Y008730D01*
X006930Y008880D02*
X006580Y009230D01*
X006930Y008880D02*
X006930Y008580D01*
X005530Y007180D01*
X005180Y007180D01*
X004880Y006730D02*
X005580Y006730D01*
X007280Y008430D01*
X007280Y009380D01*
X007830Y008880D02*
X008330Y009380D01*
X008830Y009180D02*
X008830Y008530D01*
X011180Y006180D01*
X012330Y006180D01*
X012880Y006730D01*
X014280Y006730D01*
X014330Y006780D01*
X016280Y006780D01*
X017030Y006030D01*
X017380Y006030D01*
X017380Y004830D01*
X017030Y004880D02*
X017030Y004680D01*
X017530Y004180D01*
X019180Y004180D01*
X019880Y004230D02*
X019880Y002930D01*
X019180Y002230D01*
X019180Y002180D01*
X019130Y002230D01*
X017230Y002230D01*
X016730Y001730D01*
X012780Y001730D01*
X012330Y002180D01*
X011180Y002180D01*
X010330Y003180D02*
X010780Y003630D01*
X012730Y003630D01*
X013180Y003180D01*
X013180Y004180D02*
X013330Y004180D01*
X014880Y005730D01*
X015680Y005730D01*
X015830Y006080D02*
X017030Y004880D01*
X017380Y006030D02*
X019030Y006030D01*
X019180Y006180D01*
X018330Y006380D02*
X016980Y006380D01*
X016180Y007180D01*
X015580Y007180D01*
X016130Y007530D02*
X013530Y007530D01*
X013180Y007180D01*
X012780Y007730D02*
X018030Y007730D01*
X018480Y008180D01*
X019180Y008180D01*
X018630Y008630D02*
X019180Y009180D01*
X018630Y008630D02*
X012480Y008630D01*
X011930Y009180D01*
X011180Y009180D01*
X011080Y010080D02*
X011180Y010180D01*
X011080Y010080D02*
X006080Y010080D01*
X005530Y010680D02*
X003180Y010680D01*
X002180Y010030D02*
X001730Y010480D01*
X001730Y013880D01*
X002080Y014230D01*
X002380Y014230D01*
X002730Y014580D01*
X002730Y014880D01*
X003080Y015230D01*
X003380Y015230D01*
X004280Y016130D01*
X004280Y019330D01*
X004980Y020030D01*
X006330Y020030D01*
X008180Y018180D01*
X006780Y017630D02*
X006780Y016880D01*
X005530Y015630D01*
X004780Y015630D01*
X003280Y014130D01*
X002780Y014130D01*
X002280Y015130D02*
X001980Y015130D01*
X001330Y014480D01*
X001330Y005880D01*
X002080Y005130D01*
X003380Y005130D01*
X004330Y004180D01*
X005180Y003180D02*
X004480Y002480D01*
X004480Y002030D01*
X004980Y001530D01*
X021880Y001530D01*
X026980Y006630D01*
X027980Y006630D01*
X028380Y007030D01*
X028380Y011330D01*
X027680Y012030D01*
X027680Y012180D01*
X027980Y012630D02*
X027280Y012630D01*
X026580Y011930D01*
X026580Y011230D01*
X022080Y006730D01*
X016930Y006730D01*
X016130Y007530D01*
X016780Y007380D02*
X017980Y007380D01*
X018230Y007630D01*
X022180Y007630D01*
X026380Y011830D01*
X026380Y012730D01*
X027680Y014030D01*
X027680Y014180D01*
X027680Y015180D02*
X025680Y015180D01*
X024680Y016180D01*
X024680Y017030D01*
X021980Y019730D01*
X022430Y018730D02*
X021280Y018730D01*
X020430Y019580D01*
X020430Y020830D01*
X017630Y021580D02*
X017630Y017780D01*
X017330Y017480D01*
X016880Y017480D01*
X016180Y018180D01*
X015730Y018580D02*
X015730Y016630D01*
X019180Y013180D01*
X018730Y012630D02*
X019180Y012180D01*
X018730Y012630D02*
X016530Y012630D01*
X015780Y012880D02*
X018405Y010255D01*
X018780Y010630D01*
X019480Y010630D01*
X019880Y011030D01*
X019880Y011230D01*
X021280Y012630D01*
X021980Y012630D01*
X024130Y014780D01*
X024130Y016530D01*
X024480Y016680D02*
X024480Y016080D01*
X026030Y014530D01*
X026030Y011980D01*
X027530Y011180D02*
X021980Y005630D01*
X021280Y005630D01*
X019880Y004230D01*
X021230Y002630D02*
X020330Y001730D01*
X017530Y001730D01*
X017380Y001880D01*
X021230Y002630D02*
X021980Y002630D01*
X026530Y007180D01*
X027680Y007180D01*
X030680Y005830D02*
X032980Y008130D01*
X032980Y011980D01*
X034180Y013180D01*
X033330Y014280D02*
X032130Y015480D01*
X033330Y014280D02*
X035230Y014280D01*
X035630Y013880D01*
X035630Y006780D01*
X034080Y005230D01*
X033280Y005230D01*
X032980Y005530D01*
X032980Y005830D01*
X033680Y006530D01*
X033680Y006680D01*
X032730Y007580D02*
X032730Y002630D01*
X033180Y002180D01*
X033180Y003180D02*
X033180Y003330D01*
X034530Y004680D01*
X034530Y005380D01*
X036630Y007480D01*
X036630Y016630D01*
X036230Y017030D01*
X035980Y017030D01*
X035180Y017830D01*
X035180Y018030D01*
X028380Y015330D02*
X028380Y013030D01*
X027980Y012630D01*
X027680Y011180D02*
X027530Y011180D01*
X028380Y015330D02*
X027680Y016030D01*
X027680Y016180D01*
X025230Y016130D02*
X025230Y016930D01*
X024880Y017280D01*
X024480Y016680D02*
X022430Y018730D01*
X019230Y018080D02*
X019230Y017230D01*
X020980Y015480D01*
X020980Y013880D01*
X021680Y013180D01*
X019180Y011180D02*
X019030Y011030D01*
X018130Y011030D01*
X018405Y010255D02*
X017880Y009730D01*
X017880Y009130D01*
X017730Y008980D01*
X017530Y009680D02*
X015430Y011780D01*
X015430Y014730D01*
X015080Y015880D02*
X015080Y008980D01*
X012780Y007730D02*
X012330Y008180D01*
X011180Y008180D01*
X010330Y006180D02*
X010780Y005730D01*
X012580Y005730D01*
X013030Y006180D01*
X013180Y006180D01*
X012880Y005730D02*
X013780Y005730D01*
X014480Y006430D01*
X014980Y006430D02*
X013730Y005180D01*
X013180Y005180D01*
X012880Y004730D02*
X013580Y004730D01*
X014930Y006080D01*
X015830Y006080D01*
X015830Y006430D02*
X014980Y006430D01*
X012880Y005730D02*
X011880Y004730D01*
X010780Y004730D01*
X009830Y005680D01*
X003180Y005680D01*
X003080Y006230D02*
X003380Y006230D01*
X004880Y007730D01*
X004880Y006730D02*
X004330Y006180D01*
X005180Y006180D02*
X010330Y006180D01*
X009330Y005180D02*
X010330Y004180D01*
X010580Y003730D02*
X011030Y004180D01*
X011180Y004180D01*
X012330Y004180D01*
X012880Y004730D01*
X010580Y003730D02*
X002480Y003730D01*
X001130Y005080D01*
X001130Y014630D01*
X002180Y015680D01*
X002630Y015480D02*
X002280Y015130D01*
X002630Y015480D02*
X002630Y015880D01*
X002380Y016130D01*
X002080Y016130D01*
X001730Y016480D01*
X001730Y018880D01*
X002180Y019330D01*
X002180Y019680D01*
X001980Y020130D02*
X000930Y019080D01*
X000930Y004980D01*
X004530Y001380D01*
X005180Y003180D02*
X010330Y003180D01*
X009330Y005180D02*
X005180Y005180D01*
X003080Y006230D02*
X002530Y005680D01*
X002180Y005680D01*
X003180Y007680D02*
X004380Y008880D01*
X005530Y010680D02*
X007630Y012780D01*
X007630Y012980D01*
X007380Y013530D02*
X009980Y013530D01*
X010780Y012730D01*
X012730Y012730D01*
X013180Y013180D01*
X013580Y013730D02*
X004230Y013730D01*
X003180Y012680D01*
X002980Y012230D02*
X004380Y012230D01*
X004880Y012730D01*
X006380Y012730D01*
X006430Y012780D01*
X007030Y013180D02*
X007380Y013530D01*
X007030Y013180D02*
X005180Y013180D01*
X002980Y012230D02*
X002530Y012680D01*
X002180Y012680D01*
X002180Y010030D02*
X002180Y009680D01*
X007830Y008880D02*
X007830Y006830D01*
X012180Y010730D02*
X011730Y011180D01*
X011180Y011180D01*
X013580Y013730D02*
X014180Y014330D01*
X014180Y018180D01*
X014730Y018480D02*
X012930Y020280D01*
X012730Y020280D01*
X012180Y021180D02*
X012180Y019030D01*
X012630Y018580D01*
X012630Y015480D01*
X012480Y015330D01*
X012480Y014880D01*
X013180Y014180D01*
X015780Y012980D02*
X015780Y012880D01*
X010630Y015980D02*
X008730Y014080D01*
X010630Y015980D02*
X010630Y016730D01*
X012080Y018180D01*
X012180Y018180D01*
X011680Y019030D02*
X011180Y018530D01*
X011180Y018180D01*
X010080Y020230D02*
X005280Y020230D01*
X003280Y022230D01*
X002980Y022230D01*
X002380Y020130D02*
X001980Y020130D01*
X002380Y020130D02*
X002630Y019880D01*
X002630Y017480D01*
X002180Y017030D01*
X002180Y016680D01*
X008580Y022180D02*
X010080Y022180D01*
X010530Y022630D01*
X016580Y022630D01*
X017630Y021580D01*
X016180Y021180D02*
X016180Y019030D01*
X015730Y018580D01*
X011180Y021180D02*
X011030Y021180D01*
X010080Y020230D01*
X008580Y026680D02*
X008180Y026680D01*
X011180Y029680D02*
X011380Y029680D01*
X012680Y030980D01*
X012680Y032430D01*
X012980Y032730D01*
X022680Y032730D01*
X023180Y032230D01*
X023180Y032208D01*
X022680Y029180D02*
X024830Y029180D01*
X025330Y028680D01*
X026680Y028680D01*
X036680Y029380D02*
X036680Y030680D01*
X015830Y027230D02*
X015530Y027230D01*
X015430Y027330D01*
X015230Y027330D01*
X033680Y008680D02*
X033680Y008530D01*
X032730Y007580D01*
X030680Y005830D02*
X030680Y005680D01*
D23*
X030130Y001730D03*
X018330Y006380D03*
X016780Y007380D03*
X015580Y007180D03*
X015830Y006430D03*
X015680Y005730D03*
X014480Y006430D03*
X014130Y008980D03*
X015080Y008980D03*
X014430Y010730D03*
X016530Y012630D03*
X015780Y012980D03*
X015430Y014730D03*
X015080Y015880D03*
X014730Y018980D03*
X012730Y020280D03*
X012680Y021780D03*
X013480Y023280D03*
X014830Y025430D03*
X016280Y026830D03*
X015230Y027330D03*
X016380Y028130D03*
X016080Y029430D03*
X014430Y028780D03*
X008630Y027730D03*
X008130Y028730D03*
X007180Y029080D03*
X007680Y023730D03*
X008580Y022180D03*
X005230Y019330D03*
X004980Y020030D03*
X006780Y017630D03*
X008730Y014080D03*
X007630Y012980D03*
X006430Y012780D03*
X006080Y010080D03*
X006580Y009230D03*
X006580Y008730D03*
X007280Y009380D03*
X008330Y009380D03*
X008830Y009180D03*
X007830Y006830D03*
X004330Y006180D03*
X004380Y007730D03*
X004380Y008880D03*
X004330Y004180D03*
X004530Y001380D03*
X010330Y004180D03*
X017380Y004830D03*
X017380Y001880D03*
X017730Y008980D03*
X017530Y009680D03*
X018130Y011030D03*
X024130Y016530D03*
X025230Y016130D03*
X025230Y017430D03*
X022430Y019780D03*
X020980Y021630D03*
X022930Y022230D03*
X019230Y018080D03*
X011680Y019030D03*
X002780Y014130D03*
X026030Y011980D03*
X032980Y015130D03*
X029730Y025730D03*
X030830Y026830D03*
D24*
X031180Y028180D02*
X031830Y028830D01*
X031880Y028830D01*
X032680Y029630D01*
X032680Y029680D01*
X032680Y031830D01*
X033880Y031830D01*
X034230Y032180D01*
X034230Y032230D01*
X034680Y032680D01*
X032680Y032680D02*
X032680Y031830D01*
X032680Y029680D02*
X032730Y029530D01*
X033430Y028830D01*
X033880Y028830D01*
X034230Y029180D01*
X034230Y029230D01*
X034680Y029680D01*
X035930Y026680D02*
X035960Y026680D01*
X035930Y026680D02*
X035930Y024930D01*
X034430Y023430D01*
X034430Y016730D01*
X033380Y015680D01*
X032980Y015680D01*
X032680Y015980D01*
X032680Y019680D01*
X033680Y020680D01*
X031680Y018680D02*
X031680Y017680D01*
X031680Y016680D01*
X031680Y015680D01*
X031680Y014680D01*
X031780Y014630D01*
X032580Y014630D01*
X033480Y013730D01*
X035080Y013730D01*
X035180Y013680D01*
X035180Y013330D01*
X034430Y012580D01*
X034430Y011480D01*
X033730Y010780D01*
X033680Y010680D01*
X034430Y009930D01*
X034430Y006430D01*
X033680Y005680D01*
X029680Y003180D02*
X028430Y003180D01*
X028430Y004430D01*
X027680Y005180D01*
X027680Y003180D02*
X028430Y003180D01*
X029680Y013180D02*
X029980Y013180D01*
X031480Y014680D01*
X031680Y014680D01*
X032980Y015130D02*
X032980Y015680D01*
X023430Y023980D02*
X023130Y023680D01*
X021930Y023680D01*
X021930Y021880D01*
X022430Y021380D01*
X022430Y019780D01*
X019680Y020680D02*
X018530Y019530D01*
X018530Y018180D01*
X017180Y018180D02*
X016680Y018680D01*
X016680Y021630D01*
X016080Y022230D01*
X011780Y022230D01*
X011680Y022180D01*
X011680Y020730D01*
X010680Y019730D01*
X010680Y017730D01*
X010180Y017230D01*
X010180Y016680D01*
X010080Y016630D01*
X008130Y014680D01*
X004730Y014680D01*
X003730Y013680D01*
X003180Y013680D01*
X006180Y017180D02*
X006180Y018380D01*
X005230Y019330D01*
X007680Y023730D02*
X007680Y024730D01*
X006880Y025530D01*
X006830Y025630D01*
X007680Y026480D01*
X007680Y026880D01*
X007980Y027180D01*
X014180Y027180D01*
X014680Y026680D01*
X014430Y028780D02*
X013705Y029505D01*
X015180Y030980D01*
X015180Y031208D01*
X013705Y029505D02*
X013380Y029180D01*
X009980Y029180D01*
X009680Y029480D01*
X009680Y029880D01*
X008380Y031180D01*
X008180Y031180D01*
X008180Y031208D01*
X003180Y030180D02*
X002730Y029730D01*
X002680Y029730D01*
X002330Y029380D01*
X002330Y025980D01*
X002680Y025630D01*
X006830Y025630D01*
X017680Y025680D02*
X019680Y023680D01*
X021930Y023680D01*
X023430Y023980D02*
X023430Y026430D01*
X022680Y027180D01*
X025680Y025180D02*
X025680Y024680D01*
X026680Y024680D01*
X027680Y024680D01*
X025680Y024680D02*
X025680Y024180D01*
X011180Y015180D02*
X011180Y014180D01*
X010730Y002680D02*
X012680Y002680D01*
X013180Y002180D01*
X010730Y002680D02*
X010230Y002180D01*
X005180Y002180D01*
D25*
X002447Y001167D02*
X002240Y000960D01*
X038120Y000960D01*
X037913Y001167D01*
X037775Y001500D01*
X037775Y001860D01*
X037913Y002193D01*
X038167Y002447D01*
X038500Y002585D01*
X038860Y002585D01*
X039193Y002447D01*
X039400Y002240D01*
X039400Y032120D01*
X039193Y031913D01*
X038860Y031775D01*
X038500Y031775D01*
X038167Y031913D01*
X037913Y032167D01*
X037775Y032500D01*
X037775Y032860D01*
X037913Y033193D01*
X038120Y033400D01*
X035235Y033400D01*
X037325Y031310D01*
X037352Y031283D01*
X037419Y031350D01*
X037588Y031420D01*
X037771Y031420D01*
X037941Y031350D01*
X038070Y031221D01*
X038140Y031051D01*
X038140Y030308D01*
X038070Y030139D01*
X037941Y030010D01*
X037771Y029940D01*
X037588Y029940D01*
X037460Y029993D01*
X037460Y029925D01*
X038175Y029210D01*
X039400Y029210D01*
X039400Y029052D02*
X038310Y029052D01*
X038310Y029075D02*
X038175Y029210D01*
X038310Y029075D02*
X038310Y027585D01*
X038281Y027556D01*
X038281Y026760D01*
X038281Y026600D01*
X037434Y026600D01*
X037443Y026524D01*
X037466Y026422D01*
X037501Y026324D01*
X037546Y026229D01*
X037601Y026141D01*
X037667Y026059D01*
X037740Y025985D01*
X037822Y025920D01*
X037911Y025865D01*
X038005Y025819D01*
X038103Y025785D01*
X038205Y025762D01*
X038281Y025753D01*
X038281Y026600D01*
X038441Y026600D01*
X038441Y025753D01*
X038517Y025762D01*
X038619Y025785D01*
X038718Y025819D01*
X038812Y025865D01*
X038900Y025920D01*
X038982Y025985D01*
X039056Y026059D01*
X039121Y026141D01*
X039176Y026229D01*
X039222Y026324D01*
X039256Y026422D01*
X039279Y026524D01*
X039288Y026600D01*
X038441Y026600D01*
X038441Y026760D01*
X038281Y026760D01*
X037485Y026760D01*
X037260Y026535D01*
X037260Y004035D01*
X034860Y001635D01*
X034725Y001500D01*
X030437Y001500D01*
X030345Y001408D01*
X030206Y001350D01*
X030054Y001350D01*
X029915Y001408D01*
X029808Y001515D01*
X029750Y001654D01*
X029750Y001806D01*
X029808Y001945D01*
X029915Y002052D01*
X030054Y002110D01*
X030206Y002110D01*
X030345Y002052D01*
X030437Y001960D01*
X031749Y001960D01*
X031720Y001989D01*
X031720Y002371D01*
X031989Y002640D01*
X032371Y002640D01*
X032640Y002371D01*
X032640Y001989D01*
X032611Y001960D01*
X032749Y001960D01*
X032720Y001989D01*
X032720Y002315D01*
X032500Y002535D01*
X032500Y002849D01*
X032371Y002720D01*
X031989Y002720D01*
X031720Y002989D01*
X031720Y003371D01*
X031989Y003640D01*
X032371Y003640D01*
X032500Y003511D01*
X032500Y007325D01*
X031209Y006033D01*
X031313Y005929D01*
X031380Y005768D01*
X031380Y005592D01*
X031313Y005431D01*
X031189Y005307D01*
X031028Y005240D01*
X030332Y005240D01*
X030171Y005307D01*
X030120Y005358D01*
X030120Y005180D01*
X029680Y005180D01*
X029680Y005180D01*
X029680Y005180D01*
X029680Y005620D01*
X029862Y005620D01*
X030044Y005438D01*
X029980Y005592D01*
X029980Y005768D01*
X030044Y005922D01*
X029862Y005740D01*
X029498Y005740D01*
X029240Y005998D01*
X029240Y006362D01*
X029498Y006620D01*
X029862Y006620D01*
X030044Y006438D01*
X029980Y006592D01*
X029980Y006768D01*
X030047Y006929D01*
X030171Y007053D01*
X030332Y007120D01*
X031028Y007120D01*
X031189Y007053D01*
X031313Y006929D01*
X031354Y006830D01*
X032750Y008225D01*
X032750Y012075D01*
X033700Y013025D01*
X033700Y013379D01*
X033981Y013660D01*
X034379Y013660D01*
X034660Y013379D01*
X034660Y012981D01*
X034379Y012700D01*
X034025Y012700D01*
X033445Y012120D01*
X034028Y012120D01*
X034189Y012053D01*
X034313Y011929D01*
X034380Y011768D01*
X034380Y011592D01*
X034313Y011431D01*
X034189Y011307D01*
X034028Y011240D01*
X033332Y011240D01*
X033210Y011291D01*
X033210Y011067D01*
X033251Y011088D01*
X033317Y011109D01*
X033385Y011120D01*
X033680Y011120D01*
X033680Y010680D01*
X033680Y010680D01*
X034380Y010680D01*
X034380Y010715D01*
X034369Y010783D01*
X034348Y010849D01*
X034316Y010911D01*
X034276Y010967D01*
X034227Y011016D01*
X034171Y011056D01*
X034109Y011088D01*
X034043Y011109D01*
X033975Y011120D01*
X033680Y011120D01*
X033680Y010680D01*
X033680Y010680D01*
X034380Y010680D01*
X034380Y010645D01*
X034369Y010577D01*
X034348Y010511D01*
X034316Y010449D01*
X034276Y010393D01*
X034227Y010344D01*
X034171Y010304D01*
X034109Y010272D01*
X034043Y010251D01*
X033975Y010240D01*
X033680Y010240D01*
X033680Y010680D01*
X033680Y010680D01*
X033680Y010240D01*
X033385Y010240D01*
X033317Y010251D01*
X033251Y010272D01*
X033210Y010293D01*
X033210Y010069D01*
X033332Y010120D01*
X034028Y010120D01*
X034189Y010053D01*
X034313Y009929D01*
X034380Y009768D01*
X034380Y009592D01*
X034313Y009431D01*
X034189Y009307D01*
X034028Y009240D01*
X033332Y009240D01*
X033210Y009291D01*
X033210Y009069D01*
X033332Y009120D01*
X034028Y009120D01*
X034189Y009053D01*
X034313Y008929D01*
X034380Y008768D01*
X034380Y008592D01*
X034313Y008431D01*
X034189Y008307D01*
X034028Y008240D01*
X033715Y008240D01*
X033595Y008120D01*
X034028Y008120D01*
X034189Y008053D01*
X034313Y007929D01*
X034380Y007768D01*
X034380Y007592D01*
X034313Y007431D01*
X034189Y007307D01*
X034028Y007240D01*
X033332Y007240D01*
X033171Y007307D01*
X033047Y007431D01*
X033006Y007530D01*
X032960Y007485D01*
X032960Y006135D01*
X033151Y006327D01*
X033047Y006431D01*
X032980Y006592D01*
X032980Y006768D01*
X033047Y006929D01*
X033171Y007053D01*
X033332Y007120D01*
X034028Y007120D01*
X034189Y007053D01*
X034313Y006929D01*
X034380Y006768D01*
X034380Y006592D01*
X034313Y006431D01*
X034189Y006307D01*
X034028Y006240D01*
X033715Y006240D01*
X033595Y006120D01*
X033680Y006120D01*
X033680Y005680D01*
X033680Y005680D01*
X033680Y006120D01*
X033975Y006120D01*
X034043Y006109D01*
X034109Y006088D01*
X034171Y006056D01*
X034227Y006016D01*
X034276Y005967D01*
X034316Y005911D01*
X034348Y005849D01*
X034354Y005829D01*
X035205Y006680D01*
X034981Y006680D01*
X034700Y006961D01*
X034700Y007359D01*
X034981Y007640D01*
X035379Y007640D01*
X035400Y007619D01*
X035400Y007791D01*
X035379Y007770D01*
X034981Y007770D01*
X034700Y008051D01*
X034700Y008449D01*
X034981Y008730D01*
X035379Y008730D01*
X035400Y008709D01*
X035400Y008871D01*
X035379Y008850D01*
X034981Y008850D01*
X034700Y009131D01*
X034700Y009529D01*
X034981Y009810D01*
X035379Y009810D01*
X035400Y009789D01*
X035400Y009961D01*
X035379Y009940D01*
X034981Y009940D01*
X034700Y010221D01*
X034700Y010619D01*
X034981Y010900D01*
X035379Y010900D01*
X035400Y010879D01*
X035400Y011051D01*
X035379Y011030D01*
X034981Y011030D01*
X034700Y011311D01*
X034700Y011709D01*
X034981Y011990D01*
X035379Y011990D01*
X035400Y011969D01*
X035400Y012131D01*
X035379Y012110D01*
X034981Y012110D01*
X034700Y012391D01*
X034700Y012789D01*
X034981Y013070D01*
X035379Y013070D01*
X035400Y013049D01*
X035400Y013221D01*
X035379Y013200D01*
X035200Y013200D01*
X035200Y013660D01*
X035160Y013660D01*
X035160Y013200D01*
X034981Y013200D01*
X034700Y013481D01*
X034700Y013660D01*
X035160Y013660D01*
X035160Y013700D01*
X034700Y013700D01*
X034700Y013879D01*
X034871Y014050D01*
X033235Y014050D01*
X032035Y015250D01*
X031968Y015317D01*
X031871Y015220D01*
X031690Y015220D01*
X031690Y015670D01*
X031670Y015670D01*
X031670Y015220D01*
X031489Y015220D01*
X031220Y015489D01*
X031220Y015670D01*
X031670Y015670D01*
X031670Y015690D01*
X031670Y016140D01*
X031489Y016140D01*
X031220Y015871D01*
X031220Y015690D01*
X031670Y015690D01*
X031690Y015690D01*
X031690Y016140D01*
X031871Y016140D01*
X031900Y016111D01*
X031900Y016249D01*
X031871Y016220D01*
X031690Y016220D01*
X031690Y016670D01*
X031670Y016670D01*
X031670Y016220D01*
X031489Y016220D01*
X031220Y016489D01*
X031220Y016670D01*
X031670Y016670D01*
X031670Y016690D01*
X031670Y017140D01*
X031489Y017140D01*
X031220Y016871D01*
X031220Y016690D01*
X031670Y016690D01*
X031690Y016690D01*
X031690Y017140D01*
X031871Y017140D01*
X031900Y017111D01*
X031900Y017249D01*
X031871Y017220D01*
X031690Y017220D01*
X031690Y017670D01*
X031670Y017670D01*
X031670Y017220D01*
X031489Y017220D01*
X031220Y017489D01*
X031220Y017670D01*
X031670Y017670D01*
X031670Y017690D01*
X031670Y018140D01*
X031489Y018140D01*
X031220Y017871D01*
X031220Y017690D01*
X031670Y017690D01*
X031690Y017690D01*
X031690Y018140D01*
X031871Y018140D01*
X031900Y018111D01*
X031900Y018249D01*
X031871Y018220D01*
X031690Y018220D01*
X031690Y018670D01*
X031670Y018670D01*
X031670Y018220D01*
X031489Y018220D01*
X031220Y018489D01*
X031220Y018670D01*
X031670Y018670D01*
X031670Y018690D01*
X031670Y019140D01*
X031489Y019140D01*
X031220Y018871D01*
X031220Y018690D01*
X031670Y018690D01*
X031690Y018690D01*
X031690Y019140D01*
X031871Y019140D01*
X031900Y019111D01*
X031900Y019249D01*
X031871Y019220D01*
X031690Y019220D01*
X031690Y019670D01*
X031670Y019670D01*
X031670Y019220D01*
X031489Y019220D01*
X031220Y019489D01*
X031220Y019670D01*
X031670Y019670D01*
X031670Y019690D01*
X031670Y020140D01*
X031489Y020140D01*
X031220Y019871D01*
X031220Y019690D01*
X031670Y019690D01*
X031690Y019690D01*
X031690Y020140D01*
X031871Y020140D01*
X031900Y020111D01*
X031900Y021485D01*
X031135Y022250D01*
X031000Y022385D01*
X031000Y023325D01*
X031220Y023545D01*
X031220Y023765D01*
X030500Y024485D01*
X030500Y024878D01*
X030362Y024740D01*
X029998Y024740D01*
X029832Y024906D01*
X025110Y020185D01*
X025110Y017792D01*
X025154Y017810D01*
X025306Y017810D01*
X025445Y017752D01*
X025552Y017645D01*
X025610Y017506D01*
X025610Y017375D01*
X026025Y016960D01*
X027035Y016960D01*
X026980Y017092D01*
X026980Y017268D01*
X027047Y017429D01*
X027171Y017553D01*
X027332Y017620D01*
X028028Y017620D01*
X028189Y017553D01*
X028313Y017429D01*
X028380Y017268D01*
X028380Y017092D01*
X028313Y016931D01*
X028209Y016827D01*
X028210Y016825D01*
X028506Y016529D01*
X028480Y016592D01*
X028480Y016768D01*
X028547Y016929D01*
X028671Y017053D01*
X028832Y017120D01*
X029528Y017120D01*
X029689Y017053D01*
X029813Y016929D01*
X029880Y016768D01*
X029880Y016592D01*
X029813Y016431D01*
X029689Y016307D01*
X029528Y016240D01*
X028832Y016240D01*
X028671Y016307D01*
X028610Y016368D01*
X028610Y015992D01*
X028671Y016053D01*
X028832Y016120D01*
X029528Y016120D01*
X029689Y016053D01*
X029813Y015929D01*
X029880Y015768D01*
X029880Y015592D01*
X029813Y015431D01*
X029709Y015327D01*
X029710Y015325D01*
X030110Y014925D01*
X030110Y014435D01*
X029975Y014300D01*
X029460Y013785D01*
X029460Y013582D01*
X029498Y013620D01*
X029680Y013620D01*
X029680Y013180D01*
X029680Y013180D01*
X030120Y013180D01*
X030120Y013362D01*
X029862Y013620D01*
X029680Y013620D01*
X029680Y013180D01*
X029680Y013180D01*
X030120Y013180D01*
X030120Y012998D01*
X029862Y012740D01*
X029680Y012740D01*
X029680Y013180D01*
X029680Y013180D01*
X029680Y012740D01*
X029498Y012740D01*
X029460Y012778D01*
X029460Y011582D01*
X029498Y011620D01*
X029862Y011620D01*
X030044Y011438D01*
X029980Y011592D01*
X029980Y011768D01*
X030047Y011929D01*
X030171Y012053D01*
X030332Y012120D01*
X031028Y012120D01*
X031189Y012053D01*
X031313Y011929D01*
X031380Y011768D01*
X031380Y011592D01*
X031313Y011431D01*
X031189Y011307D01*
X031028Y011240D01*
X030332Y011240D01*
X030171Y011307D01*
X030120Y011358D01*
X030120Y011002D01*
X030171Y011053D01*
X030332Y011120D01*
X031028Y011120D01*
X031189Y011053D01*
X031313Y010929D01*
X031380Y010768D01*
X031380Y010592D01*
X031313Y010431D01*
X031189Y010307D01*
X031028Y010240D01*
X030332Y010240D01*
X030171Y010307D01*
X030120Y010358D01*
X030120Y010002D01*
X030171Y010053D01*
X030332Y010120D01*
X031028Y010120D01*
X031189Y010053D01*
X031313Y009929D01*
X031380Y009768D01*
X031380Y009592D01*
X031313Y009431D01*
X031189Y009307D01*
X031028Y009240D01*
X030332Y009240D01*
X030171Y009307D01*
X030047Y009431D01*
X029980Y009592D01*
X029980Y009768D01*
X030044Y009922D01*
X029862Y009740D01*
X029498Y009740D01*
X029460Y009778D01*
X029460Y009082D01*
X029498Y009120D01*
X029862Y009120D01*
X030050Y008932D01*
X030171Y009053D01*
X030332Y009120D01*
X031028Y009120D01*
X031189Y009053D01*
X031313Y008929D01*
X031380Y008768D01*
X031380Y008592D01*
X031313Y008431D01*
X031189Y008307D01*
X031028Y008240D01*
X030332Y008240D01*
X030171Y008307D01*
X030050Y008428D01*
X029862Y008240D01*
X029498Y008240D01*
X029460Y008278D01*
X029460Y008082D01*
X029498Y008120D01*
X029862Y008120D01*
X030050Y007932D01*
X030171Y008053D01*
X030332Y008120D01*
X031028Y008120D01*
X031189Y008053D01*
X031313Y007929D01*
X031380Y007768D01*
X031380Y007592D01*
X031313Y007431D01*
X031189Y007307D01*
X031028Y007240D01*
X030332Y007240D01*
X030171Y007307D01*
X030050Y007428D01*
X029862Y007240D01*
X029498Y007240D01*
X029460Y007278D01*
X029460Y006785D01*
X029325Y006650D01*
X028209Y005533D01*
X028313Y005429D01*
X028380Y005268D01*
X028380Y005092D01*
X028325Y004959D01*
X028600Y004684D01*
X028684Y004600D01*
X028730Y004490D01*
X028730Y003480D01*
X029358Y003480D01*
X029498Y003620D01*
X029862Y003620D01*
X030120Y003362D01*
X030120Y002998D01*
X029862Y002740D01*
X029498Y002740D01*
X029358Y002880D01*
X028262Y002880D01*
X028189Y002807D01*
X028028Y002740D01*
X027595Y002740D01*
X027715Y002620D01*
X028028Y002620D01*
X028189Y002553D01*
X028313Y002429D01*
X028380Y002268D01*
X028380Y002092D01*
X028313Y001931D01*
X028189Y001807D01*
X028028Y001740D01*
X027332Y001740D01*
X027171Y001807D01*
X027047Y001931D01*
X026980Y002092D01*
X026980Y002268D01*
X027047Y002429D01*
X027151Y002533D01*
X026885Y002800D01*
X026750Y002935D01*
X026750Y005425D01*
X027150Y005825D01*
X027151Y005827D01*
X027047Y005931D01*
X026980Y006092D01*
X026980Y006268D01*
X027006Y006331D01*
X022110Y001435D01*
X021975Y001300D01*
X004908Y001300D01*
X004852Y001165D01*
X004745Y001058D01*
X004606Y001000D01*
X004454Y001000D01*
X004315Y001058D01*
X004208Y001165D01*
X004150Y001304D01*
X004150Y001435D01*
X000960Y004625D01*
X000960Y002240D01*
X001167Y002447D01*
X001500Y002585D01*
X001860Y002585D01*
X002193Y002447D01*
X002447Y002193D01*
X002585Y001860D01*
X002585Y001500D01*
X002447Y001167D01*
X002435Y001156D02*
X004217Y001156D01*
X004150Y001314D02*
X002508Y001314D01*
X002574Y001473D02*
X004112Y001473D01*
X003954Y001631D02*
X002585Y001631D01*
X002585Y001790D02*
X003795Y001790D01*
X003637Y001948D02*
X002549Y001948D01*
X002483Y002107D02*
X003478Y002107D01*
X003320Y002265D02*
X002375Y002265D01*
X002216Y002424D02*
X003161Y002424D01*
X003003Y002582D02*
X001867Y002582D01*
X001493Y002582D02*
X000960Y002582D01*
X000960Y002424D02*
X001144Y002424D01*
X000985Y002265D02*
X000960Y002265D01*
X000960Y002741D02*
X002844Y002741D01*
X002686Y002899D02*
X000960Y002899D01*
X000960Y003058D02*
X002527Y003058D01*
X002369Y003216D02*
X000960Y003216D01*
X000960Y003375D02*
X002210Y003375D01*
X002052Y003533D02*
X000960Y003533D01*
X000960Y003692D02*
X001893Y003692D01*
X001735Y003850D02*
X000960Y003850D01*
X000960Y004009D02*
X001576Y004009D01*
X001418Y004167D02*
X000960Y004167D01*
X000960Y004326D02*
X001259Y004326D01*
X001101Y004484D02*
X000960Y004484D01*
X004945Y002620D02*
X005065Y002740D01*
X005528Y002740D01*
X005689Y002807D01*
X005813Y002931D01*
X005821Y002950D01*
X010425Y002950D01*
X010506Y003030D01*
X010547Y002931D01*
X010671Y002807D01*
X010832Y002740D01*
X011528Y002740D01*
X011689Y002807D01*
X011813Y002931D01*
X011880Y003092D01*
X011880Y003268D01*
X011825Y003400D01*
X012535Y003400D01*
X012480Y003268D01*
X012480Y003092D01*
X012547Y002931D01*
X012671Y002807D01*
X012832Y002740D01*
X013528Y002740D01*
X013689Y002807D01*
X013813Y002931D01*
X013880Y003092D01*
X013880Y003268D01*
X013813Y003429D01*
X013689Y003553D01*
X013528Y003620D01*
X013065Y003620D01*
X012945Y003740D01*
X013528Y003740D01*
X013689Y003807D01*
X013813Y003931D01*
X013880Y004092D01*
X013880Y004268D01*
X013840Y004365D01*
X014975Y005500D01*
X015373Y005500D01*
X015465Y005408D01*
X015604Y005350D01*
X015756Y005350D01*
X015895Y005408D01*
X016002Y005515D01*
X016022Y005563D01*
X016800Y004785D01*
X016800Y004585D01*
X017300Y004085D01*
X017435Y003950D01*
X018539Y003950D01*
X018547Y003931D01*
X018671Y003807D01*
X018832Y003740D01*
X019528Y003740D01*
X019650Y003791D01*
X019650Y003569D01*
X019528Y003620D01*
X018832Y003620D01*
X018671Y003553D01*
X018547Y003429D01*
X018480Y003268D01*
X018480Y003092D01*
X018547Y002931D01*
X018671Y002807D01*
X018832Y002740D01*
X019365Y002740D01*
X019245Y002620D01*
X018832Y002620D01*
X018671Y002553D01*
X018578Y002460D01*
X017135Y002460D01*
X017000Y002325D01*
X016635Y001960D01*
X013822Y001960D01*
X013848Y002011D01*
X013869Y002077D01*
X013880Y002145D01*
X013880Y002180D01*
X013880Y002215D01*
X013869Y002283D01*
X013848Y002349D01*
X013816Y002411D01*
X013776Y002467D01*
X013727Y002516D01*
X013671Y002556D01*
X013609Y002588D01*
X013543Y002609D01*
X013475Y002620D01*
X013180Y002620D01*
X013180Y002180D01*
X013180Y002180D01*
X013880Y002180D01*
X013180Y002180D01*
X013180Y002180D01*
X013180Y002620D01*
X012885Y002620D01*
X012817Y002609D01*
X012751Y002588D01*
X012689Y002556D01*
X012633Y002516D01*
X012584Y002467D01*
X012544Y002411D01*
X012512Y002349D01*
X012506Y002329D01*
X012425Y002410D01*
X011821Y002410D01*
X011813Y002429D01*
X011689Y002553D01*
X011528Y002620D01*
X010832Y002620D01*
X010671Y002553D01*
X010547Y002429D01*
X010480Y002268D01*
X010480Y002092D01*
X010547Y001931D01*
X010671Y001807D01*
X010784Y001760D01*
X005571Y001760D01*
X005609Y001772D01*
X005671Y001804D01*
X005727Y001844D01*
X005776Y001893D01*
X005816Y001949D01*
X005848Y002011D01*
X005869Y002077D01*
X005880Y002145D01*
X005880Y002180D01*
X005880Y002215D01*
X005869Y002283D01*
X005848Y002349D01*
X005816Y002411D01*
X005776Y002467D01*
X005727Y002516D01*
X005671Y002556D01*
X005609Y002588D01*
X005543Y002609D01*
X005475Y002620D01*
X005180Y002620D01*
X005180Y002180D01*
X005180Y002180D01*
X005880Y002180D01*
X005180Y002180D01*
X005180Y002180D01*
X005180Y002620D01*
X004945Y002620D01*
X005180Y002582D02*
X005180Y002582D01*
X005180Y002424D02*
X005180Y002424D01*
X005180Y002265D02*
X005180Y002265D01*
X005620Y002582D02*
X010741Y002582D01*
X010831Y002741D02*
X005529Y002741D01*
X005781Y002899D02*
X010579Y002899D01*
X010545Y002424D02*
X005807Y002424D01*
X005872Y002265D02*
X010480Y002265D01*
X010480Y002107D02*
X005874Y002107D01*
X005815Y001948D02*
X010540Y001948D01*
X010713Y001790D02*
X005643Y001790D01*
X004843Y001156D02*
X037925Y001156D01*
X037852Y001314D02*
X021989Y001314D01*
X022148Y001473D02*
X029850Y001473D01*
X029760Y001631D02*
X022306Y001631D01*
X022465Y001790D02*
X027213Y001790D01*
X027040Y001948D02*
X022623Y001948D01*
X022782Y002107D02*
X026980Y002107D01*
X026980Y002265D02*
X022940Y002265D01*
X023099Y002424D02*
X027045Y002424D01*
X027103Y002582D02*
X023257Y002582D01*
X023416Y002741D02*
X026944Y002741D01*
X026786Y002899D02*
X023574Y002899D01*
X023733Y003058D02*
X026750Y003058D01*
X026750Y003216D02*
X023891Y003216D01*
X024050Y003375D02*
X026750Y003375D01*
X026750Y003533D02*
X024208Y003533D01*
X024367Y003692D02*
X026750Y003692D01*
X026750Y003850D02*
X024525Y003850D01*
X024684Y004009D02*
X026750Y004009D01*
X026750Y004167D02*
X024842Y004167D01*
X025001Y004326D02*
X026750Y004326D01*
X026750Y004484D02*
X025159Y004484D01*
X025318Y004643D02*
X026750Y004643D01*
X026750Y004801D02*
X025476Y004801D01*
X025635Y004960D02*
X026750Y004960D01*
X026750Y005118D02*
X025793Y005118D01*
X025952Y005277D02*
X026750Y005277D01*
X026760Y005435D02*
X026110Y005435D01*
X026269Y005594D02*
X026918Y005594D01*
X027077Y005752D02*
X026427Y005752D01*
X026586Y005911D02*
X027067Y005911D01*
X026990Y006069D02*
X026744Y006069D01*
X026903Y006228D02*
X026980Y006228D01*
X025886Y006862D02*
X023537Y006862D01*
X023695Y007020D02*
X026045Y007020D01*
X026203Y007179D02*
X023854Y007179D01*
X024012Y007337D02*
X026362Y007337D01*
X026435Y007410D02*
X022354Y003330D01*
X022313Y003429D01*
X022189Y003553D01*
X022028Y003620D01*
X021332Y003620D01*
X021171Y003553D01*
X021120Y003502D01*
X021120Y003680D01*
X021120Y003858D01*
X021171Y003807D01*
X021332Y003740D01*
X022028Y003740D01*
X022189Y003807D01*
X022313Y003931D01*
X022380Y004092D01*
X022380Y004268D01*
X022313Y004429D01*
X022189Y004553D01*
X022028Y004620D01*
X021332Y004620D01*
X021171Y004553D01*
X021047Y004429D01*
X020980Y004268D01*
X020980Y004092D01*
X021044Y003938D01*
X020862Y004120D01*
X020680Y004120D01*
X020680Y003680D01*
X020680Y003680D01*
X021120Y003680D01*
X020680Y003680D01*
X020680Y003680D01*
X020680Y003240D01*
X020862Y003240D01*
X021044Y003422D01*
X020980Y003268D01*
X020980Y003092D01*
X021044Y002938D01*
X020862Y003120D01*
X020498Y003120D01*
X020240Y002862D01*
X020240Y002498D01*
X020498Y002240D01*
X020515Y002240D01*
X020235Y001960D01*
X019825Y001960D01*
X019880Y002092D01*
X019880Y002268D01*
X019813Y002429D01*
X019759Y002483D01*
X020110Y002835D01*
X020110Y003025D01*
X020110Y004135D01*
X021006Y005030D01*
X021047Y004931D01*
X021171Y004807D01*
X021332Y004740D01*
X022028Y004740D01*
X022189Y004807D01*
X022313Y004931D01*
X022380Y005092D01*
X022380Y005268D01*
X022313Y005429D01*
X022209Y005533D01*
X022210Y005535D01*
X027006Y010331D01*
X026980Y010268D01*
X026980Y010092D01*
X027047Y009931D01*
X027171Y009807D01*
X027332Y009740D01*
X028028Y009740D01*
X028150Y009791D01*
X028150Y009569D01*
X028028Y009620D01*
X027332Y009620D01*
X027171Y009553D01*
X027047Y009429D01*
X026980Y009268D01*
X026980Y009092D01*
X027047Y008931D01*
X027171Y008807D01*
X027332Y008740D01*
X028028Y008740D01*
X028150Y008791D01*
X028150Y008569D01*
X028028Y008620D01*
X027332Y008620D01*
X027171Y008553D01*
X027047Y008429D01*
X026980Y008268D01*
X026980Y008092D01*
X027047Y007931D01*
X027171Y007807D01*
X027332Y007740D01*
X028028Y007740D01*
X028150Y007791D01*
X028150Y007569D01*
X028028Y007620D01*
X027332Y007620D01*
X027171Y007553D01*
X027047Y007429D01*
X027039Y007410D01*
X026435Y007410D01*
X027113Y007496D02*
X024171Y007496D01*
X024329Y007654D02*
X028150Y007654D01*
X027165Y007813D02*
X024488Y007813D01*
X024646Y007971D02*
X027030Y007971D01*
X026980Y008130D02*
X024805Y008130D01*
X024963Y008288D02*
X026988Y008288D01*
X027064Y008447D02*
X025122Y008447D01*
X025280Y008605D02*
X027296Y008605D01*
X027276Y008764D02*
X025439Y008764D01*
X025597Y008922D02*
X027056Y008922D01*
X026985Y009081D02*
X025756Y009081D01*
X025914Y009239D02*
X026980Y009239D01*
X027034Y009398D02*
X026073Y009398D01*
X026231Y009556D02*
X027178Y009556D01*
X027105Y009873D02*
X026548Y009873D01*
X026390Y009715D02*
X028150Y009715D01*
X028150Y008764D02*
X028084Y008764D01*
X028064Y008605D02*
X028150Y008605D01*
X029460Y008130D02*
X032654Y008130D01*
X032750Y008288D02*
X031143Y008288D01*
X031320Y008447D02*
X032750Y008447D01*
X032750Y008605D02*
X031380Y008605D01*
X031380Y008764D02*
X032750Y008764D01*
X032750Y008922D02*
X031316Y008922D01*
X031123Y009081D02*
X032750Y009081D01*
X032750Y009239D02*
X029460Y009239D01*
X029460Y009398D02*
X030080Y009398D01*
X029995Y009556D02*
X029460Y009556D01*
X029460Y009715D02*
X029980Y009715D01*
X029995Y009873D02*
X030024Y009873D01*
X030120Y010032D02*
X030149Y010032D01*
X030120Y010190D02*
X032750Y010190D01*
X032750Y010032D02*
X031211Y010032D01*
X031336Y009873D02*
X032750Y009873D01*
X032750Y009715D02*
X031380Y009715D01*
X031365Y009556D02*
X032750Y009556D01*
X032750Y009398D02*
X031280Y009398D01*
X030237Y009081D02*
X029902Y009081D01*
X029910Y008288D02*
X030217Y008288D01*
X030089Y007971D02*
X030011Y007971D01*
X029959Y007337D02*
X030141Y007337D01*
X030138Y007020D02*
X029460Y007020D01*
X029460Y006862D02*
X030019Y006862D01*
X029980Y006703D02*
X029378Y006703D01*
X029422Y006545D02*
X029220Y006545D01*
X029264Y006386D02*
X029061Y006386D01*
X028903Y006228D02*
X029240Y006228D01*
X029240Y006069D02*
X028744Y006069D01*
X028586Y005911D02*
X029327Y005911D01*
X029486Y005752D02*
X028427Y005752D01*
X028269Y005594D02*
X029471Y005594D01*
X029498Y005620D02*
X029240Y005362D01*
X029240Y005180D01*
X029680Y005180D01*
X030120Y005180D01*
X030120Y005002D01*
X030133Y005016D01*
X030189Y005056D01*
X030251Y005088D01*
X030317Y005109D01*
X030385Y005120D01*
X030680Y005120D01*
X030680Y004680D01*
X030680Y004680D01*
X031380Y004680D01*
X031380Y004715D01*
X031369Y004783D01*
X031348Y004849D01*
X031316Y004911D01*
X031276Y004967D01*
X031227Y005016D01*
X031171Y005056D01*
X031109Y005088D01*
X031043Y005109D01*
X030975Y005120D01*
X030680Y005120D01*
X030680Y004680D01*
X030680Y004680D01*
X031380Y004680D01*
X031380Y004645D01*
X031369Y004577D01*
X031348Y004511D01*
X031316Y004449D01*
X031276Y004393D01*
X031227Y004344D01*
X031171Y004304D01*
X031109Y004272D01*
X031043Y004251D01*
X030975Y004240D01*
X030680Y004240D01*
X030680Y004680D01*
X030680Y004680D01*
X030680Y004680D01*
X029980Y004680D01*
X029980Y004715D01*
X029991Y004783D01*
X030012Y004849D01*
X030044Y004911D01*
X030072Y004950D01*
X029862Y004740D01*
X029680Y004740D01*
X029680Y005180D01*
X029680Y005180D01*
X029680Y005180D01*
X029680Y005620D01*
X029498Y005620D01*
X029680Y005594D02*
X029680Y005594D01*
X029680Y005435D02*
X029680Y005435D01*
X029680Y005277D02*
X029680Y005277D01*
X029680Y005180D02*
X029240Y005180D01*
X029240Y004998D01*
X029498Y004740D01*
X029680Y004740D01*
X029680Y005180D01*
X029680Y005118D02*
X029680Y005118D01*
X029680Y004960D02*
X029680Y004960D01*
X029680Y004801D02*
X029680Y004801D01*
X029923Y004801D02*
X029997Y004801D01*
X029980Y004680D02*
X029980Y004645D01*
X029991Y004577D01*
X030012Y004511D01*
X030044Y004449D01*
X030084Y004393D01*
X030133Y004344D01*
X030189Y004304D01*
X030251Y004272D01*
X030317Y004251D01*
X030385Y004240D01*
X030680Y004240D01*
X030680Y004680D01*
X029980Y004680D01*
X029980Y004643D02*
X028642Y004643D01*
X028730Y004484D02*
X030026Y004484D01*
X030159Y004326D02*
X028730Y004326D01*
X028730Y004167D02*
X032500Y004167D01*
X032500Y004009D02*
X028730Y004009D01*
X028730Y003850D02*
X032500Y003850D01*
X032500Y003692D02*
X028730Y003692D01*
X028730Y003533D02*
X029411Y003533D01*
X029949Y003533D02*
X030411Y003533D01*
X030498Y003620D02*
X030240Y003362D01*
X030240Y003180D01*
X030680Y003180D01*
X031120Y003180D01*
X031120Y003362D01*
X030862Y003620D01*
X030680Y003620D01*
X030680Y003180D01*
X030680Y003180D01*
X030680Y003180D01*
X031120Y003180D01*
X031120Y002998D01*
X030862Y002740D01*
X030680Y002740D01*
X030680Y003180D01*
X030680Y003180D01*
X030680Y003180D01*
X030680Y003620D01*
X030498Y003620D01*
X030680Y003533D02*
X030680Y003533D01*
X030680Y003375D02*
X030680Y003375D01*
X030680Y003216D02*
X030680Y003216D01*
X030680Y003180D02*
X030240Y003180D01*
X030240Y002998D01*
X030498Y002740D01*
X030680Y002740D01*
X030680Y003180D01*
X030680Y003058D02*
X030680Y003058D01*
X030680Y002899D02*
X030680Y002899D01*
X030680Y002741D02*
X030680Y002741D01*
X030863Y002741D02*
X031969Y002741D01*
X031931Y002582D02*
X028119Y002582D01*
X028029Y002741D02*
X029497Y002741D01*
X029863Y002741D02*
X030497Y002741D01*
X030339Y002899D02*
X030021Y002899D01*
X030120Y003058D02*
X030240Y003058D01*
X030240Y003216D02*
X030120Y003216D01*
X030108Y003375D02*
X030252Y003375D01*
X030949Y003533D02*
X031882Y003533D01*
X031724Y003375D02*
X031108Y003375D01*
X031120Y003216D02*
X031720Y003216D01*
X031720Y003058D02*
X031120Y003058D01*
X031021Y002899D02*
X031810Y002899D01*
X032391Y002741D02*
X032500Y002741D01*
X032500Y002582D02*
X032429Y002582D01*
X032587Y002424D02*
X032611Y002424D01*
X032640Y002265D02*
X032720Y002265D01*
X032720Y002107D02*
X032640Y002107D01*
X031720Y002107D02*
X030214Y002107D01*
X030046Y002107D02*
X028380Y002107D01*
X028380Y002265D02*
X031720Y002265D01*
X031773Y002424D02*
X028315Y002424D01*
X028320Y001948D02*
X029811Y001948D01*
X029750Y001790D02*
X028147Y001790D01*
X030410Y001473D02*
X037786Y001473D01*
X037775Y001631D02*
X034856Y001631D01*
X035015Y001790D02*
X037775Y001790D01*
X037811Y001948D02*
X035173Y001948D01*
X035332Y002107D02*
X037877Y002107D01*
X037985Y002265D02*
X035490Y002265D01*
X035649Y002424D02*
X038144Y002424D01*
X038493Y002582D02*
X035807Y002582D01*
X035966Y002741D02*
X039400Y002741D01*
X039400Y002899D02*
X036124Y002899D01*
X036283Y003058D02*
X039400Y003058D01*
X039400Y003216D02*
X036441Y003216D01*
X036600Y003375D02*
X039400Y003375D01*
X039400Y003533D02*
X036758Y003533D01*
X036917Y003692D02*
X039400Y003692D01*
X039400Y003850D02*
X037075Y003850D01*
X037234Y004009D02*
X039400Y004009D01*
X039400Y004167D02*
X037260Y004167D01*
X037260Y004326D02*
X039400Y004326D01*
X039400Y004484D02*
X037260Y004484D01*
X037260Y004643D02*
X039400Y004643D01*
X039400Y004801D02*
X037260Y004801D01*
X037260Y004960D02*
X039400Y004960D01*
X039400Y005118D02*
X037260Y005118D01*
X037260Y005277D02*
X039400Y005277D01*
X039400Y005435D02*
X037260Y005435D01*
X037260Y005594D02*
X039400Y005594D01*
X039400Y005752D02*
X037260Y005752D01*
X037260Y005911D02*
X039400Y005911D01*
X039400Y006069D02*
X037260Y006069D01*
X037260Y006228D02*
X039400Y006228D01*
X039400Y006386D02*
X037260Y006386D01*
X037260Y006545D02*
X039400Y006545D01*
X039400Y006703D02*
X037260Y006703D01*
X037260Y006862D02*
X039400Y006862D01*
X039400Y007020D02*
X037260Y007020D01*
X037260Y007179D02*
X039400Y007179D01*
X039400Y007337D02*
X037260Y007337D01*
X037260Y007496D02*
X039400Y007496D01*
X039400Y007654D02*
X037260Y007654D01*
X037260Y007813D02*
X039400Y007813D01*
X039400Y007971D02*
X037260Y007971D01*
X037260Y008130D02*
X039400Y008130D01*
X039400Y008288D02*
X037260Y008288D01*
X037260Y008447D02*
X039400Y008447D01*
X039400Y008605D02*
X037260Y008605D01*
X037260Y008764D02*
X039400Y008764D01*
X039400Y008922D02*
X037260Y008922D01*
X037260Y009081D02*
X039400Y009081D01*
X039400Y009239D02*
X037260Y009239D01*
X037260Y009398D02*
X039400Y009398D01*
X039400Y009556D02*
X037260Y009556D01*
X037260Y009715D02*
X039400Y009715D01*
X039400Y009873D02*
X037260Y009873D01*
X037260Y010032D02*
X039400Y010032D01*
X039400Y010190D02*
X037260Y010190D01*
X037260Y010349D02*
X039400Y010349D01*
X039400Y010507D02*
X037260Y010507D01*
X037260Y010666D02*
X039400Y010666D01*
X039400Y010824D02*
X037260Y010824D01*
X037260Y010983D02*
X039400Y010983D01*
X039400Y011141D02*
X037260Y011141D01*
X037260Y011300D02*
X039400Y011300D01*
X039400Y011458D02*
X037260Y011458D01*
X037260Y011617D02*
X039400Y011617D01*
X039400Y011775D02*
X037260Y011775D01*
X037260Y011934D02*
X039400Y011934D01*
X039400Y012092D02*
X037260Y012092D01*
X037260Y012251D02*
X039400Y012251D01*
X039400Y012409D02*
X037260Y012409D01*
X037260Y012568D02*
X039400Y012568D01*
X039400Y012726D02*
X037260Y012726D01*
X037260Y012885D02*
X039400Y012885D01*
X039400Y013043D02*
X037260Y013043D01*
X037260Y013202D02*
X039400Y013202D01*
X039400Y013360D02*
X037260Y013360D01*
X037260Y013519D02*
X039400Y013519D01*
X039400Y013677D02*
X037260Y013677D01*
X037260Y013836D02*
X039400Y013836D01*
X039400Y013994D02*
X037260Y013994D01*
X037260Y014153D02*
X039400Y014153D01*
X039400Y014311D02*
X037260Y014311D01*
X037260Y014470D02*
X039400Y014470D01*
X039400Y014628D02*
X037260Y014628D01*
X037260Y014787D02*
X039400Y014787D01*
X039400Y014945D02*
X037260Y014945D01*
X037260Y015104D02*
X039400Y015104D01*
X039400Y015262D02*
X037260Y015262D01*
X037260Y015421D02*
X039400Y015421D01*
X039400Y015579D02*
X037260Y015579D01*
X037260Y015738D02*
X039400Y015738D01*
X039400Y015896D02*
X037260Y015896D01*
X037260Y016055D02*
X039400Y016055D01*
X039400Y016213D02*
X037260Y016213D01*
X037260Y016372D02*
X039400Y016372D01*
X039400Y016530D02*
X037260Y016530D01*
X037260Y016689D02*
X039400Y016689D01*
X039400Y016847D02*
X037260Y016847D01*
X037260Y017006D02*
X039400Y017006D01*
X039400Y017164D02*
X037260Y017164D01*
X037260Y017323D02*
X039400Y017323D01*
X039400Y017481D02*
X037260Y017481D01*
X037260Y017640D02*
X039400Y017640D01*
X039400Y017798D02*
X037260Y017798D01*
X037260Y017957D02*
X039400Y017957D01*
X039400Y018115D02*
X037260Y018115D01*
X037260Y018274D02*
X039400Y018274D01*
X039400Y018432D02*
X037260Y018432D01*
X037260Y018591D02*
X039400Y018591D01*
X039400Y018749D02*
X037260Y018749D01*
X037260Y018908D02*
X039400Y018908D01*
X039400Y019066D02*
X037260Y019066D01*
X037260Y019225D02*
X039400Y019225D01*
X039400Y019383D02*
X037260Y019383D01*
X037260Y019542D02*
X039400Y019542D01*
X039400Y019700D02*
X037260Y019700D01*
X037260Y019859D02*
X039400Y019859D01*
X039400Y020017D02*
X037260Y020017D01*
X037260Y020176D02*
X039400Y020176D01*
X039400Y020334D02*
X037260Y020334D01*
X037260Y020493D02*
X039400Y020493D01*
X039400Y020651D02*
X037260Y020651D01*
X037260Y020810D02*
X039400Y020810D01*
X039400Y020968D02*
X037260Y020968D01*
X037260Y021127D02*
X039400Y021127D01*
X039400Y021285D02*
X037260Y021285D01*
X037260Y021444D02*
X039400Y021444D01*
X039400Y021602D02*
X037260Y021602D01*
X037260Y021761D02*
X039400Y021761D01*
X039400Y021919D02*
X037260Y021919D01*
X037260Y022078D02*
X039400Y022078D01*
X039400Y022236D02*
X037260Y022236D01*
X037260Y022395D02*
X039400Y022395D01*
X039400Y022553D02*
X037260Y022553D01*
X037260Y022712D02*
X039400Y022712D01*
X039400Y022870D02*
X037260Y022870D01*
X037260Y023029D02*
X039400Y023029D01*
X039400Y023187D02*
X037260Y023187D01*
X037260Y023346D02*
X039400Y023346D01*
X039400Y023504D02*
X037260Y023504D01*
X037260Y023663D02*
X039400Y023663D01*
X039400Y023821D02*
X037260Y023821D01*
X037260Y023980D02*
X039400Y023980D01*
X039400Y024138D02*
X037260Y024138D01*
X037260Y024297D02*
X039400Y024297D01*
X039400Y024455D02*
X037260Y024455D01*
X037260Y024614D02*
X039400Y024614D01*
X039400Y024772D02*
X037260Y024772D01*
X037260Y024931D02*
X039400Y024931D01*
X039400Y025089D02*
X037260Y025089D01*
X037260Y025248D02*
X039400Y025248D01*
X039400Y025406D02*
X037260Y025406D01*
X037260Y025565D02*
X039400Y025565D01*
X039400Y025723D02*
X037260Y025723D01*
X037260Y025882D02*
X037884Y025882D01*
X037686Y026040D02*
X037260Y026040D01*
X037260Y026199D02*
X037565Y026199D01*
X037489Y026357D02*
X037260Y026357D01*
X037260Y026516D02*
X037445Y026516D01*
X037399Y026674D02*
X038281Y026674D01*
X038281Y026516D02*
X038441Y026516D01*
X038441Y026674D02*
X039400Y026674D01*
X039288Y026760D02*
X039279Y026836D01*
X039256Y026938D01*
X039222Y027036D01*
X039176Y027131D01*
X039121Y027219D01*
X039056Y027301D01*
X038982Y027375D01*
X038900Y027440D01*
X038812Y027495D01*
X038718Y027541D01*
X038619Y027575D01*
X038517Y027598D01*
X038441Y027607D01*
X038441Y026760D01*
X039288Y026760D01*
X039280Y026833D02*
X039400Y026833D01*
X039400Y026991D02*
X039238Y026991D01*
X039164Y027150D02*
X039400Y027150D01*
X039400Y027308D02*
X039048Y027308D01*
X038857Y027467D02*
X039400Y027467D01*
X039400Y027625D02*
X038310Y027625D01*
X038310Y027784D02*
X039400Y027784D01*
X039400Y027942D02*
X038310Y027942D01*
X038310Y028101D02*
X039400Y028101D01*
X039400Y028259D02*
X038310Y028259D01*
X038310Y028418D02*
X039400Y028418D01*
X039400Y028576D02*
X038310Y028576D01*
X038310Y028735D02*
X039400Y028735D01*
X039400Y028893D02*
X038310Y028893D01*
X038017Y029369D02*
X039400Y029369D01*
X039400Y029527D02*
X037858Y029527D01*
X037700Y029686D02*
X039400Y029686D01*
X039400Y029844D02*
X037541Y029844D01*
X037922Y030003D02*
X038438Y030003D01*
X038419Y030010D02*
X038588Y029940D01*
X038771Y029940D01*
X038941Y030010D01*
X039070Y030139D01*
X039140Y030308D01*
X039140Y031051D01*
X039070Y031221D01*
X038941Y031350D01*
X038771Y031420D01*
X038588Y031420D01*
X038419Y031350D01*
X038290Y031221D01*
X038220Y031051D01*
X038220Y030308D01*
X038290Y030139D01*
X038419Y030010D01*
X038281Y030161D02*
X038079Y030161D01*
X038140Y030320D02*
X038220Y030320D01*
X038220Y030478D02*
X038140Y030478D01*
X038140Y030637D02*
X038220Y030637D01*
X038220Y030795D02*
X038140Y030795D01*
X038140Y030954D02*
X038220Y030954D01*
X038245Y031112D02*
X038115Y031112D01*
X038020Y031271D02*
X038340Y031271D01*
X038187Y031905D02*
X036731Y031905D01*
X036572Y032063D02*
X038017Y032063D01*
X037890Y032222D02*
X036414Y032222D01*
X036255Y032380D02*
X037825Y032380D01*
X037775Y032539D02*
X036097Y032539D01*
X035938Y032697D02*
X037775Y032697D01*
X037775Y032856D02*
X035780Y032856D01*
X035621Y033014D02*
X037839Y033014D01*
X037904Y033173D02*
X035463Y033173D01*
X035304Y033331D02*
X038051Y033331D01*
X039343Y032063D02*
X039400Y032063D01*
X039400Y031905D02*
X039173Y031905D01*
X039400Y031746D02*
X036889Y031746D01*
X037048Y031588D02*
X039400Y031588D01*
X039400Y031429D02*
X037206Y031429D01*
X036572Y031413D02*
X036419Y031350D01*
X036290Y031221D01*
X036220Y031051D01*
X036220Y030308D01*
X036290Y030139D01*
X036419Y030010D01*
X036450Y029997D01*
X036450Y029475D01*
X033085Y026110D01*
X033085Y026110D01*
X032950Y025975D01*
X032950Y025572D01*
X032740Y025362D01*
X032740Y024998D01*
X032998Y024740D01*
X033362Y024740D01*
X033620Y024998D01*
X033620Y025362D01*
X033410Y025572D01*
X033410Y025785D01*
X036250Y028625D01*
X036250Y028385D01*
X036392Y028043D01*
X036653Y027781D01*
X036995Y027640D01*
X037365Y027640D01*
X037707Y027781D01*
X037850Y027925D01*
X037850Y027775D01*
X036989Y026914D01*
X036943Y027087D01*
X036804Y027328D01*
X036607Y027524D01*
X036367Y027663D01*
X036098Y027735D01*
X035821Y027735D01*
X035552Y027663D01*
X035312Y027524D01*
X035115Y027328D01*
X034976Y027087D01*
X034905Y026819D01*
X034905Y026541D01*
X034976Y026273D01*
X035115Y026032D01*
X035312Y025836D01*
X035552Y025697D01*
X035630Y025676D01*
X035630Y025054D01*
X034260Y023684D01*
X034176Y023600D01*
X034130Y023490D01*
X034130Y021155D01*
X032968Y022317D01*
X033140Y022489D01*
X033140Y022871D01*
X032871Y023140D01*
X032489Y023140D01*
X032360Y023011D01*
X032360Y023349D01*
X032489Y023220D01*
X032871Y023220D01*
X033140Y023489D01*
X033140Y023871D01*
X032871Y024140D01*
X032489Y024140D01*
X032342Y023993D01*
X032225Y024110D01*
X031960Y024375D01*
X031960Y024778D01*
X031998Y024740D01*
X032362Y024740D01*
X032620Y024998D01*
X032620Y025362D01*
X032362Y025620D01*
X031998Y025620D01*
X031832Y025454D01*
X031825Y025460D01*
X030835Y026450D01*
X030906Y026450D01*
X031045Y026508D01*
X031152Y026615D01*
X031210Y026754D01*
X031210Y026885D01*
X031450Y027125D01*
X031450Y027125D01*
X031585Y027260D01*
X032065Y027740D01*
X032362Y027740D01*
X032620Y027998D01*
X032620Y028362D01*
X032362Y028620D01*
X031998Y028620D01*
X031740Y028362D01*
X031740Y028065D01*
X031355Y027680D01*
X031295Y027740D01*
X031362Y027740D01*
X031620Y027998D01*
X031620Y028180D01*
X031620Y028362D01*
X031362Y028620D01*
X031180Y028620D01*
X031180Y028180D01*
X031180Y028180D01*
X031620Y028180D01*
X031180Y028180D01*
X031180Y028180D01*
X031180Y028620D01*
X030998Y028620D01*
X030960Y028582D01*
X030960Y031475D01*
X030825Y031610D01*
X029235Y033200D01*
X031252Y033200D01*
X031200Y033075D01*
X031200Y032285D01*
X031273Y032108D01*
X031408Y031973D01*
X031585Y031900D01*
X031775Y031900D01*
X031952Y031973D01*
X032087Y032108D01*
X032160Y032285D01*
X032160Y033075D01*
X032108Y033200D01*
X032253Y033200D01*
X032235Y033164D01*
X032212Y033092D01*
X032200Y033018D01*
X032200Y032700D01*
X032660Y032700D01*
X032660Y032660D01*
X032700Y032660D01*
X032700Y032700D01*
X033160Y032700D01*
X033160Y033018D01*
X033148Y033092D01*
X033125Y033164D01*
X033107Y033200D01*
X033252Y033200D01*
X033200Y033075D01*
X033200Y032285D01*
X033273Y032108D01*
X033408Y031973D01*
X033585Y031900D01*
X033775Y031900D01*
X033952Y031973D01*
X034087Y032108D01*
X034160Y032285D01*
X034160Y033075D01*
X034108Y033200D01*
X034253Y033200D01*
X034235Y033164D01*
X034212Y033092D01*
X034200Y033018D01*
X034200Y032700D01*
X034660Y032700D01*
X034660Y032660D01*
X034700Y032660D01*
X034700Y032700D01*
X035160Y032700D01*
X035160Y032825D01*
X036572Y031413D01*
X036556Y031429D02*
X030960Y031429D01*
X030960Y031271D02*
X036340Y031271D01*
X036245Y031112D02*
X030960Y031112D01*
X030960Y030954D02*
X036220Y030954D01*
X036220Y030795D02*
X030960Y030795D01*
X030960Y030637D02*
X036220Y030637D01*
X036220Y030478D02*
X030960Y030478D01*
X030960Y030320D02*
X031341Y030320D01*
X031408Y030387D02*
X031273Y030252D01*
X031200Y030075D01*
X031200Y029285D01*
X031273Y029108D01*
X031408Y028973D01*
X031585Y028900D01*
X031775Y028900D01*
X031952Y028973D01*
X032087Y029108D01*
X032160Y029285D01*
X032160Y030075D01*
X032087Y030252D01*
X031952Y030387D01*
X031775Y030460D01*
X031585Y030460D01*
X031408Y030387D01*
X031235Y030161D02*
X030960Y030161D01*
X030960Y030003D02*
X031200Y030003D01*
X031200Y029844D02*
X030960Y029844D01*
X030960Y029686D02*
X031200Y029686D01*
X031200Y029527D02*
X030960Y029527D01*
X030960Y029369D02*
X031200Y029369D01*
X031231Y029210D02*
X030960Y029210D01*
X030960Y029052D02*
X031330Y029052D01*
X030960Y028893D02*
X035868Y028893D01*
X036026Y029052D02*
X035030Y029052D01*
X035046Y029067D02*
X035091Y029128D01*
X035125Y029196D01*
X035148Y029268D01*
X035160Y029342D01*
X035160Y029660D01*
X034700Y029660D01*
X034700Y029700D01*
X035160Y029700D01*
X035160Y030018D01*
X035148Y030092D01*
X035125Y030164D01*
X035091Y030232D01*
X035046Y030293D01*
X034993Y030346D01*
X034932Y030391D01*
X034864Y030425D01*
X034792Y030448D01*
X034718Y030460D01*
X034700Y030460D01*
X034700Y029700D01*
X034660Y029700D01*
X034660Y030460D01*
X034642Y030460D01*
X034568Y030448D01*
X034496Y030425D01*
X034428Y030391D01*
X034367Y030346D01*
X034314Y030293D01*
X034269Y030232D01*
X034235Y030164D01*
X034212Y030092D01*
X034200Y030018D01*
X034200Y029700D01*
X034660Y029700D01*
X034660Y029660D01*
X034700Y029660D01*
X034700Y028900D01*
X034718Y028900D01*
X034792Y028912D01*
X034864Y028935D01*
X034932Y028969D01*
X034993Y029014D01*
X035046Y029067D01*
X035129Y029210D02*
X036185Y029210D01*
X036343Y029369D02*
X035160Y029369D01*
X035160Y029527D02*
X036450Y029527D01*
X036450Y029686D02*
X034700Y029686D01*
X034660Y029686D02*
X034160Y029686D01*
X034200Y029660D02*
X034200Y029342D01*
X034212Y029268D01*
X034235Y029196D01*
X034269Y029128D01*
X034314Y029067D01*
X034367Y029014D01*
X034428Y028969D01*
X034496Y028935D01*
X034568Y028912D01*
X034642Y028900D01*
X034660Y028900D01*
X034660Y029660D01*
X034200Y029660D01*
X034200Y029527D02*
X034160Y029527D01*
X034160Y029369D02*
X034200Y029369D01*
X034160Y029285D02*
X034160Y030075D01*
X034087Y030252D01*
X033952Y030387D01*
X033775Y030460D01*
X033585Y030460D01*
X033408Y030387D01*
X033273Y030252D01*
X033200Y030075D01*
X033200Y029285D01*
X033273Y029108D01*
X033408Y028973D01*
X033585Y028900D01*
X033775Y028900D01*
X033952Y028973D01*
X034087Y029108D01*
X034160Y029285D01*
X034129Y029210D02*
X034231Y029210D01*
X034330Y029052D02*
X034030Y029052D01*
X033998Y028620D02*
X033740Y028362D01*
X033740Y027998D01*
X033998Y027740D01*
X034362Y027740D01*
X034620Y027998D01*
X034620Y028362D01*
X034362Y028620D01*
X033998Y028620D01*
X033954Y028576D02*
X033406Y028576D01*
X033362Y028620D02*
X032998Y028620D01*
X032740Y028362D01*
X032740Y027998D01*
X032998Y027740D01*
X033362Y027740D01*
X033620Y027998D01*
X033620Y028362D01*
X033362Y028620D01*
X033565Y028418D02*
X033795Y028418D01*
X033740Y028259D02*
X033620Y028259D01*
X033620Y028101D02*
X033740Y028101D01*
X033796Y027942D02*
X033564Y027942D01*
X033406Y027784D02*
X033954Y027784D01*
X034406Y027784D02*
X034758Y027784D01*
X034917Y027942D02*
X034564Y027942D01*
X034620Y028101D02*
X035075Y028101D01*
X035234Y028259D02*
X034620Y028259D01*
X034565Y028418D02*
X035392Y028418D01*
X035551Y028576D02*
X034406Y028576D01*
X034660Y029052D02*
X034700Y029052D01*
X034700Y029210D02*
X034660Y029210D01*
X034660Y029369D02*
X034700Y029369D01*
X034700Y029527D02*
X034660Y029527D01*
X034660Y029844D02*
X034700Y029844D01*
X034700Y030003D02*
X034660Y030003D01*
X034660Y030161D02*
X034700Y030161D01*
X034700Y030320D02*
X034660Y030320D01*
X034341Y030320D02*
X034019Y030320D01*
X034125Y030161D02*
X034234Y030161D01*
X034200Y030003D02*
X034160Y030003D01*
X034160Y029844D02*
X034200Y029844D01*
X035019Y030320D02*
X036220Y030320D01*
X036281Y030161D02*
X035126Y030161D01*
X035160Y030003D02*
X036438Y030003D01*
X036450Y029844D02*
X035160Y029844D01*
X035709Y028735D02*
X030960Y028735D01*
X031180Y028576D02*
X031180Y028576D01*
X031180Y028418D02*
X031180Y028418D01*
X031180Y028259D02*
X031180Y028259D01*
X031406Y028576D02*
X031954Y028576D01*
X031795Y028418D02*
X031565Y028418D01*
X031620Y028259D02*
X031740Y028259D01*
X031740Y028101D02*
X031620Y028101D01*
X031617Y027942D02*
X031564Y027942D01*
X031458Y027784D02*
X031406Y027784D01*
X031792Y027467D02*
X034441Y027467D01*
X034600Y027625D02*
X031950Y027625D01*
X031633Y027308D02*
X034283Y027308D01*
X034124Y027150D02*
X031475Y027150D01*
X031585Y027260D02*
X031585Y027260D01*
X031316Y026991D02*
X033966Y026991D01*
X033807Y026833D02*
X031210Y026833D01*
X031177Y026674D02*
X033649Y026674D01*
X033490Y026516D02*
X031053Y026516D01*
X030928Y026357D02*
X033332Y026357D01*
X033173Y026199D02*
X031087Y026199D01*
X031245Y026040D02*
X033015Y026040D01*
X032950Y025882D02*
X031404Y025882D01*
X031562Y025723D02*
X032950Y025723D01*
X032942Y025565D02*
X032418Y025565D01*
X032576Y025406D02*
X032784Y025406D01*
X032740Y025248D02*
X032620Y025248D01*
X032620Y025089D02*
X032740Y025089D01*
X032807Y024931D02*
X032553Y024931D01*
X032394Y024772D02*
X032966Y024772D01*
X033394Y024772D02*
X033966Y024772D01*
X033998Y024740D02*
X033740Y024998D01*
X033740Y025180D01*
X034180Y025180D01*
X034180Y025180D01*
X034180Y025620D01*
X034362Y025620D01*
X034620Y025362D01*
X034620Y025180D01*
X034180Y025180D01*
X034180Y025180D01*
X034180Y025180D01*
X034180Y025620D01*
X033998Y025620D01*
X033740Y025362D01*
X033740Y025180D01*
X034180Y025180D01*
X034620Y025180D01*
X034620Y024998D01*
X034362Y024740D01*
X034180Y024740D01*
X034180Y025180D01*
X034180Y025180D01*
X034180Y024740D01*
X033998Y024740D01*
X034180Y024772D02*
X034180Y024772D01*
X034180Y024931D02*
X034180Y024931D01*
X034180Y025089D02*
X034180Y025089D01*
X034180Y025248D02*
X034180Y025248D01*
X034180Y025406D02*
X034180Y025406D01*
X034180Y025565D02*
X034180Y025565D01*
X034418Y025565D02*
X035630Y025565D01*
X035630Y025406D02*
X034576Y025406D01*
X034620Y025248D02*
X035630Y025248D01*
X035630Y025089D02*
X034620Y025089D01*
X034553Y024931D02*
X035506Y024931D01*
X035348Y024772D02*
X034394Y024772D01*
X035031Y024455D02*
X031960Y024455D01*
X031960Y024614D02*
X035189Y024614D01*
X034872Y024297D02*
X032039Y024297D01*
X032197Y024138D02*
X032488Y024138D01*
X032873Y024138D02*
X034714Y024138D01*
X034555Y023980D02*
X033031Y023980D01*
X033140Y023821D02*
X034397Y023821D01*
X034238Y023663D02*
X033140Y023663D01*
X033140Y023504D02*
X034136Y023504D01*
X034130Y023346D02*
X032996Y023346D01*
X032982Y023029D02*
X034130Y023029D01*
X034130Y023187D02*
X032360Y023187D01*
X032360Y023029D02*
X032378Y023029D01*
X032360Y023346D02*
X032364Y023346D01*
X033140Y022870D02*
X034130Y022870D01*
X034130Y022712D02*
X033140Y022712D01*
X033140Y022553D02*
X034130Y022553D01*
X034130Y022395D02*
X033045Y022395D01*
X033049Y022236D02*
X034130Y022236D01*
X034130Y022078D02*
X033208Y022078D01*
X033366Y021919D02*
X034130Y021919D01*
X034130Y021761D02*
X033525Y021761D01*
X033683Y021602D02*
X034130Y021602D01*
X034130Y021444D02*
X033842Y021444D01*
X034000Y021285D02*
X034130Y021285D01*
X034730Y021285D02*
X036800Y021285D01*
X036800Y021127D02*
X034730Y021127D01*
X034730Y020968D02*
X036800Y020968D01*
X036800Y020810D02*
X034730Y020810D01*
X034730Y020651D02*
X034952Y020651D01*
X034981Y020680D02*
X034730Y020429D01*
X034730Y022225D01*
X034736Y022215D01*
X034955Y021996D01*
X035225Y021840D01*
X035525Y021760D01*
X035835Y021760D01*
X036135Y021840D01*
X036405Y021996D01*
X036624Y022215D01*
X036780Y022485D01*
X036800Y022561D01*
X036800Y016785D01*
X036482Y017103D01*
X036660Y017281D01*
X036660Y017679D01*
X036379Y017960D01*
X035981Y017960D01*
X035700Y017679D01*
X035700Y017635D01*
X035582Y017753D01*
X035660Y017831D01*
X035660Y018229D01*
X035379Y018510D01*
X034981Y018510D01*
X034730Y018259D01*
X034730Y018881D01*
X034981Y018630D01*
X035379Y018630D01*
X035660Y018911D01*
X035660Y019309D01*
X035379Y019590D01*
X034981Y019590D01*
X034730Y019339D01*
X034730Y019971D01*
X034981Y019720D01*
X035160Y019720D01*
X035160Y020180D01*
X035200Y020180D01*
X035200Y020220D01*
X035160Y020220D01*
X035160Y020680D01*
X034981Y020680D01*
X035160Y020651D02*
X035200Y020651D01*
X035200Y020680D02*
X035200Y020220D01*
X035660Y020220D01*
X035660Y020399D01*
X035379Y020680D01*
X035200Y020680D01*
X035200Y020493D02*
X035160Y020493D01*
X035160Y020334D02*
X035200Y020334D01*
X035200Y020180D02*
X035660Y020180D01*
X035660Y020001D01*
X035379Y019720D01*
X035200Y019720D01*
X035200Y020180D01*
X035200Y020176D02*
X035160Y020176D01*
X035160Y020017D02*
X035200Y020017D01*
X035200Y019859D02*
X035160Y019859D01*
X034843Y019859D02*
X034730Y019859D01*
X034730Y019700D02*
X035700Y019700D01*
X035700Y019542D02*
X035427Y019542D01*
X035586Y019383D02*
X035778Y019383D01*
X035700Y019461D02*
X035981Y019180D01*
X036379Y019180D01*
X036660Y019461D01*
X036660Y019859D01*
X036379Y020140D01*
X035981Y020140D01*
X035700Y019859D01*
X035700Y019461D01*
X035660Y019225D02*
X035937Y019225D01*
X035981Y019050D02*
X035700Y018769D01*
X035700Y018371D01*
X035981Y018090D01*
X036379Y018090D01*
X036660Y018371D01*
X036660Y018769D01*
X036379Y019050D01*
X035981Y019050D01*
X035839Y018908D02*
X035656Y018908D01*
X035660Y019066D02*
X036800Y019066D01*
X036800Y018908D02*
X036521Y018908D01*
X036660Y018749D02*
X036800Y018749D01*
X036800Y018591D02*
X036660Y018591D01*
X036660Y018432D02*
X036800Y018432D01*
X036800Y018274D02*
X036562Y018274D01*
X036404Y018115D02*
X036800Y018115D01*
X036800Y017957D02*
X036382Y017957D01*
X036541Y017798D02*
X036800Y017798D01*
X036800Y017640D02*
X036660Y017640D01*
X036660Y017481D02*
X036800Y017481D01*
X036800Y017323D02*
X036660Y017323D01*
X036543Y017164D02*
X036800Y017164D01*
X036800Y017006D02*
X036580Y017006D01*
X036738Y016847D02*
X036800Y016847D01*
X035700Y017640D02*
X035696Y017640D01*
X035627Y017798D02*
X035819Y017798D01*
X035660Y017957D02*
X035978Y017957D01*
X035956Y018115D02*
X035660Y018115D01*
X035615Y018274D02*
X035798Y018274D01*
X035700Y018432D02*
X035457Y018432D01*
X035700Y018591D02*
X034730Y018591D01*
X034730Y018749D02*
X034862Y018749D01*
X034903Y018432D02*
X034730Y018432D01*
X034730Y018274D02*
X034745Y018274D01*
X035498Y018749D02*
X035700Y018749D01*
X036423Y019225D02*
X036800Y019225D01*
X036800Y019383D02*
X036582Y019383D01*
X036660Y019542D02*
X036800Y019542D01*
X036800Y019700D02*
X036660Y019700D01*
X036660Y019859D02*
X036800Y019859D01*
X036800Y020017D02*
X036502Y020017D01*
X036800Y020176D02*
X035660Y020176D01*
X035660Y020334D02*
X036800Y020334D01*
X036800Y020493D02*
X035566Y020493D01*
X035408Y020651D02*
X036800Y020651D01*
X036800Y021444D02*
X034730Y021444D01*
X034730Y021602D02*
X036800Y021602D01*
X036800Y021761D02*
X035837Y021761D01*
X035523Y021761D02*
X034730Y021761D01*
X034730Y021919D02*
X035088Y021919D01*
X034874Y022078D02*
X034730Y022078D01*
X036272Y021919D02*
X036800Y021919D01*
X036800Y022078D02*
X036486Y022078D01*
X036636Y022236D02*
X036800Y022236D01*
X036800Y022395D02*
X036728Y022395D01*
X036798Y022553D02*
X036800Y022553D01*
X034794Y020493D02*
X034730Y020493D01*
X033900Y020278D02*
X033900Y020082D01*
X033862Y020120D01*
X033680Y020120D01*
X033680Y019680D01*
X033680Y019680D01*
X033680Y019680D01*
X033240Y019680D01*
X033240Y019816D01*
X032980Y019556D01*
X032980Y018705D01*
X033515Y019240D01*
X033498Y019240D01*
X033240Y019498D01*
X033240Y019680D01*
X033680Y019680D01*
X033680Y020120D01*
X033544Y020120D01*
X033664Y020240D01*
X033862Y020240D01*
X033900Y020278D01*
X033900Y020176D02*
X033600Y020176D01*
X033680Y020017D02*
X033680Y020017D01*
X033680Y019859D02*
X033680Y019859D01*
X033680Y019700D02*
X033680Y019700D01*
X033240Y019700D02*
X033124Y019700D01*
X033240Y019542D02*
X032980Y019542D01*
X032980Y019383D02*
X033355Y019383D01*
X033499Y019225D02*
X032980Y019225D01*
X032980Y019066D02*
X033341Y019066D01*
X033182Y018908D02*
X032980Y018908D01*
X032980Y018749D02*
X033024Y018749D01*
X031900Y019225D02*
X031875Y019225D01*
X031690Y019225D02*
X031670Y019225D01*
X031670Y019383D02*
X031690Y019383D01*
X031690Y019542D02*
X031670Y019542D01*
X031670Y019700D02*
X031690Y019700D01*
X031690Y019859D02*
X031670Y019859D01*
X031670Y020017D02*
X031690Y020017D01*
X031900Y020176D02*
X028380Y020176D01*
X028380Y020092D02*
X028380Y020268D01*
X028313Y020429D01*
X028189Y020553D01*
X028028Y020620D01*
X027332Y020620D01*
X027171Y020553D01*
X027047Y020429D01*
X026980Y020268D01*
X026980Y020092D01*
X027047Y019931D01*
X027171Y019807D01*
X027332Y019740D01*
X028028Y019740D01*
X028189Y019807D01*
X028313Y019931D01*
X028380Y020092D01*
X028349Y020017D02*
X028635Y020017D01*
X028671Y020053D02*
X028547Y019929D01*
X028480Y019768D01*
X028480Y019592D01*
X028547Y019431D01*
X028671Y019307D01*
X028832Y019240D01*
X029528Y019240D01*
X029689Y019307D01*
X029813Y019431D01*
X029880Y019592D01*
X029880Y019768D01*
X029813Y019929D01*
X029689Y020053D01*
X029528Y020120D01*
X028832Y020120D01*
X028671Y020053D01*
X028832Y020240D02*
X028671Y020307D01*
X028547Y020431D01*
X028480Y020592D01*
X028480Y020768D01*
X028547Y020929D01*
X028671Y021053D01*
X028832Y021120D01*
X029528Y021120D01*
X029689Y021053D01*
X029813Y020929D01*
X029880Y020768D01*
X029880Y020592D01*
X029813Y020431D01*
X029689Y020307D01*
X029528Y020240D01*
X028832Y020240D01*
X028644Y020334D02*
X028352Y020334D01*
X028250Y020493D02*
X028521Y020493D01*
X028480Y020651D02*
X025576Y020651D01*
X025418Y020493D02*
X027110Y020493D01*
X027008Y020334D02*
X025259Y020334D01*
X025110Y020176D02*
X026980Y020176D01*
X027011Y020017D02*
X025110Y020017D01*
X025110Y019859D02*
X027119Y019859D01*
X027171Y019553D02*
X027047Y019429D01*
X026980Y019268D01*
X026980Y019092D01*
X027047Y018931D01*
X027171Y018807D01*
X027332Y018740D01*
X028028Y018740D01*
X028189Y018807D01*
X028313Y018931D01*
X028380Y019092D01*
X028380Y019268D01*
X028313Y019429D01*
X028189Y019553D01*
X028028Y019620D01*
X027332Y019620D01*
X027171Y019553D01*
X027159Y019542D02*
X025110Y019542D01*
X025110Y019700D02*
X028480Y019700D01*
X028501Y019542D02*
X028201Y019542D01*
X028332Y019383D02*
X028595Y019383D01*
X028380Y019225D02*
X030485Y019225D01*
X030489Y019220D02*
X030871Y019220D01*
X031140Y019489D01*
X031140Y019871D01*
X030871Y020140D01*
X030489Y020140D01*
X030220Y019871D01*
X030220Y019489D01*
X030489Y019220D01*
X030489Y019140D02*
X030220Y018871D01*
X030220Y018489D01*
X030489Y018220D01*
X030871Y018220D01*
X031140Y018489D01*
X031140Y018871D01*
X030871Y019140D01*
X030489Y019140D01*
X030415Y019066D02*
X029658Y019066D01*
X029689Y019053D02*
X029528Y019120D01*
X028832Y019120D01*
X028671Y019053D01*
X028547Y018929D01*
X028480Y018768D01*
X028480Y018592D01*
X028547Y018431D01*
X028671Y018307D01*
X028832Y018240D01*
X029528Y018240D01*
X029689Y018307D01*
X029813Y018431D01*
X029880Y018592D01*
X029880Y018768D01*
X029813Y018929D01*
X029689Y019053D01*
X029822Y018908D02*
X030257Y018908D01*
X030220Y018749D02*
X029880Y018749D01*
X029879Y018591D02*
X030220Y018591D01*
X030277Y018432D02*
X029814Y018432D01*
X029608Y018274D02*
X030436Y018274D01*
X030489Y018140D02*
X030220Y017871D01*
X030220Y017489D01*
X030489Y017220D01*
X030871Y017220D01*
X031140Y017489D01*
X031140Y017871D01*
X030871Y018140D01*
X030489Y018140D01*
X030464Y018115D02*
X029540Y018115D01*
X029528Y018120D02*
X029689Y018053D01*
X029813Y017929D01*
X029880Y017768D01*
X029880Y017592D01*
X029813Y017431D01*
X029689Y017307D01*
X029528Y017240D01*
X028832Y017240D01*
X028671Y017307D01*
X028547Y017431D01*
X028480Y017592D01*
X028480Y017768D01*
X028547Y017929D01*
X028671Y018053D01*
X028832Y018120D01*
X029528Y018120D01*
X029786Y017957D02*
X030306Y017957D01*
X030220Y017798D02*
X029867Y017798D01*
X029880Y017640D02*
X030220Y017640D01*
X030228Y017481D02*
X029834Y017481D01*
X029705Y017323D02*
X030387Y017323D01*
X030489Y017140D02*
X030220Y016871D01*
X030220Y016489D01*
X030489Y016220D01*
X030871Y016220D01*
X031140Y016489D01*
X031140Y016871D01*
X030871Y017140D01*
X030489Y017140D01*
X030355Y017006D02*
X029737Y017006D01*
X029847Y016847D02*
X030220Y016847D01*
X030220Y016689D02*
X029880Y016689D01*
X029854Y016530D02*
X030220Y016530D01*
X030338Y016372D02*
X029754Y016372D01*
X029686Y016055D02*
X030404Y016055D01*
X030489Y016140D02*
X030220Y015871D01*
X030220Y015489D01*
X030489Y015220D01*
X030871Y015220D01*
X031140Y015489D01*
X031140Y015871D01*
X030871Y016140D01*
X030489Y016140D01*
X030245Y015896D02*
X029827Y015896D01*
X029880Y015738D02*
X030220Y015738D01*
X030220Y015579D02*
X029874Y015579D01*
X029803Y015421D02*
X030289Y015421D01*
X030447Y015262D02*
X029773Y015262D01*
X029932Y015104D02*
X030453Y015104D01*
X030489Y015140D02*
X030220Y014871D01*
X030220Y014489D01*
X030489Y014220D01*
X030871Y014220D01*
X031140Y014489D01*
X031140Y014871D01*
X030871Y015140D01*
X030489Y015140D01*
X030294Y014945D02*
X030090Y014945D01*
X030110Y014787D02*
X030220Y014787D01*
X030220Y014628D02*
X030110Y014628D01*
X030110Y014470D02*
X030240Y014470D01*
X030398Y014311D02*
X029986Y014311D01*
X029828Y014153D02*
X033132Y014153D01*
X032974Y014311D02*
X031962Y014311D01*
X031871Y014220D02*
X032140Y014489D01*
X032140Y014670D01*
X031690Y014670D01*
X031690Y014690D01*
X031670Y014690D01*
X031670Y015140D01*
X031489Y015140D01*
X031220Y014871D01*
X031220Y014690D01*
X031670Y014690D01*
X031670Y014670D01*
X031220Y014670D01*
X031220Y014489D01*
X031489Y014220D01*
X031670Y014220D01*
X031670Y014670D01*
X031690Y014670D01*
X031690Y014220D01*
X031871Y014220D01*
X031690Y014311D02*
X031670Y014311D01*
X031670Y014470D02*
X031690Y014470D01*
X031690Y014628D02*
X031670Y014628D01*
X031690Y014690D02*
X032140Y014690D01*
X032140Y014871D01*
X031871Y015140D01*
X031690Y015140D01*
X031690Y014690D01*
X031690Y014787D02*
X031670Y014787D01*
X031670Y014945D02*
X031690Y014945D01*
X031690Y015104D02*
X031670Y015104D01*
X031670Y015262D02*
X031690Y015262D01*
X031690Y015421D02*
X031670Y015421D01*
X031670Y015579D02*
X031690Y015579D01*
X031690Y015738D02*
X031670Y015738D01*
X031670Y015896D02*
X031690Y015896D01*
X031690Y016055D02*
X031670Y016055D01*
X031404Y016055D02*
X030956Y016055D01*
X031115Y015896D02*
X031245Y015896D01*
X031220Y015738D02*
X031140Y015738D01*
X031140Y015579D02*
X031220Y015579D01*
X031289Y015421D02*
X031071Y015421D01*
X030913Y015262D02*
X031447Y015262D01*
X031453Y015104D02*
X030907Y015104D01*
X031066Y014945D02*
X031294Y014945D01*
X031220Y014787D02*
X031140Y014787D01*
X031140Y014628D02*
X031220Y014628D01*
X031240Y014470D02*
X031120Y014470D01*
X030962Y014311D02*
X031398Y014311D01*
X032120Y014470D02*
X032815Y014470D01*
X032657Y014628D02*
X032140Y014628D01*
X032140Y014787D02*
X032498Y014787D01*
X032340Y014945D02*
X032066Y014945D01*
X032181Y015104D02*
X031907Y015104D01*
X031913Y015262D02*
X032023Y015262D01*
X031900Y016213D02*
X028610Y016213D01*
X028610Y016055D02*
X028674Y016055D01*
X028506Y016530D02*
X028505Y016530D01*
X028480Y016689D02*
X028347Y016689D01*
X028229Y016847D02*
X028513Y016847D01*
X028623Y017006D02*
X028344Y017006D01*
X028380Y017164D02*
X031900Y017164D01*
X031690Y017006D02*
X031670Y017006D01*
X031670Y016847D02*
X031690Y016847D01*
X031670Y016689D02*
X031140Y016689D01*
X031140Y016847D02*
X031220Y016847D01*
X031355Y017006D02*
X031005Y017006D01*
X030973Y017323D02*
X031387Y017323D01*
X031228Y017481D02*
X031132Y017481D01*
X031140Y017640D02*
X031220Y017640D01*
X031220Y017798D02*
X031140Y017798D01*
X031054Y017957D02*
X031306Y017957D01*
X031464Y018115D02*
X030896Y018115D01*
X030924Y018274D02*
X031436Y018274D01*
X031277Y018432D02*
X031083Y018432D01*
X031140Y018591D02*
X031220Y018591D01*
X031220Y018749D02*
X031140Y018749D01*
X031103Y018908D02*
X031257Y018908D01*
X031415Y019066D02*
X030945Y019066D01*
X030875Y019225D02*
X031485Y019225D01*
X031326Y019383D02*
X031034Y019383D01*
X031140Y019542D02*
X031220Y019542D01*
X031220Y019700D02*
X031140Y019700D01*
X031140Y019859D02*
X031220Y019859D01*
X031366Y020017D02*
X030994Y020017D01*
X030366Y020017D02*
X029725Y020017D01*
X029842Y019859D02*
X030220Y019859D01*
X030220Y019700D02*
X029880Y019700D01*
X029859Y019542D02*
X030220Y019542D01*
X030326Y019383D02*
X029765Y019383D01*
X029716Y020334D02*
X031900Y020334D01*
X031900Y020493D02*
X029839Y020493D01*
X029880Y020651D02*
X031900Y020651D01*
X031900Y020810D02*
X029863Y020810D01*
X029774Y020968D02*
X031900Y020968D01*
X031900Y021127D02*
X028380Y021127D01*
X028380Y021092D02*
X028380Y021268D01*
X028313Y021429D01*
X028189Y021553D01*
X028028Y021620D01*
X027332Y021620D01*
X027171Y021553D01*
X027047Y021429D01*
X026980Y021268D01*
X026980Y021092D01*
X027047Y020931D01*
X027171Y020807D01*
X027332Y020740D01*
X028028Y020740D01*
X028189Y020807D01*
X028313Y020931D01*
X028380Y021092D01*
X028328Y020968D02*
X028586Y020968D01*
X028497Y020810D02*
X028192Y020810D01*
X028373Y021285D02*
X031900Y021285D01*
X031900Y021444D02*
X028299Y021444D01*
X028071Y021602D02*
X031783Y021602D01*
X031624Y021761D02*
X029352Y021761D01*
X029281Y021731D02*
X029619Y021871D01*
X029878Y022131D01*
X030019Y022469D01*
X030019Y022836D01*
X029878Y023174D01*
X029619Y023434D01*
X029281Y023574D01*
X028914Y023574D01*
X028575Y023434D01*
X028316Y023174D01*
X028176Y022836D01*
X028176Y022469D01*
X028316Y022131D01*
X028575Y021871D01*
X028914Y021731D01*
X029281Y021731D01*
X029667Y021919D02*
X031466Y021919D01*
X031307Y022078D02*
X029825Y022078D01*
X029922Y022236D02*
X031149Y022236D01*
X031000Y022395D02*
X029988Y022395D01*
X030019Y022553D02*
X031000Y022553D01*
X031000Y022712D02*
X030019Y022712D01*
X030004Y022870D02*
X031000Y022870D01*
X031000Y023029D02*
X029939Y023029D01*
X029866Y023187D02*
X031000Y023187D01*
X031020Y023346D02*
X029707Y023346D01*
X029449Y023504D02*
X031179Y023504D01*
X031220Y023663D02*
X028588Y023663D01*
X028746Y023821D02*
X031164Y023821D01*
X031005Y023980D02*
X028905Y023980D01*
X029063Y024138D02*
X030847Y024138D01*
X030688Y024297D02*
X029222Y024297D01*
X029380Y024455D02*
X030530Y024455D01*
X030500Y024614D02*
X029539Y024614D01*
X029697Y024772D02*
X029966Y024772D01*
X030394Y024772D02*
X030500Y024772D01*
X030832Y025454D02*
X030825Y025460D01*
X029975Y026310D01*
X029385Y026310D01*
X029250Y026175D01*
X029120Y026045D01*
X029120Y026180D01*
X029120Y026475D01*
X029109Y026543D01*
X029088Y026609D01*
X029056Y026671D01*
X029016Y026727D01*
X028967Y026776D01*
X028911Y026816D01*
X028849Y026848D01*
X028783Y026869D01*
X028715Y026880D01*
X028680Y026880D01*
X028680Y026180D01*
X028680Y026180D01*
X029120Y026180D01*
X028680Y026180D01*
X028680Y026180D01*
X028680Y026180D01*
X028240Y026180D01*
X028240Y026475D01*
X028251Y026543D01*
X028272Y026609D01*
X028304Y026671D01*
X028344Y026727D01*
X028393Y026776D01*
X028449Y026816D01*
X028511Y026848D01*
X028577Y026869D01*
X028645Y026880D01*
X028680Y026880D01*
X028680Y026180D01*
X028240Y026180D01*
X028240Y025885D01*
X028251Y025817D01*
X028272Y025751D01*
X028304Y025689D01*
X028344Y025633D01*
X028393Y025584D01*
X028449Y025544D01*
X028511Y025512D01*
X028568Y025494D01*
X028028Y024954D01*
X027927Y025055D01*
X027967Y025084D01*
X028016Y025133D01*
X028056Y025189D01*
X028088Y025251D01*
X028109Y025317D01*
X028120Y025385D01*
X028120Y025680D01*
X028120Y025975D01*
X028109Y026043D01*
X028088Y026109D01*
X028056Y026171D01*
X028016Y026227D01*
X027967Y026276D01*
X027911Y026316D01*
X027849Y026348D01*
X027783Y026369D01*
X027715Y026380D01*
X027680Y026380D01*
X027680Y025680D01*
X027680Y025680D01*
X028120Y025680D01*
X027680Y025680D01*
X027680Y025680D01*
X027680Y025680D01*
X027240Y025680D01*
X027240Y025975D01*
X027251Y026043D01*
X027272Y026109D01*
X027304Y026171D01*
X027344Y026227D01*
X027393Y026276D01*
X027449Y026316D01*
X027511Y026348D01*
X027577Y026369D01*
X027645Y026380D01*
X027680Y026380D01*
X027680Y025680D01*
X027680Y025120D01*
X027680Y024680D01*
X027680Y024680D01*
X027680Y024680D01*
X027240Y024680D01*
X027240Y024862D01*
X027433Y025055D01*
X027393Y025084D01*
X027344Y025133D01*
X027304Y025189D01*
X027272Y025251D01*
X027251Y025317D01*
X027240Y025385D01*
X027240Y025680D01*
X027680Y025680D01*
X027680Y025680D01*
X027680Y024680D01*
X027240Y024680D01*
X027240Y024498D01*
X027498Y024240D01*
X027515Y024240D01*
X026372Y023098D01*
X026380Y023145D01*
X026380Y023180D01*
X026380Y023215D01*
X026369Y023283D01*
X026348Y023349D01*
X026316Y023411D01*
X026276Y023467D01*
X026227Y023516D01*
X026171Y023556D01*
X026109Y023588D01*
X026043Y023609D01*
X025975Y023620D01*
X025680Y023620D01*
X025680Y023180D01*
X025680Y023180D01*
X026380Y023180D01*
X025680Y023180D01*
X025680Y023180D01*
X025680Y022740D01*
X025975Y022740D01*
X026022Y022748D01*
X025735Y022460D01*
X023237Y022460D01*
X023145Y022552D01*
X023006Y022610D01*
X022854Y022610D01*
X022715Y022552D01*
X022608Y022445D01*
X022550Y022306D01*
X022550Y022154D01*
X022608Y022015D01*
X022715Y021908D01*
X022854Y021850D01*
X023006Y021850D01*
X023145Y021908D01*
X023237Y022000D01*
X025925Y022000D01*
X028325Y024400D01*
X028332Y024406D01*
X028498Y024240D01*
X028515Y024240D01*
X024650Y020375D01*
X024650Y017385D01*
X022597Y019438D01*
X022645Y019458D01*
X022752Y019565D01*
X022810Y019704D01*
X022810Y019856D01*
X022752Y019995D01*
X022730Y020017D01*
X024650Y020017D01*
X024650Y019859D02*
X022809Y019859D01*
X022808Y019700D02*
X024650Y019700D01*
X024650Y019542D02*
X022729Y019542D01*
X022652Y019383D02*
X024650Y019383D01*
X024650Y019225D02*
X022811Y019225D01*
X022969Y019066D02*
X024650Y019066D01*
X024650Y018908D02*
X023128Y018908D01*
X023286Y018749D02*
X024650Y018749D01*
X024650Y018591D02*
X023445Y018591D01*
X023603Y018432D02*
X024650Y018432D01*
X024650Y018274D02*
X023762Y018274D01*
X023920Y018115D02*
X024650Y018115D01*
X024650Y017957D02*
X024079Y017957D01*
X024237Y017798D02*
X024650Y017798D01*
X024650Y017640D02*
X024396Y017640D01*
X024554Y017481D02*
X024650Y017481D01*
X025110Y017798D02*
X025126Y017798D01*
X025110Y017957D02*
X027036Y017957D01*
X027047Y017931D02*
X027171Y017807D01*
X027332Y017740D01*
X028028Y017740D01*
X028189Y017807D01*
X028313Y017931D01*
X028380Y018092D01*
X028380Y018268D01*
X028313Y018429D01*
X028189Y018553D01*
X028028Y018620D01*
X027332Y018620D01*
X027171Y018553D01*
X027047Y018429D01*
X026980Y018268D01*
X026980Y018092D01*
X027047Y017931D01*
X026980Y018115D02*
X025110Y018115D01*
X025110Y018274D02*
X026982Y018274D01*
X027050Y018432D02*
X025110Y018432D01*
X025110Y018591D02*
X027261Y018591D01*
X027311Y018749D02*
X025110Y018749D01*
X025110Y018908D02*
X027070Y018908D01*
X026991Y019066D02*
X025110Y019066D01*
X025110Y019225D02*
X026980Y019225D01*
X027028Y019383D02*
X025110Y019383D01*
X024650Y020176D02*
X022730Y020176D01*
X022730Y020334D02*
X024650Y020334D01*
X024767Y020493D02*
X022730Y020493D01*
X022730Y020651D02*
X024926Y020651D01*
X025084Y020810D02*
X022730Y020810D01*
X022730Y020968D02*
X025243Y020968D01*
X025401Y021127D02*
X022730Y021127D01*
X022730Y021285D02*
X025560Y021285D01*
X025718Y021444D02*
X022728Y021444D01*
X022730Y021440D02*
X022684Y021550D01*
X022600Y021634D01*
X022230Y022004D01*
X022230Y022782D01*
X022332Y022740D01*
X023028Y022740D01*
X023189Y022807D01*
X023313Y022931D01*
X023380Y023092D01*
X023380Y023268D01*
X023313Y023429D01*
X023308Y023434D01*
X023384Y023510D01*
X023384Y023510D01*
X023684Y023810D01*
X023730Y023920D01*
X023730Y026490D01*
X023684Y026600D01*
X023600Y026684D01*
X023325Y026959D01*
X023380Y027092D01*
X023380Y027268D01*
X023313Y027429D01*
X023189Y027553D01*
X023028Y027620D01*
X022332Y027620D01*
X022171Y027553D01*
X022050Y027432D01*
X021862Y027620D01*
X021498Y027620D01*
X021240Y027362D01*
X021240Y026998D01*
X021498Y026740D01*
X021862Y026740D01*
X022050Y026928D01*
X022171Y026807D01*
X022332Y026740D01*
X022696Y026740D01*
X022816Y026620D01*
X022680Y026620D01*
X022680Y026180D01*
X022680Y026180D01*
X022680Y026620D01*
X022385Y026620D01*
X022317Y026609D01*
X022251Y026588D01*
X022189Y026556D01*
X022133Y026516D01*
X022084Y026467D01*
X022055Y026427D01*
X021862Y026620D01*
X021680Y026620D01*
X021680Y026180D01*
X021680Y026180D01*
X022120Y026180D01*
X022680Y026180D01*
X022680Y025740D01*
X022975Y025740D01*
X023043Y025751D01*
X023109Y025772D01*
X023130Y025783D01*
X023130Y025577D01*
X023109Y025588D01*
X023043Y025609D01*
X022975Y025620D01*
X022680Y025620D01*
X022680Y025180D01*
X022680Y025180D01*
X022680Y025620D01*
X022385Y025620D01*
X022317Y025609D01*
X022251Y025588D01*
X022189Y025556D01*
X022133Y025516D01*
X022084Y025467D01*
X022044Y025411D01*
X022012Y025349D01*
X022006Y025329D01*
X021595Y025740D01*
X021680Y025740D01*
X021862Y025740D01*
X022055Y025933D01*
X022084Y025893D01*
X022133Y025844D01*
X022189Y025804D01*
X022251Y025772D01*
X022317Y025751D01*
X022385Y025740D01*
X022680Y025740D01*
X022680Y026180D01*
X022680Y026180D01*
X022680Y026180D01*
X021680Y026180D01*
X021680Y026180D01*
X021680Y026180D01*
X021240Y026180D01*
X021240Y026362D01*
X021498Y026620D01*
X021680Y026620D01*
X021680Y026180D01*
X021680Y025740D01*
X021680Y026180D01*
X021680Y026180D01*
X021240Y026180D01*
X021240Y026095D01*
X020860Y026475D01*
X020860Y026925D01*
X018460Y029325D01*
X018454Y029332D01*
X018620Y029498D01*
X018620Y029862D01*
X018582Y029900D01*
X018778Y029900D01*
X018740Y029862D01*
X018740Y029498D01*
X018998Y029240D01*
X019362Y029240D01*
X019620Y029498D01*
X019620Y029862D01*
X019582Y029900D01*
X019778Y029900D01*
X019740Y029862D01*
X019740Y029498D01*
X019998Y029240D01*
X020362Y029240D01*
X020620Y029498D01*
X020620Y029862D01*
X020582Y029900D01*
X026135Y029900D01*
X027240Y028795D01*
X027240Y028332D01*
X027307Y028171D01*
X027431Y028047D01*
X027592Y027980D01*
X027768Y027980D01*
X027929Y028047D01*
X028053Y028171D01*
X028120Y028332D01*
X028120Y028845D01*
X028225Y028950D01*
X028240Y028950D01*
X028240Y028832D01*
X028307Y028671D01*
X028431Y028547D01*
X028592Y028480D01*
X028768Y028480D01*
X028929Y028547D01*
X029053Y028671D01*
X029120Y028832D01*
X029120Y029528D01*
X029053Y029689D01*
X028929Y029813D01*
X028768Y029880D01*
X028592Y029880D01*
X028431Y029813D01*
X028307Y029689D01*
X028240Y029528D01*
X028240Y029410D01*
X028035Y029410D01*
X027933Y029309D01*
X027929Y029313D01*
X027768Y029380D01*
X027592Y029380D01*
X027431Y029313D01*
X027402Y029284D01*
X026355Y030330D01*
X026729Y030704D01*
X026755Y030678D01*
X027605Y030678D01*
X027710Y030783D01*
X027710Y031632D01*
X027605Y031738D01*
X027430Y031738D01*
X027480Y031758D01*
X027629Y031907D01*
X027702Y032083D01*
X027950Y031835D01*
X027950Y031135D01*
X029500Y029585D01*
X029500Y027135D01*
X031015Y025620D01*
X030998Y025620D01*
X030832Y025454D01*
X030721Y025565D02*
X030942Y025565D01*
X030912Y025723D02*
X030562Y025723D01*
X030404Y025882D02*
X030753Y025882D01*
X030595Y026040D02*
X030245Y026040D01*
X030087Y026199D02*
X030436Y026199D01*
X030278Y026357D02*
X029120Y026357D01*
X029120Y026199D02*
X029273Y026199D01*
X029114Y026516D02*
X030119Y026516D01*
X029961Y026674D02*
X029054Y026674D01*
X028879Y026833D02*
X029802Y026833D01*
X029644Y026991D02*
X026338Y026991D01*
X026348Y027011D02*
X026369Y027077D01*
X026380Y027145D01*
X026380Y027180D01*
X026380Y027215D01*
X026369Y027283D01*
X026348Y027349D01*
X026316Y027411D01*
X026276Y027467D01*
X026227Y027516D01*
X026171Y027556D01*
X026109Y027588D01*
X026043Y027609D01*
X025975Y027620D01*
X025680Y027620D01*
X025680Y027180D01*
X025680Y027180D01*
X026380Y027180D01*
X025680Y027180D01*
X025680Y027180D01*
X025680Y026740D01*
X025975Y026740D01*
X026043Y026751D01*
X026109Y026772D01*
X026171Y026804D01*
X026227Y026844D01*
X026276Y026893D01*
X026316Y026949D01*
X026348Y027011D01*
X026380Y027150D02*
X029500Y027150D01*
X029500Y027308D02*
X026361Y027308D01*
X026276Y027467D02*
X029500Y027467D01*
X029500Y027625D02*
X020160Y027625D01*
X020002Y027784D02*
X022227Y027784D01*
X022171Y027807D02*
X022332Y027740D01*
X023028Y027740D01*
X023189Y027807D01*
X023313Y027931D01*
X023380Y028092D01*
X023380Y028268D01*
X023313Y028429D01*
X023189Y028553D01*
X023028Y028620D01*
X022332Y028620D01*
X022171Y028553D01*
X022047Y028429D01*
X021980Y028268D01*
X021980Y028092D01*
X022047Y027931D01*
X022171Y027807D01*
X022042Y027942D02*
X019843Y027942D01*
X019685Y028101D02*
X021980Y028101D01*
X021980Y028259D02*
X019526Y028259D01*
X019368Y028418D02*
X022042Y028418D01*
X022226Y028576D02*
X019209Y028576D01*
X019051Y028735D02*
X024950Y028735D01*
X025100Y028585D02*
X024735Y028950D01*
X023321Y028950D01*
X023313Y028931D01*
X023189Y028807D01*
X023028Y028740D01*
X022332Y028740D01*
X022171Y028807D01*
X022047Y028931D01*
X021980Y029092D01*
X021980Y029268D01*
X022047Y029429D01*
X022171Y029553D01*
X022332Y029620D01*
X023028Y029620D01*
X023189Y029553D01*
X023313Y029429D01*
X023321Y029410D01*
X024925Y029410D01*
X025006Y029330D01*
X025047Y029429D01*
X025171Y029553D01*
X025332Y029620D01*
X026028Y029620D01*
X026189Y029553D01*
X026313Y029429D01*
X026380Y029268D01*
X026380Y029092D01*
X026316Y028938D01*
X026498Y029120D01*
X026862Y029120D01*
X027120Y028862D01*
X027120Y028498D01*
X026862Y028240D01*
X026498Y028240D01*
X026316Y028422D01*
X026380Y028268D01*
X026380Y028092D01*
X026313Y027931D01*
X026189Y027807D01*
X026028Y027740D01*
X025332Y027740D01*
X025171Y027807D01*
X025047Y027931D01*
X024980Y028092D01*
X024980Y028268D01*
X025047Y028429D01*
X025151Y028533D01*
X025100Y028585D01*
X025109Y028576D02*
X023134Y028576D01*
X023318Y028418D02*
X025042Y028418D01*
X024980Y028259D02*
X023380Y028259D01*
X023380Y028101D02*
X024980Y028101D01*
X025042Y027942D02*
X023318Y027942D01*
X023133Y027784D02*
X025227Y027784D01*
X025317Y027609D02*
X025251Y027588D01*
X025189Y027556D01*
X025133Y027516D01*
X025084Y027467D01*
X025044Y027411D01*
X025012Y027349D01*
X024991Y027283D01*
X024980Y027215D01*
X024980Y027180D01*
X025680Y027180D01*
X025680Y027180D01*
X025680Y027180D01*
X025680Y027620D01*
X025385Y027620D01*
X025317Y027609D01*
X025084Y027467D02*
X023276Y027467D01*
X023363Y027308D02*
X024999Y027308D01*
X024980Y027180D02*
X024980Y027145D01*
X024991Y027077D01*
X025012Y027011D01*
X025044Y026949D01*
X025084Y026893D01*
X025133Y026844D01*
X025189Y026804D01*
X025251Y026772D01*
X025317Y026751D01*
X025385Y026740D01*
X025680Y026740D01*
X025680Y027180D01*
X024980Y027180D01*
X024980Y027150D02*
X023380Y027150D01*
X023338Y026991D02*
X025022Y026991D01*
X025150Y026833D02*
X023452Y026833D01*
X023600Y026684D02*
X023600Y026684D01*
X023610Y026674D02*
X028306Y026674D01*
X028246Y026516D02*
X026227Y026516D01*
X026171Y026556D01*
X026109Y026588D01*
X026043Y026609D01*
X025975Y026620D01*
X025680Y026620D01*
X025680Y026180D01*
X025680Y026180D01*
X026380Y026180D01*
X026380Y026215D01*
X026369Y026283D01*
X026348Y026349D01*
X026316Y026411D01*
X026276Y026467D01*
X026227Y026516D01*
X026344Y026357D02*
X027540Y026357D01*
X027680Y026357D02*
X027680Y026357D01*
X027820Y026357D02*
X028240Y026357D01*
X028240Y026199D02*
X028036Y026199D01*
X028110Y026040D02*
X028240Y026040D01*
X028241Y025882D02*
X028120Y025882D01*
X028120Y025723D02*
X028287Y025723D01*
X028421Y025565D02*
X028120Y025565D01*
X028120Y025406D02*
X028481Y025406D01*
X028322Y025248D02*
X028086Y025248D01*
X028164Y025089D02*
X027971Y025089D01*
X027680Y025089D02*
X027680Y025089D01*
X027680Y024931D02*
X027680Y024931D01*
X027680Y024772D02*
X027680Y024772D01*
X027308Y024931D02*
X027108Y024931D01*
X027160Y024879D02*
X026879Y025160D01*
X026700Y025160D01*
X026700Y024700D01*
X027160Y024700D01*
X027160Y024879D01*
X027160Y024772D02*
X027240Y024772D01*
X027160Y024660D02*
X026700Y024660D01*
X026700Y024700D01*
X026660Y024700D01*
X026660Y025160D01*
X026481Y025160D01*
X026355Y025034D01*
X026369Y025077D01*
X026380Y025145D01*
X026380Y025180D01*
X026380Y025215D01*
X026369Y025283D01*
X026348Y025349D01*
X026316Y025411D01*
X026288Y025450D01*
X026498Y025240D01*
X026862Y025240D01*
X027120Y025498D01*
X027120Y025862D01*
X026862Y026120D01*
X026498Y026120D01*
X026288Y025910D01*
X026316Y025949D01*
X026348Y026011D01*
X026369Y026077D01*
X026380Y026145D01*
X026380Y026180D01*
X025680Y026180D01*
X025680Y026180D01*
X025680Y025740D01*
X025975Y025740D01*
X026043Y025751D01*
X026109Y025772D01*
X026171Y025804D01*
X026227Y025844D01*
X026240Y025858D01*
X026240Y025502D01*
X026227Y025516D01*
X026171Y025556D01*
X026109Y025588D01*
X026043Y025609D01*
X025975Y025620D01*
X025680Y025620D01*
X025680Y025180D01*
X025680Y025180D01*
X026380Y025180D01*
X025680Y025180D01*
X025680Y025180D01*
X025680Y024740D01*
X025975Y024740D01*
X026043Y024751D01*
X026109Y024772D01*
X026171Y024804D01*
X026200Y024825D01*
X026200Y024700D01*
X026660Y024700D01*
X026660Y024660D01*
X026700Y024660D01*
X026700Y024200D01*
X026879Y024200D01*
X027160Y024481D01*
X027160Y024660D01*
X027160Y024614D02*
X027240Y024614D01*
X027283Y024455D02*
X027134Y024455D01*
X026975Y024297D02*
X027441Y024297D01*
X027413Y024138D02*
X026379Y024138D01*
X026380Y024145D02*
X026380Y024180D01*
X026380Y024215D01*
X026369Y024283D01*
X026355Y024326D01*
X026481Y024200D01*
X026660Y024200D01*
X026660Y024660D01*
X026200Y024660D01*
X026200Y024535D01*
X026171Y024556D01*
X026109Y024588D01*
X026043Y024609D01*
X025975Y024620D01*
X025680Y024620D01*
X025680Y024180D01*
X026380Y024180D01*
X025680Y024180D01*
X025680Y024180D01*
X025680Y024180D01*
X025680Y023740D01*
X025975Y023740D01*
X026043Y023751D01*
X026109Y023772D01*
X026171Y023804D01*
X026227Y023844D01*
X026276Y023893D01*
X026316Y023949D01*
X026348Y024011D01*
X026369Y024077D01*
X026380Y024145D01*
X026365Y024297D02*
X026385Y024297D01*
X026660Y024297D02*
X026700Y024297D01*
X026700Y024455D02*
X026660Y024455D01*
X026660Y024614D02*
X026700Y024614D01*
X026700Y024772D02*
X026660Y024772D01*
X026660Y024931D02*
X026700Y024931D01*
X026700Y025089D02*
X026660Y025089D01*
X026490Y025248D02*
X026375Y025248D01*
X026371Y025089D02*
X026410Y025089D01*
X026332Y025406D02*
X026319Y025406D01*
X026240Y025565D02*
X026154Y025565D01*
X026240Y025723D02*
X023730Y025723D01*
X023730Y025565D02*
X025206Y025565D01*
X025189Y025556D02*
X025133Y025516D01*
X025084Y025467D01*
X025044Y025411D01*
X025012Y025349D01*
X024991Y025283D01*
X024980Y025215D01*
X024980Y025180D01*
X025680Y025180D01*
X025680Y025180D01*
X025680Y025180D01*
X025680Y025620D01*
X025385Y025620D01*
X025317Y025609D01*
X025251Y025588D01*
X025189Y025556D01*
X025041Y025406D02*
X023730Y025406D01*
X023730Y025248D02*
X024985Y025248D01*
X024980Y025180D02*
X024980Y025145D01*
X024991Y025077D01*
X025012Y025011D01*
X025044Y024949D01*
X025084Y024893D01*
X025133Y024844D01*
X025189Y024804D01*
X025251Y024772D01*
X025317Y024751D01*
X025385Y024740D01*
X025680Y024740D01*
X025680Y025180D01*
X024980Y025180D01*
X024989Y025089D02*
X023730Y025089D01*
X023730Y024931D02*
X025057Y024931D01*
X025252Y024772D02*
X023730Y024772D01*
X023730Y024614D02*
X025345Y024614D01*
X025317Y024609D02*
X025251Y024588D01*
X025189Y024556D01*
X025133Y024516D01*
X025084Y024467D01*
X025044Y024411D01*
X025012Y024349D01*
X024991Y024283D01*
X024980Y024215D01*
X024980Y024180D01*
X025680Y024180D01*
X025680Y024180D01*
X025680Y024180D01*
X025680Y024620D01*
X025385Y024620D01*
X025317Y024609D01*
X025076Y024455D02*
X023730Y024455D01*
X023730Y024297D02*
X024995Y024297D01*
X024980Y024180D02*
X024980Y024145D01*
X024991Y024077D01*
X025012Y024011D01*
X025044Y023949D01*
X025084Y023893D01*
X025133Y023844D01*
X025189Y023804D01*
X025251Y023772D01*
X025317Y023751D01*
X025385Y023740D01*
X025680Y023740D01*
X025680Y024180D01*
X024980Y024180D01*
X024981Y024138D02*
X023730Y024138D01*
X023730Y023980D02*
X025028Y023980D01*
X025165Y023821D02*
X023689Y023821D01*
X023537Y023663D02*
X026937Y023663D01*
X027096Y023821D02*
X026194Y023821D01*
X026332Y023980D02*
X027254Y023980D01*
X027588Y023663D02*
X027937Y023663D01*
X028096Y023821D02*
X027746Y023821D01*
X027905Y023980D02*
X028254Y023980D01*
X028413Y024138D02*
X028063Y024138D01*
X028222Y024297D02*
X028441Y024297D01*
X028429Y023504D02*
X028746Y023504D01*
X028487Y023346D02*
X028271Y023346D01*
X028329Y023187D02*
X028112Y023187D01*
X028256Y023029D02*
X027954Y023029D01*
X027795Y022870D02*
X028190Y022870D01*
X028176Y022712D02*
X027637Y022712D01*
X027478Y022553D02*
X028176Y022553D01*
X028207Y022395D02*
X027320Y022395D01*
X027161Y022236D02*
X028273Y022236D01*
X028369Y022078D02*
X027003Y022078D01*
X026844Y021919D02*
X028528Y021919D01*
X028843Y021761D02*
X026686Y021761D01*
X026527Y021602D02*
X027289Y021602D01*
X027061Y021444D02*
X026369Y021444D01*
X026210Y021285D02*
X026987Y021285D01*
X026980Y021127D02*
X026052Y021127D01*
X025893Y020968D02*
X027032Y020968D01*
X027168Y020810D02*
X025735Y020810D01*
X025877Y021602D02*
X022632Y021602D01*
X022600Y021634D02*
X022600Y021634D01*
X022474Y021761D02*
X026035Y021761D01*
X026194Y021919D02*
X023156Y021919D01*
X022730Y021440D02*
X022730Y020017D01*
X022130Y020578D02*
X022028Y020620D01*
X021565Y020620D01*
X021445Y020740D01*
X021680Y020740D01*
X021975Y020740D01*
X022043Y020751D01*
X022109Y020772D01*
X022130Y020783D01*
X022130Y020578D01*
X022130Y020651D02*
X021534Y020651D01*
X021680Y020740D02*
X021680Y021180D01*
X021680Y021180D01*
X021680Y021620D01*
X021766Y021620D01*
X021676Y021710D01*
X021630Y021820D01*
X021630Y023380D01*
X019620Y023380D01*
X019510Y023426D01*
X017696Y025240D01*
X017498Y025240D01*
X017240Y025498D01*
X017240Y025862D01*
X017498Y026120D01*
X017862Y026120D01*
X018120Y025862D01*
X018120Y025664D01*
X019804Y023980D01*
X022027Y023980D01*
X021980Y024092D01*
X021980Y024268D01*
X022047Y024429D01*
X022151Y024533D01*
X021120Y025565D01*
X021120Y025498D01*
X020862Y025240D01*
X020498Y025240D01*
X020240Y025498D01*
X020240Y025862D01*
X020498Y026120D01*
X020565Y026120D01*
X020535Y026150D01*
X020403Y026281D01*
X020362Y026240D01*
X019998Y026240D01*
X019740Y026498D01*
X019740Y026862D01*
X019998Y027120D01*
X020015Y027120D01*
X018135Y029000D01*
X017535Y029000D01*
X017295Y029240D01*
X016998Y029240D01*
X016960Y029278D01*
X016960Y027082D01*
X016998Y027120D01*
X017362Y027120D01*
X017620Y026862D01*
X017620Y026498D01*
X017362Y026240D01*
X016998Y026240D01*
X016907Y026331D01*
X014710Y024135D01*
X014575Y024000D01*
X012035Y024000D01*
X011795Y024240D01*
X011498Y024240D01*
X011240Y024498D01*
X011240Y024862D01*
X011498Y025120D01*
X011862Y025120D01*
X012120Y024862D01*
X012120Y024565D01*
X012225Y024460D01*
X012278Y024460D01*
X012240Y024498D01*
X012240Y024862D01*
X012498Y025120D01*
X012862Y025120D01*
X013072Y024910D01*
X013485Y024910D01*
X013750Y025175D01*
X013775Y025200D01*
X009735Y025200D01*
X009600Y025335D01*
X008528Y026406D01*
X008362Y026240D01*
X007998Y026240D01*
X007931Y026307D01*
X007850Y026226D01*
X007229Y025605D01*
X007934Y024900D01*
X007980Y024790D01*
X007980Y023967D01*
X008002Y023945D01*
X008060Y023806D01*
X008060Y023654D01*
X008002Y023515D01*
X007895Y023408D01*
X007756Y023350D01*
X007604Y023350D01*
X007465Y023408D01*
X007358Y023515D01*
X007300Y023654D01*
X007300Y023806D01*
X007358Y023945D01*
X007380Y023967D01*
X007380Y024606D01*
X006675Y025310D01*
X006653Y025330D01*
X002620Y025330D01*
X002510Y025376D01*
X002426Y025460D01*
X002076Y025810D01*
X002030Y025920D01*
X002030Y029440D01*
X002076Y029550D01*
X002160Y029634D01*
X002462Y029936D01*
X002400Y030085D01*
X002400Y030275D01*
X002473Y030452D01*
X002608Y030587D01*
X002785Y030660D01*
X003575Y030660D01*
X003752Y030587D01*
X003887Y030452D01*
X003960Y030275D01*
X003960Y030085D01*
X003887Y029908D01*
X003752Y029773D01*
X003575Y029700D01*
X003124Y029700D01*
X003084Y029660D01*
X003160Y029660D01*
X003160Y029200D01*
X003200Y029200D01*
X003200Y029660D01*
X003518Y029660D01*
X003592Y029648D01*
X003664Y029625D01*
X003732Y029591D01*
X003793Y029546D01*
X003846Y029493D01*
X003891Y029432D01*
X003925Y029364D01*
X003948Y029292D01*
X003960Y029218D01*
X003960Y029200D01*
X003200Y029200D01*
X003200Y029160D01*
X003960Y029160D01*
X003960Y029142D01*
X003948Y029068D01*
X003925Y028996D01*
X003891Y028928D01*
X003846Y028867D01*
X003793Y028814D01*
X003732Y028769D01*
X003664Y028735D01*
X003592Y028712D01*
X003518Y028700D01*
X003200Y028700D01*
X003200Y029160D01*
X003160Y029160D01*
X003160Y028700D01*
X002842Y028700D01*
X002768Y028712D01*
X002696Y028735D01*
X002630Y028769D01*
X002630Y028596D01*
X002785Y028660D01*
X003575Y028660D01*
X003752Y028587D01*
X003887Y028452D01*
X003960Y028275D01*
X003960Y028085D01*
X003887Y027908D01*
X003752Y027773D01*
X003575Y027700D01*
X002785Y027700D01*
X002630Y027764D01*
X002630Y027596D01*
X002785Y027660D01*
X003575Y027660D01*
X003752Y027587D01*
X003887Y027452D01*
X003904Y027410D01*
X007485Y027410D01*
X008600Y028525D01*
X008735Y028660D01*
X014485Y028660D01*
X016600Y030775D01*
X016731Y030907D01*
X016731Y030907D01*
X016680Y031030D01*
X016629Y030907D01*
X016480Y030758D01*
X016285Y030678D01*
X016075Y030678D01*
X015880Y030758D01*
X015731Y030907D01*
X015680Y031030D01*
X015671Y031004D01*
X015633Y030930D01*
X015584Y030862D01*
X015525Y030803D01*
X015458Y030754D01*
X015383Y030716D01*
X015304Y030691D01*
X015222Y030678D01*
X015198Y030678D01*
X015198Y031189D01*
X015162Y031189D01*
X015162Y030678D01*
X015138Y030678D01*
X015056Y030691D01*
X014977Y030716D01*
X014902Y030754D01*
X014835Y030803D01*
X014776Y030862D01*
X014727Y030930D01*
X014689Y031004D01*
X014680Y031030D01*
X014629Y030907D01*
X014480Y030758D01*
X014285Y030678D01*
X014075Y030678D01*
X013880Y030758D01*
X013731Y030907D01*
X013680Y031030D01*
X013629Y030907D01*
X013480Y030758D01*
X013285Y030678D01*
X013075Y030678D01*
X012880Y030758D01*
X012832Y030806D01*
X012145Y030120D01*
X012362Y030120D01*
X012620Y029862D01*
X012620Y029498D01*
X012362Y029240D01*
X011998Y029240D01*
X011740Y029498D01*
X011740Y029715D01*
X011620Y029595D01*
X011620Y029498D01*
X011362Y029240D01*
X010998Y029240D01*
X010740Y029498D01*
X010740Y029862D01*
X010998Y030120D01*
X011362Y030120D01*
X011428Y030054D01*
X012059Y030684D01*
X011880Y030758D01*
X011731Y030907D01*
X011680Y031030D01*
X011629Y030907D01*
X011480Y030758D01*
X011285Y030678D01*
X011075Y030678D01*
X010880Y030758D01*
X010731Y030907D01*
X010680Y031030D01*
X010629Y030907D01*
X010480Y030758D01*
X010285Y030678D01*
X010075Y030678D01*
X009880Y030758D01*
X009731Y030907D01*
X009680Y031030D01*
X009629Y030907D01*
X009480Y030758D01*
X009285Y030678D01*
X009075Y030678D01*
X008880Y030758D01*
X008731Y030907D01*
X008680Y031030D01*
X008671Y031004D01*
X008633Y030930D01*
X008584Y030862D01*
X008525Y030803D01*
X008458Y030754D01*
X008383Y030716D01*
X008304Y030691D01*
X008222Y030678D01*
X008198Y030678D01*
X008198Y031189D01*
X008162Y031189D01*
X008162Y030678D01*
X008138Y030678D01*
X008056Y030691D01*
X007977Y030716D01*
X007910Y030750D01*
X007910Y030032D01*
X007998Y030120D01*
X008362Y030120D01*
X008620Y029862D01*
X008620Y029498D01*
X008362Y029240D01*
X007998Y029240D01*
X007832Y029406D01*
X007775Y029350D01*
X007560Y029135D01*
X007560Y029004D01*
X007542Y028960D01*
X007823Y028960D01*
X007915Y029052D01*
X008054Y029110D01*
X008206Y029110D01*
X008345Y029052D01*
X008452Y028945D01*
X008510Y028806D01*
X008510Y028654D01*
X008452Y028515D01*
X008345Y028408D01*
X008206Y028350D01*
X008054Y028350D01*
X007915Y028408D01*
X007823Y028500D01*
X006935Y028500D01*
X006635Y028800D01*
X006500Y028935D01*
X006500Y030809D01*
X006446Y030786D01*
X006079Y030786D01*
X005741Y030926D01*
X005482Y031186D01*
X005341Y031524D01*
X005341Y031891D01*
X005482Y032229D01*
X005741Y032489D01*
X006079Y032629D01*
X006446Y032629D01*
X006785Y032489D01*
X007044Y032229D01*
X007184Y031891D01*
X007184Y031659D01*
X007250Y031725D01*
X007250Y032625D01*
X007825Y033200D01*
X003625Y033200D01*
X003324Y032898D01*
X003441Y032850D01*
X003570Y032721D01*
X003640Y032551D01*
X003640Y031808D01*
X003570Y031639D01*
X003441Y031510D01*
X003271Y031440D01*
X003088Y031440D01*
X002919Y031510D01*
X002790Y031639D01*
X002720Y031808D01*
X002720Y032145D01*
X001910Y031335D01*
X001910Y025825D01*
X002860Y024875D01*
X002860Y024039D01*
X002981Y024160D01*
X003379Y024160D01*
X003660Y023879D01*
X003660Y023481D01*
X003379Y023200D01*
X002981Y023200D01*
X002860Y023321D01*
X002860Y023039D01*
X002981Y023160D01*
X003379Y023160D01*
X003660Y022879D01*
X003660Y022525D01*
X004225Y021960D01*
X005652Y021960D01*
X005482Y022131D01*
X005341Y022469D01*
X005341Y022836D01*
X005482Y023174D01*
X005741Y023434D01*
X006079Y023574D01*
X006446Y023574D01*
X006785Y023434D01*
X007044Y023174D01*
X007184Y022836D01*
X007184Y022469D01*
X007044Y022131D01*
X006873Y021960D01*
X007285Y021960D01*
X009185Y023860D01*
X018025Y023860D01*
X018160Y023725D01*
X018160Y023725D01*
X020725Y021160D01*
X020725Y021160D01*
X020750Y021135D01*
X020750Y021323D01*
X020658Y021415D01*
X020600Y021554D01*
X020600Y021706D01*
X020658Y021845D01*
X020765Y021952D01*
X020904Y022010D01*
X021056Y022010D01*
X021195Y021952D01*
X021302Y021845D01*
X021360Y021706D01*
X021360Y021616D01*
X021385Y021620D01*
X021680Y021620D01*
X021680Y021180D01*
X021680Y020740D01*
X021680Y020810D02*
X021680Y020810D01*
X021680Y020968D02*
X021680Y020968D01*
X021680Y021127D02*
X021680Y021127D01*
X021680Y021180D02*
X021680Y021180D01*
X021680Y021285D02*
X021680Y021285D01*
X021680Y021444D02*
X021680Y021444D01*
X021680Y021602D02*
X021680Y021602D01*
X021655Y021761D02*
X021337Y021761D01*
X021228Y021919D02*
X021630Y021919D01*
X021630Y022078D02*
X019808Y022078D01*
X019649Y022236D02*
X021630Y022236D01*
X021630Y022395D02*
X019491Y022395D01*
X019332Y022553D02*
X021630Y022553D01*
X021630Y022712D02*
X019174Y022712D01*
X019015Y022870D02*
X021630Y022870D01*
X021630Y023029D02*
X018857Y023029D01*
X018698Y023187D02*
X021630Y023187D01*
X021630Y023346D02*
X018540Y023346D01*
X018381Y023504D02*
X019432Y023504D01*
X019273Y023663D02*
X018223Y023663D01*
X018064Y023821D02*
X019115Y023821D01*
X018956Y023980D02*
X007980Y023980D01*
X007980Y024138D02*
X011897Y024138D01*
X011441Y024297D02*
X010975Y024297D01*
X010879Y024200D02*
X011160Y024481D01*
X011160Y024879D01*
X010879Y025160D01*
X010481Y025160D01*
X010200Y024879D01*
X010200Y024481D01*
X010481Y024200D01*
X010879Y024200D01*
X011134Y024455D02*
X011283Y024455D01*
X011240Y024614D02*
X011160Y024614D01*
X011160Y024772D02*
X011240Y024772D01*
X011308Y024931D02*
X011108Y024931D01*
X010950Y025089D02*
X011467Y025089D01*
X011893Y025089D02*
X012467Y025089D01*
X012308Y024931D02*
X012052Y024931D01*
X012120Y024772D02*
X012240Y024772D01*
X012240Y024614D02*
X012120Y024614D01*
X012893Y025089D02*
X013664Y025089D01*
X013505Y024931D02*
X013052Y024931D01*
X013118Y023400D02*
X013100Y023356D01*
X013100Y023204D01*
X013158Y023065D01*
X013265Y022958D01*
X013404Y022900D01*
X013556Y022900D01*
X013695Y022958D01*
X013787Y023050D01*
X017885Y023050D01*
X019795Y021140D01*
X019690Y021140D01*
X019690Y020690D01*
X019670Y020690D01*
X019670Y021140D01*
X019364Y021140D01*
X019292Y021129D01*
X019223Y021106D01*
X019159Y021073D01*
X019100Y021031D01*
X019049Y020980D01*
X019007Y020921D01*
X018974Y020857D01*
X018951Y020788D01*
X018940Y020716D01*
X018940Y020690D01*
X019670Y020690D01*
X019670Y020670D01*
X019690Y020670D01*
X019690Y020220D01*
X019996Y020220D01*
X020068Y020231D01*
X020137Y020254D01*
X020200Y020286D01*
X020200Y020078D01*
X020051Y020140D01*
X019308Y020140D01*
X019139Y020070D01*
X019010Y019941D01*
X018940Y019771D01*
X018940Y019588D01*
X019010Y019419D01*
X019139Y019290D01*
X019308Y019220D01*
X020051Y019220D01*
X020221Y019290D01*
X020308Y019377D01*
X020335Y019350D01*
X021151Y018533D01*
X021047Y018429D01*
X020980Y018268D01*
X020980Y018092D01*
X021047Y017931D01*
X021171Y017807D01*
X021332Y017740D01*
X022028Y017740D01*
X022189Y017807D01*
X022313Y017931D01*
X022380Y018092D01*
X022380Y018268D01*
X022313Y018429D01*
X022242Y018500D01*
X022335Y018500D01*
X023963Y016872D01*
X023915Y016852D01*
X023808Y016745D01*
X023750Y016606D01*
X023750Y016454D01*
X023808Y016315D01*
X023900Y016223D01*
X023900Y014875D01*
X022354Y013330D01*
X022313Y013429D01*
X022189Y013553D01*
X022028Y013620D01*
X021565Y013620D01*
X021445Y013740D01*
X022028Y013740D01*
X022189Y013807D01*
X022313Y013931D01*
X022380Y014092D01*
X022380Y014268D01*
X022313Y014429D01*
X022189Y014553D01*
X022028Y014620D01*
X021332Y014620D01*
X021210Y014569D01*
X021210Y014791D01*
X021332Y014740D01*
X022028Y014740D01*
X022189Y014807D01*
X022313Y014931D01*
X022380Y015092D01*
X022380Y015268D01*
X022313Y015429D01*
X022189Y015553D01*
X022028Y015620D01*
X021332Y015620D01*
X021210Y015569D01*
X021210Y015575D01*
X021075Y015710D01*
X019460Y017325D01*
X019460Y017773D01*
X019552Y017865D01*
X019610Y018004D01*
X019610Y018156D01*
X019583Y018220D01*
X020051Y018220D01*
X020221Y018290D01*
X020350Y018419D01*
X020420Y018588D01*
X020420Y018771D01*
X020350Y018941D01*
X020221Y019070D01*
X020051Y019140D01*
X019308Y019140D01*
X019139Y019070D01*
X019010Y018941D01*
X018940Y018771D01*
X018940Y018588D01*
X019010Y018419D01*
X019024Y018406D01*
X019015Y018402D01*
X018970Y018357D01*
X018970Y018362D01*
X018712Y018620D01*
X018530Y018620D01*
X018530Y018180D01*
X018530Y018180D01*
X018530Y017740D01*
X018712Y017740D01*
X018887Y017915D01*
X018908Y017865D01*
X019000Y017773D01*
X019000Y017135D01*
X019015Y017120D01*
X018998Y017120D01*
X018740Y016862D01*
X018740Y016498D01*
X018998Y016240D01*
X019362Y016240D01*
X019620Y016498D01*
X019620Y016515D01*
X020750Y015385D01*
X020750Y013785D01*
X021076Y013458D01*
X021047Y013429D01*
X020980Y013268D01*
X020980Y013092D01*
X021047Y012931D01*
X021151Y012827D01*
X019785Y011460D01*
X019783Y011459D01*
X019689Y011553D01*
X019528Y011620D01*
X018832Y011620D01*
X018671Y011553D01*
X018547Y011429D01*
X018480Y011268D01*
X018480Y011260D01*
X018437Y011260D01*
X018345Y011352D01*
X018206Y011410D01*
X018054Y011410D01*
X017915Y011352D01*
X017808Y011245D01*
X017788Y011197D01*
X016697Y012288D01*
X016745Y012308D01*
X016837Y012400D01*
X018535Y012400D01*
X018480Y012268D01*
X018480Y012092D01*
X016893Y012092D01*
X016735Y012251D02*
X018480Y012251D01*
X018480Y012092D02*
X018547Y011931D01*
X018671Y011807D01*
X018832Y011740D01*
X019528Y011740D01*
X019689Y011807D01*
X019813Y011931D01*
X019880Y012092D01*
X020417Y012092D01*
X020575Y012251D02*
X019880Y012251D01*
X019880Y012268D02*
X019813Y012429D01*
X019689Y012553D01*
X019528Y012620D01*
X019065Y012620D01*
X018945Y012740D01*
X019528Y012740D01*
X019689Y012807D01*
X019813Y012931D01*
X019880Y013092D01*
X019880Y013268D01*
X019813Y013429D01*
X019689Y013553D01*
X019528Y013620D01*
X019065Y013620D01*
X018945Y013740D01*
X019528Y013740D01*
X019689Y013807D01*
X019813Y013931D01*
X019880Y014092D01*
X019880Y014268D01*
X019813Y014429D01*
X019689Y014553D01*
X019528Y014620D01*
X018832Y014620D01*
X018671Y014553D01*
X018547Y014429D01*
X018480Y014268D01*
X018480Y014205D01*
X015960Y016725D01*
X015960Y017535D01*
X016092Y017480D01*
X016268Y017480D01*
X016429Y017547D01*
X016458Y017576D01*
X016785Y017250D01*
X017425Y017250D01*
X017560Y017385D01*
X017860Y017685D01*
X017860Y021675D01*
X017725Y021810D01*
X016675Y022860D01*
X010435Y022860D01*
X010300Y022725D01*
X009985Y022410D01*
X008887Y022410D01*
X008795Y022502D01*
X008656Y022560D01*
X008535Y022560D01*
X009375Y023400D01*
X013118Y023400D01*
X013100Y023346D02*
X009321Y023346D01*
X009162Y023187D02*
X013107Y023187D01*
X013194Y023029D02*
X009004Y023029D01*
X008845Y022870D02*
X018065Y022870D01*
X018223Y022712D02*
X016824Y022712D01*
X016982Y022553D02*
X018382Y022553D01*
X018540Y022395D02*
X017141Y022395D01*
X017299Y022236D02*
X018699Y022236D01*
X018857Y022078D02*
X017458Y022078D01*
X017616Y021919D02*
X019016Y021919D01*
X019174Y021761D02*
X017775Y021761D01*
X017860Y021602D02*
X018330Y021602D01*
X018348Y021620D02*
X018090Y021362D01*
X018090Y020998D01*
X018348Y020740D01*
X018712Y020740D01*
X018970Y020998D01*
X018970Y021362D01*
X018712Y021620D01*
X018348Y021620D01*
X018171Y021444D02*
X017860Y021444D01*
X017860Y021285D02*
X018090Y021285D01*
X018090Y021127D02*
X017860Y021127D01*
X017860Y020968D02*
X018120Y020968D01*
X018278Y020810D02*
X017860Y020810D01*
X017860Y020651D02*
X018940Y020651D01*
X018940Y020644D02*
X018951Y020572D01*
X018974Y020503D01*
X019007Y020439D01*
X019049Y020380D01*
X019100Y020329D01*
X019159Y020287D01*
X019223Y020254D01*
X019292Y020231D01*
X019364Y020220D01*
X019670Y020220D01*
X019670Y020670D01*
X018940Y020670D01*
X018940Y020644D01*
X018979Y020493D02*
X017860Y020493D01*
X017860Y020334D02*
X019095Y020334D01*
X019086Y020017D02*
X017860Y020017D01*
X017860Y019859D02*
X018976Y019859D01*
X018940Y019700D02*
X017860Y019700D01*
X017860Y019542D02*
X018959Y019542D01*
X019046Y019383D02*
X017860Y019383D01*
X017860Y019225D02*
X019298Y019225D01*
X019135Y019066D02*
X017860Y019066D01*
X017860Y018908D02*
X018996Y018908D01*
X018940Y018749D02*
X017860Y018749D01*
X017860Y018591D02*
X018318Y018591D01*
X018348Y018620D02*
X018090Y018362D01*
X018090Y018180D01*
X018530Y018180D01*
X018530Y018180D01*
X018530Y018180D01*
X018530Y018620D01*
X018348Y018620D01*
X018530Y018591D02*
X018530Y018591D01*
X018530Y018432D02*
X018530Y018432D01*
X018530Y018274D02*
X018530Y018274D01*
X018530Y018180D02*
X018090Y018180D01*
X018090Y017998D01*
X018348Y017740D01*
X018530Y017740D01*
X018530Y018180D01*
X018530Y018115D02*
X018530Y018115D01*
X018530Y017957D02*
X018530Y017957D01*
X018530Y017798D02*
X018530Y017798D01*
X018770Y017798D02*
X018975Y017798D01*
X019000Y017640D02*
X017815Y017640D01*
X017860Y017798D02*
X018290Y017798D01*
X018131Y017957D02*
X017860Y017957D01*
X017860Y018115D02*
X018090Y018115D01*
X018090Y018274D02*
X017860Y018274D01*
X017860Y018432D02*
X018160Y018432D01*
X018742Y018591D02*
X018940Y018591D01*
X018900Y018432D02*
X019005Y018432D01*
X019610Y018115D02*
X020980Y018115D01*
X020982Y018274D02*
X020181Y018274D01*
X020355Y018432D02*
X021050Y018432D01*
X021094Y018591D02*
X020420Y018591D01*
X020420Y018749D02*
X020936Y018749D01*
X020777Y018908D02*
X020364Y018908D01*
X020225Y019066D02*
X020619Y019066D01*
X020460Y019225D02*
X020062Y019225D01*
X020200Y020176D02*
X017860Y020176D01*
X017400Y020176D02*
X016410Y020176D01*
X016410Y020334D02*
X017400Y020334D01*
X017400Y020493D02*
X017298Y020493D01*
X017268Y020480D02*
X017400Y020535D01*
X017400Y018822D01*
X017349Y018848D01*
X017283Y018869D01*
X017215Y018880D01*
X017180Y018880D01*
X017180Y018180D01*
X017180Y018180D01*
X017180Y018180D01*
X016740Y018180D01*
X016740Y018475D01*
X016751Y018543D01*
X016772Y018609D01*
X016804Y018671D01*
X016844Y018727D01*
X016893Y018776D01*
X016949Y018816D01*
X017011Y018848D01*
X017077Y018869D01*
X017145Y018880D01*
X017180Y018880D01*
X017180Y018180D01*
X016740Y018180D01*
X016740Y017945D01*
X016620Y018065D01*
X016620Y018528D01*
X016553Y018689D01*
X016429Y018813D01*
X016330Y018854D01*
X016410Y018935D01*
X016410Y020539D01*
X016429Y020547D01*
X016553Y020671D01*
X016620Y020832D01*
X016620Y021528D01*
X016553Y021689D01*
X016429Y021813D01*
X016268Y021880D01*
X016092Y021880D01*
X015931Y021813D01*
X015807Y021689D01*
X015740Y021528D01*
X015740Y020832D01*
X015807Y020671D01*
X015931Y020547D01*
X015950Y020539D01*
X015950Y019125D01*
X015635Y018810D01*
X015533Y018709D01*
X015429Y018813D01*
X015268Y018880D01*
X015100Y018880D01*
X015110Y018904D01*
X015110Y019056D01*
X015052Y019195D01*
X014945Y019302D01*
X014806Y019360D01*
X014654Y019360D01*
X014528Y019308D01*
X013330Y020506D01*
X013429Y020547D01*
X013553Y020671D01*
X013620Y020832D01*
X013620Y021528D01*
X013553Y021689D01*
X013429Y021813D01*
X013268Y021880D01*
X013092Y021880D01*
X013056Y021865D01*
X013002Y021995D01*
X012895Y022102D01*
X012756Y022160D01*
X012604Y022160D01*
X012465Y022102D01*
X012358Y021995D01*
X012304Y021865D01*
X012268Y021880D01*
X012092Y021880D01*
X011938Y021816D01*
X012120Y021998D01*
X012120Y022180D01*
X012120Y022362D01*
X012082Y022400D01*
X016485Y022400D01*
X017030Y021854D01*
X016931Y021813D01*
X016807Y021689D01*
X016740Y021528D01*
X016740Y020832D01*
X016807Y020671D01*
X016931Y020547D01*
X017092Y020480D01*
X017268Y020480D01*
X017062Y020493D02*
X016410Y020493D01*
X016533Y020651D02*
X016827Y020651D01*
X016750Y020810D02*
X016610Y020810D01*
X016620Y020968D02*
X016740Y020968D01*
X016740Y021127D02*
X016620Y021127D01*
X016620Y021285D02*
X016740Y021285D01*
X016740Y021444D02*
X016620Y021444D01*
X016589Y021602D02*
X016771Y021602D01*
X016878Y021761D02*
X016482Y021761D01*
X016807Y022078D02*
X012920Y022078D01*
X013034Y021919D02*
X016966Y021919D01*
X016649Y022236D02*
X012120Y022236D01*
X012120Y022180D02*
X011680Y022180D01*
X011680Y022180D01*
X011680Y022180D01*
X011240Y022180D01*
X011240Y022362D01*
X011278Y022400D01*
X011082Y022400D01*
X011120Y022362D01*
X011120Y021998D01*
X010938Y021816D01*
X011092Y021880D01*
X011268Y021880D01*
X011422Y021816D01*
X011240Y021998D01*
X011240Y022180D01*
X011680Y022180D01*
X012120Y022180D01*
X012120Y022078D02*
X012440Y022078D01*
X012326Y021919D02*
X012041Y021919D01*
X011858Y021740D02*
X011807Y021689D01*
X011740Y021528D01*
X011740Y020832D01*
X011807Y020671D01*
X011931Y020547D01*
X011950Y020539D01*
X011950Y019297D01*
X011895Y019352D01*
X011756Y019410D01*
X011604Y019410D01*
X011465Y019352D01*
X011358Y019245D01*
X011300Y019106D01*
X011300Y018975D01*
X011205Y018880D01*
X011092Y018880D01*
X010931Y018813D01*
X010807Y018689D01*
X010740Y018528D01*
X010740Y017832D01*
X010807Y017671D01*
X010931Y017547D01*
X011066Y017491D01*
X010535Y016960D01*
X010535Y016960D01*
X010528Y016954D01*
X010362Y017120D01*
X010180Y017120D01*
X010180Y016680D01*
X010180Y016680D01*
X010180Y016240D01*
X010362Y016240D01*
X010400Y016278D01*
X010400Y016075D01*
X008785Y014460D01*
X008654Y014460D01*
X008515Y014402D01*
X008408Y014295D01*
X008350Y014156D01*
X008350Y014004D01*
X008368Y013960D01*
X005825Y013960D01*
X005880Y014092D01*
X005880Y014268D01*
X005813Y014429D01*
X005689Y014553D01*
X005528Y014620D01*
X004832Y014620D01*
X004671Y014553D01*
X004547Y014429D01*
X004480Y014268D01*
X004480Y014092D01*
X004535Y013960D01*
X004135Y013960D01*
X003660Y013485D01*
X003660Y013660D01*
X003200Y013660D01*
X003200Y013700D01*
X003660Y013700D01*
X003660Y013879D01*
X003507Y014032D01*
X003510Y014035D01*
X004506Y015030D01*
X004547Y014931D01*
X004671Y014807D01*
X004832Y014740D01*
X005528Y014740D01*
X005689Y014807D01*
X005813Y014931D01*
X005880Y015092D01*
X005880Y015268D01*
X005813Y015429D01*
X005734Y015508D01*
X005760Y015535D01*
X007010Y016785D01*
X007010Y017323D01*
X007102Y017415D01*
X007160Y017554D01*
X007160Y017706D01*
X007102Y017845D01*
X006995Y017952D01*
X006856Y018010D01*
X006704Y018010D01*
X006565Y017952D01*
X006480Y017867D01*
X006480Y018440D01*
X006434Y018550D01*
X005610Y019374D01*
X005610Y019406D01*
X005552Y019545D01*
X005445Y019652D01*
X005306Y019710D01*
X005197Y019710D01*
X005287Y019800D01*
X006235Y019800D01*
X007740Y018295D01*
X007740Y017832D01*
X007807Y017671D01*
X007931Y017547D01*
X008092Y017480D01*
X008268Y017480D01*
X008429Y017547D01*
X008553Y017671D01*
X008620Y017832D01*
X008620Y018528D01*
X008553Y018689D01*
X008429Y018813D01*
X008268Y018880D01*
X008092Y018880D01*
X007931Y018813D01*
X007902Y018784D01*
X006685Y020000D01*
X010175Y020000D01*
X010310Y020135D01*
X010827Y020651D01*
X010826Y020651D01*
X010827Y020651D02*
X010931Y020547D01*
X011092Y020480D01*
X011268Y020480D01*
X011429Y020547D01*
X011553Y020671D01*
X011620Y020832D01*
X011620Y021528D01*
X011553Y021689D01*
X011502Y021740D01*
X011680Y021740D01*
X011858Y021740D01*
X011771Y021602D02*
X011589Y021602D01*
X011620Y021444D02*
X011740Y021444D01*
X011740Y021285D02*
X011620Y021285D01*
X011620Y021127D02*
X011740Y021127D01*
X011740Y020968D02*
X011620Y020968D01*
X011610Y020810D02*
X011750Y020810D01*
X011827Y020651D02*
X011533Y020651D01*
X011298Y020493D02*
X011950Y020493D01*
X011950Y020334D02*
X010509Y020334D01*
X010351Y020176D02*
X011950Y020176D01*
X011950Y020017D02*
X010192Y020017D01*
X010668Y020493D02*
X011062Y020493D01*
X011950Y019859D02*
X006827Y019859D01*
X006985Y019700D02*
X011950Y019700D01*
X011950Y019542D02*
X007144Y019542D01*
X007302Y019383D02*
X011539Y019383D01*
X011349Y019225D02*
X007461Y019225D01*
X007619Y019066D02*
X011300Y019066D01*
X011232Y018908D02*
X007778Y018908D01*
X007444Y018591D02*
X006394Y018591D01*
X006480Y018432D02*
X007603Y018432D01*
X007740Y018274D02*
X006480Y018274D01*
X006480Y018115D02*
X007740Y018115D01*
X007740Y017957D02*
X006985Y017957D01*
X007122Y017798D02*
X007754Y017798D01*
X007838Y017640D02*
X007160Y017640D01*
X007130Y017481D02*
X008090Y017481D01*
X008270Y017481D02*
X009090Y017481D01*
X009092Y017480D02*
X009268Y017480D01*
X009429Y017547D01*
X009553Y017671D01*
X009620Y017832D01*
X009620Y018528D01*
X009553Y018689D01*
X009429Y018813D01*
X009268Y018880D01*
X009092Y018880D01*
X008931Y018813D01*
X008807Y018689D01*
X008740Y018528D01*
X008740Y017832D01*
X008807Y017671D01*
X008931Y017547D01*
X009092Y017480D01*
X009270Y017481D02*
X010090Y017481D01*
X010092Y017480D02*
X010268Y017480D01*
X010429Y017547D01*
X010553Y017671D01*
X010620Y017832D01*
X010620Y018528D01*
X010553Y018689D01*
X010429Y018813D01*
X010268Y018880D01*
X010092Y018880D01*
X009931Y018813D01*
X009807Y018689D01*
X009740Y018528D01*
X009740Y017832D01*
X009807Y017671D01*
X009931Y017547D01*
X010092Y017480D01*
X010270Y017481D02*
X011056Y017481D01*
X010897Y017323D02*
X007010Y017323D01*
X007010Y017164D02*
X010739Y017164D01*
X010580Y017006D02*
X010477Y017006D01*
X010180Y017006D02*
X010180Y017006D01*
X010180Y017120D02*
X010180Y016680D01*
X010180Y016680D01*
X010180Y016680D01*
X009740Y016680D01*
X009740Y016862D01*
X009998Y017120D01*
X010180Y017120D01*
X010180Y016847D02*
X010180Y016847D01*
X010180Y016689D02*
X010180Y016689D01*
X010180Y016680D02*
X009740Y016680D01*
X009740Y016498D01*
X009998Y016240D01*
X010180Y016240D01*
X010180Y016680D01*
X010180Y016530D02*
X010180Y016530D01*
X010180Y016372D02*
X010180Y016372D01*
X010400Y016213D02*
X006438Y016213D01*
X006280Y016055D02*
X010379Y016055D01*
X010221Y015896D02*
X006121Y015896D01*
X005963Y015738D02*
X010062Y015738D01*
X009904Y015579D02*
X005804Y015579D01*
X005760Y015535D02*
X005760Y015535D01*
X005817Y015421D02*
X009745Y015421D01*
X009587Y015262D02*
X005880Y015262D01*
X005880Y015104D02*
X009428Y015104D01*
X009270Y014945D02*
X005819Y014945D01*
X005640Y014787D02*
X009111Y014787D01*
X008953Y014628D02*
X004103Y014628D01*
X003945Y014470D02*
X004587Y014470D01*
X004498Y014311D02*
X003786Y014311D01*
X003628Y014153D02*
X004480Y014153D01*
X004521Y013994D02*
X003545Y013994D01*
X003660Y013836D02*
X004010Y013836D01*
X003852Y013677D02*
X003200Y013677D01*
X003200Y013660D02*
X003200Y013200D01*
X003375Y013200D01*
X003335Y013160D01*
X002981Y013160D01*
X002700Y012879D01*
X002700Y012835D01*
X002660Y012875D01*
X002660Y012879D01*
X002379Y013160D01*
X001981Y013160D01*
X001960Y013139D01*
X001960Y013221D01*
X001981Y013200D01*
X002379Y013200D01*
X002660Y013481D01*
X002660Y013768D01*
X002700Y013752D01*
X002700Y013700D01*
X003160Y013700D01*
X003160Y013660D01*
X003200Y013660D01*
X003160Y013660D02*
X003160Y013200D01*
X002981Y013200D01*
X002700Y013481D01*
X002700Y013660D01*
X003160Y013660D01*
X003160Y013677D02*
X002660Y013677D01*
X002660Y013519D02*
X002700Y013519D01*
X002821Y013360D02*
X002539Y013360D01*
X002380Y013202D02*
X002980Y013202D01*
X003160Y013202D02*
X003200Y013202D01*
X003200Y013360D02*
X003160Y013360D01*
X003160Y013519D02*
X003200Y013519D01*
X003660Y013519D02*
X003693Y013519D01*
X002864Y013043D02*
X002496Y013043D01*
X002654Y012885D02*
X002706Y012885D01*
X001980Y013202D02*
X001960Y013202D01*
X004262Y014787D02*
X004720Y014787D01*
X004541Y014945D02*
X004420Y014945D01*
X005773Y014470D02*
X008794Y014470D01*
X008424Y014311D02*
X005862Y014311D01*
X005880Y014153D02*
X008350Y014153D01*
X008354Y013994D02*
X005839Y013994D01*
X006597Y016372D02*
X009866Y016372D01*
X009740Y016530D02*
X006755Y016530D01*
X006914Y016689D02*
X009740Y016689D01*
X009740Y016847D02*
X007010Y016847D01*
X007010Y017006D02*
X009883Y017006D01*
X009838Y017640D02*
X009522Y017640D01*
X009606Y017798D02*
X009754Y017798D01*
X009740Y017957D02*
X009620Y017957D01*
X009620Y018115D02*
X009740Y018115D01*
X009740Y018274D02*
X009620Y018274D01*
X009620Y018432D02*
X009740Y018432D01*
X009766Y018591D02*
X009594Y018591D01*
X009493Y018749D02*
X009867Y018749D01*
X010493Y018749D02*
X010867Y018749D01*
X010766Y018591D02*
X010594Y018591D01*
X010620Y018432D02*
X010740Y018432D01*
X010740Y018274D02*
X010620Y018274D01*
X010620Y018115D02*
X010740Y018115D01*
X010740Y017957D02*
X010620Y017957D01*
X010606Y017798D02*
X010754Y017798D01*
X010838Y017640D02*
X010522Y017640D01*
X008838Y017640D02*
X008522Y017640D01*
X008606Y017798D02*
X008754Y017798D01*
X008740Y017957D02*
X008620Y017957D01*
X008620Y018115D02*
X008740Y018115D01*
X008740Y018274D02*
X008620Y018274D01*
X008620Y018432D02*
X008740Y018432D01*
X008766Y018591D02*
X008594Y018591D01*
X008493Y018749D02*
X008867Y018749D01*
X007286Y018749D02*
X006235Y018749D01*
X006077Y018908D02*
X007127Y018908D01*
X006969Y019066D02*
X005918Y019066D01*
X005760Y019225D02*
X006810Y019225D01*
X006652Y019383D02*
X005610Y019383D01*
X005554Y019542D02*
X006493Y019542D01*
X006335Y019700D02*
X005330Y019700D01*
X006480Y017957D02*
X006575Y017957D01*
X011041Y021919D02*
X011319Y021919D01*
X011240Y022078D02*
X011120Y022078D01*
X011120Y022236D02*
X011240Y022236D01*
X011272Y022395D02*
X011088Y022395D01*
X011680Y022180D02*
X011680Y021740D01*
X011680Y022180D01*
X011680Y022180D01*
X011680Y022078D02*
X011680Y022078D01*
X011680Y021919D02*
X011680Y021919D01*
X011680Y021761D02*
X011680Y021761D01*
X012088Y022395D02*
X016490Y022395D01*
X015878Y021761D02*
X015482Y021761D01*
X015429Y021813D02*
X015553Y021689D01*
X015620Y021528D01*
X015620Y020832D01*
X015553Y020671D01*
X015429Y020547D01*
X015268Y020480D01*
X015092Y020480D01*
X014931Y020547D01*
X014807Y020671D01*
X014740Y020832D01*
X014740Y021528D01*
X014807Y021689D01*
X014931Y021813D01*
X015092Y021880D01*
X015268Y021880D01*
X015429Y021813D01*
X015589Y021602D02*
X015771Y021602D01*
X015740Y021444D02*
X015620Y021444D01*
X015620Y021285D02*
X015740Y021285D01*
X015740Y021127D02*
X015620Y021127D01*
X015620Y020968D02*
X015740Y020968D01*
X015750Y020810D02*
X015610Y020810D01*
X015533Y020651D02*
X015827Y020651D01*
X015950Y020493D02*
X015298Y020493D01*
X015062Y020493D02*
X014298Y020493D01*
X014268Y020480D02*
X014429Y020547D01*
X014553Y020671D01*
X014620Y020832D01*
X014620Y021528D01*
X014553Y021689D01*
X014429Y021813D01*
X014268Y021880D01*
X014092Y021880D01*
X013931Y021813D01*
X013807Y021689D01*
X013740Y021528D01*
X013740Y020832D01*
X013807Y020671D01*
X013931Y020547D01*
X014092Y020480D01*
X014268Y020480D01*
X014062Y020493D02*
X013343Y020493D01*
X013501Y020334D02*
X015950Y020334D01*
X015950Y020176D02*
X013660Y020176D01*
X013818Y020017D02*
X015950Y020017D01*
X015950Y019859D02*
X013977Y019859D01*
X014135Y019700D02*
X015950Y019700D01*
X015950Y019542D02*
X014294Y019542D01*
X014452Y019383D02*
X015950Y019383D01*
X015950Y019225D02*
X015023Y019225D01*
X015106Y019066D02*
X015891Y019066D01*
X015732Y018908D02*
X015110Y018908D01*
X015493Y018749D02*
X015574Y018749D01*
X016383Y018908D02*
X017400Y018908D01*
X017400Y019066D02*
X016410Y019066D01*
X016410Y019225D02*
X017400Y019225D01*
X017400Y019383D02*
X016410Y019383D01*
X016410Y019542D02*
X017400Y019542D01*
X017400Y019700D02*
X016410Y019700D01*
X016410Y019859D02*
X017400Y019859D01*
X017400Y020017D02*
X016410Y020017D01*
X016493Y018749D02*
X016867Y018749D01*
X016766Y018591D02*
X016594Y018591D01*
X016620Y018432D02*
X016740Y018432D01*
X016740Y018274D02*
X016620Y018274D01*
X016620Y018115D02*
X016740Y018115D01*
X016729Y017957D02*
X016740Y017957D01*
X016554Y017481D02*
X016270Y017481D01*
X016090Y017481D02*
X015960Y017481D01*
X015960Y017323D02*
X016712Y017323D01*
X015960Y017164D02*
X019000Y017164D01*
X019000Y017323D02*
X017498Y017323D01*
X017656Y017481D02*
X019000Y017481D01*
X019460Y017481D02*
X021099Y017481D01*
X021047Y017429D02*
X021171Y017553D01*
X021332Y017620D01*
X022028Y017620D01*
X022189Y017553D01*
X022313Y017429D01*
X022380Y017268D01*
X022380Y017092D01*
X022313Y016931D01*
X022189Y016807D01*
X022028Y016740D01*
X021332Y016740D01*
X021171Y016807D01*
X021047Y016931D01*
X020980Y017092D01*
X020980Y017268D01*
X021047Y017429D01*
X021003Y017323D02*
X019463Y017323D01*
X019621Y017164D02*
X020980Y017164D01*
X021016Y017006D02*
X019780Y017006D01*
X019938Y016847D02*
X021131Y016847D01*
X021171Y016553D02*
X021047Y016429D01*
X020980Y016268D01*
X020980Y016092D01*
X021047Y015931D01*
X021171Y015807D01*
X021332Y015740D01*
X022028Y015740D01*
X022189Y015807D01*
X022313Y015931D01*
X022380Y016092D01*
X022380Y016268D01*
X022313Y016429D01*
X022189Y016553D01*
X022028Y016620D01*
X021332Y016620D01*
X021171Y016553D01*
X021148Y016530D02*
X020255Y016530D01*
X020097Y016689D02*
X023784Y016689D01*
X023750Y016530D02*
X022212Y016530D01*
X022337Y016372D02*
X023784Y016372D01*
X023900Y016213D02*
X022380Y016213D01*
X022364Y016055D02*
X023900Y016055D01*
X023900Y015896D02*
X022278Y015896D01*
X022126Y015579D02*
X023900Y015579D01*
X023900Y015421D02*
X022317Y015421D01*
X022380Y015262D02*
X023900Y015262D01*
X023900Y015104D02*
X022380Y015104D01*
X022319Y014945D02*
X023900Y014945D01*
X023811Y014787D02*
X022140Y014787D01*
X022273Y014470D02*
X023494Y014470D01*
X023653Y014628D02*
X021210Y014628D01*
X021210Y014787D02*
X021220Y014787D01*
X020750Y014787D02*
X019640Y014787D01*
X019689Y014807D02*
X019813Y014931D01*
X019880Y015092D01*
X019880Y015268D01*
X019813Y015429D01*
X019689Y015553D01*
X019528Y015620D01*
X018832Y015620D01*
X018671Y015553D01*
X018547Y015429D01*
X018480Y015268D01*
X018480Y015092D01*
X018547Y014931D01*
X018671Y014807D01*
X018832Y014740D01*
X019528Y014740D01*
X019689Y014807D01*
X019819Y014945D02*
X020750Y014945D01*
X020750Y015104D02*
X019880Y015104D01*
X019880Y015262D02*
X020750Y015262D01*
X020714Y015421D02*
X019817Y015421D01*
X019626Y015579D02*
X020556Y015579D01*
X020397Y015738D02*
X016948Y015738D01*
X016789Y015896D02*
X020239Y015896D01*
X020080Y016055D02*
X016631Y016055D01*
X016472Y016213D02*
X019922Y016213D01*
X019763Y016372D02*
X019494Y016372D01*
X018866Y016372D02*
X018494Y016372D01*
X018620Y016498D02*
X018620Y016680D01*
X018620Y016862D01*
X018362Y017120D01*
X018180Y017120D01*
X018180Y016680D01*
X018620Y016680D01*
X018180Y016680D01*
X018180Y016680D01*
X018180Y016680D01*
X018180Y016240D01*
X018362Y016240D01*
X018620Y016498D01*
X018620Y016530D02*
X018740Y016530D01*
X018740Y016689D02*
X018620Y016689D01*
X018620Y016847D02*
X018740Y016847D01*
X018883Y017006D02*
X018477Y017006D01*
X018180Y017006D02*
X018180Y017006D01*
X018180Y017120D02*
X017998Y017120D01*
X017740Y016862D01*
X017740Y016680D01*
X018180Y016680D01*
X018180Y016680D01*
X018180Y016680D01*
X018180Y017120D01*
X018180Y016847D02*
X018180Y016847D01*
X018180Y016689D02*
X018180Y016689D01*
X018180Y016680D02*
X017740Y016680D01*
X017740Y016498D01*
X017998Y016240D01*
X018180Y016240D01*
X018180Y016680D01*
X018180Y016530D02*
X018180Y016530D01*
X018180Y016372D02*
X018180Y016372D01*
X017866Y016372D02*
X016314Y016372D01*
X016155Y016530D02*
X017740Y016530D01*
X017740Y016689D02*
X015997Y016689D01*
X015960Y016847D02*
X017740Y016847D01*
X017883Y017006D02*
X015960Y017006D01*
X017180Y018274D02*
X017180Y018274D01*
X017180Y018432D02*
X017180Y018432D01*
X017180Y018591D02*
X017180Y018591D01*
X017180Y018749D02*
X017180Y018749D01*
X019485Y017798D02*
X021192Y017798D01*
X021036Y017957D02*
X019590Y017957D01*
X019460Y017640D02*
X023195Y017640D01*
X023037Y017798D02*
X022168Y017798D01*
X022324Y017957D02*
X022878Y017957D01*
X022720Y018115D02*
X022380Y018115D01*
X022378Y018274D02*
X022561Y018274D01*
X022403Y018432D02*
X022310Y018432D01*
X022261Y017481D02*
X023354Y017481D01*
X023512Y017323D02*
X022357Y017323D01*
X022380Y017164D02*
X023671Y017164D01*
X023829Y017006D02*
X022344Y017006D01*
X022229Y016847D02*
X023910Y016847D01*
X023900Y015738D02*
X021048Y015738D01*
X021082Y015896D02*
X020889Y015896D01*
X020996Y016055D02*
X020731Y016055D01*
X020572Y016213D02*
X020980Y016213D01*
X021023Y016372D02*
X020414Y016372D01*
X021206Y015579D02*
X021234Y015579D01*
X020750Y014628D02*
X018057Y014628D01*
X017899Y014787D02*
X018720Y014787D01*
X018541Y014945D02*
X017740Y014945D01*
X017582Y015104D02*
X018480Y015104D01*
X018480Y015262D02*
X017423Y015262D01*
X017265Y015421D02*
X018543Y015421D01*
X018734Y015579D02*
X017106Y015579D01*
X018216Y014470D02*
X018587Y014470D01*
X018498Y014311D02*
X018374Y014311D01*
X019008Y013677D02*
X020858Y013677D01*
X020750Y013836D02*
X019718Y013836D01*
X019839Y013994D02*
X020750Y013994D01*
X020750Y014153D02*
X019880Y014153D01*
X019862Y014311D02*
X020750Y014311D01*
X020750Y014470D02*
X019773Y014470D01*
X019724Y013519D02*
X021016Y013519D01*
X021018Y013360D02*
X019842Y013360D01*
X019880Y013202D02*
X020980Y013202D01*
X021000Y013043D02*
X019860Y013043D01*
X019767Y012885D02*
X021093Y012885D01*
X021051Y012726D02*
X018959Y012726D01*
X019654Y012568D02*
X020892Y012568D01*
X020734Y012409D02*
X019821Y012409D01*
X019880Y012268D02*
X019880Y012092D01*
X019814Y011934D02*
X020258Y011934D01*
X020100Y011775D02*
X019612Y011775D01*
X019536Y011617D02*
X019941Y011617D01*
X018824Y011617D02*
X017369Y011617D01*
X017210Y011775D02*
X018748Y011775D01*
X018546Y011934D02*
X017052Y011934D01*
X017527Y011458D02*
X018576Y011458D01*
X018493Y011300D02*
X018398Y011300D01*
X017862Y011300D02*
X017686Y011300D01*
X021508Y013677D02*
X022702Y013677D01*
X022860Y013836D02*
X022218Y013836D01*
X022339Y013994D02*
X023019Y013994D01*
X023177Y014153D02*
X022380Y014153D01*
X022362Y014311D02*
X023336Y014311D01*
X022543Y013519D02*
X022224Y013519D01*
X022342Y013360D02*
X022385Y013360D01*
X025980Y017006D02*
X027016Y017006D01*
X026980Y017164D02*
X025821Y017164D01*
X025663Y017323D02*
X027003Y017323D01*
X027099Y017481D02*
X025610Y017481D01*
X025555Y017640D02*
X028480Y017640D01*
X028493Y017798D02*
X028168Y017798D01*
X028324Y017957D02*
X028574Y017957D01*
X028380Y018115D02*
X028820Y018115D01*
X028752Y018274D02*
X028378Y018274D01*
X028310Y018432D02*
X028546Y018432D01*
X028481Y018591D02*
X028099Y018591D01*
X028049Y018749D02*
X028480Y018749D01*
X028538Y018908D02*
X028290Y018908D01*
X028369Y019066D02*
X028702Y019066D01*
X028518Y019859D02*
X028241Y019859D01*
X027192Y017798D02*
X025334Y017798D01*
X028261Y017481D02*
X028526Y017481D01*
X028655Y017323D02*
X028357Y017323D01*
X031022Y016372D02*
X031338Y016372D01*
X031220Y016530D02*
X031140Y016530D01*
X031670Y016530D02*
X031690Y016530D01*
X031690Y016372D02*
X031670Y016372D01*
X031670Y017323D02*
X031690Y017323D01*
X031690Y017481D02*
X031670Y017481D01*
X031670Y017640D02*
X031690Y017640D01*
X031690Y017798D02*
X031670Y017798D01*
X031670Y017957D02*
X031690Y017957D01*
X031690Y018115D02*
X031670Y018115D01*
X031670Y018274D02*
X031690Y018274D01*
X031690Y018432D02*
X031670Y018432D01*
X031670Y018591D02*
X031690Y018591D01*
X031690Y018749D02*
X031670Y018749D01*
X031670Y018908D02*
X031690Y018908D01*
X031690Y019066D02*
X031670Y019066D01*
X031896Y018115D02*
X031900Y018115D01*
X034730Y019383D02*
X034774Y019383D01*
X034730Y019542D02*
X034933Y019542D01*
X035517Y019859D02*
X035700Y019859D01*
X035660Y020017D02*
X035858Y020017D01*
X033807Y024931D02*
X033553Y024931D01*
X033620Y025089D02*
X033740Y025089D01*
X033740Y025248D02*
X033620Y025248D01*
X033576Y025406D02*
X033784Y025406D01*
X033942Y025565D02*
X033418Y025565D01*
X033410Y025723D02*
X035507Y025723D01*
X035266Y025882D02*
X033507Y025882D01*
X033665Y026040D02*
X035111Y026040D01*
X035019Y026199D02*
X033824Y026199D01*
X033982Y026357D02*
X034954Y026357D01*
X034911Y026516D02*
X034141Y026516D01*
X034299Y026674D02*
X034905Y026674D01*
X034908Y026833D02*
X034458Y026833D01*
X034616Y026991D02*
X034951Y026991D01*
X035012Y027150D02*
X034775Y027150D01*
X034933Y027308D02*
X035104Y027308D01*
X035092Y027467D02*
X035254Y027467D01*
X035250Y027625D02*
X035486Y027625D01*
X035409Y027784D02*
X036651Y027784D01*
X036493Y027942D02*
X035567Y027942D01*
X035726Y028101D02*
X036368Y028101D01*
X036302Y028259D02*
X035884Y028259D01*
X036043Y028418D02*
X036250Y028418D01*
X036250Y028576D02*
X036201Y028576D01*
X036433Y027625D02*
X037700Y027625D01*
X037709Y027784D02*
X037850Y027784D01*
X037541Y027467D02*
X036665Y027467D01*
X036815Y027308D02*
X037383Y027308D01*
X037224Y027150D02*
X036907Y027150D01*
X036968Y026991D02*
X037066Y026991D01*
X038281Y026991D02*
X038441Y026991D01*
X038441Y026833D02*
X038281Y026833D01*
X038281Y027150D02*
X038441Y027150D01*
X038441Y027308D02*
X038281Y027308D01*
X038281Y027467D02*
X038441Y027467D01*
X039277Y026516D02*
X039400Y026516D01*
X039400Y026357D02*
X039233Y026357D01*
X039157Y026199D02*
X039400Y026199D01*
X039400Y026040D02*
X039036Y026040D01*
X038838Y025882D02*
X039400Y025882D01*
X038441Y025882D02*
X038281Y025882D01*
X038281Y026040D02*
X038441Y026040D01*
X038441Y026199D02*
X038281Y026199D01*
X038281Y026357D02*
X038441Y026357D01*
X038922Y030003D02*
X039400Y030003D01*
X039400Y030161D02*
X039079Y030161D01*
X039140Y030320D02*
X039400Y030320D01*
X039400Y030478D02*
X039140Y030478D01*
X039140Y030637D02*
X039400Y030637D01*
X039400Y030795D02*
X039140Y030795D01*
X039140Y030954D02*
X039400Y030954D01*
X039400Y031112D02*
X039115Y031112D01*
X039020Y031271D02*
X039400Y031271D01*
X036397Y031588D02*
X030848Y031588D01*
X030689Y031746D02*
X036239Y031746D01*
X036080Y031905D02*
X034746Y031905D01*
X034718Y031900D02*
X034792Y031912D01*
X034864Y031935D01*
X034932Y031969D01*
X034993Y032014D01*
X035046Y032067D01*
X035091Y032128D01*
X035125Y032196D01*
X035148Y032268D01*
X035160Y032342D01*
X035160Y032660D01*
X034700Y032660D01*
X034700Y031900D01*
X034718Y031900D01*
X034700Y031905D02*
X034660Y031905D01*
X034660Y031900D02*
X034660Y032660D01*
X034200Y032660D01*
X034200Y032342D01*
X034212Y032268D01*
X034235Y032196D01*
X034269Y032128D01*
X034314Y032067D01*
X034367Y032014D01*
X034428Y031969D01*
X034496Y031935D01*
X034568Y031912D01*
X034642Y031900D01*
X034660Y031900D01*
X034614Y031905D02*
X033786Y031905D01*
X033574Y031905D02*
X032746Y031905D01*
X032718Y031900D02*
X032792Y031912D01*
X032864Y031935D01*
X032932Y031969D01*
X032993Y032014D01*
X033046Y032067D01*
X033091Y032128D01*
X033125Y032196D01*
X033148Y032268D01*
X033160Y032342D01*
X033160Y032660D01*
X032700Y032660D01*
X032700Y031900D01*
X032718Y031900D01*
X032700Y031905D02*
X032660Y031905D01*
X032660Y031900D02*
X032660Y032660D01*
X032200Y032660D01*
X032200Y032342D01*
X032212Y032268D01*
X032235Y032196D01*
X032269Y032128D01*
X032314Y032067D01*
X032367Y032014D01*
X032428Y031969D01*
X032496Y031935D01*
X032568Y031912D01*
X032642Y031900D01*
X032660Y031900D01*
X032614Y031905D02*
X031786Y031905D01*
X031574Y031905D02*
X030531Y031905D01*
X030372Y032063D02*
X031318Y032063D01*
X031226Y032222D02*
X030214Y032222D01*
X030055Y032380D02*
X031200Y032380D01*
X031200Y032539D02*
X029897Y032539D01*
X029738Y032697D02*
X031200Y032697D01*
X031200Y032856D02*
X029580Y032856D01*
X029421Y033014D02*
X031200Y033014D01*
X031240Y033173D02*
X029263Y033173D01*
X027880Y031905D02*
X027627Y031905D01*
X027694Y032063D02*
X027722Y032063D01*
X027950Y031746D02*
X027451Y031746D01*
X027710Y031588D02*
X027950Y031588D01*
X027950Y031429D02*
X027710Y031429D01*
X027710Y031271D02*
X027950Y031271D01*
X027973Y031112D02*
X027710Y031112D01*
X027710Y030954D02*
X028131Y030954D01*
X028290Y030795D02*
X027710Y030795D01*
X028448Y030637D02*
X026662Y030637D01*
X026503Y030478D02*
X028607Y030478D01*
X028765Y030320D02*
X026366Y030320D01*
X026524Y030161D02*
X028924Y030161D01*
X029082Y030003D02*
X026683Y030003D01*
X026841Y029844D02*
X028506Y029844D01*
X028305Y029686D02*
X027000Y029686D01*
X027158Y029527D02*
X028240Y029527D01*
X027993Y029369D02*
X027795Y029369D01*
X027565Y029369D02*
X027317Y029369D01*
X026983Y029052D02*
X026931Y029052D01*
X026825Y029210D02*
X026380Y029210D01*
X026363Y029052D02*
X026429Y029052D01*
X026338Y029369D02*
X026666Y029369D01*
X026508Y029527D02*
X026215Y029527D01*
X026349Y029686D02*
X020620Y029686D01*
X020620Y029844D02*
X026191Y029844D01*
X025145Y029527D02*
X023215Y029527D01*
X023275Y028893D02*
X024792Y028893D01*
X024967Y029369D02*
X025022Y029369D01*
X026318Y028418D02*
X026320Y028418D01*
X026380Y028259D02*
X026479Y028259D01*
X026380Y028101D02*
X027377Y028101D01*
X027270Y028259D02*
X026881Y028259D01*
X027040Y028418D02*
X027240Y028418D01*
X027240Y028576D02*
X027120Y028576D01*
X027120Y028735D02*
X027240Y028735D01*
X027142Y028893D02*
X027089Y028893D01*
X028120Y028735D02*
X028281Y028735D01*
X028240Y028893D02*
X028168Y028893D01*
X028120Y028576D02*
X028402Y028576D01*
X028120Y028418D02*
X029500Y028418D01*
X029500Y028576D02*
X028958Y028576D01*
X029079Y028735D02*
X029500Y028735D01*
X029500Y028893D02*
X029120Y028893D01*
X029120Y029052D02*
X029500Y029052D01*
X029500Y029210D02*
X029120Y029210D01*
X029120Y029369D02*
X029500Y029369D01*
X029500Y029527D02*
X029120Y029527D01*
X029055Y029686D02*
X029399Y029686D01*
X029241Y029844D02*
X028854Y029844D01*
X029500Y028259D02*
X028090Y028259D01*
X027983Y028101D02*
X029500Y028101D01*
X029500Y027942D02*
X026318Y027942D01*
X026133Y027784D02*
X029500Y027784D01*
X028680Y026833D02*
X028680Y026833D01*
X028680Y026674D02*
X028680Y026674D01*
X028680Y026516D02*
X028680Y026516D01*
X028680Y026357D02*
X028680Y026357D01*
X028680Y026199D02*
X028680Y026199D01*
X028481Y026833D02*
X026210Y026833D01*
X026380Y026199D02*
X027324Y026199D01*
X027250Y026040D02*
X026942Y026040D01*
X027101Y025882D02*
X027240Y025882D01*
X027240Y025723D02*
X027120Y025723D01*
X027120Y025565D02*
X027240Y025565D01*
X027240Y025406D02*
X027028Y025406D01*
X026870Y025248D02*
X027274Y025248D01*
X027389Y025089D02*
X026950Y025089D01*
X026200Y024772D02*
X026108Y024772D01*
X026200Y024614D02*
X026015Y024614D01*
X025680Y024614D02*
X025680Y024614D01*
X025680Y024772D02*
X025680Y024772D01*
X025680Y024931D02*
X025680Y024931D01*
X025680Y025089D02*
X025680Y025089D01*
X025680Y025248D02*
X025680Y025248D01*
X025680Y025406D02*
X025680Y025406D01*
X025680Y025565D02*
X025680Y025565D01*
X025680Y025740D02*
X025680Y026180D01*
X025680Y026180D01*
X025680Y026180D01*
X024980Y026180D01*
X024980Y026215D01*
X024991Y026283D01*
X025012Y026349D01*
X025044Y026411D01*
X025084Y026467D01*
X025133Y026516D01*
X025189Y026556D01*
X025251Y026588D01*
X025317Y026609D01*
X025385Y026620D01*
X025680Y026620D01*
X025680Y026180D01*
X024980Y026180D01*
X024980Y026145D01*
X024991Y026077D01*
X025012Y026011D01*
X025044Y025949D01*
X025084Y025893D01*
X025133Y025844D01*
X025189Y025804D01*
X025251Y025772D01*
X025317Y025751D01*
X025385Y025740D01*
X025680Y025740D01*
X025680Y025882D02*
X025680Y025882D01*
X025680Y026040D02*
X025680Y026040D01*
X025680Y026199D02*
X025680Y026199D01*
X025680Y026357D02*
X025680Y026357D01*
X025680Y026516D02*
X025680Y026516D01*
X025680Y026833D02*
X025680Y026833D01*
X025680Y026991D02*
X025680Y026991D01*
X025680Y027150D02*
X025680Y027150D01*
X025680Y027308D02*
X025680Y027308D01*
X025680Y027467D02*
X025680Y027467D01*
X025133Y026516D02*
X023719Y026516D01*
X023730Y026357D02*
X025016Y026357D01*
X024980Y026199D02*
X023730Y026199D01*
X023730Y026040D02*
X025003Y026040D01*
X025096Y025882D02*
X023730Y025882D01*
X023130Y025723D02*
X021612Y025723D01*
X021680Y025882D02*
X021680Y025882D01*
X021680Y026040D02*
X021680Y026040D01*
X021680Y026199D02*
X021680Y026199D01*
X021680Y026357D02*
X021680Y026357D01*
X021680Y026516D02*
X021680Y026516D01*
X021967Y026516D02*
X022133Y026516D01*
X022145Y026833D02*
X021955Y026833D01*
X022680Y026516D02*
X022680Y026516D01*
X022680Y026357D02*
X022680Y026357D01*
X022680Y026199D02*
X022680Y026199D01*
X022680Y026040D02*
X022680Y026040D01*
X022680Y025882D02*
X022680Y025882D01*
X022680Y025565D02*
X022680Y025565D01*
X022680Y025406D02*
X022680Y025406D01*
X022680Y025248D02*
X022680Y025248D01*
X022680Y025180D02*
X022680Y024740D01*
X022975Y024740D01*
X023043Y024751D01*
X023109Y024772D01*
X023130Y024783D01*
X023130Y024578D01*
X023028Y024620D01*
X022715Y024620D01*
X022595Y024740D01*
X022680Y024740D01*
X022680Y025180D01*
X022680Y025180D01*
X022680Y025089D02*
X022680Y025089D01*
X022680Y024931D02*
X022680Y024931D01*
X022680Y024772D02*
X022680Y024772D01*
X023043Y024614D02*
X023130Y024614D01*
X023130Y024772D02*
X023108Y024772D01*
X022071Y024614D02*
X019171Y024614D01*
X019012Y024772D02*
X021913Y024772D01*
X021754Y024931D02*
X018854Y024931D01*
X018695Y025089D02*
X021596Y025089D01*
X021437Y025248D02*
X020870Y025248D01*
X021028Y025406D02*
X021279Y025406D01*
X021120Y025565D02*
X021120Y025565D01*
X021771Y025565D02*
X022206Y025565D01*
X022041Y025406D02*
X021929Y025406D01*
X022004Y025882D02*
X022096Y025882D01*
X021240Y026199D02*
X021137Y026199D01*
X021240Y026357D02*
X020978Y026357D01*
X020860Y026516D02*
X021393Y026516D01*
X021405Y026833D02*
X020860Y026833D01*
X020860Y026674D02*
X022762Y026674D01*
X022084Y027467D02*
X022016Y027467D01*
X021344Y027467D02*
X020319Y027467D01*
X020477Y027308D02*
X021240Y027308D01*
X021240Y027150D02*
X020636Y027150D01*
X020794Y026991D02*
X021247Y026991D01*
X020486Y026199D02*
X016774Y026199D01*
X016615Y026040D02*
X017418Y026040D01*
X017259Y025882D02*
X016457Y025882D01*
X016298Y025723D02*
X017240Y025723D01*
X017240Y025565D02*
X016140Y025565D01*
X015981Y025406D02*
X017332Y025406D01*
X017490Y025248D02*
X015823Y025248D01*
X015664Y025089D02*
X017847Y025089D01*
X018005Y024931D02*
X015506Y024931D01*
X015347Y024772D02*
X018164Y024772D01*
X018322Y024614D02*
X015189Y024614D01*
X015030Y024455D02*
X018481Y024455D01*
X018639Y024297D02*
X014872Y024297D01*
X014713Y024138D02*
X018798Y024138D01*
X019329Y024455D02*
X022073Y024455D01*
X021992Y024297D02*
X019488Y024297D01*
X019646Y024138D02*
X021980Y024138D01*
X023378Y023504D02*
X025122Y023504D01*
X025133Y023516D02*
X025084Y023467D01*
X025044Y023411D01*
X025012Y023349D01*
X024991Y023283D01*
X024980Y023215D01*
X024980Y023180D01*
X025680Y023180D01*
X025680Y023180D01*
X025680Y023180D01*
X025680Y023620D01*
X025385Y023620D01*
X025317Y023609D01*
X025251Y023588D01*
X025189Y023556D01*
X025133Y023516D01*
X025011Y023346D02*
X023348Y023346D01*
X023380Y023187D02*
X024980Y023187D01*
X024980Y023180D02*
X024980Y023145D01*
X024991Y023077D01*
X025012Y023011D01*
X025044Y022949D01*
X025084Y022893D01*
X025133Y022844D01*
X025189Y022804D01*
X025251Y022772D01*
X025317Y022751D01*
X025385Y022740D01*
X025680Y022740D01*
X025680Y023180D01*
X024980Y023180D01*
X025007Y023029D02*
X023354Y023029D01*
X023252Y022870D02*
X025108Y022870D01*
X025680Y022870D02*
X025680Y022870D01*
X025680Y023029D02*
X025680Y023029D01*
X025680Y023187D02*
X025680Y023187D01*
X025680Y023346D02*
X025680Y023346D01*
X025680Y023504D02*
X025680Y023504D01*
X025680Y023821D02*
X025680Y023821D01*
X025680Y023980D02*
X025680Y023980D01*
X025680Y024138D02*
X025680Y024138D01*
X025680Y024297D02*
X025680Y024297D01*
X025680Y024455D02*
X025680Y024455D01*
X026238Y023504D02*
X026779Y023504D01*
X026620Y023346D02*
X026349Y023346D01*
X026380Y023187D02*
X026462Y023187D01*
X026795Y022870D02*
X027145Y022870D01*
X027303Y023029D02*
X026954Y023029D01*
X027112Y023187D02*
X027462Y023187D01*
X027620Y023346D02*
X027271Y023346D01*
X027429Y023504D02*
X027779Y023504D01*
X026986Y022712D02*
X026637Y022712D01*
X026478Y022553D02*
X026828Y022553D01*
X026669Y022395D02*
X026320Y022395D01*
X026161Y022236D02*
X026511Y022236D01*
X026352Y022078D02*
X026003Y022078D01*
X025828Y022553D02*
X023143Y022553D01*
X022717Y022553D02*
X022230Y022553D01*
X022230Y022395D02*
X022587Y022395D01*
X022550Y022236D02*
X022230Y022236D01*
X022230Y022078D02*
X022582Y022078D01*
X022704Y021919D02*
X022315Y021919D01*
X022230Y022712D02*
X025986Y022712D01*
X027680Y025248D02*
X027680Y025248D01*
X027680Y025406D02*
X027680Y025406D01*
X027680Y025565D02*
X027680Y025565D01*
X027680Y025723D02*
X027680Y025723D01*
X027680Y025882D02*
X027680Y025882D01*
X027680Y026040D02*
X027680Y026040D01*
X027680Y026199D02*
X027680Y026199D01*
X026418Y026040D02*
X026357Y026040D01*
X022085Y028893D02*
X018892Y028893D01*
X018734Y029052D02*
X021997Y029052D01*
X021980Y029210D02*
X018575Y029210D01*
X018491Y029369D02*
X018869Y029369D01*
X018740Y029527D02*
X018620Y029527D01*
X018620Y029686D02*
X018740Y029686D01*
X018740Y029844D02*
X018620Y029844D01*
X019491Y029369D02*
X019869Y029369D01*
X019740Y029527D02*
X019620Y029527D01*
X019620Y029686D02*
X019740Y029686D01*
X019740Y029844D02*
X019620Y029844D01*
X020491Y029369D02*
X022022Y029369D01*
X022145Y029527D02*
X020620Y029527D01*
X019193Y027942D02*
X016960Y027942D01*
X016960Y027784D02*
X019351Y027784D01*
X019510Y027625D02*
X016960Y027625D01*
X016960Y027467D02*
X019668Y027467D01*
X019827Y027308D02*
X016960Y027308D01*
X016960Y027150D02*
X019985Y027150D01*
X019869Y026991D02*
X019491Y026991D01*
X019362Y027120D02*
X019180Y027120D01*
X019180Y026680D01*
X019180Y026680D01*
X019620Y026680D01*
X019620Y026862D01*
X019362Y027120D01*
X019180Y027120D02*
X019180Y026680D01*
X019180Y026680D01*
X019180Y026680D01*
X018740Y026680D01*
X018740Y026862D01*
X018998Y027120D01*
X019180Y027120D01*
X019180Y026991D02*
X019180Y026991D01*
X019180Y026833D02*
X019180Y026833D01*
X019180Y026680D02*
X018740Y026680D01*
X018740Y026498D01*
X018998Y026240D01*
X019180Y026240D01*
X019362Y026240D01*
X019620Y026498D01*
X019620Y026680D01*
X019180Y026680D01*
X019180Y026240D01*
X019180Y026680D01*
X019180Y026680D01*
X019180Y026674D02*
X019180Y026674D01*
X019180Y026516D02*
X019180Y026516D01*
X019180Y026357D02*
X019180Y026357D01*
X019479Y026357D02*
X019881Y026357D01*
X019740Y026516D02*
X019620Y026516D01*
X019620Y026674D02*
X019740Y026674D01*
X019740Y026833D02*
X019620Y026833D01*
X018869Y026991D02*
X018491Y026991D01*
X018620Y026862D02*
X018362Y027120D01*
X017998Y027120D01*
X017740Y026862D01*
X017740Y026498D01*
X017998Y026240D01*
X018362Y026240D01*
X018620Y026498D01*
X018620Y026862D01*
X018620Y026833D02*
X018740Y026833D01*
X018740Y026674D02*
X018620Y026674D01*
X018620Y026516D02*
X018740Y026516D01*
X018881Y026357D02*
X018479Y026357D01*
X018101Y025882D02*
X020259Y025882D01*
X020240Y025723D02*
X018120Y025723D01*
X018220Y025565D02*
X020240Y025565D01*
X020332Y025406D02*
X018378Y025406D01*
X018537Y025248D02*
X020490Y025248D01*
X020418Y026040D02*
X017942Y026040D01*
X017881Y026357D02*
X017479Y026357D01*
X017620Y026516D02*
X017740Y026516D01*
X017740Y026674D02*
X017620Y026674D01*
X017620Y026833D02*
X017740Y026833D01*
X017869Y026991D02*
X017491Y026991D01*
X016960Y028101D02*
X019034Y028101D01*
X018876Y028259D02*
X016960Y028259D01*
X016960Y028418D02*
X018717Y028418D01*
X018559Y028576D02*
X016960Y028576D01*
X016960Y028735D02*
X018400Y028735D01*
X018242Y028893D02*
X016960Y028893D01*
X016960Y029052D02*
X017483Y029052D01*
X017325Y029210D02*
X016960Y029210D01*
X015986Y030161D02*
X012186Y030161D01*
X012345Y030320D02*
X016144Y030320D01*
X016303Y030478D02*
X012503Y030478D01*
X012662Y030637D02*
X016461Y030637D01*
X016517Y030795D02*
X016620Y030795D01*
X016648Y030954D02*
X016712Y030954D01*
X015843Y030795D02*
X015514Y030795D01*
X015645Y030954D02*
X015712Y030954D01*
X015198Y030954D02*
X015162Y030954D01*
X015162Y031112D02*
X015198Y031112D01*
X015198Y030795D02*
X015162Y030795D01*
X014846Y030795D02*
X014517Y030795D01*
X014648Y030954D02*
X014715Y030954D01*
X014862Y030120D02*
X014498Y030120D01*
X014240Y029862D01*
X014240Y029498D01*
X014498Y029240D01*
X014862Y029240D01*
X015120Y029498D01*
X015120Y029862D01*
X014862Y030120D01*
X014980Y030003D02*
X015827Y030003D01*
X015669Y029844D02*
X015120Y029844D01*
X015120Y029686D02*
X015510Y029686D01*
X015352Y029527D02*
X015120Y029527D01*
X015193Y029369D02*
X014991Y029369D01*
X015035Y029210D02*
X007635Y029210D01*
X007560Y029052D02*
X007914Y029052D01*
X007869Y029369D02*
X007794Y029369D01*
X008346Y029052D02*
X014876Y029052D01*
X014718Y028893D02*
X008474Y028893D01*
X008510Y028735D02*
X014559Y028735D01*
X014369Y029369D02*
X013491Y029369D01*
X013362Y029240D02*
X013620Y029498D01*
X013620Y029862D01*
X013362Y030120D01*
X012998Y030120D01*
X012740Y029862D01*
X012740Y029498D01*
X012998Y029240D01*
X013362Y029240D01*
X013620Y029527D02*
X014240Y029527D01*
X014240Y029686D02*
X013620Y029686D01*
X013620Y029844D02*
X014240Y029844D01*
X014380Y030003D02*
X013480Y030003D01*
X012880Y030003D02*
X012480Y030003D01*
X012620Y029844D02*
X012740Y029844D01*
X012740Y029686D02*
X012620Y029686D01*
X012620Y029527D02*
X012740Y029527D01*
X012869Y029369D02*
X012491Y029369D01*
X011869Y029369D02*
X011491Y029369D01*
X011620Y029527D02*
X011740Y029527D01*
X011740Y029686D02*
X011711Y029686D01*
X011536Y030161D02*
X007910Y030161D01*
X007910Y030320D02*
X011694Y030320D01*
X011853Y030478D02*
X007910Y030478D01*
X007910Y030637D02*
X012011Y030637D01*
X011843Y030795D02*
X011517Y030795D01*
X011648Y030954D02*
X011712Y030954D01*
X010843Y030795D02*
X010517Y030795D01*
X010648Y030954D02*
X010712Y030954D01*
X009843Y030795D02*
X009517Y030795D01*
X009648Y030954D02*
X009712Y030954D01*
X009998Y030120D02*
X009740Y029862D01*
X009740Y029498D01*
X009998Y029240D01*
X010362Y029240D01*
X010620Y029498D01*
X010620Y029862D01*
X010362Y030120D01*
X009998Y030120D01*
X009880Y030003D02*
X009480Y030003D01*
X009362Y030120D02*
X009620Y029862D01*
X009620Y029498D01*
X009362Y029240D01*
X008998Y029240D01*
X008740Y029498D01*
X008740Y029862D01*
X008998Y030120D01*
X009362Y030120D01*
X009620Y029844D02*
X009740Y029844D01*
X009740Y029686D02*
X009620Y029686D01*
X009620Y029527D02*
X009740Y029527D01*
X009869Y029369D02*
X009491Y029369D01*
X008869Y029369D02*
X008491Y029369D01*
X008620Y029527D02*
X008740Y029527D01*
X008740Y029686D02*
X008620Y029686D01*
X008620Y029844D02*
X008740Y029844D01*
X008880Y030003D02*
X008480Y030003D01*
X008514Y030795D02*
X008843Y030795D01*
X008712Y030954D02*
X008645Y030954D01*
X008198Y030954D02*
X008162Y030954D01*
X008162Y031112D02*
X008198Y031112D01*
X008198Y030795D02*
X008162Y030795D01*
X007250Y031746D02*
X007184Y031746D01*
X007178Y031905D02*
X007250Y031905D01*
X007250Y032063D02*
X007113Y032063D01*
X007047Y032222D02*
X007250Y032222D01*
X007250Y032380D02*
X006893Y032380D01*
X006664Y032539D02*
X007250Y032539D01*
X007322Y032697D02*
X004580Y032697D01*
X004570Y032721D02*
X004441Y032850D01*
X004271Y032920D01*
X004088Y032920D01*
X003919Y032850D01*
X003790Y032721D01*
X003720Y032551D01*
X003720Y031808D01*
X003790Y031639D01*
X003919Y031510D01*
X004088Y031440D01*
X004271Y031440D01*
X004441Y031510D01*
X004570Y031639D01*
X004640Y031808D01*
X004640Y032551D01*
X004570Y032721D01*
X004640Y032539D02*
X005861Y032539D01*
X005632Y032380D02*
X004640Y032380D01*
X004640Y032222D02*
X005478Y032222D01*
X005413Y032063D02*
X004640Y032063D01*
X004640Y031905D02*
X005347Y031905D01*
X005341Y031746D02*
X004614Y031746D01*
X004518Y031588D02*
X005341Y031588D01*
X005381Y031429D02*
X002004Y031429D01*
X001910Y031271D02*
X005446Y031271D01*
X005555Y031112D02*
X001910Y031112D01*
X001910Y030954D02*
X005714Y030954D01*
X006058Y030795D02*
X001910Y030795D01*
X001910Y030637D02*
X002728Y030637D01*
X002499Y030478D02*
X001910Y030478D01*
X001910Y030320D02*
X002418Y030320D01*
X002400Y030161D02*
X001910Y030161D01*
X001910Y030003D02*
X002434Y030003D01*
X002370Y029844D02*
X001910Y029844D01*
X001910Y029686D02*
X002211Y029686D01*
X002066Y029527D02*
X001910Y029527D01*
X001910Y029369D02*
X002030Y029369D01*
X002030Y029210D02*
X001910Y029210D01*
X001910Y029052D02*
X002030Y029052D01*
X002030Y028893D02*
X001910Y028893D01*
X001910Y028735D02*
X002030Y028735D01*
X002030Y028576D02*
X001910Y028576D01*
X001910Y028418D02*
X002030Y028418D01*
X002030Y028259D02*
X001910Y028259D01*
X001910Y028101D02*
X002030Y028101D01*
X002030Y027942D02*
X001910Y027942D01*
X001910Y027784D02*
X002030Y027784D01*
X002030Y027625D02*
X001910Y027625D01*
X001910Y027467D02*
X002030Y027467D01*
X002030Y027308D02*
X001910Y027308D01*
X001910Y027150D02*
X002030Y027150D01*
X002030Y026991D02*
X001910Y026991D01*
X001910Y026833D02*
X002030Y026833D01*
X002030Y026674D02*
X001910Y026674D01*
X001910Y026516D02*
X002030Y026516D01*
X002030Y026357D02*
X001910Y026357D01*
X001910Y026199D02*
X002030Y026199D01*
X002030Y026040D02*
X001910Y026040D01*
X001910Y025882D02*
X002046Y025882D01*
X002012Y025723D02*
X002163Y025723D01*
X002171Y025565D02*
X002321Y025565D01*
X002329Y025406D02*
X002480Y025406D01*
X002488Y025248D02*
X006738Y025248D01*
X006897Y025089D02*
X002646Y025089D01*
X002805Y024931D02*
X007055Y024931D01*
X007214Y024772D02*
X002860Y024772D01*
X002860Y024614D02*
X007372Y024614D01*
X007380Y024455D02*
X002860Y024455D01*
X002860Y024297D02*
X007380Y024297D01*
X007380Y024138D02*
X003401Y024138D01*
X003559Y023980D02*
X007380Y023980D01*
X007306Y023821D02*
X003660Y023821D01*
X003660Y023663D02*
X007300Y023663D01*
X007369Y023504D02*
X006614Y023504D01*
X006873Y023346D02*
X008670Y023346D01*
X008829Y023504D02*
X007991Y023504D01*
X008060Y023663D02*
X008987Y023663D01*
X009146Y023821D02*
X008054Y023821D01*
X007980Y024297D02*
X010385Y024297D01*
X010226Y024455D02*
X007980Y024455D01*
X007980Y024614D02*
X010200Y024614D01*
X010200Y024772D02*
X007980Y024772D01*
X007904Y024931D02*
X010252Y024931D01*
X010410Y025089D02*
X007745Y025089D01*
X007587Y025248D02*
X009687Y025248D01*
X009529Y025406D02*
X007428Y025406D01*
X007270Y025565D02*
X009370Y025565D01*
X009212Y025723D02*
X007347Y025723D01*
X007506Y025882D02*
X009053Y025882D01*
X008895Y026040D02*
X007664Y026040D01*
X007823Y026199D02*
X008736Y026199D01*
X008578Y026357D02*
X008479Y026357D01*
X008917Y027480D02*
X008937Y027500D01*
X014889Y027500D01*
X014850Y027406D01*
X014850Y027254D01*
X014908Y027115D01*
X015015Y027008D01*
X015154Y026950D01*
X015271Y026950D01*
X015200Y026879D01*
X015200Y026700D01*
X015660Y026700D01*
X015660Y026660D01*
X015200Y026660D01*
X015200Y026481D01*
X015221Y026460D01*
X015082Y026460D01*
X015120Y026498D01*
X015120Y026862D01*
X014862Y027120D01*
X014664Y027120D01*
X014350Y027434D01*
X014240Y027480D01*
X008917Y027480D01*
X008175Y028101D02*
X003960Y028101D01*
X003960Y028259D02*
X008334Y028259D01*
X008355Y028418D02*
X008492Y028418D01*
X008478Y028576D02*
X008651Y028576D01*
X007905Y028418D02*
X003901Y028418D01*
X003763Y028576D02*
X006859Y028576D01*
X006700Y028735D02*
X003662Y028735D01*
X003865Y028893D02*
X006542Y028893D01*
X006500Y029052D02*
X003943Y029052D01*
X003960Y029210D02*
X006500Y029210D01*
X006500Y029369D02*
X003923Y029369D01*
X003812Y029527D02*
X006500Y029527D01*
X006500Y029686D02*
X003110Y029686D01*
X003160Y029527D02*
X003200Y029527D01*
X003200Y029369D02*
X003160Y029369D01*
X003160Y029210D02*
X003200Y029210D01*
X003200Y029052D02*
X003160Y029052D01*
X003160Y028893D02*
X003200Y028893D01*
X003200Y028735D02*
X003160Y028735D01*
X002698Y028735D02*
X002630Y028735D01*
X002630Y027625D02*
X002700Y027625D01*
X003660Y027625D02*
X007700Y027625D01*
X007858Y027784D02*
X003762Y027784D01*
X003901Y027942D02*
X008017Y027942D01*
X007541Y027467D02*
X003872Y027467D01*
X003823Y029844D02*
X006500Y029844D01*
X006500Y030003D02*
X003926Y030003D01*
X003960Y030161D02*
X006500Y030161D01*
X006500Y030320D02*
X003942Y030320D01*
X003861Y030478D02*
X006500Y030478D01*
X006500Y030637D02*
X003632Y030637D01*
X003518Y031588D02*
X003842Y031588D01*
X003746Y031746D02*
X003614Y031746D01*
X003640Y031905D02*
X003720Y031905D01*
X003720Y032063D02*
X003640Y032063D01*
X003640Y032222D02*
X003720Y032222D01*
X003720Y032380D02*
X003640Y032380D01*
X003640Y032539D02*
X003720Y032539D01*
X003780Y032697D02*
X003580Y032697D01*
X003427Y032856D02*
X003933Y032856D01*
X003598Y033173D02*
X007797Y033173D01*
X007639Y033014D02*
X003439Y033014D01*
X004427Y032856D02*
X007480Y032856D01*
X006500Y030795D02*
X006467Y030795D01*
X002842Y031588D02*
X002163Y031588D01*
X002321Y031746D02*
X002746Y031746D01*
X002720Y031905D02*
X002480Y031905D01*
X002638Y032063D02*
X002720Y032063D01*
X010480Y030003D02*
X010880Y030003D01*
X010740Y029844D02*
X010620Y029844D01*
X010620Y029686D02*
X010740Y029686D01*
X010740Y029527D02*
X010620Y029527D01*
X010491Y029369D02*
X010869Y029369D01*
X012820Y030795D02*
X012843Y030795D01*
X013517Y030795D02*
X013843Y030795D01*
X013712Y030954D02*
X013648Y030954D01*
X014272Y027467D02*
X014875Y027467D01*
X014850Y027308D02*
X014476Y027308D01*
X014635Y027150D02*
X014893Y027150D01*
X014991Y026991D02*
X015055Y026991D01*
X015120Y026833D02*
X015200Y026833D01*
X015120Y026674D02*
X015660Y026674D01*
X015200Y026516D02*
X015120Y026516D01*
X013766Y023029D02*
X017906Y023029D01*
X018730Y021602D02*
X019333Y021602D01*
X019491Y021444D02*
X018889Y021444D01*
X018970Y021285D02*
X019650Y021285D01*
X019670Y021127D02*
X019690Y021127D01*
X019690Y020968D02*
X019670Y020968D01*
X019670Y020810D02*
X019690Y020810D01*
X019690Y020651D02*
X019670Y020651D01*
X019670Y020493D02*
X019690Y020493D01*
X019690Y020334D02*
X019670Y020334D01*
X018958Y020810D02*
X018782Y020810D01*
X018940Y020968D02*
X019041Y020968D01*
X018970Y021127D02*
X019286Y021127D01*
X019966Y021919D02*
X020732Y021919D01*
X020623Y021761D02*
X020125Y021761D01*
X020283Y021602D02*
X020600Y021602D01*
X020646Y021444D02*
X020442Y021444D01*
X020600Y021285D02*
X020750Y021285D01*
X014878Y021761D02*
X014482Y021761D01*
X014589Y021602D02*
X014771Y021602D01*
X014740Y021444D02*
X014620Y021444D01*
X014620Y021285D02*
X014740Y021285D01*
X014740Y021127D02*
X014620Y021127D01*
X014620Y020968D02*
X014740Y020968D01*
X014750Y020810D02*
X014610Y020810D01*
X014533Y020651D02*
X014827Y020651D01*
X013827Y020651D02*
X013533Y020651D01*
X013610Y020810D02*
X013750Y020810D01*
X013740Y020968D02*
X013620Y020968D01*
X013620Y021127D02*
X013740Y021127D01*
X013740Y021285D02*
X013620Y021285D01*
X013620Y021444D02*
X013740Y021444D01*
X013771Y021602D02*
X013589Y021602D01*
X013482Y021761D02*
X013878Y021761D01*
X011950Y019383D02*
X011821Y019383D01*
X010128Y022553D02*
X008672Y022553D01*
X008687Y022712D02*
X010286Y022712D01*
X008512Y023187D02*
X007031Y023187D01*
X007104Y023029D02*
X008353Y023029D01*
X008195Y022870D02*
X007170Y022870D01*
X007184Y022712D02*
X008036Y022712D01*
X007878Y022553D02*
X007184Y022553D01*
X007153Y022395D02*
X007719Y022395D01*
X007561Y022236D02*
X007087Y022236D01*
X006991Y022078D02*
X007402Y022078D01*
X005911Y023504D02*
X003660Y023504D01*
X003524Y023346D02*
X005653Y023346D01*
X005494Y023187D02*
X002860Y023187D01*
X003510Y023029D02*
X005421Y023029D01*
X005356Y022870D02*
X003660Y022870D01*
X003660Y022712D02*
X005341Y022712D01*
X005341Y022553D02*
X003660Y022553D01*
X003791Y022395D02*
X005372Y022395D01*
X005438Y022236D02*
X003949Y022236D01*
X004108Y022078D02*
X005535Y022078D01*
X002959Y024138D02*
X002860Y024138D01*
X023378Y006703D02*
X025728Y006703D01*
X025569Y006545D02*
X023220Y006545D01*
X023061Y006386D02*
X025411Y006386D01*
X025252Y006228D02*
X022903Y006228D01*
X022744Y006069D02*
X025094Y006069D01*
X024935Y005911D02*
X022586Y005911D01*
X022427Y005752D02*
X024777Y005752D01*
X024618Y005594D02*
X022269Y005594D01*
X022307Y005435D02*
X024460Y005435D01*
X024301Y005277D02*
X022376Y005277D01*
X022380Y005118D02*
X024143Y005118D01*
X023984Y004960D02*
X022325Y004960D01*
X022175Y004801D02*
X023826Y004801D01*
X023667Y004643D02*
X020618Y004643D01*
X020776Y004801D02*
X021185Y004801D01*
X021035Y004960D02*
X020935Y004960D01*
X021102Y004484D02*
X020459Y004484D01*
X020301Y004326D02*
X021004Y004326D01*
X020980Y004167D02*
X020142Y004167D01*
X020110Y004009D02*
X020386Y004009D01*
X020498Y004120D02*
X020240Y003862D01*
X020240Y003680D01*
X020680Y003680D01*
X020680Y003680D01*
X020680Y003680D01*
X020680Y004120D01*
X020498Y004120D01*
X020680Y004009D02*
X020680Y004009D01*
X020680Y003850D02*
X020680Y003850D01*
X020680Y003692D02*
X020680Y003692D01*
X020680Y003680D02*
X020240Y003680D01*
X020240Y003498D01*
X020498Y003240D01*
X020680Y003240D01*
X020680Y003680D01*
X020680Y003533D02*
X020680Y003533D01*
X020680Y003375D02*
X020680Y003375D01*
X020997Y003375D02*
X021024Y003375D01*
X020980Y003216D02*
X020110Y003216D01*
X020110Y003058D02*
X020435Y003058D01*
X020277Y002899D02*
X020110Y002899D01*
X020016Y002741D02*
X020240Y002741D01*
X020240Y002582D02*
X019857Y002582D01*
X019815Y002424D02*
X020314Y002424D01*
X020473Y002265D02*
X019880Y002265D01*
X019880Y002107D02*
X020381Y002107D01*
X020925Y003058D02*
X020994Y003058D01*
X020363Y003375D02*
X020110Y003375D01*
X020110Y003533D02*
X020240Y003533D01*
X020240Y003692D02*
X020110Y003692D01*
X020110Y003850D02*
X020240Y003850D01*
X020974Y004009D02*
X021015Y004009D01*
X021120Y003850D02*
X021128Y003850D01*
X021120Y003692D02*
X022716Y003692D01*
X022875Y003850D02*
X022232Y003850D01*
X022345Y004009D02*
X023033Y004009D01*
X023192Y004167D02*
X022380Y004167D01*
X022356Y004326D02*
X023350Y004326D01*
X023509Y004484D02*
X022258Y004484D01*
X022209Y003533D02*
X022558Y003533D01*
X022399Y003375D02*
X022336Y003375D01*
X021151Y003533D02*
X021120Y003533D01*
X019650Y003692D02*
X012994Y003692D01*
X012524Y003375D02*
X011836Y003375D01*
X011880Y003216D02*
X012480Y003216D01*
X012494Y003058D02*
X011866Y003058D01*
X011781Y002899D02*
X012579Y002899D01*
X012831Y002741D02*
X011529Y002741D01*
X011619Y002582D02*
X012740Y002582D01*
X012553Y002424D02*
X011815Y002424D01*
X013180Y002424D02*
X013180Y002424D01*
X013180Y002582D02*
X013180Y002582D01*
X013180Y002265D02*
X013180Y002265D01*
X013620Y002582D02*
X018741Y002582D01*
X018831Y002741D02*
X013529Y002741D01*
X013781Y002899D02*
X018579Y002899D01*
X018494Y003058D02*
X013866Y003058D01*
X013880Y003216D02*
X018480Y003216D01*
X018524Y003375D02*
X013836Y003375D01*
X013709Y003533D02*
X018651Y003533D01*
X018628Y003850D02*
X013732Y003850D01*
X013845Y004009D02*
X017376Y004009D01*
X017218Y004167D02*
X013880Y004167D01*
X013856Y004326D02*
X017059Y004326D01*
X016901Y004484D02*
X013959Y004484D01*
X014118Y004643D02*
X016800Y004643D01*
X016784Y004801D02*
X014276Y004801D01*
X014435Y004960D02*
X016625Y004960D01*
X016467Y005118D02*
X014593Y005118D01*
X014752Y005277D02*
X016308Y005277D01*
X016150Y005435D02*
X015922Y005435D01*
X015438Y005435D02*
X014910Y005435D01*
X013807Y002424D02*
X017098Y002424D01*
X016940Y002265D02*
X013872Y002265D01*
X013874Y002107D02*
X016781Y002107D01*
X026707Y010032D02*
X027005Y010032D01*
X026980Y010190D02*
X026865Y010190D01*
X029460Y011617D02*
X029494Y011617D01*
X029460Y011775D02*
X029983Y011775D01*
X029980Y011617D02*
X029866Y011617D01*
X030024Y011458D02*
X030036Y011458D01*
X030120Y011300D02*
X030189Y011300D01*
X030120Y011141D02*
X032750Y011141D01*
X032750Y010983D02*
X031260Y010983D01*
X031357Y010824D02*
X032750Y010824D01*
X032750Y010666D02*
X031380Y010666D01*
X031345Y010507D02*
X032750Y010507D01*
X032750Y010349D02*
X031231Y010349D01*
X030129Y010349D02*
X030120Y010349D01*
X031171Y011300D02*
X032750Y011300D01*
X032750Y011458D02*
X031324Y011458D01*
X031380Y011617D02*
X032750Y011617D01*
X032750Y011775D02*
X031377Y011775D01*
X031309Y011934D02*
X032750Y011934D01*
X032767Y012092D02*
X031095Y012092D01*
X030862Y012740D02*
X030498Y012740D01*
X030240Y012998D01*
X030240Y013362D01*
X030498Y013620D01*
X030862Y013620D01*
X031120Y013362D01*
X031120Y012998D01*
X030862Y012740D01*
X031007Y012885D02*
X032853Y012885D01*
X032740Y012998D02*
X032998Y012740D01*
X033362Y012740D01*
X033620Y012998D01*
X033620Y013362D01*
X033362Y013620D01*
X032998Y013620D01*
X032740Y013362D01*
X032740Y012998D01*
X032740Y013043D02*
X031120Y013043D01*
X031120Y013202D02*
X032740Y013202D01*
X032740Y013360D02*
X031120Y013360D01*
X030964Y013519D02*
X032896Y013519D01*
X033464Y013519D02*
X033840Y013519D01*
X033700Y013360D02*
X033620Y013360D01*
X033620Y013202D02*
X033700Y013202D01*
X033700Y013043D02*
X033620Y013043D01*
X033559Y012885D02*
X033507Y012885D01*
X033401Y012726D02*
X029460Y012726D01*
X029460Y012568D02*
X033242Y012568D01*
X033084Y012409D02*
X029460Y012409D01*
X029460Y012251D02*
X032925Y012251D01*
X033576Y012251D02*
X034841Y012251D01*
X034700Y012409D02*
X033734Y012409D01*
X033893Y012568D02*
X034700Y012568D01*
X034700Y012726D02*
X034405Y012726D01*
X034563Y012885D02*
X034796Y012885D01*
X034660Y013043D02*
X034954Y013043D01*
X034980Y013202D02*
X034660Y013202D01*
X034660Y013360D02*
X034821Y013360D01*
X034700Y013519D02*
X034520Y013519D01*
X034700Y013836D02*
X029511Y013836D01*
X029460Y013677D02*
X035160Y013677D01*
X035160Y013519D02*
X035200Y013519D01*
X035200Y013360D02*
X035160Y013360D01*
X035160Y013202D02*
X035200Y013202D01*
X035380Y013202D02*
X035400Y013202D01*
X034815Y013994D02*
X029669Y013994D01*
X029680Y013519D02*
X029680Y013519D01*
X029680Y013360D02*
X029680Y013360D01*
X029680Y013202D02*
X029680Y013202D01*
X029680Y013043D02*
X029680Y013043D01*
X029680Y012885D02*
X029680Y012885D01*
X030007Y012885D02*
X030353Y012885D01*
X030240Y013043D02*
X030120Y013043D01*
X030120Y013202D02*
X030240Y013202D01*
X030240Y013360D02*
X030120Y013360D01*
X029964Y013519D02*
X030396Y013519D01*
X030265Y012092D02*
X029460Y012092D01*
X029460Y011934D02*
X030051Y011934D01*
X033210Y011141D02*
X034870Y011141D01*
X034712Y011300D02*
X034171Y011300D01*
X034324Y011458D02*
X034700Y011458D01*
X034700Y011617D02*
X034380Y011617D01*
X034377Y011775D02*
X034766Y011775D01*
X034925Y011934D02*
X034309Y011934D01*
X034095Y012092D02*
X035400Y012092D01*
X035400Y010983D02*
X034260Y010983D01*
X034356Y010824D02*
X034905Y010824D01*
X034747Y010666D02*
X034380Y010666D01*
X034346Y010507D02*
X034700Y010507D01*
X034700Y010349D02*
X034231Y010349D01*
X034211Y010032D02*
X034890Y010032D01*
X034731Y010190D02*
X033210Y010190D01*
X033680Y010349D02*
X033680Y010349D01*
X033680Y010507D02*
X033680Y010507D01*
X033680Y010666D02*
X033680Y010666D01*
X033680Y010824D02*
X033680Y010824D01*
X033680Y010983D02*
X033680Y010983D01*
X034336Y009873D02*
X035400Y009873D01*
X034886Y009715D02*
X034380Y009715D01*
X034365Y009556D02*
X034727Y009556D01*
X034700Y009398D02*
X034280Y009398D01*
X034123Y009081D02*
X034751Y009081D01*
X034700Y009239D02*
X033210Y009239D01*
X033210Y009081D02*
X033237Y009081D01*
X033605Y008130D02*
X034700Y008130D01*
X034700Y008288D02*
X034143Y008288D01*
X034320Y008447D02*
X034700Y008447D01*
X034856Y008605D02*
X034380Y008605D01*
X034380Y008764D02*
X035400Y008764D01*
X034909Y008922D02*
X034316Y008922D01*
X034271Y007971D02*
X034780Y007971D01*
X034939Y007813D02*
X034361Y007813D01*
X034380Y007654D02*
X035400Y007654D01*
X034837Y007496D02*
X034340Y007496D01*
X034219Y007337D02*
X034700Y007337D01*
X034700Y007179D02*
X032960Y007179D01*
X032960Y007337D02*
X033141Y007337D01*
X033020Y007496D02*
X032971Y007496D01*
X032960Y007020D02*
X033138Y007020D01*
X033019Y006862D02*
X032960Y006862D01*
X032960Y006703D02*
X032980Y006703D01*
X032960Y006545D02*
X033000Y006545D01*
X032960Y006386D02*
X033092Y006386D01*
X033052Y006228D02*
X032960Y006228D01*
X032500Y006228D02*
X031403Y006228D01*
X031561Y006386D02*
X032500Y006386D01*
X032500Y006545D02*
X031720Y006545D01*
X031878Y006703D02*
X032500Y006703D01*
X032500Y006862D02*
X032037Y006862D01*
X032195Y007020D02*
X032500Y007020D01*
X032500Y007179D02*
X032354Y007179D01*
X032020Y007496D02*
X031340Y007496D01*
X031380Y007654D02*
X032179Y007654D01*
X032337Y007813D02*
X031361Y007813D01*
X031271Y007971D02*
X032496Y007971D01*
X031862Y007337D02*
X031219Y007337D01*
X031222Y007020D02*
X031545Y007020D01*
X031703Y007179D02*
X029460Y007179D01*
X029938Y006545D02*
X030000Y006545D01*
X030033Y005911D02*
X030039Y005911D01*
X029980Y005752D02*
X029874Y005752D01*
X029889Y005594D02*
X029980Y005594D01*
X030120Y005277D02*
X030244Y005277D01*
X030120Y005118D02*
X030373Y005118D01*
X030680Y005118D02*
X030680Y005118D01*
X030680Y004960D02*
X030680Y004960D01*
X030680Y004801D02*
X030680Y004801D01*
X030680Y004643D02*
X030680Y004643D01*
X030680Y004484D02*
X030680Y004484D01*
X030680Y004326D02*
X030680Y004326D01*
X031201Y004326D02*
X032500Y004326D01*
X032500Y004484D02*
X031334Y004484D01*
X031380Y004643D02*
X032500Y004643D01*
X032500Y004801D02*
X031363Y004801D01*
X031281Y004960D02*
X032500Y004960D01*
X032500Y005118D02*
X030987Y005118D01*
X031116Y005277D02*
X032500Y005277D01*
X032500Y005435D02*
X031315Y005435D01*
X031380Y005594D02*
X032500Y005594D01*
X032500Y005752D02*
X031380Y005752D01*
X031321Y005911D02*
X032500Y005911D01*
X032500Y006069D02*
X031244Y006069D01*
X031341Y006862D02*
X031386Y006862D01*
X033703Y006228D02*
X034752Y006228D01*
X034911Y006386D02*
X034268Y006386D01*
X034360Y006545D02*
X035069Y006545D01*
X034958Y006703D02*
X034380Y006703D01*
X034341Y006862D02*
X034800Y006862D01*
X034700Y007020D02*
X034222Y007020D01*
X034146Y006069D02*
X034594Y006069D01*
X034435Y005911D02*
X034316Y005911D01*
X033680Y005911D02*
X033680Y005911D01*
X033680Y006069D02*
X033680Y006069D01*
X033680Y005752D02*
X033680Y005752D01*
X032500Y003533D02*
X032478Y003533D01*
X029437Y004801D02*
X028483Y004801D01*
X028325Y004960D02*
X029278Y004960D01*
X029240Y005118D02*
X028380Y005118D01*
X028376Y005277D02*
X029240Y005277D01*
X029313Y005435D02*
X028307Y005435D01*
X038083Y000997D02*
X002277Y000997D01*
X031960Y024772D02*
X031966Y024772D01*
X031942Y025565D02*
X031721Y025565D01*
X032406Y027784D02*
X032954Y027784D01*
X032796Y027942D02*
X032564Y027942D01*
X032620Y028101D02*
X032740Y028101D01*
X032740Y028259D02*
X032620Y028259D01*
X032565Y028418D02*
X032795Y028418D01*
X032954Y028576D02*
X032406Y028576D01*
X032496Y028935D02*
X032568Y028912D01*
X032642Y028900D01*
X032660Y028900D01*
X032660Y029660D01*
X032700Y029660D01*
X032700Y029700D01*
X033160Y029700D01*
X033160Y030018D01*
X033148Y030092D01*
X033125Y030164D01*
X033091Y030232D01*
X033046Y030293D01*
X032993Y030346D01*
X032932Y030391D01*
X032864Y030425D01*
X032792Y030448D01*
X032718Y030460D01*
X032700Y030460D01*
X032700Y029700D01*
X032660Y029700D01*
X032660Y030460D01*
X032642Y030460D01*
X032568Y030448D01*
X032496Y030425D01*
X032428Y030391D01*
X032367Y030346D01*
X032314Y030293D01*
X032269Y030232D01*
X032235Y030164D01*
X032212Y030092D01*
X032200Y030018D01*
X032200Y029700D01*
X032660Y029700D01*
X032660Y029660D01*
X032200Y029660D01*
X032200Y029342D01*
X032212Y029268D01*
X032235Y029196D01*
X032269Y029128D01*
X032314Y029067D01*
X032367Y029014D01*
X032428Y028969D01*
X032496Y028935D01*
X032660Y029052D02*
X032700Y029052D01*
X032700Y028900D02*
X032718Y028900D01*
X032792Y028912D01*
X032864Y028935D01*
X032932Y028969D01*
X032993Y029014D01*
X033046Y029067D01*
X033091Y029128D01*
X033125Y029196D01*
X033148Y029268D01*
X033160Y029342D01*
X033160Y029660D01*
X032700Y029660D01*
X032700Y028900D01*
X032700Y029210D02*
X032660Y029210D01*
X032660Y029369D02*
X032700Y029369D01*
X032700Y029527D02*
X032660Y029527D01*
X032660Y029686D02*
X032160Y029686D01*
X032160Y029844D02*
X032200Y029844D01*
X032200Y030003D02*
X032160Y030003D01*
X032125Y030161D02*
X032234Y030161D01*
X032341Y030320D02*
X032019Y030320D01*
X032660Y030320D02*
X032700Y030320D01*
X032700Y030161D02*
X032660Y030161D01*
X032660Y030003D02*
X032700Y030003D01*
X032700Y029844D02*
X032660Y029844D01*
X032700Y029686D02*
X033200Y029686D01*
X033200Y029844D02*
X033160Y029844D01*
X033160Y030003D02*
X033200Y030003D01*
X033235Y030161D02*
X033126Y030161D01*
X033019Y030320D02*
X033341Y030320D01*
X033200Y029527D02*
X033160Y029527D01*
X033160Y029369D02*
X033200Y029369D01*
X033231Y029210D02*
X033129Y029210D01*
X033030Y029052D02*
X033330Y029052D01*
X032330Y029052D02*
X032030Y029052D01*
X032129Y029210D02*
X032231Y029210D01*
X032200Y029369D02*
X032160Y029369D01*
X032160Y029527D02*
X032200Y029527D01*
X032318Y032063D02*
X032042Y032063D01*
X032134Y032222D02*
X032227Y032222D01*
X032200Y032380D02*
X032160Y032380D01*
X032160Y032539D02*
X032200Y032539D01*
X032160Y032697D02*
X032660Y032697D01*
X032700Y032697D02*
X033200Y032697D01*
X033200Y032539D02*
X033160Y032539D01*
X033160Y032380D02*
X033200Y032380D01*
X033226Y032222D02*
X033133Y032222D01*
X033042Y032063D02*
X033318Y032063D01*
X032700Y032063D02*
X032660Y032063D01*
X032660Y032222D02*
X032700Y032222D01*
X032700Y032380D02*
X032660Y032380D01*
X032660Y032539D02*
X032700Y032539D01*
X033160Y032856D02*
X033200Y032856D01*
X033200Y033014D02*
X033160Y033014D01*
X033121Y033173D02*
X033240Y033173D01*
X034120Y033173D02*
X034239Y033173D01*
X034200Y033014D02*
X034160Y033014D01*
X034160Y032856D02*
X034200Y032856D01*
X034160Y032697D02*
X034660Y032697D01*
X034700Y032697D02*
X035288Y032697D01*
X035160Y032539D02*
X035446Y032539D01*
X035605Y032380D02*
X035160Y032380D01*
X035133Y032222D02*
X035763Y032222D01*
X035922Y032063D02*
X035042Y032063D01*
X034700Y032063D02*
X034660Y032063D01*
X034660Y032222D02*
X034700Y032222D01*
X034700Y032380D02*
X034660Y032380D01*
X034660Y032539D02*
X034700Y032539D01*
X034200Y032539D02*
X034160Y032539D01*
X034160Y032380D02*
X034200Y032380D01*
X034227Y032222D02*
X034134Y032222D01*
X034042Y032063D02*
X034318Y032063D01*
X032200Y032856D02*
X032160Y032856D01*
X032160Y033014D02*
X032200Y033014D01*
X032239Y033173D02*
X032120Y033173D01*
X038867Y002582D02*
X039400Y002582D01*
X039400Y002424D02*
X039216Y002424D01*
X039375Y002265D02*
X039400Y002265D01*
M02*
