G75*
%MOIN*%
%OFA0B0*%
%FSLAX24Y24*%
%IPPOS*%
%LPD*%
%AMOC8*
5,1,8,0,0,1.08239X$1,22.5*
%
%ADD10C,0.0020*%
%ADD11C,0.0160*%
%ADD12C,0.0030*%
%ADD13C,0.0040*%
%ADD14C,0.0060*%
%ADD15C,0.0100*%
%ADD16R,0.0800X0.0200*%
%ADD17R,0.0200X0.0250*%
%ADD18C,0.0070*%
%ADD19C,0.0050*%
%ADD20R,0.0200X0.0150*%
%ADD21R,0.0150X0.0200*%
%ADD22R,0.0300X1.6000*%
%ADD23R,0.0200X2.0900*%
%ADD24R,0.2850X0.0320*%
%ADD25R,0.1850X0.0320*%
%ADD26C,0.0080*%
D10*
X001263Y004448D02*
X001190Y004521D01*
X001263Y004595D01*
X001410Y004595D01*
X001410Y004669D02*
X001373Y004669D01*
X001227Y004816D01*
X001190Y004816D01*
X001190Y004669D01*
X001300Y004595D02*
X001300Y004448D01*
X001263Y004448D02*
X001410Y004448D01*
X001410Y005448D02*
X001263Y005448D01*
X001190Y005521D01*
X001263Y005595D01*
X001410Y005595D01*
X001373Y005669D02*
X001410Y005706D01*
X001410Y005779D01*
X001373Y005816D01*
X001337Y005816D01*
X001300Y005779D01*
X001300Y005669D01*
X001373Y005669D01*
X001300Y005669D02*
X001227Y005742D01*
X001190Y005816D01*
X001300Y005595D02*
X001300Y005448D01*
X001300Y006448D02*
X001300Y006595D01*
X001263Y006595D02*
X001410Y006595D01*
X001373Y006669D02*
X001410Y006706D01*
X001410Y006779D01*
X001373Y006816D01*
X001300Y006816D01*
X001263Y006779D01*
X001263Y006742D01*
X001300Y006669D01*
X001190Y006669D01*
X001190Y006816D01*
X001263Y006595D02*
X001190Y006521D01*
X001263Y006448D01*
X001410Y006448D01*
X001410Y007448D02*
X001263Y007448D01*
X001190Y007521D01*
X001263Y007595D01*
X001410Y007595D01*
X001300Y007595D02*
X001300Y007448D01*
X001300Y007669D02*
X001300Y007816D01*
X001410Y007779D02*
X001190Y007779D01*
X001300Y007669D01*
X001300Y008448D02*
X001300Y008595D01*
X001263Y008595D02*
X001410Y008595D01*
X001373Y008669D02*
X001410Y008706D01*
X001410Y008779D01*
X001373Y008816D01*
X001337Y008816D01*
X001300Y008779D01*
X001300Y008742D01*
X001300Y008779D02*
X001263Y008816D01*
X001227Y008816D01*
X001190Y008779D01*
X001190Y008706D01*
X001227Y008669D01*
X001263Y008595D02*
X001190Y008521D01*
X001263Y008448D01*
X001410Y008448D01*
X001373Y009377D02*
X001227Y009377D01*
X001190Y009414D01*
X001190Y009487D01*
X001227Y009524D01*
X001190Y009598D02*
X001410Y009598D01*
X001410Y009745D01*
X001410Y009819D02*
X001190Y009819D01*
X001300Y009856D02*
X001410Y009966D01*
X001337Y009819D02*
X001190Y009966D01*
X001373Y009524D02*
X001410Y009487D01*
X001410Y009414D01*
X001373Y009377D01*
X001410Y010448D02*
X001263Y010448D01*
X001190Y010521D01*
X001263Y010595D01*
X001410Y010595D01*
X001410Y010669D02*
X001263Y010816D01*
X001227Y010816D01*
X001190Y010779D01*
X001190Y010706D01*
X001227Y010669D01*
X001300Y010595D02*
X001300Y010448D01*
X001410Y010669D02*
X001410Y010816D01*
X001410Y011448D02*
X001263Y011448D01*
X001190Y011521D01*
X001263Y011595D01*
X001410Y011595D01*
X001410Y011669D02*
X001410Y011816D01*
X001410Y011742D02*
X001190Y011742D01*
X001263Y011669D01*
X001300Y011595D02*
X001300Y011448D01*
X001300Y012448D02*
X001300Y012595D01*
X001263Y012595D02*
X001410Y012595D01*
X001373Y012669D02*
X001227Y012816D01*
X001373Y012816D01*
X001410Y012779D01*
X001410Y012706D01*
X001373Y012669D01*
X001227Y012669D01*
X001190Y012706D01*
X001190Y012779D01*
X001227Y012816D01*
X001263Y012595D02*
X001190Y012521D01*
X001263Y012448D01*
X001410Y012448D01*
X001410Y013448D02*
X001190Y013448D01*
X001190Y013558D01*
X001227Y013595D01*
X001373Y013595D01*
X001410Y013558D01*
X001410Y013448D01*
X001410Y013669D02*
X001373Y013669D01*
X001227Y013816D01*
X001190Y013816D01*
X001190Y013669D01*
X001190Y014448D02*
X001190Y014558D01*
X001227Y014595D01*
X001373Y014595D01*
X001410Y014558D01*
X001410Y014448D01*
X001190Y014448D01*
X001300Y014669D02*
X001227Y014742D01*
X001190Y014816D01*
X001300Y014779D02*
X001300Y014669D01*
X001373Y014669D01*
X001410Y014706D01*
X001410Y014779D01*
X001373Y014816D01*
X001337Y014816D01*
X001300Y014779D01*
X001190Y015448D02*
X001410Y015448D01*
X001410Y015558D01*
X001373Y015595D01*
X001227Y015595D01*
X001190Y015558D01*
X001190Y015448D01*
X001190Y015669D02*
X001300Y015669D01*
X001263Y015742D01*
X001263Y015779D01*
X001300Y015816D01*
X001373Y015816D01*
X001410Y015779D01*
X001410Y015706D01*
X001373Y015669D01*
X001190Y015669D02*
X001190Y015816D01*
X001190Y016448D02*
X001190Y016558D01*
X001227Y016595D01*
X001373Y016595D01*
X001410Y016558D01*
X001410Y016448D01*
X001190Y016448D01*
X001300Y016669D02*
X001190Y016779D01*
X001410Y016779D01*
X001300Y016816D02*
X001300Y016669D01*
X001190Y017448D02*
X001410Y017448D01*
X001410Y017558D01*
X001373Y017595D01*
X001227Y017595D01*
X001190Y017558D01*
X001190Y017448D01*
X001227Y017669D02*
X001190Y017706D01*
X001190Y017779D01*
X001227Y017816D01*
X001263Y017816D01*
X001300Y017779D01*
X001337Y017816D01*
X001373Y017816D01*
X001410Y017779D01*
X001410Y017706D01*
X001373Y017669D01*
X001300Y017742D02*
X001300Y017779D01*
X001337Y018448D02*
X001337Y018558D01*
X001300Y018595D01*
X001227Y018595D01*
X001190Y018558D01*
X001190Y018448D01*
X001410Y018448D01*
X001337Y018521D02*
X001410Y018595D01*
X001410Y018669D02*
X001410Y018816D01*
X001300Y018742D02*
X001300Y018669D01*
X001190Y018669D02*
X001410Y018669D01*
X001190Y018669D02*
X001190Y018816D01*
X001150Y018880D02*
X001150Y018438D01*
X001190Y019448D02*
X001190Y019558D01*
X001227Y019595D01*
X001373Y019595D01*
X001410Y019558D01*
X001410Y019448D01*
X001190Y019448D01*
X001227Y019669D02*
X001190Y019706D01*
X001190Y019779D01*
X001227Y019816D01*
X001263Y019816D01*
X001410Y019669D01*
X001410Y019816D01*
X001410Y020448D02*
X001190Y020448D01*
X001190Y020558D01*
X001227Y020595D01*
X001373Y020595D01*
X001410Y020558D01*
X001410Y020448D01*
X001410Y020669D02*
X001410Y020816D01*
X001410Y020742D02*
X001190Y020742D01*
X001263Y020669D01*
X001190Y021448D02*
X001190Y021558D01*
X001227Y021595D01*
X001373Y021595D01*
X001410Y021558D01*
X001410Y021448D01*
X001190Y021448D01*
X001227Y021669D02*
X001190Y021706D01*
X001190Y021779D01*
X001227Y021816D01*
X001373Y021669D01*
X001410Y021706D01*
X001410Y021779D01*
X001373Y021816D01*
X001227Y021816D01*
X001227Y021669D02*
X001373Y021669D01*
X001300Y022156D02*
X001300Y022303D01*
X001263Y022377D02*
X001190Y022450D01*
X001410Y022450D01*
X001410Y022377D02*
X001410Y022524D01*
X001410Y022598D02*
X001263Y022745D01*
X001227Y022745D01*
X001190Y022708D01*
X001190Y022635D01*
X001227Y022598D01*
X001410Y022598D02*
X001410Y022745D01*
X001337Y022819D02*
X001410Y022892D01*
X001337Y022966D01*
X001190Y022966D01*
X001190Y022819D02*
X001337Y022819D01*
X001300Y023156D02*
X001300Y023303D01*
X001263Y023377D02*
X001190Y023450D01*
X001410Y023450D01*
X001410Y023377D02*
X001410Y023524D01*
X001410Y023598D02*
X001263Y023745D01*
X001227Y023745D01*
X001190Y023708D01*
X001190Y023635D01*
X001227Y023598D01*
X001410Y023598D02*
X001410Y023745D01*
X001337Y023819D02*
X001410Y023892D01*
X001337Y023966D01*
X001190Y023966D01*
X001190Y023819D02*
X001337Y023819D01*
X001373Y023229D02*
X001227Y023229D01*
X002260Y025690D02*
X002260Y025837D01*
X002187Y025763D02*
X002333Y025763D01*
X002333Y025911D02*
X002370Y025948D01*
X002370Y026021D01*
X002333Y026058D01*
X002297Y026058D01*
X002260Y026021D01*
X002260Y025984D01*
X002260Y026021D02*
X002223Y026058D01*
X002187Y026058D01*
X002150Y026021D01*
X002150Y025948D01*
X002187Y025911D01*
X002150Y026132D02*
X002297Y026132D01*
X002370Y026205D01*
X002297Y026279D01*
X002150Y026279D01*
X002187Y026353D02*
X002150Y026390D01*
X002150Y026463D01*
X002187Y026500D01*
X002223Y026500D01*
X002260Y026463D01*
X002297Y026500D01*
X002333Y026500D01*
X002370Y026463D01*
X002370Y026390D01*
X002333Y026353D01*
X002260Y026426D02*
X002260Y026463D01*
X003990Y026914D02*
X004027Y026877D01*
X004063Y026877D01*
X004100Y026914D01*
X004100Y026987D01*
X004137Y027024D01*
X004173Y027024D01*
X004210Y026987D01*
X004210Y026914D01*
X004173Y026877D01*
X003990Y026914D02*
X003990Y026987D01*
X004027Y027024D01*
X003990Y027098D02*
X003990Y027208D01*
X004027Y027245D01*
X004173Y027245D01*
X004210Y027208D01*
X004210Y027098D01*
X003990Y027098D01*
X004063Y027319D02*
X003990Y027392D01*
X004063Y027466D01*
X004210Y027466D01*
X004100Y027466D02*
X004100Y027319D01*
X004063Y027319D02*
X004210Y027319D01*
X004173Y027877D02*
X004210Y027914D01*
X004210Y027987D01*
X004173Y028024D01*
X004137Y028024D01*
X004100Y027987D01*
X004100Y027914D01*
X004063Y027877D01*
X004027Y027877D01*
X003990Y027914D01*
X003990Y027987D01*
X004027Y028024D01*
X004027Y028098D02*
X004173Y028098D01*
X004210Y028135D01*
X004210Y028208D01*
X004173Y028245D01*
X004210Y028319D02*
X004210Y028466D01*
X004210Y028319D02*
X003990Y028319D01*
X004027Y028245D02*
X003990Y028208D01*
X003990Y028135D01*
X004027Y028098D01*
X004027Y028877D02*
X004173Y028877D01*
X004210Y028914D01*
X004210Y028987D01*
X004173Y029024D01*
X004100Y029024D01*
X004100Y028950D01*
X004027Y028877D02*
X003990Y028914D01*
X003990Y028987D01*
X004027Y029024D01*
X003990Y029098D02*
X004210Y029245D01*
X003990Y029245D01*
X003990Y029319D02*
X003990Y029429D01*
X004027Y029466D01*
X004173Y029466D01*
X004210Y029429D01*
X004210Y029319D01*
X003990Y029319D01*
X003990Y029098D02*
X004210Y029098D01*
X004100Y029877D02*
X004100Y030024D01*
X004100Y030098D02*
X004063Y030171D01*
X004063Y030208D01*
X004100Y030245D01*
X004173Y030245D01*
X004210Y030208D01*
X004210Y030135D01*
X004173Y030098D01*
X004100Y030098D02*
X003990Y030098D01*
X003990Y030245D01*
X003990Y030319D02*
X004137Y030319D01*
X004210Y030392D01*
X004137Y030466D01*
X003990Y030466D01*
X004027Y029950D02*
X004173Y029950D01*
X004248Y031290D02*
X004211Y031327D01*
X004248Y031290D02*
X004321Y031290D01*
X004358Y031327D01*
X004358Y031400D01*
X004321Y031437D01*
X004284Y031437D01*
X004211Y031400D01*
X004211Y031510D01*
X004358Y031510D01*
X004432Y031510D02*
X004432Y031363D01*
X004505Y031290D01*
X004579Y031363D01*
X004579Y031510D01*
X004137Y031400D02*
X003990Y031400D01*
X004063Y031473D02*
X004063Y031327D01*
X003284Y031290D02*
X003211Y031290D01*
X003248Y031290D02*
X003248Y031437D01*
X003211Y031437D01*
X003248Y031510D02*
X003248Y031547D01*
X003137Y031473D02*
X003137Y031400D01*
X003100Y031363D01*
X002990Y031363D01*
X002990Y031290D02*
X002990Y031510D01*
X003100Y031510D01*
X003137Y031473D01*
X006940Y029042D02*
X006940Y028969D01*
X006977Y028932D01*
X007013Y028932D01*
X007050Y028969D01*
X007050Y029079D01*
X007123Y029079D02*
X006977Y029079D01*
X006940Y029042D01*
X007123Y029079D02*
X007160Y029042D01*
X007160Y028969D01*
X007123Y028932D01*
X007160Y028858D02*
X007160Y028711D01*
X007160Y028784D02*
X006940Y028784D01*
X007013Y028711D01*
X006977Y028637D02*
X007050Y028637D01*
X007087Y028600D01*
X007087Y028490D01*
X007160Y028490D02*
X006940Y028490D01*
X006940Y028600D01*
X006977Y028637D01*
X007087Y028563D02*
X007160Y028637D01*
X007940Y028600D02*
X007940Y028490D01*
X008160Y028490D01*
X008087Y028490D02*
X008087Y028600D01*
X008050Y028637D01*
X007977Y028637D01*
X007940Y028600D01*
X008013Y028711D02*
X007940Y028784D01*
X008160Y028784D01*
X008160Y028711D02*
X008160Y028858D01*
X008123Y028932D02*
X008160Y028969D01*
X008160Y029042D01*
X008123Y029079D01*
X008087Y029079D01*
X008050Y029042D01*
X008050Y028969D01*
X008013Y028932D01*
X007977Y028932D01*
X007940Y028969D01*
X007940Y029042D01*
X007977Y029079D01*
X008013Y029079D01*
X008050Y029042D01*
X008050Y028969D02*
X008087Y028932D01*
X008123Y028932D01*
X008160Y028637D02*
X008087Y028563D01*
X008940Y028600D02*
X008940Y028490D01*
X009160Y028490D01*
X009087Y028490D02*
X009087Y028600D01*
X009050Y028637D01*
X008977Y028637D01*
X008940Y028600D01*
X009013Y028711D02*
X008940Y028784D01*
X009160Y028784D01*
X009160Y028711D02*
X009160Y028858D01*
X009123Y028932D02*
X009160Y028969D01*
X009160Y029042D01*
X009123Y029079D01*
X009087Y029079D01*
X009050Y029042D01*
X009050Y028932D01*
X009123Y028932D01*
X009050Y028932D02*
X008977Y029005D01*
X008940Y029079D01*
X009160Y028637D02*
X009087Y028563D01*
X009940Y028600D02*
X009940Y028490D01*
X010160Y028490D01*
X010087Y028490D02*
X010087Y028600D01*
X010050Y028637D01*
X009977Y028637D01*
X009940Y028600D01*
X010013Y028711D02*
X009940Y028784D01*
X010160Y028784D01*
X010160Y028711D02*
X010160Y028858D01*
X010160Y028932D02*
X010123Y028932D01*
X009977Y029079D01*
X009940Y029079D01*
X009940Y028932D01*
X010160Y028637D02*
X010087Y028563D01*
X010940Y028600D02*
X010940Y028490D01*
X011160Y028490D01*
X011087Y028490D02*
X011087Y028600D01*
X011050Y028637D01*
X010977Y028637D01*
X010940Y028600D01*
X011013Y028711D02*
X010940Y028784D01*
X011160Y028784D01*
X011160Y028711D02*
X011160Y028858D01*
X011050Y028932D02*
X011050Y029079D01*
X011160Y029042D02*
X010940Y029042D01*
X011050Y028932D01*
X011160Y028637D02*
X011087Y028563D01*
X011940Y028600D02*
X011940Y028490D01*
X012160Y028490D01*
X012087Y028490D02*
X012087Y028600D01*
X012050Y028637D01*
X011977Y028637D01*
X011940Y028600D01*
X012013Y028711D02*
X011940Y028784D01*
X012160Y028784D01*
X012160Y028711D02*
X012160Y028858D01*
X012123Y028932D02*
X012160Y028969D01*
X012160Y029042D01*
X012123Y029079D01*
X012087Y029079D01*
X012050Y029042D01*
X012050Y029005D01*
X012050Y029042D02*
X012013Y029079D01*
X011977Y029079D01*
X011940Y029042D01*
X011940Y028969D01*
X011977Y028932D01*
X012160Y028637D02*
X012087Y028563D01*
X012940Y028600D02*
X012940Y028490D01*
X013160Y028490D01*
X013087Y028490D02*
X013087Y028600D01*
X013050Y028637D01*
X012977Y028637D01*
X012940Y028600D01*
X013013Y028711D02*
X012940Y028784D01*
X013160Y028784D01*
X013160Y028711D02*
X013160Y028858D01*
X013123Y028932D02*
X013160Y028969D01*
X013160Y029042D01*
X013123Y029079D01*
X013050Y029079D01*
X013013Y029042D01*
X013013Y029005D01*
X013050Y028932D01*
X012940Y028932D01*
X012940Y029079D01*
X013160Y028637D02*
X013087Y028563D01*
X014700Y028079D02*
X014737Y028116D01*
X014883Y027969D01*
X014920Y028006D01*
X014920Y028079D01*
X014883Y028116D01*
X014737Y028116D01*
X014700Y028079D02*
X014700Y028006D01*
X014737Y027969D01*
X014883Y027969D01*
X014920Y027895D02*
X014920Y027748D01*
X014920Y027821D02*
X014700Y027821D01*
X014773Y027748D01*
X014737Y027674D02*
X014810Y027674D01*
X014847Y027637D01*
X014847Y027527D01*
X014920Y027527D02*
X014700Y027527D01*
X014700Y027637D01*
X014737Y027674D01*
X014847Y027600D02*
X014920Y027674D01*
X015327Y029290D02*
X015400Y029290D01*
X015437Y029327D01*
X015511Y029290D02*
X015658Y029437D01*
X015658Y029473D01*
X015621Y029510D01*
X015548Y029510D01*
X015511Y029473D01*
X015437Y029473D02*
X015400Y029510D01*
X015327Y029510D01*
X015290Y029473D01*
X015290Y029327D01*
X015327Y029290D01*
X015511Y029290D02*
X015658Y029290D01*
X016940Y029058D02*
X016940Y028911D01*
X016977Y028837D02*
X017050Y028837D01*
X017087Y028800D01*
X017087Y028690D01*
X017160Y028690D02*
X016940Y028690D01*
X016940Y028800D01*
X016977Y028837D01*
X017087Y028763D02*
X017160Y028837D01*
X017160Y028911D02*
X017123Y028911D01*
X016977Y029058D01*
X016940Y029058D01*
X017940Y029021D02*
X017977Y029058D01*
X018013Y029058D01*
X018050Y029021D01*
X018050Y028948D01*
X018013Y028911D01*
X017977Y028911D01*
X017940Y028948D01*
X017940Y029021D01*
X018050Y029021D02*
X018087Y029058D01*
X018123Y029058D01*
X018160Y029021D01*
X018160Y028948D01*
X018123Y028911D01*
X018087Y028911D01*
X018050Y028948D01*
X018050Y028837D02*
X017977Y028837D01*
X017940Y028800D01*
X017940Y028690D01*
X018160Y028690D01*
X018087Y028690D02*
X018087Y028800D01*
X018050Y028837D01*
X018087Y028763D02*
X018160Y028837D01*
X019237Y027616D02*
X019200Y027579D01*
X019200Y027506D01*
X019237Y027469D01*
X019273Y027469D01*
X019310Y027506D01*
X019310Y027616D01*
X019383Y027616D02*
X019237Y027616D01*
X019383Y027616D02*
X019420Y027579D01*
X019420Y027506D01*
X019383Y027469D01*
X019420Y027395D02*
X019347Y027321D01*
X019347Y027358D02*
X019347Y027248D01*
X019420Y027248D02*
X019200Y027248D01*
X019200Y027358D01*
X019237Y027395D01*
X019310Y027395D01*
X019347Y027358D01*
X020200Y027358D02*
X020237Y027395D01*
X020310Y027395D01*
X020347Y027358D01*
X020347Y027248D01*
X020420Y027248D02*
X020200Y027248D01*
X020200Y027358D01*
X020347Y027321D02*
X020420Y027395D01*
X020383Y027469D02*
X020420Y027506D01*
X020420Y027579D01*
X020383Y027616D01*
X020347Y027616D01*
X020310Y027579D01*
X020310Y027469D01*
X020383Y027469D01*
X020310Y027469D02*
X020237Y027542D01*
X020200Y027616D01*
X018579Y025660D02*
X018469Y025550D01*
X018616Y025550D01*
X018579Y025440D02*
X018579Y025660D01*
X018395Y025623D02*
X018395Y025550D01*
X018358Y025513D01*
X018248Y025513D01*
X018248Y025440D02*
X018248Y025660D01*
X018358Y025660D01*
X018395Y025623D01*
X018321Y025513D02*
X018395Y025440D01*
X013510Y024479D02*
X013510Y024406D01*
X013473Y024369D01*
X013473Y024295D02*
X013510Y024258D01*
X013510Y024185D01*
X013473Y024148D01*
X013327Y024148D01*
X013290Y024185D01*
X013290Y024258D01*
X013327Y024295D01*
X013327Y024369D02*
X013290Y024406D01*
X013290Y024479D01*
X013327Y024516D01*
X013363Y024516D01*
X013400Y024479D01*
X013437Y024516D01*
X013473Y024516D01*
X013510Y024479D01*
X013400Y024479D02*
X013400Y024442D01*
X006316Y018070D02*
X006316Y017923D01*
X006242Y017850D01*
X006169Y017923D01*
X006169Y018070D01*
X006095Y018070D02*
X005948Y018070D01*
X005948Y017960D01*
X006021Y017997D01*
X006058Y017997D01*
X006095Y017960D01*
X006095Y017887D01*
X006058Y017850D01*
X005985Y017850D01*
X005948Y017887D01*
X005874Y017960D02*
X005727Y017960D01*
X005800Y018033D02*
X005800Y017887D01*
X005316Y018070D02*
X005169Y018070D01*
X005242Y018070D02*
X005242Y017850D01*
X005095Y017850D02*
X004948Y017850D01*
X004948Y018070D01*
X005095Y018070D01*
X005021Y017960D02*
X004948Y017960D01*
X004210Y017966D02*
X004210Y017893D01*
X004210Y017929D02*
X003990Y017929D01*
X003990Y017893D02*
X003990Y017966D01*
X003950Y018030D02*
X003950Y017441D01*
X003990Y017451D02*
X004210Y017597D01*
X003990Y017597D01*
X003990Y017672D02*
X004063Y017745D01*
X003990Y017818D01*
X004210Y017818D01*
X004210Y017672D02*
X003990Y017672D01*
X003990Y017451D02*
X004210Y017451D01*
X004210Y016966D02*
X004137Y016892D01*
X004210Y016856D02*
X004173Y016819D01*
X004027Y016819D01*
X003990Y016856D01*
X003990Y016929D01*
X004027Y016966D01*
X004173Y016966D01*
X004210Y016929D01*
X004210Y016856D01*
X004210Y016745D02*
X004137Y016671D01*
X004137Y016708D02*
X004137Y016598D01*
X004210Y016598D02*
X003990Y016598D01*
X003990Y016708D01*
X004027Y016745D01*
X004100Y016745D01*
X004137Y016708D01*
X004210Y016524D02*
X004210Y016451D01*
X004210Y016487D02*
X003990Y016487D01*
X003990Y016451D02*
X003990Y016524D01*
X003950Y016441D02*
X003950Y017030D01*
X003950Y016030D02*
X003950Y015367D01*
X003990Y015377D02*
X004210Y015377D01*
X004100Y015377D02*
X004100Y015524D01*
X003990Y015524D02*
X004210Y015524D01*
X004210Y015598D02*
X004210Y015745D01*
X004210Y015598D02*
X003990Y015598D01*
X003990Y015819D02*
X003990Y015966D01*
X003990Y015892D02*
X004210Y015892D01*
X004137Y014966D02*
X003990Y014966D01*
X004137Y014966D02*
X004210Y014892D01*
X004137Y014819D01*
X003990Y014819D01*
X003990Y014745D02*
X003990Y014598D01*
X004100Y014598D01*
X004063Y014671D01*
X004063Y014708D01*
X004100Y014745D01*
X004173Y014745D01*
X004210Y014708D01*
X004210Y014635D01*
X004173Y014598D01*
X004100Y014524D02*
X004100Y014377D01*
X004027Y014450D02*
X004173Y014450D01*
X004173Y013966D02*
X004027Y013966D01*
X003990Y013929D01*
X003990Y013819D01*
X004210Y013819D01*
X004210Y013929D01*
X004173Y013966D01*
X004210Y013745D02*
X003990Y013745D01*
X003990Y013598D02*
X004210Y013745D01*
X004210Y013598D02*
X003990Y013598D01*
X004027Y013524D02*
X003990Y013487D01*
X003990Y013414D01*
X004027Y013377D01*
X004173Y013377D01*
X004210Y013414D01*
X004210Y013487D01*
X004173Y013524D01*
X004100Y013524D01*
X004100Y013450D01*
X004100Y012966D02*
X004173Y012966D01*
X004210Y012929D01*
X004210Y012856D01*
X004173Y012819D01*
X004100Y012819D02*
X004063Y012892D01*
X004063Y012929D01*
X004100Y012966D01*
X003990Y012966D02*
X003990Y012819D01*
X004100Y012819D01*
X004210Y012745D02*
X004210Y012598D01*
X004210Y012671D02*
X003990Y012671D01*
X004063Y012598D01*
X004063Y012524D02*
X004210Y012524D01*
X004100Y012524D02*
X004100Y012377D01*
X004063Y012377D02*
X003990Y012450D01*
X004063Y012524D01*
X004063Y012377D02*
X004210Y012377D01*
X004100Y011966D02*
X004100Y011819D01*
X003990Y011929D01*
X004210Y011929D01*
X004210Y011745D02*
X004210Y011598D01*
X004210Y011671D02*
X003990Y011671D01*
X004063Y011598D01*
X004063Y011524D02*
X004210Y011524D01*
X004100Y011524D02*
X004100Y011377D01*
X004063Y011377D02*
X003990Y011450D01*
X004063Y011524D01*
X004063Y011377D02*
X004210Y011377D01*
X004173Y010966D02*
X004210Y010929D01*
X004210Y010856D01*
X004173Y010819D01*
X004210Y010745D02*
X004210Y010598D01*
X004210Y010671D02*
X003990Y010671D01*
X004063Y010598D01*
X004063Y010524D02*
X004210Y010524D01*
X004100Y010524D02*
X004100Y010377D01*
X004063Y010377D02*
X003990Y010450D01*
X004063Y010524D01*
X004063Y010377D02*
X004210Y010377D01*
X004210Y009966D02*
X004100Y009856D01*
X004137Y009819D02*
X003990Y009966D01*
X003990Y009819D02*
X004210Y009819D01*
X004210Y009745D02*
X004210Y009598D01*
X003990Y009598D01*
X004027Y009524D02*
X003990Y009487D01*
X003990Y009414D01*
X004027Y009377D01*
X004173Y009377D01*
X004210Y009414D01*
X004210Y009487D01*
X004173Y009524D01*
X004210Y008966D02*
X004210Y008819D01*
X004063Y008966D01*
X004027Y008966D01*
X003990Y008929D01*
X003990Y008856D01*
X004027Y008819D01*
X003990Y008671D02*
X004210Y008671D01*
X004210Y008598D02*
X004210Y008745D01*
X004063Y008598D02*
X003990Y008671D01*
X004063Y008524D02*
X004210Y008524D01*
X004100Y008524D02*
X004100Y008377D01*
X004063Y008377D02*
X003990Y008450D01*
X004063Y008524D01*
X004063Y008377D02*
X004210Y008377D01*
X004210Y007966D02*
X004210Y007819D01*
X004210Y007892D02*
X003990Y007892D01*
X004063Y007819D01*
X004210Y007745D02*
X004210Y007598D01*
X004210Y007671D02*
X003990Y007671D01*
X004063Y007598D01*
X004063Y007524D02*
X004210Y007524D01*
X004100Y007524D02*
X004100Y007377D01*
X004063Y007377D02*
X003990Y007450D01*
X004063Y007524D01*
X004063Y007377D02*
X004210Y007377D01*
X004173Y006966D02*
X004210Y006929D01*
X004210Y006856D01*
X004173Y006819D01*
X004027Y006966D01*
X004173Y006966D01*
X004027Y006966D02*
X003990Y006929D01*
X003990Y006856D01*
X004027Y006819D01*
X004173Y006819D01*
X004210Y006745D02*
X004210Y006598D01*
X004210Y006671D02*
X003990Y006671D01*
X004063Y006598D01*
X004063Y006524D02*
X004210Y006524D01*
X004100Y006524D02*
X004100Y006377D01*
X004063Y006377D02*
X003990Y006450D01*
X004063Y006524D01*
X004063Y006377D02*
X004210Y006377D01*
X004173Y005816D02*
X004027Y005816D01*
X003990Y005779D01*
X003990Y005706D01*
X004027Y005669D01*
X004063Y005669D01*
X004100Y005706D01*
X004100Y005816D01*
X004173Y005816D02*
X004210Y005779D01*
X004210Y005706D01*
X004173Y005669D01*
X004210Y005595D02*
X004063Y005595D01*
X003990Y005521D01*
X004063Y005448D01*
X004210Y005448D01*
X004100Y005448D02*
X004100Y005595D01*
X004137Y004816D02*
X004173Y004816D01*
X004210Y004779D01*
X004210Y004706D01*
X004173Y004669D01*
X004137Y004669D01*
X004100Y004706D01*
X004100Y004779D01*
X004137Y004816D01*
X004100Y004779D02*
X004063Y004816D01*
X004027Y004816D01*
X003990Y004779D01*
X003990Y004706D01*
X004027Y004669D01*
X004063Y004669D01*
X004100Y004706D01*
X004100Y004595D02*
X004100Y004448D01*
X004063Y004448D02*
X003990Y004521D01*
X004063Y004595D01*
X004210Y004595D01*
X004210Y004448D02*
X004063Y004448D01*
X004027Y010819D02*
X003990Y010856D01*
X003990Y010929D01*
X004027Y010966D01*
X004063Y010966D01*
X004100Y010929D01*
X004137Y010966D01*
X004173Y010966D01*
X004100Y010929D02*
X004100Y010892D01*
X003950Y018588D02*
X003950Y019030D01*
X003990Y018966D02*
X003990Y018819D01*
X004210Y018819D01*
X004210Y018966D01*
X004100Y018892D02*
X004100Y018819D01*
X004100Y018745D02*
X004137Y018708D01*
X004137Y018598D01*
X004210Y018598D02*
X003990Y018598D01*
X003990Y018708D01*
X004027Y018745D01*
X004100Y018745D01*
X004137Y018671D02*
X004210Y018745D01*
X004210Y019377D02*
X003990Y019377D01*
X003990Y019487D01*
X004027Y019524D01*
X004100Y019524D01*
X004137Y019487D01*
X004137Y019377D01*
X004137Y019450D02*
X004210Y019524D01*
X004210Y019598D02*
X003990Y019745D01*
X003990Y019819D02*
X004210Y019819D01*
X004137Y019892D01*
X004210Y019966D01*
X003990Y019966D01*
X003950Y020030D02*
X003950Y019809D01*
X003950Y020588D02*
X003950Y021030D01*
X004063Y020966D02*
X004210Y020966D01*
X004100Y020966D02*
X004100Y020819D01*
X004063Y020819D02*
X003990Y020892D01*
X004063Y020966D01*
X004063Y020819D02*
X004210Y020819D01*
X004173Y020745D02*
X004210Y020708D01*
X004210Y020598D01*
X003990Y020598D01*
X003990Y020708D01*
X004027Y020745D01*
X004063Y020745D01*
X004100Y020708D01*
X004100Y020598D01*
X004100Y020708D02*
X004137Y020745D01*
X004173Y020745D01*
X003990Y021377D02*
X003990Y021524D01*
X003990Y021450D02*
X004210Y021450D01*
X004173Y021598D02*
X004210Y021635D01*
X004210Y021708D01*
X004173Y021745D01*
X004137Y021745D01*
X004100Y021708D01*
X004100Y021635D01*
X004063Y021598D01*
X004027Y021598D01*
X003990Y021635D01*
X003990Y021708D01*
X004027Y021745D01*
X004027Y021819D02*
X004173Y021819D01*
X004210Y021856D01*
X004210Y021929D01*
X004173Y021966D01*
X004027Y021966D02*
X003990Y021929D01*
X003990Y021856D01*
X004027Y021819D01*
X003950Y022030D02*
X003950Y021367D01*
X003950Y022367D02*
X003950Y023030D01*
X004027Y022966D02*
X003990Y022929D01*
X003990Y022856D01*
X004027Y022819D01*
X004063Y022819D01*
X004100Y022856D01*
X004100Y022929D01*
X004137Y022966D01*
X004173Y022966D01*
X004210Y022929D01*
X004210Y022856D01*
X004173Y022819D01*
X004210Y022745D02*
X004210Y022598D01*
X003990Y022598D01*
X003990Y022745D01*
X004100Y022671D02*
X004100Y022598D01*
X004100Y022524D02*
X004137Y022487D01*
X004137Y022377D01*
X004210Y022377D02*
X003990Y022377D01*
X003990Y022487D01*
X004027Y022524D01*
X004100Y022524D01*
X004137Y022450D02*
X004210Y022524D01*
X004137Y023377D02*
X004210Y023450D01*
X004137Y023524D01*
X003990Y023524D01*
X003990Y023598D02*
X004063Y023671D01*
X003990Y023745D01*
X004210Y023745D01*
X004210Y023819D02*
X004063Y023819D01*
X003990Y023892D01*
X004063Y023966D01*
X004210Y023966D01*
X004100Y023966D02*
X004100Y023819D01*
X004210Y023598D02*
X003990Y023598D01*
X003990Y023377D02*
X004137Y023377D01*
X003950Y023367D02*
X003950Y024030D01*
X026440Y027690D02*
X026440Y027800D01*
X026477Y027837D01*
X026550Y027837D01*
X026587Y027800D01*
X026587Y027690D01*
X026660Y027690D02*
X026440Y027690D01*
X026587Y027763D02*
X026660Y027837D01*
X026623Y027911D02*
X026660Y027948D01*
X026660Y028021D01*
X026623Y028058D01*
X026550Y028058D01*
X026513Y028021D01*
X026513Y027984D01*
X026550Y027911D01*
X026440Y027911D01*
X026440Y028058D01*
X027690Y027442D02*
X027910Y027442D01*
X027910Y027369D02*
X027910Y027516D01*
X027763Y027369D02*
X027690Y027442D01*
X027727Y027295D02*
X027690Y027258D01*
X027690Y027148D01*
X027910Y027148D01*
X027910Y027258D01*
X027873Y027295D01*
X027727Y027295D01*
X028690Y027648D02*
X028690Y027758D01*
X028727Y027795D01*
X028873Y027795D01*
X028910Y027758D01*
X028910Y027648D01*
X028690Y027648D01*
X028727Y027869D02*
X028690Y027906D01*
X028690Y027979D01*
X028727Y028016D01*
X028763Y028016D01*
X028910Y027869D01*
X028910Y028016D01*
X029940Y027705D02*
X030160Y027705D01*
X030160Y027632D02*
X030160Y027779D01*
X030013Y027632D02*
X029940Y027705D01*
X029940Y027484D02*
X030160Y027484D01*
X030160Y027411D02*
X030160Y027558D01*
X030013Y027411D02*
X029940Y027484D01*
X029977Y027337D02*
X030050Y027337D01*
X030087Y027300D01*
X030087Y027190D01*
X030160Y027190D02*
X029940Y027190D01*
X029940Y027300D01*
X029977Y027337D01*
X030087Y027263D02*
X030160Y027337D01*
X030940Y027300D02*
X030940Y027190D01*
X031160Y027190D01*
X031087Y027190D02*
X031087Y027300D01*
X031050Y027337D01*
X030977Y027337D01*
X030940Y027300D01*
X031013Y027411D02*
X030940Y027484D01*
X031160Y027484D01*
X031160Y027411D02*
X031160Y027558D01*
X031160Y027632D02*
X031013Y027779D01*
X030977Y027779D01*
X030940Y027742D01*
X030940Y027669D01*
X030977Y027632D01*
X031160Y027632D02*
X031160Y027779D01*
X031160Y027337D02*
X031087Y027263D01*
X031487Y028650D02*
X031561Y028650D01*
X031597Y028687D01*
X031672Y028650D02*
X031745Y028650D01*
X031708Y028650D02*
X031708Y028870D01*
X031672Y028870D02*
X031745Y028870D01*
X031819Y028870D02*
X031966Y028650D01*
X031966Y028870D01*
X031819Y028870D02*
X031819Y028650D01*
X031597Y028833D02*
X031561Y028870D01*
X031487Y028870D01*
X031451Y028833D01*
X031451Y028687D01*
X031487Y028650D01*
X032569Y028687D02*
X032606Y028650D01*
X032679Y028650D01*
X032716Y028687D01*
X032716Y028760D01*
X032642Y028760D01*
X032569Y028833D02*
X032569Y028687D01*
X032569Y028833D02*
X032606Y028870D01*
X032679Y028870D01*
X032716Y028833D01*
X033377Y028833D02*
X033377Y028687D01*
X033414Y028650D01*
X033487Y028650D01*
X033524Y028687D01*
X033524Y028833D01*
X033487Y028870D01*
X033414Y028870D01*
X033377Y028833D01*
X033598Y028870D02*
X033598Y028687D01*
X033635Y028650D01*
X033708Y028650D01*
X033745Y028687D01*
X033745Y028870D01*
X033819Y028870D02*
X033966Y028870D01*
X033892Y028870D02*
X033892Y028650D01*
X034569Y028687D02*
X034606Y028650D01*
X034679Y028650D01*
X034716Y028687D01*
X034716Y028760D01*
X034642Y028760D01*
X034569Y028833D02*
X034569Y028687D01*
X034569Y028833D02*
X034606Y028870D01*
X034679Y028870D01*
X034716Y028833D01*
X034160Y027558D02*
X034160Y027411D01*
X034013Y027558D01*
X033977Y027558D01*
X033940Y027521D01*
X033940Y027448D01*
X033977Y027411D01*
X033977Y027337D02*
X034050Y027337D01*
X034087Y027300D01*
X034087Y027190D01*
X034160Y027190D02*
X033940Y027190D01*
X033940Y027300D01*
X033977Y027337D01*
X034087Y027263D02*
X034160Y027337D01*
X033383Y026116D02*
X033420Y026079D01*
X033420Y026006D01*
X033383Y025969D01*
X033420Y025895D02*
X033347Y025821D01*
X033347Y025858D02*
X033347Y025748D01*
X033420Y025748D02*
X033200Y025748D01*
X033200Y025858D01*
X033237Y025895D01*
X033310Y025895D01*
X033347Y025858D01*
X033237Y025969D02*
X033200Y026006D01*
X033200Y026079D01*
X033237Y026116D01*
X033273Y026116D01*
X033310Y026079D01*
X033347Y026116D01*
X033383Y026116D01*
X033310Y026079D02*
X033310Y026042D01*
X032420Y026042D02*
X032200Y026042D01*
X032273Y025969D01*
X032237Y025895D02*
X032310Y025895D01*
X032347Y025858D01*
X032347Y025748D01*
X032420Y025748D02*
X032200Y025748D01*
X032200Y025858D01*
X032237Y025895D01*
X032347Y025821D02*
X032420Y025895D01*
X032420Y025969D02*
X032420Y026116D01*
X029510Y024516D02*
X029510Y024369D01*
X029510Y024442D02*
X029290Y024442D01*
X029363Y024369D01*
X029327Y024295D02*
X029290Y024258D01*
X029290Y024185D01*
X029327Y024148D01*
X029473Y024148D01*
X029510Y024185D01*
X029510Y024258D01*
X029473Y024295D01*
X036085Y029687D02*
X036122Y029650D01*
X036195Y029650D01*
X036232Y029687D01*
X036232Y029760D01*
X036195Y029797D01*
X036158Y029797D01*
X036085Y029760D01*
X036085Y029870D01*
X036232Y029870D01*
X036306Y029833D02*
X036343Y029870D01*
X036416Y029870D01*
X036453Y029833D01*
X036306Y029687D01*
X036343Y029650D01*
X036416Y029650D01*
X036453Y029687D01*
X036453Y029833D01*
X036527Y029833D02*
X036564Y029870D01*
X036637Y029870D01*
X036674Y029833D01*
X036527Y029687D01*
X036564Y029650D01*
X036637Y029650D01*
X036674Y029687D01*
X036674Y029833D01*
X036748Y029797D02*
X036785Y029797D01*
X036821Y029760D01*
X036858Y029797D01*
X036895Y029760D01*
X036895Y029650D01*
X036821Y029650D02*
X036821Y029760D01*
X036748Y029797D02*
X036748Y029650D01*
X036527Y029687D02*
X036527Y029833D01*
X036306Y029833D02*
X036306Y029687D01*
X036969Y029797D02*
X037042Y029650D01*
X037116Y029797D01*
X037806Y029760D02*
X037879Y029797D01*
X037916Y029797D01*
X037953Y029760D01*
X037953Y029687D01*
X037916Y029650D01*
X037843Y029650D01*
X037806Y029687D01*
X037806Y029760D02*
X037806Y029870D01*
X037953Y029870D01*
X038027Y029833D02*
X038064Y029870D01*
X038137Y029870D01*
X038174Y029833D01*
X038027Y029687D01*
X038064Y029650D01*
X038137Y029650D01*
X038174Y029687D01*
X038174Y029833D01*
X038248Y029797D02*
X038285Y029797D01*
X038321Y029760D01*
X038358Y029797D01*
X038395Y029760D01*
X038395Y029650D01*
X038321Y029650D02*
X038321Y029760D01*
X038248Y029797D02*
X038248Y029650D01*
X038027Y029687D02*
X038027Y029833D01*
X038469Y029797D02*
X038542Y029650D01*
X038616Y029797D01*
X034716Y031687D02*
X034716Y031760D01*
X034642Y031760D01*
X034569Y031833D02*
X034569Y031687D01*
X034606Y031650D01*
X034679Y031650D01*
X034716Y031687D01*
X034716Y031833D02*
X034679Y031870D01*
X034606Y031870D01*
X034569Y031833D01*
X033966Y031870D02*
X033819Y031870D01*
X033892Y031870D02*
X033892Y031650D01*
X033745Y031687D02*
X033745Y031870D01*
X033598Y031870D02*
X033598Y031687D01*
X033635Y031650D01*
X033708Y031650D01*
X033745Y031687D01*
X033524Y031687D02*
X033524Y031833D01*
X033487Y031870D01*
X033414Y031870D01*
X033377Y031833D01*
X033377Y031687D01*
X033414Y031650D01*
X033487Y031650D01*
X033524Y031687D01*
X032716Y031687D02*
X032716Y031760D01*
X032642Y031760D01*
X032569Y031687D02*
X032606Y031650D01*
X032679Y031650D01*
X032716Y031687D01*
X032716Y031833D02*
X032679Y031870D01*
X032606Y031870D01*
X032569Y031833D01*
X032569Y031687D01*
X031966Y031650D02*
X031966Y031870D01*
X031819Y031870D02*
X031966Y031650D01*
X031819Y031650D02*
X031819Y031870D01*
X031745Y031870D02*
X031672Y031870D01*
X031708Y031870D02*
X031708Y031650D01*
X031672Y031650D02*
X031745Y031650D01*
X031597Y031687D02*
X031561Y031650D01*
X031487Y031650D01*
X031451Y031687D01*
X031451Y031833D01*
X031487Y031870D01*
X031561Y031870D01*
X031597Y031833D01*
X033420Y014616D02*
X033420Y014469D01*
X033420Y014542D02*
X033200Y014542D01*
X033273Y014469D01*
X033273Y014395D02*
X033237Y014395D01*
X033200Y014358D01*
X033200Y014285D01*
X033237Y014248D01*
X033237Y014174D02*
X033310Y014174D01*
X033347Y014137D01*
X033347Y014027D01*
X033420Y014027D02*
X033200Y014027D01*
X033200Y014137D01*
X033237Y014174D01*
X033347Y014100D02*
X033420Y014174D01*
X033420Y014248D02*
X033273Y014395D01*
X033420Y014395D02*
X033420Y014248D01*
D11*
X032680Y022680D02*
X031680Y022680D01*
X031680Y023680D02*
X032680Y023680D01*
X032180Y003180D02*
X033180Y003180D01*
X033180Y002180D02*
X032180Y002180D01*
D12*
X006565Y023695D02*
X006195Y023695D01*
X006195Y023942D01*
X006195Y024063D02*
X006195Y024310D01*
X006195Y024187D02*
X006565Y024187D01*
X006565Y024432D02*
X006318Y024432D01*
X006195Y024555D01*
X006318Y024679D01*
X006565Y024679D01*
X006503Y024800D02*
X006565Y024862D01*
X006565Y024985D01*
X006503Y025047D01*
X006442Y025047D01*
X006380Y024985D01*
X006380Y024923D01*
X006380Y024985D02*
X006318Y025047D01*
X006256Y025047D01*
X006195Y024985D01*
X006195Y024862D01*
X006256Y024800D01*
X006380Y024679D02*
X006380Y024432D01*
X005665Y024380D02*
X005603Y024442D01*
X005418Y024442D01*
X005418Y024563D02*
X005603Y024563D01*
X005665Y024625D01*
X005603Y024687D01*
X005665Y024748D01*
X005603Y024810D01*
X005418Y024810D01*
X005418Y024932D02*
X005603Y024932D01*
X005665Y024993D01*
X005603Y025055D01*
X005665Y025117D01*
X005603Y025179D01*
X005418Y025179D01*
X005603Y025300D02*
X005603Y025362D01*
X005665Y025362D01*
X005665Y025300D01*
X005603Y025300D01*
X005665Y025484D02*
X005665Y025669D01*
X005603Y025731D01*
X005542Y025669D01*
X005542Y025546D01*
X005480Y025484D01*
X005418Y025546D01*
X005418Y025731D01*
X005418Y025852D02*
X005418Y025914D01*
X005480Y025976D01*
X005418Y026038D01*
X005480Y026099D01*
X005665Y026099D01*
X005665Y026221D02*
X005295Y026221D01*
X005418Y026221D02*
X005418Y026406D01*
X005480Y026468D01*
X005603Y026468D01*
X005665Y026406D01*
X005665Y026221D01*
X005665Y025976D02*
X005480Y025976D01*
X005418Y025852D02*
X005665Y025852D01*
X006195Y025967D02*
X006195Y026090D01*
X006256Y026152D01*
X006503Y025905D01*
X006565Y025967D01*
X006565Y026090D01*
X006503Y026152D01*
X006256Y026152D01*
X006380Y026273D02*
X006380Y026520D01*
X006565Y026642D02*
X006195Y026642D01*
X006318Y026765D01*
X006195Y026888D01*
X006565Y026888D01*
X006565Y027010D02*
X006565Y027257D01*
X006565Y027378D02*
X006195Y027378D01*
X006318Y027502D01*
X006195Y027625D01*
X006565Y027625D01*
X006565Y027746D02*
X006565Y027870D01*
X006565Y027808D02*
X006195Y027808D01*
X006195Y027746D02*
X006195Y027870D01*
X006256Y027992D02*
X006503Y027992D01*
X006565Y028054D01*
X006565Y028177D01*
X006503Y028239D01*
X006256Y028239D01*
X006195Y028177D01*
X006195Y028054D01*
X006256Y027992D01*
X006380Y028360D02*
X006380Y028607D01*
X006442Y028729D02*
X006442Y028914D01*
X006380Y028976D01*
X006256Y028976D01*
X006195Y028914D01*
X006195Y028729D01*
X006565Y028729D01*
X006565Y029097D02*
X006565Y029220D01*
X006565Y029159D02*
X006195Y029159D01*
X006195Y029220D02*
X006195Y029097D01*
X006380Y029342D02*
X006380Y029589D01*
X006503Y029711D02*
X006256Y029958D01*
X006503Y029958D01*
X006565Y029896D01*
X006565Y029773D01*
X006503Y029711D01*
X006256Y029711D01*
X006195Y029773D01*
X006195Y029896D01*
X006256Y029958D01*
X006503Y030079D02*
X006503Y030141D01*
X006565Y030141D01*
X006565Y030079D01*
X006503Y030079D01*
X006503Y030263D02*
X006565Y030325D01*
X006565Y030448D01*
X006503Y030510D01*
X006256Y030510D01*
X006195Y030448D01*
X006195Y030325D01*
X006256Y030263D01*
X006318Y030263D01*
X006380Y030325D01*
X006380Y030510D01*
X005665Y029107D02*
X005480Y029107D01*
X005418Y029045D01*
X005480Y028984D01*
X005665Y028984D01*
X005665Y028860D02*
X005418Y028860D01*
X005418Y028922D01*
X005480Y028984D01*
X005480Y028739D02*
X005418Y028677D01*
X005418Y028554D01*
X005480Y028492D01*
X005603Y028492D01*
X005665Y028554D01*
X005665Y028677D01*
X005603Y028739D01*
X005480Y028739D01*
X005418Y028371D02*
X005418Y028185D01*
X005480Y028124D01*
X005603Y028124D01*
X005665Y028185D01*
X005665Y028371D01*
X005665Y028001D02*
X005665Y027940D01*
X005603Y027940D01*
X005603Y028001D01*
X005665Y028001D01*
X005418Y027818D02*
X005418Y027756D01*
X005542Y027633D01*
X005542Y027511D02*
X005542Y027264D01*
X005603Y027264D02*
X005480Y027264D01*
X005418Y027326D01*
X005418Y027449D01*
X005480Y027511D01*
X005542Y027511D01*
X005665Y027449D02*
X005665Y027326D01*
X005603Y027264D01*
X005665Y027143D02*
X005542Y026957D01*
X005418Y027143D01*
X005295Y026957D02*
X005665Y026957D01*
X005665Y026836D02*
X005480Y026836D01*
X005418Y026774D01*
X005418Y026651D01*
X005542Y026651D02*
X005542Y026836D01*
X005665Y026836D02*
X005665Y026651D01*
X005603Y026589D01*
X005542Y026651D01*
X006195Y027010D02*
X006195Y027257D01*
X006380Y027133D02*
X006380Y027010D01*
X006195Y027010D02*
X006565Y027010D01*
X005665Y027633D02*
X005418Y027633D01*
X006195Y025967D02*
X006256Y025905D01*
X006503Y025905D01*
X006503Y025783D02*
X006256Y025783D01*
X006503Y025537D01*
X006565Y025598D01*
X006565Y025722D01*
X006503Y025783D01*
X006503Y025537D02*
X006256Y025537D01*
X006195Y025598D01*
X006195Y025722D01*
X006256Y025783D01*
X006380Y025415D02*
X006380Y025168D01*
X006195Y025353D01*
X006565Y025353D01*
X005665Y024380D02*
X005603Y024318D01*
X005665Y024257D01*
X005603Y024195D01*
X005418Y024195D01*
X006380Y023818D02*
X006380Y023695D01*
X006565Y023695D02*
X006565Y023942D01*
D13*
X015700Y030353D02*
X015853Y030200D01*
X016007Y030200D02*
X016237Y030200D01*
X016314Y030277D01*
X016314Y030430D01*
X016237Y030507D01*
X016007Y030507D01*
X016007Y030047D01*
X015700Y030353D02*
X015700Y030507D01*
X015853Y030660D01*
X016467Y030507D02*
X016544Y030507D01*
X016544Y030200D01*
X016467Y030200D02*
X016621Y030200D01*
X016544Y030660D02*
X016544Y030737D01*
X017235Y030507D02*
X017235Y030277D01*
X017311Y030200D01*
X017542Y030200D01*
X017542Y030507D01*
X017695Y030507D02*
X017695Y030047D01*
X017695Y030200D02*
X017925Y030200D01*
X018002Y030277D01*
X018002Y030430D01*
X017925Y030507D01*
X017695Y030507D01*
X018155Y030430D02*
X018232Y030507D01*
X018462Y030507D01*
X018616Y030507D02*
X018693Y030507D01*
X018693Y030200D01*
X018769Y030200D02*
X018616Y030200D01*
X018462Y030277D02*
X018386Y030353D01*
X018232Y030353D01*
X018155Y030430D01*
X018155Y030200D02*
X018386Y030200D01*
X018462Y030277D01*
X018693Y030660D02*
X018693Y030737D01*
X018999Y030507D02*
X019230Y030507D01*
X019230Y030660D02*
X019230Y030200D01*
X018999Y030200D01*
X018923Y030277D01*
X018923Y030430D01*
X018999Y030507D01*
X019383Y030430D02*
X019383Y030277D01*
X019460Y030200D01*
X019613Y030200D01*
X019690Y030353D02*
X019383Y030353D01*
X019383Y030430D02*
X019460Y030507D01*
X019613Y030507D01*
X019690Y030430D01*
X019690Y030353D01*
X019844Y030430D02*
X020150Y030430D01*
X020304Y030430D02*
X020381Y030507D01*
X020611Y030507D01*
X020611Y030660D02*
X020611Y030200D01*
X020381Y030200D01*
X020304Y030277D01*
X020304Y030430D01*
X020764Y030430D02*
X020764Y030277D01*
X020841Y030200D01*
X020995Y030200D01*
X021071Y030277D01*
X021071Y030430D01*
X020995Y030507D01*
X020841Y030507D01*
X020764Y030430D01*
X021225Y030507D02*
X021225Y030277D01*
X021301Y030200D01*
X021378Y030277D01*
X021455Y030200D01*
X021532Y030277D01*
X021532Y030507D01*
X021685Y030507D02*
X021915Y030507D01*
X021992Y030430D01*
X021992Y030200D01*
X022145Y030200D02*
X022299Y030353D01*
X022299Y030507D01*
X022145Y030660D01*
X021685Y030507D02*
X021685Y030200D01*
X017942Y019652D02*
X018000Y019593D01*
X018000Y019477D01*
X017942Y019418D01*
X017708Y019652D01*
X017942Y019652D01*
X017942Y019418D02*
X017708Y019418D01*
X017650Y019477D01*
X017650Y019593D01*
X017708Y019652D01*
X017708Y019293D02*
X017650Y019234D01*
X017650Y019117D01*
X017708Y019059D01*
X017708Y018934D02*
X017825Y018934D01*
X017883Y018875D01*
X017883Y018700D01*
X017883Y018817D02*
X018000Y018934D01*
X018000Y019059D02*
X017766Y019293D01*
X017708Y019293D01*
X018000Y019293D02*
X018000Y019059D01*
X017708Y018934D02*
X017650Y018875D01*
X017650Y018700D01*
X018000Y018700D01*
X034700Y025353D02*
X034700Y025507D01*
X034700Y025430D02*
X035083Y025430D01*
X035160Y025353D01*
X035160Y025277D01*
X035083Y025200D01*
X035160Y025660D02*
X035160Y025967D01*
X035160Y025814D02*
X034700Y025814D01*
X034853Y025660D01*
D14*
X001930Y004180D02*
X001680Y004430D01*
X001680Y004930D01*
X001930Y005180D01*
X001680Y005430D01*
X001680Y005930D01*
X001930Y006180D01*
X001680Y006430D01*
X001680Y006930D01*
X001930Y007180D01*
X001680Y007430D01*
X001680Y007930D01*
X001930Y008180D01*
X001680Y008430D01*
X001680Y008930D01*
X001930Y009180D01*
X001680Y009430D01*
X001680Y009930D01*
X001930Y010180D01*
X001680Y010430D01*
X001680Y010930D01*
X001930Y011180D01*
X001680Y011430D01*
X001680Y011930D01*
X001930Y012180D01*
X001680Y012430D01*
X001680Y012930D01*
X001930Y013180D01*
X001680Y013430D01*
X001680Y013930D01*
X001930Y014180D01*
X001680Y014430D01*
X001680Y014930D01*
X001930Y015180D01*
X001680Y015430D01*
X001680Y015930D01*
X001930Y016180D01*
X001680Y016430D01*
X001680Y016930D01*
X001930Y017180D01*
X001680Y017430D01*
X001680Y017930D01*
X001930Y018180D01*
X001680Y018430D01*
X001680Y018930D01*
X001930Y019180D01*
X001680Y019430D01*
X001680Y019930D01*
X001930Y020180D01*
X001680Y020430D01*
X001680Y020930D01*
X001930Y021180D01*
X001680Y021430D01*
X001680Y021930D01*
X001930Y022180D01*
X001680Y022430D01*
X001680Y022930D01*
X001930Y023180D01*
X001680Y023430D01*
X001680Y023930D01*
X001930Y024180D01*
X003430Y024180D01*
X003680Y023930D01*
X003680Y023430D01*
X003430Y023180D01*
X003680Y022930D01*
X003680Y022430D01*
X003430Y022180D01*
X003680Y021930D01*
X003680Y021430D01*
X003430Y021180D01*
X003680Y020930D01*
X003680Y020430D01*
X003430Y020180D01*
X003680Y019930D01*
X003680Y019430D01*
X003430Y019180D01*
X003680Y018930D01*
X003680Y018430D01*
X003430Y018180D01*
X003680Y017930D01*
X003680Y017430D01*
X003430Y017180D01*
X003680Y016930D01*
X003680Y016430D01*
X003430Y016180D01*
X003680Y015930D01*
X003680Y015430D01*
X003430Y015180D01*
X003680Y014930D01*
X003680Y014430D01*
X003430Y014180D01*
X003680Y013930D01*
X003680Y013430D01*
X003430Y013180D01*
X003680Y012930D01*
X003680Y012430D01*
X003430Y012180D01*
X003680Y011930D01*
X003680Y011430D01*
X003430Y011180D01*
X003680Y010930D01*
X003680Y010430D01*
X003430Y010180D01*
X003680Y009930D01*
X003680Y009430D01*
X003430Y009180D01*
X003680Y008930D01*
X003680Y008430D01*
X003430Y008180D01*
X003680Y007930D01*
X003680Y007430D01*
X003430Y007180D01*
X003680Y006930D01*
X003680Y006430D01*
X003430Y006180D01*
X003680Y005930D01*
X003680Y005430D01*
X003430Y005180D01*
X003680Y004930D01*
X003680Y004430D01*
X003430Y004180D01*
X001930Y004180D01*
X005530Y001680D02*
X010830Y001680D01*
X010830Y015680D01*
X008580Y015680D01*
X008578Y015641D01*
X008572Y015602D01*
X008563Y015564D01*
X008550Y015527D01*
X008533Y015491D01*
X008513Y015458D01*
X008489Y015426D01*
X008463Y015397D01*
X008434Y015371D01*
X008402Y015347D01*
X008369Y015327D01*
X008333Y015310D01*
X008296Y015297D01*
X008258Y015288D01*
X008219Y015282D01*
X008180Y015280D01*
X008141Y015282D01*
X008102Y015288D01*
X008064Y015297D01*
X008027Y015310D01*
X007991Y015327D01*
X007958Y015347D01*
X007926Y015371D01*
X007897Y015397D01*
X007871Y015426D01*
X007847Y015458D01*
X007827Y015491D01*
X007810Y015527D01*
X007797Y015564D01*
X007788Y015602D01*
X007782Y015641D01*
X007780Y015680D01*
X005530Y015680D01*
X005530Y001680D01*
X013730Y001330D02*
X013730Y015980D01*
X015680Y015980D01*
X015682Y015936D01*
X015688Y015893D01*
X015697Y015851D01*
X015710Y015809D01*
X015727Y015769D01*
X015747Y015730D01*
X015770Y015693D01*
X015797Y015659D01*
X015826Y015626D01*
X015859Y015597D01*
X015893Y015570D01*
X015930Y015547D01*
X015969Y015527D01*
X016009Y015510D01*
X016051Y015497D01*
X016093Y015488D01*
X016136Y015482D01*
X016180Y015480D01*
X016224Y015482D01*
X016267Y015488D01*
X016309Y015497D01*
X016351Y015510D01*
X016391Y015527D01*
X016430Y015547D01*
X016467Y015570D01*
X016501Y015597D01*
X016534Y015626D01*
X016563Y015659D01*
X016590Y015693D01*
X016613Y015730D01*
X016633Y015769D01*
X016650Y015809D01*
X016663Y015851D01*
X016672Y015893D01*
X016678Y015936D01*
X016680Y015980D01*
X018630Y015980D01*
X018630Y001330D01*
X013730Y001330D01*
X020180Y002330D02*
X020180Y004030D01*
X020182Y004047D01*
X020186Y004064D01*
X020193Y004080D01*
X020203Y004094D01*
X020216Y004107D01*
X020230Y004117D01*
X020246Y004124D01*
X020263Y004128D01*
X020280Y004130D01*
X021080Y004130D01*
X021097Y004128D01*
X021114Y004124D01*
X021130Y004117D01*
X021144Y004107D01*
X021157Y004094D01*
X021167Y004080D01*
X021174Y004064D01*
X021178Y004047D01*
X021180Y004030D01*
X021180Y002330D01*
X021178Y002313D01*
X021174Y002296D01*
X021167Y002280D01*
X021157Y002266D01*
X021144Y002253D01*
X021130Y002243D01*
X021114Y002236D01*
X021097Y002232D01*
X021080Y002230D01*
X020280Y002230D01*
X020263Y002232D01*
X020246Y002236D01*
X020230Y002243D01*
X020216Y002253D01*
X020203Y002266D01*
X020193Y002280D01*
X020186Y002296D01*
X020182Y002313D01*
X020180Y002330D01*
X020680Y003030D02*
X020680Y003080D01*
X020680Y003280D02*
X020680Y003330D01*
X022030Y001680D02*
X027330Y001680D01*
X027330Y021680D01*
X025030Y021680D01*
X025028Y021641D01*
X025022Y021602D01*
X025013Y021564D01*
X025000Y021527D01*
X024983Y021491D01*
X024963Y021458D01*
X024939Y021426D01*
X024913Y021397D01*
X024884Y021371D01*
X024852Y021347D01*
X024819Y021327D01*
X024783Y021310D01*
X024746Y021297D01*
X024708Y021288D01*
X024669Y021282D01*
X024630Y021280D01*
X024591Y021282D01*
X024552Y021288D01*
X024514Y021297D01*
X024477Y021310D01*
X024441Y021327D01*
X024408Y021347D01*
X024376Y021371D01*
X024347Y021397D01*
X024321Y021426D01*
X024297Y021458D01*
X024277Y021491D01*
X024260Y021527D01*
X024247Y021564D01*
X024238Y021602D01*
X024232Y021641D01*
X024230Y021680D01*
X022030Y021680D01*
X022030Y001680D01*
X029080Y004830D02*
X029080Y006530D01*
X029082Y006547D01*
X029086Y006564D01*
X029093Y006580D01*
X029103Y006594D01*
X029116Y006607D01*
X029130Y006617D01*
X029146Y006624D01*
X029163Y006628D01*
X029180Y006630D01*
X030180Y006630D01*
X030197Y006628D01*
X030214Y006624D01*
X030230Y006617D01*
X030244Y006607D01*
X030257Y006594D01*
X030267Y006580D01*
X030274Y006564D01*
X030278Y006547D01*
X030280Y006530D01*
X030280Y004830D01*
X030278Y004813D01*
X030274Y004796D01*
X030267Y004780D01*
X030257Y004766D01*
X030244Y004753D01*
X030230Y004743D01*
X030214Y004736D01*
X030197Y004732D01*
X030180Y004730D01*
X029180Y004730D01*
X029163Y004732D01*
X029146Y004736D01*
X029130Y004743D01*
X029116Y004753D01*
X029103Y004766D01*
X029093Y004780D01*
X029086Y004796D01*
X029082Y004813D01*
X029080Y004830D01*
X029680Y005530D02*
X029680Y005580D01*
X029680Y005780D02*
X029680Y005830D01*
X030180Y007230D02*
X029180Y007230D01*
X029163Y007232D01*
X029146Y007236D01*
X029130Y007243D01*
X029116Y007253D01*
X029103Y007266D01*
X029093Y007280D01*
X029086Y007296D01*
X029082Y007313D01*
X029080Y007330D01*
X029080Y009030D01*
X029082Y009047D01*
X029086Y009064D01*
X029093Y009080D01*
X029103Y009094D01*
X029116Y009107D01*
X029130Y009117D01*
X029146Y009124D01*
X029163Y009128D01*
X029180Y009130D01*
X030180Y009130D01*
X030197Y009128D01*
X030214Y009124D01*
X030230Y009117D01*
X030244Y009107D01*
X030257Y009094D01*
X030267Y009080D01*
X030274Y009064D01*
X030278Y009047D01*
X030280Y009030D01*
X030280Y007330D01*
X030278Y007313D01*
X030274Y007296D01*
X030267Y007280D01*
X030257Y007266D01*
X030244Y007253D01*
X030230Y007243D01*
X030214Y007236D01*
X030197Y007232D01*
X030180Y007230D01*
X029680Y008030D02*
X029680Y008080D01*
X029680Y008280D02*
X029680Y008330D01*
X030180Y009730D02*
X029180Y009730D01*
X029163Y009732D01*
X029146Y009736D01*
X029130Y009743D01*
X029116Y009753D01*
X029103Y009766D01*
X029093Y009780D01*
X029086Y009796D01*
X029082Y009813D01*
X029080Y009830D01*
X029080Y011530D01*
X029082Y011547D01*
X029086Y011564D01*
X029093Y011580D01*
X029103Y011594D01*
X029116Y011607D01*
X029130Y011617D01*
X029146Y011624D01*
X029163Y011628D01*
X029180Y011630D01*
X030180Y011630D01*
X030197Y011628D01*
X030214Y011624D01*
X030230Y011617D01*
X030244Y011607D01*
X030257Y011594D01*
X030267Y011580D01*
X030274Y011564D01*
X030278Y011547D01*
X030280Y011530D01*
X030280Y009830D01*
X030278Y009813D01*
X030274Y009796D01*
X030267Y009780D01*
X030257Y009766D01*
X030244Y009753D01*
X030230Y009743D01*
X030214Y009736D01*
X030197Y009732D01*
X030180Y009730D01*
X029680Y010530D02*
X029680Y010580D01*
X029680Y010780D02*
X029680Y010830D01*
X031030Y012180D02*
X031780Y012180D01*
X031782Y012141D01*
X031788Y012102D01*
X031797Y012064D01*
X031810Y012027D01*
X031827Y011991D01*
X031847Y011958D01*
X031871Y011926D01*
X031897Y011897D01*
X031926Y011871D01*
X031958Y011847D01*
X031991Y011827D01*
X032027Y011810D01*
X032064Y011797D01*
X032102Y011788D01*
X032141Y011782D01*
X032180Y011780D01*
X032219Y011782D01*
X032258Y011788D01*
X032296Y011797D01*
X032333Y011810D01*
X032369Y011827D01*
X032402Y011847D01*
X032434Y011871D01*
X032463Y011897D01*
X032489Y011926D01*
X032513Y011958D01*
X032533Y011991D01*
X032550Y012027D01*
X032563Y012064D01*
X032572Y012102D01*
X032578Y012141D01*
X032580Y012180D01*
X033330Y012180D01*
X033330Y004180D01*
X031030Y004180D01*
X031030Y012180D01*
X031030Y012580D02*
X029330Y012580D01*
X029313Y012582D01*
X029296Y012586D01*
X029280Y012593D01*
X029266Y012603D01*
X029253Y012616D01*
X029243Y012630D01*
X029236Y012646D01*
X029232Y012663D01*
X029230Y012680D01*
X029230Y013680D01*
X029232Y013697D01*
X029236Y013714D01*
X029243Y013730D01*
X029253Y013744D01*
X029266Y013757D01*
X029280Y013767D01*
X029296Y013774D01*
X029313Y013778D01*
X029330Y013780D01*
X031030Y013780D01*
X031047Y013778D01*
X031064Y013774D01*
X031080Y013767D01*
X031094Y013757D01*
X031107Y013744D01*
X031117Y013730D01*
X031124Y013714D01*
X031128Y013697D01*
X031130Y013680D01*
X031130Y012680D01*
X031128Y012663D01*
X031124Y012646D01*
X031117Y012630D01*
X031107Y012616D01*
X031094Y012603D01*
X031080Y012593D01*
X031064Y012586D01*
X031047Y012582D01*
X031030Y012580D01*
X030330Y013180D02*
X030280Y013180D01*
X030080Y013180D02*
X030030Y013180D01*
X030330Y014180D02*
X030180Y014330D01*
X030180Y015030D01*
X030330Y015180D01*
X030180Y015330D01*
X030180Y016030D01*
X030330Y016180D01*
X030180Y016330D01*
X030180Y017030D01*
X030330Y017180D01*
X030180Y017330D01*
X030180Y018030D01*
X030330Y018180D01*
X030180Y018330D01*
X030180Y019030D01*
X030330Y019180D01*
X030180Y019330D01*
X030180Y020030D01*
X030330Y020180D01*
X032030Y020180D01*
X032180Y020030D01*
X032180Y019330D01*
X032030Y019180D01*
X032180Y019030D01*
X032180Y018330D01*
X032030Y018180D01*
X032180Y018030D01*
X032180Y017330D01*
X032030Y017180D01*
X032180Y017030D01*
X032180Y016330D01*
X032030Y016180D01*
X032180Y016030D01*
X032180Y015330D01*
X032030Y015180D01*
X032180Y015030D01*
X032180Y014330D01*
X032030Y014180D01*
X030330Y014180D01*
X029580Y014380D02*
X029580Y020980D01*
X029530Y021030D02*
X028830Y021030D01*
X028830Y020330D01*
X029530Y020330D01*
X029530Y021030D01*
X029580Y020980D02*
X029578Y021006D01*
X029573Y021032D01*
X029565Y021057D01*
X029553Y021080D01*
X029539Y021102D01*
X029521Y021121D01*
X029502Y021139D01*
X029480Y021153D01*
X029457Y021165D01*
X029432Y021173D01*
X029406Y021178D01*
X029380Y021180D01*
X028980Y021180D01*
X028954Y021178D01*
X028928Y021173D01*
X028903Y021165D01*
X028880Y021153D01*
X028858Y021139D01*
X028839Y021121D01*
X028821Y021102D01*
X028807Y021080D01*
X028795Y021057D01*
X028787Y021032D01*
X028782Y021006D01*
X028780Y020980D01*
X028780Y014380D01*
X028782Y014354D01*
X028787Y014328D01*
X028795Y014303D01*
X028807Y014280D01*
X028821Y014258D01*
X028839Y014239D01*
X028858Y014221D01*
X028880Y014207D01*
X028903Y014195D01*
X028928Y014187D01*
X028954Y014182D01*
X028980Y014180D01*
X029380Y014180D01*
X029406Y014182D01*
X029432Y014187D01*
X029457Y014195D01*
X029480Y014207D01*
X029502Y014221D01*
X029521Y014239D01*
X029539Y014258D01*
X029553Y014280D01*
X029565Y014303D01*
X029573Y014328D01*
X029578Y014354D01*
X029580Y014380D01*
X032780Y013930D02*
X032780Y013780D01*
X032782Y013763D01*
X032786Y013746D01*
X032793Y013730D01*
X032803Y013716D01*
X032816Y013703D01*
X032830Y013693D01*
X032846Y013686D01*
X032863Y013682D01*
X032880Y013680D01*
X033480Y013680D01*
X033497Y013682D01*
X033514Y013686D01*
X033530Y013693D01*
X033544Y013703D01*
X033557Y013716D01*
X033567Y013730D01*
X033574Y013746D01*
X033578Y013763D01*
X033580Y013780D01*
X033580Y013930D01*
X033530Y013980D01*
X033530Y015380D01*
X033580Y015430D01*
X033580Y015580D01*
X033578Y015597D01*
X033574Y015614D01*
X033567Y015630D01*
X033557Y015644D01*
X033544Y015657D01*
X033530Y015667D01*
X033514Y015674D01*
X033497Y015678D01*
X033480Y015680D01*
X032880Y015680D01*
X032863Y015678D01*
X032846Y015674D01*
X032830Y015667D01*
X032816Y015657D01*
X032803Y015644D01*
X032793Y015630D01*
X032786Y015614D01*
X032782Y015597D01*
X032780Y015580D01*
X032780Y015430D01*
X032830Y015380D01*
X032830Y013980D01*
X032780Y013930D01*
X033280Y019230D02*
X034080Y019230D01*
X034097Y019232D01*
X034114Y019236D01*
X034130Y019243D01*
X034144Y019253D01*
X034157Y019266D01*
X034167Y019280D01*
X034174Y019296D01*
X034178Y019313D01*
X034180Y019330D01*
X034180Y021030D01*
X034178Y021047D01*
X034174Y021064D01*
X034167Y021080D01*
X034157Y021094D01*
X034144Y021107D01*
X034130Y021117D01*
X034114Y021124D01*
X034097Y021128D01*
X034080Y021130D01*
X033280Y021130D01*
X033263Y021128D01*
X033246Y021124D01*
X033230Y021117D01*
X033216Y021107D01*
X033203Y021094D01*
X033193Y021080D01*
X033186Y021064D01*
X033182Y021047D01*
X033180Y021030D01*
X033180Y019330D01*
X033182Y019313D01*
X033186Y019296D01*
X033193Y019280D01*
X033203Y019266D01*
X033216Y019253D01*
X033230Y019243D01*
X033246Y019236D01*
X033263Y019232D01*
X033280Y019230D01*
X033680Y020030D02*
X033680Y020080D01*
X033680Y020280D02*
X033680Y020330D01*
X034630Y021780D02*
X038680Y021780D01*
X038680Y021680D01*
X038680Y005680D01*
X038680Y005580D01*
X034630Y005580D01*
X034430Y005380D01*
X034430Y003430D01*
X034630Y003230D01*
X038630Y003230D01*
X038680Y003230D01*
X038680Y005230D01*
X038680Y005580D01*
X038680Y005680D02*
X038380Y005680D01*
X038380Y021680D01*
X038680Y021680D01*
X038680Y021780D02*
X038680Y022130D01*
X038680Y024130D01*
X038630Y024130D01*
X034680Y024130D01*
X034430Y023880D01*
X034430Y021980D01*
X034630Y021780D01*
X033180Y022330D02*
X033030Y022180D01*
X032330Y022180D01*
X032180Y022330D01*
X032030Y022180D01*
X031330Y022180D01*
X031180Y022330D01*
X031180Y024030D01*
X031330Y024180D01*
X032030Y024180D01*
X032180Y024030D01*
X032330Y024180D01*
X033030Y024180D01*
X033180Y024030D01*
X033180Y022330D01*
X035030Y022940D02*
X035032Y022990D01*
X035038Y023040D01*
X035048Y023090D01*
X035061Y023138D01*
X035078Y023186D01*
X035099Y023232D01*
X035123Y023276D01*
X035151Y023318D01*
X035182Y023358D01*
X035216Y023395D01*
X035253Y023430D01*
X035292Y023461D01*
X035333Y023490D01*
X035377Y023515D01*
X035423Y023537D01*
X035470Y023555D01*
X035518Y023569D01*
X035567Y023580D01*
X035617Y023587D01*
X035667Y023590D01*
X035718Y023589D01*
X035768Y023584D01*
X035818Y023575D01*
X035866Y023563D01*
X035914Y023546D01*
X035960Y023526D01*
X036005Y023503D01*
X036048Y023476D01*
X036088Y023446D01*
X036126Y023413D01*
X036161Y023377D01*
X036194Y023338D01*
X036223Y023297D01*
X036249Y023254D01*
X036272Y023209D01*
X036291Y023162D01*
X036306Y023114D01*
X036318Y023065D01*
X036326Y023015D01*
X036330Y022965D01*
X036330Y022915D01*
X036326Y022865D01*
X036318Y022815D01*
X036306Y022766D01*
X036291Y022718D01*
X036272Y022671D01*
X036249Y022626D01*
X036223Y022583D01*
X036194Y022542D01*
X036161Y022503D01*
X036126Y022467D01*
X036088Y022434D01*
X036048Y022404D01*
X036005Y022377D01*
X035960Y022354D01*
X035914Y022334D01*
X035866Y022317D01*
X035818Y022305D01*
X035768Y022296D01*
X035718Y022291D01*
X035667Y022290D01*
X035617Y022293D01*
X035567Y022300D01*
X035518Y022311D01*
X035470Y022325D01*
X035423Y022343D01*
X035377Y022365D01*
X035333Y022390D01*
X035292Y022419D01*
X035253Y022450D01*
X035216Y022485D01*
X035182Y022522D01*
X035151Y022562D01*
X035123Y022604D01*
X035099Y022648D01*
X035078Y022694D01*
X035061Y022742D01*
X035048Y022790D01*
X035038Y022840D01*
X035032Y022890D01*
X035030Y022940D01*
X034480Y025680D02*
X033880Y025680D01*
X033863Y025682D01*
X033846Y025686D01*
X033830Y025693D01*
X033816Y025703D01*
X033803Y025716D01*
X033793Y025730D01*
X033786Y025746D01*
X033782Y025763D01*
X033780Y025780D01*
X033780Y025930D01*
X033830Y025980D01*
X033830Y027380D01*
X033780Y027430D01*
X033780Y027580D01*
X033782Y027597D01*
X033786Y027614D01*
X033793Y027630D01*
X033803Y027644D01*
X033816Y027657D01*
X033830Y027667D01*
X033846Y027674D01*
X033863Y027678D01*
X033880Y027680D01*
X034480Y027680D01*
X034497Y027678D01*
X034514Y027674D01*
X034530Y027667D01*
X034544Y027657D01*
X034557Y027644D01*
X034567Y027630D01*
X034574Y027614D01*
X034578Y027597D01*
X034580Y027580D01*
X034580Y027430D01*
X034530Y027380D01*
X034530Y025980D01*
X034580Y025930D01*
X034580Y025780D01*
X034578Y025763D01*
X034574Y025746D01*
X034567Y025730D01*
X034557Y025716D01*
X034544Y025703D01*
X034530Y025693D01*
X034514Y025686D01*
X034497Y025682D01*
X034480Y025680D01*
X033580Y025780D02*
X033580Y025930D01*
X033530Y025980D01*
X033530Y027380D01*
X033580Y027430D01*
X033580Y027580D01*
X033578Y027597D01*
X033574Y027614D01*
X033567Y027630D01*
X033557Y027644D01*
X033544Y027657D01*
X033530Y027667D01*
X033514Y027674D01*
X033497Y027678D01*
X033480Y027680D01*
X032880Y027680D01*
X032863Y027678D01*
X032846Y027674D01*
X032830Y027667D01*
X032816Y027657D01*
X032803Y027644D01*
X032793Y027630D01*
X032786Y027614D01*
X032782Y027597D01*
X032780Y027580D01*
X032780Y027430D01*
X032830Y027380D01*
X032830Y025980D01*
X032780Y025930D01*
X032780Y025780D01*
X032782Y025763D01*
X032786Y025746D01*
X032793Y025730D01*
X032803Y025716D01*
X032816Y025703D01*
X032830Y025693D01*
X032846Y025686D01*
X032863Y025682D01*
X032880Y025680D01*
X033480Y025680D01*
X033497Y025682D01*
X033514Y025686D01*
X033530Y025693D01*
X033544Y025703D01*
X033557Y025716D01*
X033567Y025730D01*
X033574Y025746D01*
X033578Y025763D01*
X033580Y025780D01*
X032580Y025780D02*
X032580Y025930D01*
X032530Y025980D01*
X032530Y027380D01*
X032580Y027430D01*
X032580Y027580D01*
X032578Y027597D01*
X032574Y027614D01*
X032567Y027630D01*
X032557Y027644D01*
X032544Y027657D01*
X032530Y027667D01*
X032514Y027674D01*
X032497Y027678D01*
X032480Y027680D01*
X031880Y027680D01*
X031863Y027678D01*
X031846Y027674D01*
X031830Y027667D01*
X031816Y027657D01*
X031803Y027644D01*
X031793Y027630D01*
X031786Y027614D01*
X031782Y027597D01*
X031780Y027580D01*
X031780Y027430D01*
X031830Y027380D01*
X031830Y025980D01*
X031780Y025930D01*
X031780Y025780D01*
X031782Y025763D01*
X031786Y025746D01*
X031793Y025730D01*
X031803Y025716D01*
X031816Y025703D01*
X031830Y025693D01*
X031846Y025686D01*
X031863Y025682D01*
X031880Y025680D01*
X032480Y025680D01*
X032497Y025682D01*
X032514Y025686D01*
X032530Y025693D01*
X032544Y025703D01*
X032557Y025716D01*
X032567Y025730D01*
X032574Y025746D01*
X032578Y025763D01*
X032580Y025780D01*
X031580Y025780D02*
X031580Y025930D01*
X031530Y025980D01*
X031530Y027380D01*
X031580Y027430D01*
X031580Y027580D01*
X031578Y027597D01*
X031574Y027614D01*
X031567Y027630D01*
X031557Y027644D01*
X031544Y027657D01*
X031530Y027667D01*
X031514Y027674D01*
X031497Y027678D01*
X031480Y027680D01*
X030880Y027680D01*
X030863Y027678D01*
X030846Y027674D01*
X030830Y027667D01*
X030816Y027657D01*
X030803Y027644D01*
X030793Y027630D01*
X030786Y027614D01*
X030782Y027597D01*
X030780Y027580D01*
X030780Y027430D01*
X030830Y027380D01*
X030830Y025980D01*
X030780Y025930D01*
X030780Y025780D01*
X030782Y025763D01*
X030786Y025746D01*
X030793Y025730D01*
X030803Y025716D01*
X030816Y025703D01*
X030830Y025693D01*
X030846Y025686D01*
X030863Y025682D01*
X030880Y025680D01*
X031480Y025680D01*
X031497Y025682D01*
X031514Y025686D01*
X031530Y025693D01*
X031544Y025703D01*
X031557Y025716D01*
X031567Y025730D01*
X031574Y025746D01*
X031578Y025763D01*
X031580Y025780D01*
X030580Y025780D02*
X030580Y025930D01*
X030530Y025980D01*
X030530Y027380D01*
X030580Y027430D01*
X030580Y027580D01*
X030578Y027597D01*
X030574Y027614D01*
X030567Y027630D01*
X030557Y027644D01*
X030544Y027657D01*
X030530Y027667D01*
X030514Y027674D01*
X030497Y027678D01*
X030480Y027680D01*
X029880Y027680D01*
X029863Y027678D01*
X029846Y027674D01*
X029830Y027667D01*
X029816Y027657D01*
X029803Y027644D01*
X029793Y027630D01*
X029786Y027614D01*
X029782Y027597D01*
X029780Y027580D01*
X029780Y027430D01*
X029830Y027380D01*
X029830Y025980D01*
X029780Y025930D01*
X029780Y025780D01*
X029782Y025763D01*
X029786Y025746D01*
X029793Y025730D01*
X029803Y025716D01*
X029816Y025703D01*
X029830Y025693D01*
X029846Y025686D01*
X029863Y025682D01*
X029880Y025680D01*
X030480Y025680D01*
X030497Y025682D01*
X030514Y025686D01*
X030530Y025693D01*
X030544Y025703D01*
X030557Y025716D01*
X030567Y025730D01*
X030574Y025746D01*
X030578Y025763D01*
X030580Y025780D01*
X029130Y025080D02*
X029130Y024280D01*
X029128Y024263D01*
X029124Y024246D01*
X029117Y024230D01*
X029107Y024216D01*
X029094Y024203D01*
X029080Y024193D01*
X029064Y024186D01*
X029047Y024182D01*
X029030Y024180D01*
X027330Y024180D01*
X027313Y024182D01*
X027296Y024186D01*
X027280Y024193D01*
X027266Y024203D01*
X027253Y024216D01*
X027243Y024230D01*
X027236Y024246D01*
X027232Y024263D01*
X027230Y024280D01*
X027230Y025080D01*
X027232Y025097D01*
X027236Y025114D01*
X027243Y025130D01*
X027253Y025144D01*
X027266Y025157D01*
X027280Y025167D01*
X027296Y025174D01*
X027313Y025178D01*
X027330Y025180D01*
X029030Y025180D01*
X029047Y025178D01*
X029064Y025174D01*
X029080Y025167D01*
X029094Y025157D01*
X029107Y025144D01*
X029117Y025130D01*
X029124Y025114D01*
X029128Y025097D01*
X029130Y025080D01*
X028330Y024680D02*
X028280Y024680D01*
X028080Y024680D02*
X028030Y024680D01*
X027980Y026280D02*
X027380Y026280D01*
X027363Y026282D01*
X027346Y026286D01*
X027330Y026293D01*
X027316Y026303D01*
X027303Y026316D01*
X027293Y026330D01*
X027286Y026346D01*
X027282Y026363D01*
X027280Y026380D01*
X027280Y027980D01*
X027282Y027997D01*
X027286Y028014D01*
X027293Y028030D01*
X027303Y028044D01*
X027316Y028057D01*
X027330Y028067D01*
X027346Y028074D01*
X027363Y028078D01*
X027380Y028080D01*
X027980Y028080D01*
X027997Y028078D01*
X028014Y028074D01*
X028030Y028067D01*
X028044Y028057D01*
X028057Y028044D01*
X028067Y028030D01*
X028074Y028014D01*
X028078Y027997D01*
X028080Y027980D01*
X028080Y026380D01*
X028078Y026363D01*
X028074Y026346D01*
X028067Y026330D01*
X028057Y026316D01*
X028044Y026303D01*
X028030Y026293D01*
X028014Y026286D01*
X027997Y026282D01*
X027980Y026280D01*
X027680Y026580D02*
X027680Y027180D01*
X027430Y027180D01*
X027680Y027180D02*
X027430Y026780D01*
X027930Y026780D01*
X027680Y027180D01*
X027930Y027180D01*
X027680Y027180D02*
X027680Y027430D01*
X027080Y027930D02*
X027030Y027880D01*
X027030Y026480D01*
X027080Y026430D01*
X027080Y026280D01*
X027078Y026263D01*
X027074Y026246D01*
X027067Y026230D01*
X027057Y026216D01*
X027044Y026203D01*
X027030Y026193D01*
X027014Y026186D01*
X026997Y026182D01*
X026980Y026180D01*
X026380Y026180D01*
X026363Y026182D01*
X026346Y026186D01*
X026330Y026193D01*
X026316Y026203D01*
X026303Y026216D01*
X026293Y026230D01*
X026286Y026246D01*
X026282Y026263D01*
X026280Y026280D01*
X026280Y026430D01*
X026330Y026480D01*
X026330Y027880D01*
X026280Y027930D01*
X026280Y028080D01*
X026282Y028097D01*
X026286Y028114D01*
X026293Y028130D01*
X026303Y028144D01*
X026316Y028157D01*
X026330Y028167D01*
X026346Y028174D01*
X026363Y028178D01*
X026380Y028180D01*
X026980Y028180D01*
X026997Y028178D01*
X027014Y028174D01*
X027030Y028167D01*
X027044Y028157D01*
X027057Y028144D01*
X027067Y028130D01*
X027074Y028114D01*
X027078Y028097D01*
X027080Y028080D01*
X027080Y027930D01*
X028280Y028480D02*
X028280Y026880D01*
X028282Y026863D01*
X028286Y026846D01*
X028293Y026830D01*
X028303Y026816D01*
X028316Y026803D01*
X028330Y026793D01*
X028346Y026786D01*
X028363Y026782D01*
X028380Y026780D01*
X028980Y026780D01*
X028997Y026782D01*
X029014Y026786D01*
X029030Y026793D01*
X029044Y026803D01*
X029057Y026816D01*
X029067Y026830D01*
X029074Y026846D01*
X029078Y026863D01*
X029080Y026880D01*
X029080Y028480D01*
X029078Y028497D01*
X029074Y028514D01*
X029067Y028530D01*
X029057Y028544D01*
X029044Y028557D01*
X029030Y028567D01*
X029014Y028574D01*
X028997Y028578D01*
X028980Y028580D01*
X028380Y028580D01*
X028363Y028578D01*
X028346Y028574D01*
X028330Y028567D01*
X028316Y028557D01*
X028303Y028544D01*
X028293Y028530D01*
X028286Y028514D01*
X028282Y028497D01*
X028280Y028480D01*
X028680Y027930D02*
X028680Y027680D01*
X028430Y027680D01*
X028680Y027680D02*
X028930Y027680D01*
X028680Y027680D02*
X028430Y027280D01*
X028930Y027280D01*
X028680Y027680D01*
X028680Y027080D01*
X031180Y029430D02*
X031430Y029180D01*
X031930Y029180D01*
X032180Y029430D01*
X032430Y029180D01*
X032930Y029180D01*
X033180Y029430D01*
X033430Y029180D01*
X033930Y029180D01*
X034180Y029430D01*
X034430Y029180D01*
X034930Y029180D01*
X035180Y029430D01*
X035180Y029930D01*
X034930Y030180D01*
X034430Y030180D01*
X034180Y029930D01*
X033930Y030180D01*
X033430Y030180D01*
X033180Y029930D01*
X032930Y030180D01*
X032430Y030180D01*
X032180Y029930D01*
X031930Y030180D01*
X031430Y030180D01*
X031180Y029930D01*
X031180Y029430D01*
X031430Y032180D02*
X031930Y032180D01*
X032180Y032430D01*
X032430Y032180D01*
X032930Y032180D01*
X033180Y032430D01*
X033430Y032180D01*
X033930Y032180D01*
X034180Y032430D01*
X034430Y032180D01*
X034930Y032180D01*
X035180Y032430D01*
X035180Y032930D01*
X034930Y033180D01*
X034430Y033180D01*
X034180Y032930D01*
X033930Y033180D01*
X033430Y033180D01*
X033180Y032930D01*
X032930Y033180D01*
X032430Y033180D01*
X032180Y032930D01*
X031930Y033180D01*
X031430Y033180D01*
X031180Y032930D01*
X031180Y032430D01*
X031430Y032180D01*
X036180Y031080D02*
X036180Y030280D01*
X036280Y030180D01*
X037080Y030180D01*
X037180Y030280D01*
X037280Y030180D01*
X038080Y030180D01*
X038180Y030280D01*
X038280Y030180D01*
X039080Y030180D01*
X039180Y030280D01*
X039180Y031080D01*
X039080Y031180D01*
X038280Y031180D01*
X038180Y031080D01*
X038080Y031180D01*
X037280Y031180D01*
X037180Y031080D01*
X037080Y031180D01*
X036280Y031180D01*
X036180Y031080D01*
X038680Y024130D02*
X039880Y024130D01*
X040080Y024130D01*
X040080Y023130D01*
X040080Y022130D01*
X040080Y005230D01*
X039880Y005230D01*
X039880Y005280D01*
X038930Y005280D01*
X038900Y005282D01*
X038870Y005287D01*
X038841Y005296D01*
X038814Y005309D01*
X038788Y005324D01*
X038764Y005343D01*
X038743Y005364D01*
X038724Y005388D01*
X038709Y005414D01*
X038696Y005441D01*
X038687Y005470D01*
X038682Y005500D01*
X038680Y005530D01*
X040080Y005230D02*
X040080Y004230D01*
X040080Y003230D01*
X039880Y003230D01*
X038680Y003230D01*
X040080Y003230D02*
X040280Y003230D01*
X040280Y006280D01*
X040280Y021080D01*
X040280Y024130D01*
X040080Y024130D01*
X040080Y022130D02*
X039880Y022130D01*
X039880Y022080D01*
X038930Y022080D01*
X038900Y022078D01*
X038870Y022073D01*
X038841Y022064D01*
X038814Y022051D01*
X038788Y022036D01*
X038764Y022017D01*
X038743Y021996D01*
X038724Y021972D01*
X038709Y021946D01*
X038696Y021919D01*
X038687Y021890D01*
X038682Y021860D01*
X038680Y021830D01*
X040280Y021480D02*
X040282Y021450D01*
X040287Y021420D01*
X040296Y021391D01*
X040309Y021364D01*
X040324Y021338D01*
X040343Y021314D01*
X040364Y021293D01*
X040388Y021274D01*
X040414Y021259D01*
X040441Y021246D01*
X040470Y021237D01*
X040500Y021232D01*
X040530Y021230D01*
X042530Y021230D01*
X042556Y021228D01*
X042582Y021223D01*
X042607Y021215D01*
X042630Y021203D01*
X042652Y021189D01*
X042671Y021171D01*
X042689Y021152D01*
X042703Y021130D01*
X042715Y021107D01*
X042723Y021082D01*
X042728Y021056D01*
X042730Y021030D01*
X042730Y020930D01*
X042730Y006430D01*
X042730Y006330D01*
X042728Y006304D01*
X042723Y006278D01*
X042715Y006253D01*
X042703Y006230D01*
X042689Y006208D01*
X042671Y006189D01*
X042652Y006171D01*
X042630Y006157D01*
X042607Y006145D01*
X042582Y006137D01*
X042556Y006132D01*
X042530Y006130D01*
X040530Y006130D01*
X040500Y006128D01*
X040470Y006123D01*
X040441Y006114D01*
X040414Y006101D01*
X040388Y006086D01*
X040364Y006067D01*
X040343Y006046D01*
X040324Y006022D01*
X040309Y005996D01*
X040296Y005969D01*
X040287Y005940D01*
X040282Y005910D01*
X040280Y005880D01*
X035030Y004420D02*
X035032Y004470D01*
X035038Y004520D01*
X035048Y004570D01*
X035061Y004618D01*
X035078Y004666D01*
X035099Y004712D01*
X035123Y004756D01*
X035151Y004798D01*
X035182Y004838D01*
X035216Y004875D01*
X035253Y004910D01*
X035292Y004941D01*
X035333Y004970D01*
X035377Y004995D01*
X035423Y005017D01*
X035470Y005035D01*
X035518Y005049D01*
X035567Y005060D01*
X035617Y005067D01*
X035667Y005070D01*
X035718Y005069D01*
X035768Y005064D01*
X035818Y005055D01*
X035866Y005043D01*
X035914Y005026D01*
X035960Y005006D01*
X036005Y004983D01*
X036048Y004956D01*
X036088Y004926D01*
X036126Y004893D01*
X036161Y004857D01*
X036194Y004818D01*
X036223Y004777D01*
X036249Y004734D01*
X036272Y004689D01*
X036291Y004642D01*
X036306Y004594D01*
X036318Y004545D01*
X036326Y004495D01*
X036330Y004445D01*
X036330Y004395D01*
X036326Y004345D01*
X036318Y004295D01*
X036306Y004246D01*
X036291Y004198D01*
X036272Y004151D01*
X036249Y004106D01*
X036223Y004063D01*
X036194Y004022D01*
X036161Y003983D01*
X036126Y003947D01*
X036088Y003914D01*
X036048Y003884D01*
X036005Y003857D01*
X035960Y003834D01*
X035914Y003814D01*
X035866Y003797D01*
X035818Y003785D01*
X035768Y003776D01*
X035718Y003771D01*
X035667Y003770D01*
X035617Y003773D01*
X035567Y003780D01*
X035518Y003791D01*
X035470Y003805D01*
X035423Y003823D01*
X035377Y003845D01*
X035333Y003870D01*
X035292Y003899D01*
X035253Y003930D01*
X035216Y003965D01*
X035182Y004002D01*
X035151Y004042D01*
X035123Y004084D01*
X035099Y004128D01*
X035078Y004174D01*
X035061Y004222D01*
X035048Y004270D01*
X035038Y004320D01*
X035032Y004370D01*
X035030Y004420D01*
X033680Y003530D02*
X033680Y001830D01*
X033530Y001680D01*
X032830Y001680D01*
X032680Y001830D01*
X032530Y001680D01*
X031830Y001680D01*
X031680Y001830D01*
X031680Y003530D01*
X031830Y003680D01*
X032530Y003680D01*
X032680Y003530D01*
X032830Y003680D01*
X033530Y003680D01*
X033680Y003530D01*
X031130Y003680D02*
X031130Y002680D01*
X031128Y002663D01*
X031124Y002646D01*
X031117Y002630D01*
X031107Y002616D01*
X031094Y002603D01*
X031080Y002593D01*
X031064Y002586D01*
X031047Y002582D01*
X031030Y002580D01*
X029330Y002580D01*
X029313Y002582D01*
X029296Y002586D01*
X029280Y002593D01*
X029266Y002603D01*
X029253Y002616D01*
X029243Y002630D01*
X029236Y002646D01*
X029232Y002663D01*
X029230Y002680D01*
X029230Y003680D01*
X029232Y003697D01*
X029236Y003714D01*
X029243Y003730D01*
X029253Y003744D01*
X029266Y003757D01*
X029280Y003767D01*
X029296Y003774D01*
X029313Y003778D01*
X029330Y003780D01*
X031030Y003780D01*
X031047Y003778D01*
X031064Y003774D01*
X031080Y003767D01*
X031094Y003757D01*
X031107Y003744D01*
X031117Y003730D01*
X031124Y003714D01*
X031128Y003697D01*
X031130Y003680D01*
X030330Y003180D02*
X030280Y003180D01*
X030080Y003180D02*
X030030Y003180D01*
X019530Y016180D02*
X017830Y016180D01*
X017813Y016182D01*
X017796Y016186D01*
X017780Y016193D01*
X017766Y016203D01*
X017753Y016216D01*
X017743Y016230D01*
X017736Y016246D01*
X017732Y016263D01*
X017730Y016280D01*
X017730Y017080D01*
X017732Y017097D01*
X017736Y017114D01*
X017743Y017130D01*
X017753Y017144D01*
X017766Y017157D01*
X017780Y017167D01*
X017796Y017174D01*
X017813Y017178D01*
X017830Y017180D01*
X019530Y017180D01*
X019547Y017178D01*
X019564Y017174D01*
X019580Y017167D01*
X019594Y017157D01*
X019607Y017144D01*
X019617Y017130D01*
X019624Y017114D01*
X019628Y017097D01*
X019630Y017080D01*
X019630Y016280D01*
X019628Y016263D01*
X019624Y016246D01*
X019617Y016230D01*
X019607Y016216D01*
X019594Y016203D01*
X019580Y016193D01*
X019564Y016186D01*
X019547Y016182D01*
X019530Y016180D01*
X018830Y016680D02*
X018780Y016680D01*
X018580Y016680D02*
X018530Y016680D01*
X019280Y018180D02*
X020080Y018180D01*
X020180Y018280D01*
X020180Y019080D01*
X020080Y019180D01*
X020180Y019280D01*
X020180Y020080D01*
X020080Y020180D01*
X020180Y020280D01*
X020180Y021080D01*
X020080Y021180D01*
X019280Y021180D01*
X019180Y021080D01*
X019180Y020280D01*
X019280Y020180D01*
X019180Y020080D01*
X019180Y019280D01*
X019280Y019180D01*
X019180Y019080D01*
X019180Y018280D01*
X019280Y018180D01*
X018830Y018680D02*
X018230Y018680D01*
X018213Y018682D01*
X018196Y018686D01*
X018180Y018693D01*
X018166Y018703D01*
X018153Y018716D01*
X018143Y018730D01*
X018136Y018746D01*
X018132Y018763D01*
X018130Y018780D01*
X018130Y018930D01*
X018180Y018980D01*
X018180Y020380D01*
X018130Y020430D01*
X018130Y020580D01*
X018132Y020597D01*
X018136Y020614D01*
X018143Y020630D01*
X018153Y020644D01*
X018166Y020657D01*
X018180Y020667D01*
X018196Y020674D01*
X018213Y020678D01*
X018230Y020680D01*
X018830Y020680D01*
X018847Y020678D01*
X018864Y020674D01*
X018880Y020667D01*
X018894Y020657D01*
X018907Y020644D01*
X018917Y020630D01*
X018924Y020614D01*
X018928Y020597D01*
X018930Y020580D01*
X018930Y020430D01*
X018880Y020380D01*
X018880Y018980D01*
X018930Y018930D01*
X018930Y018780D01*
X018928Y018763D01*
X018924Y018746D01*
X018917Y018730D01*
X018907Y018716D01*
X018894Y018703D01*
X018880Y018693D01*
X018864Y018686D01*
X018847Y018682D01*
X018830Y018680D01*
X017880Y018580D02*
X007480Y018580D01*
X007480Y019430D01*
X007510Y019432D01*
X007540Y019437D01*
X007569Y019446D01*
X007596Y019459D01*
X007622Y019474D01*
X007646Y019493D01*
X007667Y019514D01*
X007686Y019538D01*
X007701Y019564D01*
X007714Y019591D01*
X007723Y019620D01*
X007728Y019650D01*
X007730Y019680D01*
X007728Y019710D01*
X007723Y019740D01*
X007714Y019769D01*
X007701Y019796D01*
X007686Y019822D01*
X007667Y019846D01*
X007646Y019867D01*
X007622Y019886D01*
X007596Y019901D01*
X007569Y019914D01*
X007540Y019923D01*
X007510Y019928D01*
X007480Y019930D01*
X007480Y020780D01*
X017880Y020780D01*
X017880Y018580D01*
X022610Y020410D02*
X022824Y020410D01*
X022717Y020410D02*
X022717Y021051D01*
X022610Y021051D02*
X022824Y021051D01*
X023040Y020944D02*
X023040Y020517D01*
X023146Y020410D01*
X023360Y020410D01*
X023467Y020517D01*
X023684Y020517D02*
X023791Y020410D01*
X024005Y020410D01*
X024111Y020517D01*
X024111Y020624D01*
X024005Y020730D01*
X023898Y020730D01*
X024005Y020730D02*
X024111Y020837D01*
X024111Y020944D01*
X024005Y021051D01*
X023791Y021051D01*
X023684Y020944D01*
X023467Y020944D02*
X023360Y021051D01*
X023146Y021051D01*
X023040Y020944D01*
X023030Y022680D02*
X025330Y022680D01*
X025330Y029680D01*
X024580Y029680D01*
X024578Y029641D01*
X024572Y029602D01*
X024563Y029564D01*
X024550Y029527D01*
X024533Y029491D01*
X024513Y029458D01*
X024489Y029426D01*
X024463Y029397D01*
X024434Y029371D01*
X024402Y029347D01*
X024369Y029327D01*
X024333Y029310D01*
X024296Y029297D01*
X024258Y029288D01*
X024219Y029282D01*
X024180Y029280D01*
X024141Y029282D01*
X024102Y029288D01*
X024064Y029297D01*
X024027Y029310D01*
X023991Y029327D01*
X023958Y029347D01*
X023926Y029371D01*
X023897Y029397D01*
X023871Y029426D01*
X023847Y029458D01*
X023827Y029491D01*
X023810Y029527D01*
X023797Y029564D01*
X023788Y029602D01*
X023782Y029641D01*
X023780Y029680D01*
X023030Y029680D01*
X023030Y022680D01*
X020180Y025380D02*
X020180Y025980D01*
X020178Y025997D01*
X020174Y026014D01*
X020167Y026030D01*
X020157Y026044D01*
X020144Y026057D01*
X020130Y026067D01*
X020114Y026074D01*
X020097Y026078D01*
X020080Y026080D01*
X019930Y026080D01*
X019880Y026030D01*
X018480Y026030D01*
X018430Y026080D01*
X018280Y026080D01*
X018263Y026078D01*
X018246Y026074D01*
X018230Y026067D01*
X018216Y026057D01*
X018203Y026044D01*
X018193Y026030D01*
X018186Y026014D01*
X018182Y025997D01*
X018180Y025980D01*
X018180Y025380D01*
X018182Y025363D01*
X018186Y025346D01*
X018193Y025330D01*
X018203Y025316D01*
X018216Y025303D01*
X018230Y025293D01*
X018246Y025286D01*
X018263Y025282D01*
X018280Y025280D01*
X018430Y025280D01*
X018480Y025330D01*
X019880Y025330D01*
X019930Y025280D01*
X020080Y025280D01*
X020097Y025282D01*
X020114Y025286D01*
X020130Y025293D01*
X020144Y025303D01*
X020157Y025316D01*
X020167Y025330D01*
X020174Y025346D01*
X020178Y025363D01*
X020180Y025380D01*
X021180Y025830D02*
X021180Y027530D01*
X021182Y027547D01*
X021186Y027564D01*
X021193Y027580D01*
X021203Y027594D01*
X021216Y027607D01*
X021230Y027617D01*
X021246Y027624D01*
X021263Y027628D01*
X021280Y027630D01*
X022080Y027630D01*
X022097Y027628D01*
X022114Y027624D01*
X022130Y027617D01*
X022144Y027607D01*
X022157Y027594D01*
X022167Y027580D01*
X022174Y027564D01*
X022178Y027547D01*
X022180Y027530D01*
X022180Y025830D01*
X022178Y025813D01*
X022174Y025796D01*
X022167Y025780D01*
X022157Y025766D01*
X022144Y025753D01*
X022130Y025743D01*
X022114Y025736D01*
X022097Y025732D01*
X022080Y025730D01*
X021280Y025730D01*
X021263Y025732D01*
X021246Y025736D01*
X021230Y025743D01*
X021216Y025753D01*
X021203Y025766D01*
X021193Y025780D01*
X021186Y025796D01*
X021182Y025813D01*
X021180Y025830D01*
X021680Y026530D02*
X021680Y026580D01*
X021680Y026780D02*
X021680Y026830D01*
X020580Y027280D02*
X020580Y027430D01*
X020530Y027480D01*
X020530Y028880D01*
X020580Y028930D01*
X020580Y029080D01*
X020578Y029097D01*
X020574Y029114D01*
X020567Y029130D01*
X020557Y029144D01*
X020544Y029157D01*
X020530Y029167D01*
X020514Y029174D01*
X020497Y029178D01*
X020480Y029180D01*
X019880Y029180D01*
X019863Y029178D01*
X019846Y029174D01*
X019830Y029167D01*
X019816Y029157D01*
X019803Y029144D01*
X019793Y029130D01*
X019786Y029114D01*
X019782Y029097D01*
X019780Y029080D01*
X019780Y028930D01*
X019830Y028880D01*
X019830Y027480D01*
X019780Y027430D01*
X019780Y027280D01*
X019782Y027263D01*
X019786Y027246D01*
X019793Y027230D01*
X019803Y027216D01*
X019816Y027203D01*
X019830Y027193D01*
X019846Y027186D01*
X019863Y027182D01*
X019880Y027180D01*
X020480Y027180D01*
X020497Y027182D01*
X020514Y027186D01*
X020530Y027193D01*
X020544Y027203D01*
X020557Y027216D01*
X020567Y027230D01*
X020574Y027246D01*
X020578Y027263D01*
X020580Y027280D01*
X019580Y027280D02*
X019580Y027430D01*
X019530Y027480D01*
X019530Y028880D01*
X019580Y028930D01*
X019580Y029080D01*
X019578Y029097D01*
X019574Y029114D01*
X019567Y029130D01*
X019557Y029144D01*
X019544Y029157D01*
X019530Y029167D01*
X019514Y029174D01*
X019497Y029178D01*
X019480Y029180D01*
X018880Y029180D01*
X018863Y029178D01*
X018846Y029174D01*
X018830Y029167D01*
X018816Y029157D01*
X018803Y029144D01*
X018793Y029130D01*
X018786Y029114D01*
X018782Y029097D01*
X018780Y029080D01*
X018780Y028930D01*
X018830Y028880D01*
X018830Y027480D01*
X018780Y027430D01*
X018780Y027280D01*
X018782Y027263D01*
X018786Y027246D01*
X018793Y027230D01*
X018803Y027216D01*
X018816Y027203D01*
X018830Y027193D01*
X018846Y027186D01*
X018863Y027182D01*
X018880Y027180D01*
X019480Y027180D01*
X019497Y027182D01*
X019514Y027186D01*
X019530Y027193D01*
X019544Y027203D01*
X019557Y027216D01*
X019567Y027230D01*
X019574Y027246D01*
X019578Y027263D01*
X019580Y027280D01*
X018580Y027280D02*
X018580Y027430D01*
X018530Y027480D01*
X018530Y028880D01*
X018580Y028930D01*
X018580Y029080D01*
X018578Y029097D01*
X018574Y029114D01*
X018567Y029130D01*
X018557Y029144D01*
X018544Y029157D01*
X018530Y029167D01*
X018514Y029174D01*
X018497Y029178D01*
X018480Y029180D01*
X017880Y029180D01*
X017863Y029178D01*
X017846Y029174D01*
X017830Y029167D01*
X017816Y029157D01*
X017803Y029144D01*
X017793Y029130D01*
X017786Y029114D01*
X017782Y029097D01*
X017780Y029080D01*
X017780Y028930D01*
X017830Y028880D01*
X017830Y027480D01*
X017780Y027430D01*
X017780Y027280D01*
X017782Y027263D01*
X017786Y027246D01*
X017793Y027230D01*
X017803Y027216D01*
X017816Y027203D01*
X017830Y027193D01*
X017846Y027186D01*
X017863Y027182D01*
X017880Y027180D01*
X018480Y027180D01*
X018497Y027182D01*
X018514Y027186D01*
X018530Y027193D01*
X018544Y027203D01*
X018557Y027216D01*
X018567Y027230D01*
X018574Y027246D01*
X018578Y027263D01*
X018580Y027280D01*
X017580Y027280D02*
X017580Y027430D01*
X017530Y027480D01*
X017530Y028880D01*
X017580Y028930D01*
X017580Y029080D01*
X017578Y029097D01*
X017574Y029114D01*
X017567Y029130D01*
X017557Y029144D01*
X017544Y029157D01*
X017530Y029167D01*
X017514Y029174D01*
X017497Y029178D01*
X017480Y029180D01*
X016880Y029180D01*
X016863Y029178D01*
X016846Y029174D01*
X016830Y029167D01*
X016816Y029157D01*
X016803Y029144D01*
X016793Y029130D01*
X016786Y029114D01*
X016782Y029097D01*
X016780Y029080D01*
X016780Y028930D01*
X016830Y028880D01*
X016830Y027480D01*
X016780Y027430D01*
X016780Y027280D01*
X016782Y027263D01*
X016786Y027246D01*
X016793Y027230D01*
X016803Y027216D01*
X016816Y027203D01*
X016830Y027193D01*
X016846Y027186D01*
X016863Y027182D01*
X016880Y027180D01*
X017480Y027180D01*
X017497Y027182D01*
X017514Y027186D01*
X017530Y027193D01*
X017544Y027203D01*
X017557Y027216D01*
X017567Y027230D01*
X017574Y027246D01*
X017578Y027263D01*
X017580Y027280D01*
X016180Y027330D02*
X016180Y029030D01*
X016178Y029047D01*
X016174Y029064D01*
X016167Y029080D01*
X016157Y029094D01*
X016144Y029107D01*
X016130Y029117D01*
X016114Y029124D01*
X016097Y029128D01*
X016080Y029130D01*
X015280Y029130D01*
X015263Y029128D01*
X015246Y029124D01*
X015230Y029117D01*
X015216Y029107D01*
X015203Y029094D01*
X015193Y029080D01*
X015186Y029064D01*
X015182Y029047D01*
X015180Y029030D01*
X015180Y027330D01*
X015182Y027313D01*
X015186Y027296D01*
X015193Y027280D01*
X015203Y027266D01*
X015216Y027253D01*
X015230Y027243D01*
X015246Y027236D01*
X015263Y027232D01*
X015280Y027230D01*
X016080Y027230D01*
X016097Y027232D01*
X016114Y027236D01*
X016130Y027243D01*
X016144Y027253D01*
X016157Y027266D01*
X016167Y027280D01*
X016174Y027296D01*
X016178Y027313D01*
X016180Y027330D01*
X015680Y028030D02*
X015680Y028080D01*
X015680Y028280D02*
X015680Y028330D01*
X015080Y028930D02*
X015030Y028880D01*
X015030Y027480D01*
X015080Y027430D01*
X015080Y027280D01*
X015078Y027263D01*
X015074Y027246D01*
X015067Y027230D01*
X015057Y027216D01*
X015044Y027203D01*
X015030Y027193D01*
X015014Y027186D01*
X014997Y027182D01*
X014980Y027180D01*
X014380Y027180D01*
X014363Y027182D01*
X014346Y027186D01*
X014330Y027193D01*
X014316Y027203D01*
X014303Y027216D01*
X014293Y027230D01*
X014286Y027246D01*
X014282Y027263D01*
X014280Y027280D01*
X014280Y027430D01*
X014330Y027480D01*
X014330Y028880D01*
X014280Y028930D01*
X014280Y029080D01*
X014282Y029097D01*
X014286Y029114D01*
X014293Y029130D01*
X014303Y029144D01*
X014316Y029157D01*
X014330Y029167D01*
X014346Y029174D01*
X014363Y029178D01*
X014380Y029180D01*
X014980Y029180D01*
X014997Y029178D01*
X015014Y029174D01*
X015030Y029167D01*
X015044Y029157D01*
X015057Y029144D01*
X015067Y029130D01*
X015074Y029114D01*
X015078Y029097D01*
X015080Y029080D01*
X015080Y028930D01*
X013580Y028930D02*
X013580Y029080D01*
X013578Y029097D01*
X013574Y029114D01*
X013567Y029130D01*
X013557Y029144D01*
X013544Y029157D01*
X013530Y029167D01*
X013514Y029174D01*
X013497Y029178D01*
X013480Y029180D01*
X012880Y029180D01*
X012863Y029178D01*
X012846Y029174D01*
X012830Y029167D01*
X012816Y029157D01*
X012803Y029144D01*
X012793Y029130D01*
X012786Y029114D01*
X012782Y029097D01*
X012780Y029080D01*
X012780Y028930D01*
X012830Y028880D01*
X012830Y027480D01*
X012780Y027430D01*
X012780Y027280D01*
X012782Y027263D01*
X012786Y027246D01*
X012793Y027230D01*
X012803Y027216D01*
X012816Y027203D01*
X012830Y027193D01*
X012846Y027186D01*
X012863Y027182D01*
X012880Y027180D01*
X013480Y027180D01*
X013497Y027182D01*
X013514Y027186D01*
X013530Y027193D01*
X013544Y027203D01*
X013557Y027216D01*
X013567Y027230D01*
X013574Y027246D01*
X013578Y027263D01*
X013580Y027280D01*
X013580Y027430D01*
X013530Y027480D01*
X013530Y028880D01*
X013580Y028930D01*
X012580Y028930D02*
X012580Y029080D01*
X012578Y029097D01*
X012574Y029114D01*
X012567Y029130D01*
X012557Y029144D01*
X012544Y029157D01*
X012530Y029167D01*
X012514Y029174D01*
X012497Y029178D01*
X012480Y029180D01*
X011880Y029180D01*
X011863Y029178D01*
X011846Y029174D01*
X011830Y029167D01*
X011816Y029157D01*
X011803Y029144D01*
X011793Y029130D01*
X011786Y029114D01*
X011782Y029097D01*
X011780Y029080D01*
X011780Y028930D01*
X011830Y028880D01*
X011830Y027480D01*
X011780Y027430D01*
X011780Y027280D01*
X011782Y027263D01*
X011786Y027246D01*
X011793Y027230D01*
X011803Y027216D01*
X011816Y027203D01*
X011830Y027193D01*
X011846Y027186D01*
X011863Y027182D01*
X011880Y027180D01*
X012480Y027180D01*
X012497Y027182D01*
X012514Y027186D01*
X012530Y027193D01*
X012544Y027203D01*
X012557Y027216D01*
X012567Y027230D01*
X012574Y027246D01*
X012578Y027263D01*
X012580Y027280D01*
X012580Y027430D01*
X012530Y027480D01*
X012530Y028880D01*
X012580Y028930D01*
X011580Y028930D02*
X011580Y029080D01*
X011578Y029097D01*
X011574Y029114D01*
X011567Y029130D01*
X011557Y029144D01*
X011544Y029157D01*
X011530Y029167D01*
X011514Y029174D01*
X011497Y029178D01*
X011480Y029180D01*
X010880Y029180D01*
X010863Y029178D01*
X010846Y029174D01*
X010830Y029167D01*
X010816Y029157D01*
X010803Y029144D01*
X010793Y029130D01*
X010786Y029114D01*
X010782Y029097D01*
X010780Y029080D01*
X010780Y028930D01*
X010830Y028880D01*
X010830Y027480D01*
X010780Y027430D01*
X010780Y027280D01*
X010782Y027263D01*
X010786Y027246D01*
X010793Y027230D01*
X010803Y027216D01*
X010816Y027203D01*
X010830Y027193D01*
X010846Y027186D01*
X010863Y027182D01*
X010880Y027180D01*
X011480Y027180D01*
X011497Y027182D01*
X011514Y027186D01*
X011530Y027193D01*
X011544Y027203D01*
X011557Y027216D01*
X011567Y027230D01*
X011574Y027246D01*
X011578Y027263D01*
X011580Y027280D01*
X011580Y027430D01*
X011530Y027480D01*
X011530Y028880D01*
X011580Y028930D01*
X010580Y028930D02*
X010580Y029080D01*
X010578Y029097D01*
X010574Y029114D01*
X010567Y029130D01*
X010557Y029144D01*
X010544Y029157D01*
X010530Y029167D01*
X010514Y029174D01*
X010497Y029178D01*
X010480Y029180D01*
X009880Y029180D01*
X009863Y029178D01*
X009846Y029174D01*
X009830Y029167D01*
X009816Y029157D01*
X009803Y029144D01*
X009793Y029130D01*
X009786Y029114D01*
X009782Y029097D01*
X009780Y029080D01*
X009780Y028930D01*
X009830Y028880D01*
X009830Y027480D01*
X009780Y027430D01*
X009780Y027280D01*
X009782Y027263D01*
X009786Y027246D01*
X009793Y027230D01*
X009803Y027216D01*
X009816Y027203D01*
X009830Y027193D01*
X009846Y027186D01*
X009863Y027182D01*
X009880Y027180D01*
X010480Y027180D01*
X010497Y027182D01*
X010514Y027186D01*
X010530Y027193D01*
X010544Y027203D01*
X010557Y027216D01*
X010567Y027230D01*
X010574Y027246D01*
X010578Y027263D01*
X010580Y027280D01*
X010580Y027430D01*
X010530Y027480D01*
X010530Y028880D01*
X010580Y028930D01*
X009580Y028930D02*
X009580Y029080D01*
X009578Y029097D01*
X009574Y029114D01*
X009567Y029130D01*
X009557Y029144D01*
X009544Y029157D01*
X009530Y029167D01*
X009514Y029174D01*
X009497Y029178D01*
X009480Y029180D01*
X008880Y029180D01*
X008863Y029178D01*
X008846Y029174D01*
X008830Y029167D01*
X008816Y029157D01*
X008803Y029144D01*
X008793Y029130D01*
X008786Y029114D01*
X008782Y029097D01*
X008780Y029080D01*
X008780Y028930D01*
X008830Y028880D01*
X008830Y027480D01*
X008780Y027430D01*
X008780Y027280D01*
X008782Y027263D01*
X008786Y027246D01*
X008793Y027230D01*
X008803Y027216D01*
X008816Y027203D01*
X008830Y027193D01*
X008846Y027186D01*
X008863Y027182D01*
X008880Y027180D01*
X009480Y027180D01*
X009497Y027182D01*
X009514Y027186D01*
X009530Y027193D01*
X009544Y027203D01*
X009557Y027216D01*
X009567Y027230D01*
X009574Y027246D01*
X009578Y027263D01*
X009580Y027280D01*
X009580Y027430D01*
X009530Y027480D01*
X009530Y028880D01*
X009580Y028930D01*
X008580Y028930D02*
X008580Y029080D01*
X008578Y029097D01*
X008574Y029114D01*
X008567Y029130D01*
X008557Y029144D01*
X008544Y029157D01*
X008530Y029167D01*
X008514Y029174D01*
X008497Y029178D01*
X008480Y029180D01*
X007880Y029180D01*
X007863Y029178D01*
X007846Y029174D01*
X007830Y029167D01*
X007816Y029157D01*
X007803Y029144D01*
X007793Y029130D01*
X007786Y029114D01*
X007782Y029097D01*
X007780Y029080D01*
X007780Y028930D01*
X007830Y028880D01*
X007830Y027480D01*
X007780Y027430D01*
X007780Y027280D01*
X007782Y027263D01*
X007786Y027246D01*
X007793Y027230D01*
X007803Y027216D01*
X007816Y027203D01*
X007830Y027193D01*
X007846Y027186D01*
X007863Y027182D01*
X007880Y027180D01*
X008480Y027180D01*
X008497Y027182D01*
X008514Y027186D01*
X008530Y027193D01*
X008544Y027203D01*
X008557Y027216D01*
X008567Y027230D01*
X008574Y027246D01*
X008578Y027263D01*
X008580Y027280D01*
X008580Y027430D01*
X008530Y027480D01*
X008530Y028880D01*
X008580Y028930D01*
X007580Y028930D02*
X007580Y029080D01*
X007578Y029097D01*
X007574Y029114D01*
X007567Y029130D01*
X007557Y029144D01*
X007544Y029157D01*
X007530Y029167D01*
X007514Y029174D01*
X007497Y029178D01*
X007480Y029180D01*
X006880Y029180D01*
X006863Y029178D01*
X006846Y029174D01*
X006830Y029167D01*
X006816Y029157D01*
X006803Y029144D01*
X006793Y029130D01*
X006786Y029114D01*
X006782Y029097D01*
X006780Y029080D01*
X006780Y028930D01*
X006830Y028880D01*
X006830Y027480D01*
X006780Y027430D01*
X006780Y027280D01*
X006782Y027263D01*
X006786Y027246D01*
X006793Y027230D01*
X006803Y027216D01*
X006816Y027203D01*
X006830Y027193D01*
X006846Y027186D01*
X006863Y027182D01*
X006880Y027180D01*
X007480Y027180D01*
X007497Y027182D01*
X007514Y027186D01*
X007530Y027193D01*
X007544Y027203D01*
X007557Y027216D01*
X007567Y027230D01*
X007574Y027246D01*
X007578Y027263D01*
X007580Y027280D01*
X007580Y027430D01*
X007530Y027480D01*
X007530Y028880D01*
X007580Y028930D01*
X004680Y031780D02*
X004580Y031680D01*
X003780Y031680D01*
X003680Y031780D01*
X003580Y031680D01*
X002780Y031680D01*
X002680Y031780D01*
X002680Y032580D01*
X002780Y032680D01*
X003580Y032680D01*
X003680Y032580D01*
X003780Y032680D01*
X004580Y032680D01*
X004680Y032580D01*
X004680Y031780D01*
X003430Y030680D02*
X003680Y030430D01*
X003680Y029930D01*
X003430Y029680D01*
X003680Y029430D01*
X003680Y028930D01*
X003430Y028680D01*
X003680Y028430D01*
X003680Y027930D01*
X003430Y027680D01*
X003680Y027430D01*
X003680Y026930D01*
X003430Y026680D01*
X003680Y026430D01*
X003680Y025930D01*
X003430Y025680D01*
X002930Y025680D01*
X002680Y025930D01*
X002680Y026430D01*
X002930Y026680D01*
X002680Y026930D01*
X002680Y027430D01*
X002930Y027680D01*
X002680Y027930D01*
X002680Y028430D01*
X002930Y028680D01*
X002680Y028930D01*
X002680Y029430D01*
X002930Y029680D01*
X002680Y029930D01*
X002680Y030430D01*
X002930Y030680D01*
X003430Y030680D01*
X011230Y025080D02*
X011230Y024280D01*
X011232Y024263D01*
X011236Y024246D01*
X011243Y024230D01*
X011253Y024216D01*
X011266Y024203D01*
X011280Y024193D01*
X011296Y024186D01*
X011313Y024182D01*
X011330Y024180D01*
X013030Y024180D01*
X013047Y024182D01*
X013064Y024186D01*
X013080Y024193D01*
X013094Y024203D01*
X013107Y024216D01*
X013117Y024230D01*
X013124Y024246D01*
X013128Y024263D01*
X013130Y024280D01*
X013130Y025080D01*
X013128Y025097D01*
X013124Y025114D01*
X013117Y025130D01*
X013107Y025144D01*
X013094Y025157D01*
X013080Y025167D01*
X013064Y025174D01*
X013047Y025178D01*
X013030Y025180D01*
X011330Y025180D01*
X011313Y025178D01*
X011296Y025174D01*
X011280Y025167D01*
X011266Y025157D01*
X011253Y025144D01*
X011243Y025130D01*
X011236Y025114D01*
X011232Y025097D01*
X011230Y025080D01*
X012030Y024680D02*
X012080Y024680D01*
X012280Y024680D02*
X012330Y024680D01*
X012030Y022680D02*
X010330Y022680D01*
X010313Y022678D01*
X010296Y022674D01*
X010280Y022667D01*
X010266Y022657D01*
X010253Y022644D01*
X010243Y022630D01*
X010236Y022614D01*
X010232Y022597D01*
X010230Y022580D01*
X010230Y021780D01*
X010232Y021763D01*
X010236Y021746D01*
X010243Y021730D01*
X010253Y021716D01*
X010266Y021703D01*
X010280Y021693D01*
X010296Y021686D01*
X010313Y021682D01*
X010330Y021680D01*
X012030Y021680D01*
X012047Y021682D01*
X012064Y021686D01*
X012080Y021693D01*
X012094Y021703D01*
X012107Y021716D01*
X012117Y021730D01*
X012124Y021746D01*
X012128Y021763D01*
X012130Y021780D01*
X012130Y022580D01*
X012128Y022597D01*
X012124Y022614D01*
X012117Y022630D01*
X012107Y022644D01*
X012094Y022657D01*
X012080Y022667D01*
X012064Y022674D01*
X012047Y022678D01*
X012030Y022680D01*
X011330Y022180D02*
X011280Y022180D01*
X011080Y022180D02*
X011030Y022180D01*
X006580Y017680D02*
X005780Y017680D01*
X005680Y017580D01*
X005580Y017680D01*
X004780Y017680D01*
X004680Y017580D01*
X004680Y016780D01*
X004780Y016680D01*
X005580Y016680D01*
X005680Y016780D01*
X005780Y016680D01*
X006580Y016680D01*
X006680Y016780D01*
X006680Y017580D01*
X006580Y017680D01*
X006646Y015001D02*
X006540Y014894D01*
X006540Y014467D01*
X006646Y014360D01*
X006860Y014360D01*
X006967Y014467D01*
X007184Y014360D02*
X007611Y014360D01*
X007398Y014360D02*
X007398Y015001D01*
X007184Y014787D01*
X006967Y014894D02*
X006860Y015001D01*
X006646Y015001D01*
X006324Y015001D02*
X006110Y015001D01*
X006217Y015001D02*
X006217Y014360D01*
X006110Y014360D02*
X006324Y014360D01*
X009730Y016280D02*
X009730Y017080D01*
X009732Y017097D01*
X009736Y017114D01*
X009743Y017130D01*
X009753Y017144D01*
X009766Y017157D01*
X009780Y017167D01*
X009796Y017174D01*
X009813Y017178D01*
X009830Y017180D01*
X011530Y017180D01*
X011547Y017178D01*
X011564Y017174D01*
X011580Y017167D01*
X011594Y017157D01*
X011607Y017144D01*
X011617Y017130D01*
X011624Y017114D01*
X011628Y017097D01*
X011630Y017080D01*
X011630Y016280D01*
X011628Y016263D01*
X011624Y016246D01*
X011617Y016230D01*
X011607Y016216D01*
X011594Y016203D01*
X011580Y016193D01*
X011564Y016186D01*
X011547Y016182D01*
X011530Y016180D01*
X009830Y016180D01*
X009813Y016182D01*
X009796Y016186D01*
X009780Y016193D01*
X009766Y016203D01*
X009753Y016216D01*
X009743Y016230D01*
X009736Y016246D01*
X009732Y016263D01*
X009730Y016280D01*
X010530Y016680D02*
X010580Y016680D01*
X010780Y016680D02*
X010830Y016680D01*
D15*
X010780Y016680D02*
X010780Y016980D01*
X010580Y016980D02*
X010580Y016680D01*
X010580Y016380D01*
X010780Y016380D02*
X010780Y016680D01*
X011080Y021880D02*
X011080Y022180D01*
X011080Y022480D01*
X011280Y022480D02*
X011280Y022180D01*
X011280Y021880D01*
X012080Y024380D02*
X012080Y024680D01*
X012080Y024980D01*
X012280Y024980D02*
X012280Y024680D01*
X012280Y024380D01*
X015380Y028080D02*
X015680Y028080D01*
X015980Y028080D01*
X015980Y028280D02*
X015680Y028280D01*
X015380Y028280D01*
X021380Y026780D02*
X021680Y026780D01*
X021980Y026780D01*
X021980Y026580D02*
X021680Y026580D01*
X021380Y026580D01*
X028080Y024980D02*
X028080Y024680D01*
X028080Y024380D01*
X028280Y024380D02*
X028280Y024680D01*
X028280Y024980D01*
X033380Y020280D02*
X033680Y020280D01*
X033980Y020280D01*
X033980Y020080D02*
X033680Y020080D01*
X033380Y020080D01*
X030280Y013480D02*
X030280Y013180D01*
X030280Y012880D01*
X030080Y012880D02*
X030080Y013180D01*
X030080Y013480D01*
X029980Y010780D02*
X029680Y010780D01*
X029380Y010780D01*
X029380Y010580D02*
X029680Y010580D01*
X029980Y010580D01*
X029980Y008280D02*
X029680Y008280D01*
X029380Y008280D01*
X029380Y008080D02*
X029680Y008080D01*
X029980Y008080D01*
X029980Y005780D02*
X029680Y005780D01*
X029380Y005780D01*
X029380Y005580D02*
X029680Y005580D01*
X029980Y005580D01*
X030080Y003480D02*
X030080Y003180D01*
X030080Y002880D01*
X030280Y002880D02*
X030280Y003180D01*
X030280Y003480D01*
X020980Y003280D02*
X020680Y003280D01*
X020380Y003280D01*
X020380Y003080D02*
X020680Y003080D01*
X020980Y003080D01*
X018780Y016380D02*
X018780Y016680D01*
X018780Y016980D01*
X018580Y016980D02*
X018580Y016680D01*
X018580Y016380D01*
D16*
X027680Y027830D03*
X028680Y028330D03*
D17*
X028680Y028705D03*
X027680Y028205D03*
X028680Y026655D03*
X027680Y026155D03*
D18*
X015810Y015190D02*
X015705Y015296D01*
X015494Y015296D01*
X015389Y015190D01*
X015165Y015190D02*
X015060Y015296D01*
X014850Y015296D01*
X014745Y015190D01*
X014745Y014770D01*
X014850Y014665D01*
X015060Y014665D01*
X015165Y014770D01*
X015389Y014665D02*
X015810Y015085D01*
X015810Y015190D01*
X015810Y014665D02*
X015389Y014665D01*
X014525Y014665D02*
X014315Y014665D01*
X014420Y014665D02*
X014420Y015296D01*
X014315Y015296D02*
X014525Y015296D01*
X008325Y018715D02*
X008325Y018925D01*
X008325Y018820D02*
X007694Y018820D01*
X007694Y018715D02*
X007694Y018925D01*
X007800Y019145D02*
X007694Y019250D01*
X007694Y019460D01*
X007800Y019565D01*
X008010Y019789D02*
X008010Y020210D01*
X008325Y020105D02*
X007694Y020105D01*
X008010Y019789D01*
X008220Y019565D02*
X008325Y019460D01*
X008325Y019250D01*
X008220Y019145D01*
X007800Y019145D01*
D19*
X007230Y017545D02*
X007305Y017470D01*
X007305Y017320D01*
X007230Y017245D01*
X007080Y017395D02*
X007080Y017470D01*
X007155Y017545D01*
X007230Y017545D01*
X007080Y017470D02*
X007005Y017545D01*
X006930Y017545D01*
X006855Y017470D01*
X006855Y017320D01*
X006930Y017245D01*
X006930Y017084D02*
X007080Y017084D01*
X007155Y017009D01*
X007155Y016784D01*
X007305Y016784D02*
X006855Y016784D01*
X006855Y017009D01*
X006930Y017084D01*
X006855Y016624D02*
X006855Y016474D01*
X006855Y016549D02*
X007230Y016549D01*
X007305Y016474D01*
X007305Y016399D01*
X007230Y016324D01*
X003680Y023180D02*
X002680Y023180D01*
X002680Y024180D01*
X003680Y024180D01*
X003680Y023180D01*
X003680Y023184D02*
X002680Y023184D01*
X002680Y023233D02*
X003680Y023233D01*
X003680Y023281D02*
X002680Y023281D01*
X002680Y023330D02*
X003680Y023330D01*
X003680Y023378D02*
X002680Y023378D01*
X002680Y023427D02*
X003680Y023427D01*
X003680Y023475D02*
X002680Y023475D01*
X002680Y023524D02*
X003680Y023524D01*
X003680Y023572D02*
X002680Y023572D01*
X002680Y023621D02*
X003680Y023621D01*
X003680Y023669D02*
X002680Y023669D01*
X002680Y023718D02*
X003680Y023718D01*
X003680Y023766D02*
X002680Y023766D01*
X002680Y023815D02*
X003680Y023815D01*
X003680Y023863D02*
X002680Y023863D01*
X002680Y023912D02*
X003680Y023912D01*
X003680Y023960D02*
X002680Y023960D01*
X002680Y024009D02*
X003680Y024009D01*
X003680Y024057D02*
X002680Y024057D01*
X002680Y024106D02*
X003680Y024106D01*
X003680Y024154D02*
X002680Y024154D01*
X003855Y025995D02*
X004080Y025995D01*
X004005Y026145D01*
X004005Y026220D01*
X004080Y026295D01*
X004230Y026295D01*
X004305Y026220D01*
X004305Y026070D01*
X004230Y025995D01*
X003855Y025995D02*
X003855Y026295D01*
X002505Y029995D02*
X002505Y030295D01*
X002505Y030145D02*
X002055Y030145D01*
X002205Y029995D01*
X002780Y032855D02*
X002855Y032855D01*
X002930Y032930D01*
X002930Y033305D01*
X002855Y033305D02*
X003005Y033305D01*
X003165Y033305D02*
X003391Y033305D01*
X003466Y033230D01*
X003466Y033080D01*
X003391Y033005D01*
X003165Y033005D01*
X003165Y032855D02*
X003165Y033305D01*
X003626Y033080D02*
X003926Y033080D01*
X003851Y032855D02*
X003851Y033305D01*
X003626Y033080D01*
X002780Y032855D02*
X002705Y032930D01*
X018655Y020459D02*
X018995Y020459D01*
X018995Y020346D02*
X018995Y020573D01*
X018768Y020346D02*
X018655Y020459D01*
X018711Y019573D02*
X018655Y019516D01*
X018655Y019403D01*
X018711Y019346D01*
X018711Y019573D02*
X018768Y019573D01*
X018995Y019346D01*
X018995Y019573D01*
X018938Y018573D02*
X018995Y018516D01*
X018995Y018403D01*
X018938Y018346D01*
X018825Y018459D02*
X018825Y018516D01*
X018882Y018573D01*
X018938Y018573D01*
X018825Y018516D02*
X018768Y018573D01*
X018711Y018573D01*
X018655Y018516D01*
X018655Y018403D01*
X018711Y018346D01*
X018874Y018005D02*
X019024Y018005D01*
X018949Y018005D02*
X018949Y017630D01*
X018874Y017555D01*
X018799Y017555D01*
X018724Y017630D01*
X019184Y017555D02*
X019184Y018005D01*
X019409Y018005D01*
X019484Y017930D01*
X019484Y017780D01*
X019409Y017705D01*
X019184Y017705D01*
X019645Y017555D02*
X019945Y017555D01*
X019795Y017555D02*
X019795Y018005D01*
X019645Y017855D01*
X027705Y019814D02*
X027705Y020039D01*
X027780Y020114D01*
X027930Y020114D01*
X028005Y020039D01*
X028005Y019814D01*
X028005Y019964D02*
X028155Y020114D01*
X028155Y020274D02*
X027705Y020274D01*
X028155Y020574D01*
X027705Y020574D01*
X027855Y020735D02*
X027705Y020885D01*
X028155Y020885D01*
X028155Y020735D02*
X028155Y021035D01*
X029005Y021359D02*
X029118Y021246D01*
X029005Y021359D02*
X029345Y021359D01*
X029345Y021246D02*
X029345Y021473D01*
X030005Y019745D02*
X030005Y019445D01*
X030005Y019595D02*
X029555Y019595D01*
X029705Y019445D01*
X029705Y018745D02*
X029630Y018745D01*
X029555Y018670D01*
X029555Y018520D01*
X029630Y018445D01*
X029705Y018745D02*
X030005Y018445D01*
X030005Y018745D01*
X029930Y017745D02*
X030005Y017670D01*
X030005Y017520D01*
X029930Y017445D01*
X029780Y017595D02*
X029780Y017670D01*
X029855Y017745D01*
X029930Y017745D01*
X029780Y017670D02*
X029705Y017745D01*
X029630Y017745D01*
X029555Y017670D01*
X029555Y017520D01*
X029630Y017445D01*
X029780Y016745D02*
X029780Y016445D01*
X029555Y016670D01*
X030005Y016670D01*
X029930Y015745D02*
X030005Y015670D01*
X030005Y015520D01*
X029930Y015445D01*
X029780Y015445D02*
X029705Y015595D01*
X029705Y015670D01*
X029780Y015745D01*
X029930Y015745D01*
X029780Y015445D02*
X029555Y015445D01*
X029555Y015745D01*
X029555Y014745D02*
X029630Y014595D01*
X029780Y014445D01*
X029780Y014670D01*
X029855Y014745D01*
X029930Y014745D01*
X030005Y014670D01*
X030005Y014520D01*
X029930Y014445D01*
X029780Y014445D01*
X031555Y011305D02*
X031705Y011305D01*
X031630Y011305D02*
X031630Y010855D01*
X031555Y010855D02*
X031705Y010855D01*
X031862Y010930D02*
X031862Y011230D01*
X031937Y011305D01*
X032087Y011305D01*
X032162Y011230D01*
X032322Y011305D02*
X032322Y011080D01*
X032472Y011155D01*
X032548Y011155D01*
X032623Y011080D01*
X032623Y010930D01*
X032548Y010855D01*
X032397Y010855D01*
X032322Y010930D01*
X032162Y010930D02*
X032087Y010855D01*
X031937Y010855D01*
X031862Y010930D01*
X032322Y011305D02*
X032623Y011305D01*
X035030Y006545D02*
X035105Y006545D01*
X035180Y006470D01*
X035255Y006545D01*
X035330Y006545D01*
X035405Y006470D01*
X035405Y006320D01*
X035330Y006245D01*
X035405Y006084D02*
X035405Y005784D01*
X035405Y005934D02*
X034955Y005934D01*
X035105Y005784D01*
X035030Y006245D02*
X034955Y006320D01*
X034955Y006470D01*
X035030Y006545D01*
X035180Y006470D02*
X035180Y006395D01*
X035955Y006545D02*
X035955Y006245D01*
X036180Y006245D01*
X036105Y006395D01*
X036105Y006470D01*
X036180Y006545D01*
X036330Y006545D01*
X036405Y006470D01*
X036405Y006320D01*
X036330Y006245D01*
X036405Y006084D02*
X036405Y005784D01*
X036105Y006084D01*
X036030Y006084D01*
X035955Y006009D01*
X035955Y005859D01*
X036030Y005784D01*
X036780Y003905D02*
X036705Y003830D01*
X036780Y003905D02*
X036930Y003905D01*
X037005Y003830D01*
X037005Y003755D01*
X036705Y003455D01*
X037005Y003455D01*
X037165Y003305D02*
X037316Y003455D01*
X037240Y003455D01*
X037240Y003530D01*
X037316Y003530D01*
X037316Y003455D01*
X037472Y003530D02*
X037547Y003455D01*
X037698Y003455D01*
X037773Y003530D01*
X037773Y003680D01*
X037698Y003755D01*
X037622Y003755D01*
X037472Y003680D01*
X037472Y003905D01*
X037773Y003905D01*
X037933Y003680D02*
X038233Y003680D01*
X038158Y003455D02*
X038158Y003905D01*
X037933Y003680D01*
X034455Y002851D02*
X034455Y002701D01*
X034380Y002626D01*
X034230Y002626D01*
X034230Y002851D01*
X034305Y002926D01*
X034380Y002926D01*
X034455Y002851D01*
X034230Y002626D02*
X034080Y002776D01*
X034005Y002926D01*
X034080Y002466D02*
X034230Y002466D01*
X034305Y002391D01*
X034305Y002165D01*
X034455Y002165D02*
X034005Y002165D01*
X034005Y002391D01*
X034080Y002466D01*
X034005Y002005D02*
X034005Y001855D01*
X034005Y001930D02*
X034380Y001930D01*
X034455Y001855D01*
X034455Y001780D01*
X034380Y001705D01*
X033305Y001430D02*
X033305Y001355D01*
X033005Y001055D01*
X033305Y001055D01*
X033305Y001430D02*
X033230Y001505D01*
X033080Y001505D01*
X033005Y001430D01*
X032305Y001055D02*
X032005Y001055D01*
X032155Y001055D02*
X032155Y001505D01*
X032005Y001355D01*
X032780Y018824D02*
X032855Y018899D01*
X032855Y018974D01*
X032780Y019049D01*
X032405Y019049D01*
X032405Y018974D02*
X032405Y019124D01*
X032405Y019284D02*
X032405Y019509D01*
X032480Y019584D01*
X032630Y019584D01*
X032705Y019509D01*
X032705Y019284D01*
X032855Y019284D02*
X032405Y019284D01*
X032480Y019745D02*
X032405Y019820D01*
X032405Y019970D01*
X032480Y020045D01*
X032555Y020045D01*
X032855Y019745D01*
X032855Y020045D01*
X032805Y021555D02*
X032505Y021555D01*
X032805Y021855D01*
X032805Y021930D01*
X032730Y022005D01*
X032580Y022005D01*
X032505Y021930D01*
X031805Y021555D02*
X031505Y021555D01*
X031655Y021555D02*
X031655Y022005D01*
X031505Y021855D01*
X030880Y023205D02*
X030955Y023280D01*
X030955Y023355D01*
X030880Y023430D01*
X030505Y023430D01*
X030505Y023355D02*
X030505Y023505D01*
X030505Y023665D02*
X030505Y023891D01*
X030580Y023966D01*
X030730Y023966D01*
X030805Y023891D01*
X030805Y023665D01*
X030955Y023665D02*
X030505Y023665D01*
X030505Y024126D02*
X030505Y024426D01*
X030580Y024426D01*
X030880Y024126D01*
X030955Y024126D01*
X034955Y020745D02*
X035405Y020745D01*
X035405Y020595D02*
X035405Y020895D01*
X035105Y020595D02*
X034955Y020745D01*
X035955Y020634D02*
X036405Y020634D01*
X036405Y020484D02*
X036405Y020784D01*
X036180Y020945D02*
X035955Y021170D01*
X036405Y021170D01*
X036180Y021245D02*
X036180Y020945D01*
X035955Y020634D02*
X036105Y020484D01*
X039055Y020595D02*
X039280Y020595D01*
X039205Y020745D01*
X039205Y020820D01*
X039280Y020895D01*
X039430Y020895D01*
X039505Y020820D01*
X039505Y020670D01*
X039430Y020595D01*
X039505Y020434D02*
X039505Y020134D01*
X039205Y020434D01*
X039130Y020434D01*
X039055Y020359D01*
X039055Y020209D01*
X039130Y020134D01*
X039055Y019974D02*
X039055Y019674D01*
X039505Y019674D01*
X039280Y019674D02*
X039280Y019824D01*
X039055Y020595D02*
X039055Y020895D01*
X035530Y029455D02*
X035530Y029905D01*
X035305Y029680D01*
X035605Y029680D01*
X035930Y030305D02*
X036005Y030380D01*
X036005Y030455D01*
X035930Y030530D01*
X035555Y030530D01*
X035555Y030455D02*
X035555Y030605D01*
X035555Y030765D02*
X035555Y030991D01*
X035630Y031066D01*
X035780Y031066D01*
X035855Y030991D01*
X035855Y030765D01*
X036005Y030765D02*
X035555Y030765D01*
X035555Y031226D02*
X035780Y031226D01*
X035705Y031376D01*
X035705Y031451D01*
X035780Y031526D01*
X035930Y031526D01*
X036005Y031451D01*
X036005Y031301D01*
X035930Y031226D01*
X035555Y031226D02*
X035555Y031526D01*
X036346Y031422D02*
X036403Y031365D01*
X036516Y031365D01*
X036573Y031422D01*
X036573Y031478D01*
X036516Y031535D01*
X036459Y031535D01*
X036516Y031535D02*
X036573Y031592D01*
X036573Y031649D01*
X036516Y031705D01*
X036403Y031705D01*
X036346Y031649D01*
X037346Y031649D02*
X037403Y031705D01*
X037516Y031705D01*
X037573Y031649D01*
X037573Y031592D01*
X037346Y031365D01*
X037573Y031365D01*
X038346Y031365D02*
X038573Y031365D01*
X038459Y031365D02*
X038459Y031705D01*
X038346Y031592D01*
X035605Y032680D02*
X035305Y032680D01*
X035530Y032905D01*
X035530Y032455D01*
X031055Y032455D02*
X030755Y032455D01*
X030905Y032455D02*
X030905Y032905D01*
X030755Y032755D01*
X030905Y029905D02*
X030755Y029755D01*
X030905Y029905D02*
X030905Y029455D01*
X030755Y029455D02*
X031055Y029455D01*
X024573Y028805D02*
X024422Y028730D01*
X024272Y028580D01*
X024498Y028580D01*
X024573Y028505D01*
X024573Y028430D01*
X024498Y028355D01*
X024347Y028355D01*
X024272Y028430D01*
X024272Y028580D01*
X024112Y028430D02*
X024037Y028355D01*
X023887Y028355D01*
X023812Y028430D01*
X023812Y028730D01*
X023887Y028805D01*
X024037Y028805D01*
X024112Y028730D01*
X023655Y028805D02*
X023505Y028805D01*
X023580Y028805D02*
X023580Y028355D01*
X023505Y028355D02*
X023655Y028355D01*
X027705Y019814D02*
X028155Y019814D01*
D20*
X033180Y015755D03*
X033180Y013605D03*
X033180Y025605D03*
X032180Y025605D03*
X031180Y025605D03*
X030180Y025605D03*
X030180Y027755D03*
X031180Y027755D03*
X032180Y027755D03*
X033180Y027755D03*
X034180Y027755D03*
X034180Y025605D03*
X026680Y026105D03*
X026680Y028255D03*
X020180Y029255D03*
X019180Y029255D03*
X018180Y029255D03*
X017180Y029255D03*
X017180Y027105D03*
X018180Y027105D03*
X019180Y027105D03*
X020180Y027105D03*
X014680Y027105D03*
X013180Y027105D03*
X012180Y027105D03*
X011180Y027105D03*
X010180Y027105D03*
X009180Y027105D03*
X008180Y027105D03*
X007180Y027105D03*
X007180Y029255D03*
X008180Y029255D03*
X009180Y029255D03*
X010180Y029255D03*
X011180Y029255D03*
X012180Y029255D03*
X013180Y029255D03*
X014680Y029255D03*
X018530Y020755D03*
X018530Y018605D03*
D21*
X018105Y025680D03*
X020255Y025680D03*
D22*
X038530Y013680D03*
D23*
X040180Y013680D03*
D24*
X036955Y013680D03*
X036955Y014760D03*
X036955Y015850D03*
X036955Y016940D03*
X036955Y018030D03*
X036955Y019110D03*
X036955Y020200D03*
X036955Y012590D03*
X036955Y011510D03*
X036955Y010420D03*
X036955Y009330D03*
X036955Y008250D03*
X036955Y007160D03*
D25*
X037455Y007710D03*
X037455Y008800D03*
X037455Y009880D03*
X037455Y010960D03*
X037455Y012050D03*
X037455Y013140D03*
X037455Y014220D03*
X037455Y015310D03*
X037455Y016400D03*
X037455Y017480D03*
X037455Y018570D03*
X037455Y019660D03*
D26*
X035645Y024987D02*
X035645Y025617D01*
X035645Y024987D02*
X041274Y024987D01*
X041274Y028373D01*
X038145Y028373D01*
X036274Y028373D02*
X035645Y028373D01*
X035645Y027743D01*
M02*
