%
M48
M72
T01C0.0240
T02C0.0320
T03C0.0360
T04C0.0394
T05C0.0400
T06C0.0900
T07C0.1083
T08C0.1250
T09C0.1300
%
T01
X4530Y1380
X4330Y4180
X4330Y6180
X4380Y7730
X4380Y8880
X6080Y10080
X6580Y9230
X6580Y8730
X7280Y9380
X8330Y9380
X8830Y9180
X7830Y6830
X10330Y4180
X14480Y6430
X15580Y7180
X15830Y6430
X15680Y5730
X17380Y4830
X18330Y6380
X16780Y7380
X17730Y8980
X17530Y9680
X18130Y11030
X16530Y12630
X15780Y12980
X15430Y14730
X15080Y15880
X14730Y18980
X12730Y20280
X12680Y21780
X13480Y23280
X14830Y25430
X16280Y26830
X15230Y27330
X16380Y28130
X16080Y29430
X14430Y28780
X8630Y27730
X8130Y28730
X7180Y29080
X7680Y23730
X8580Y22180
X5230Y19330
X4980Y20030
X6780Y17630
X8730Y14080
X7630Y12980
X6430Y12780
X2780Y14130
X11680Y19030
X19230Y18080
X22430Y19780
X20980Y21630
X22930Y22230
X25230Y17430
X24130Y16530
X25230Y16130
X26030Y11980
X32980Y15130
X29730Y25730
X30830Y26830
X14430Y10730
X14130Y8980
X15080Y8980
X17380Y1880
X30130Y1730
T02
X29680Y3180
X30680Y3180
X30680Y4680
X29680Y5180
X30680Y5680
X29680Y6180
X30680Y6680
X30680Y7680
X30680Y8680
X29680Y8680
X29680Y7680
X27680Y7180
X27680Y6180
X27680Y5180
X27680Y4180
X27680Y3180
X27680Y2180
X21680Y2180
X20680Y2680
X21680Y3180
X21680Y4180
X20680Y3680
X19180Y3180
X19180Y4180
X19180Y5180
X19180Y6180
X19180Y7180
X19180Y8180
X19180Y9180
X19180Y10180
X19180Y11180
X19180Y12180
X19180Y13180
X19180Y14180
X19180Y15180
X19180Y16680
X18180Y16680
X18530Y18180
X17180Y18180
X16180Y18180
X15180Y18180
X14180Y18180
X13180Y18180
X12180Y18180
X11180Y18180
X10180Y18180
X9180Y18180
X8180Y18180
X10180Y16680
X11180Y16680
X11180Y15180
X11180Y14180
X11180Y13180
X11180Y12180
X11180Y11180
X11180Y10180
X11180Y9180
X11180Y8180
X11180Y7180
X11180Y6180
X11180Y5180
X11180Y4180
X11180Y3180
X11180Y2180
X13180Y2180
X13180Y3180
X13180Y4180
X13180Y5180
X13180Y6180
X13180Y7180
X13180Y8180
X13180Y9180
X13180Y10180
X13180Y11180
X13180Y12180
X13180Y13180
X13180Y14180
X13180Y15180
X13180Y21180
X12180Y21180
X11180Y21180
X10180Y21180
X9180Y21180
X8180Y21180
X10680Y22180
X11680Y22180
X14180Y21180
X15180Y21180
X16180Y21180
X17180Y21180
X18530Y21180
X21680Y21180
X21680Y20180
X21680Y19180
X21680Y18180
X21680Y17180
X21680Y16180
X21680Y15180
X21680Y14180
X21680Y13180
X21680Y12180
X21680Y11180
X21680Y10180
X21680Y9180
X21680Y8180
X21680Y7180
X21680Y6180
X21680Y5180
X19180Y2180
X27680Y8180
X27680Y9180
X27680Y10180
X27680Y11180
X27680Y12180
X27680Y13180
X27680Y14180
X27680Y15180
X27680Y16180
X27680Y17180
X27680Y18180
X27680Y19180
X27680Y20180
X27680Y21180
X29180Y20680
X29180Y19680
X29180Y18680
X29180Y17680
X29180Y16680
X29180Y15680
X29180Y14680
X29680Y13180
X30680Y13180
X30680Y11680
X29680Y11180
X30680Y10680
X29680Y10180
X30680Y9680
X33680Y9680
X33680Y8680
X33680Y7680
X33680Y6680
X33680Y5680
X33680Y4680
X33680Y10680
X33680Y11680
X33180Y13180
X33180Y16180
X33680Y19680
X33680Y20680
X28680Y24680
X27680Y24680
X27680Y25680
X26680Y25680
X25680Y25180
X25680Y24180
X25680Y23180
X22680Y23180
X22680Y24180
X22680Y25180
X22680Y26180
X22680Y27180
X21680Y27180
X21680Y26180
X20680Y25680
X20180Y26680
X19180Y26680
X18180Y26680
X17180Y26680
X17680Y25680
X15680Y27680
X15680Y28680
X14680Y29680
X13180Y29680
X12180Y29680
X11180Y29680
X10180Y29680
X9180Y29680
X8180Y29680
X7180Y29680
X7180Y26680
X8180Y26680
X9180Y26680
X10180Y26680
X11180Y26680
X12180Y26680
X13180Y26680
X14680Y26680
X12680Y24680
X11680Y24680
X17180Y29680
X18180Y29680
X19180Y29680
X20180Y29680
X22680Y29180
X22680Y28180
X25680Y28180
X25680Y27180
X25680Y26180
X26680Y28680
X27680Y28680
X28680Y29180
X30180Y28180
X31180Y28180
X32180Y28180
X33180Y28180
X34180Y28180
X34180Y25180
X33180Y25180
X32180Y25180
X31180Y25180
X30180Y25180
X28680Y26180
X25680Y29180
X5180Y15180
X5180Y14180
X5180Y13180
X5180Y12180
X5180Y11180
X5180Y10180
X5180Y9180
X5180Y8180
X5180Y7180
X5180Y6180
X5180Y5180
X5180Y4180
X5180Y3180
X5180Y2180
T03
X5180Y17180
X6180Y17180
X19680Y18680
X19680Y19680
X19680Y20680
X30680Y19680
X31680Y19680
X31680Y18680
X30680Y18680
X30680Y17680
X31680Y17680
X31680Y16680
X30680Y16680
X30680Y15680
X30680Y14680
X31680Y14680
X31680Y15680
X31680Y22680
X31680Y23680
X32680Y23680
X32680Y22680
X36680Y30680
X37680Y30680
X38680Y30680
X33180Y3180
X32180Y3180
X32180Y2180
X33180Y2180
X4180Y32180
X3180Y32180
T04
X8180Y32208
X9180Y32208
X10180Y32208
X11180Y32208
X12180Y32208
X13180Y32208
X14180Y32208
X15180Y32208
X16180Y32208
X17180Y32208
X18180Y32208
X19180Y32208
X20180Y32208
X21180Y32208
X22180Y32208
X23180Y32208
X24180Y32208
X25180Y32208
X26180Y32208
X27180Y32208
X27180Y31208
X26180Y31208
X25180Y31208
X24180Y31208
X23180Y31208
X22180Y31208
X21180Y31208
X20180Y31208
X19180Y31208
X18180Y31208
X17180Y31208
X16180Y31208
X15180Y31208
X14180Y31208
X13180Y31208
X12180Y31208
X11180Y31208
X10180Y31208
X9180Y31208
X8180Y31208
T05
X3180Y30180
X3180Y29180
X3180Y28180
X3180Y27180
X3180Y26180
X3180Y23680
X3180Y22680
X2180Y22680
X2180Y23680
X2180Y21680
X3180Y21680
X3180Y20680
X2180Y20680
X2180Y19680
X3180Y19680
X3180Y18680
X2180Y18680
X2180Y17680
X3180Y17680
X3180Y16680
X2180Y16680
X2180Y15680
X2180Y14680
X3180Y14680
X3180Y15680
X3180Y13680
X2180Y13680
X2180Y12680
X3180Y12680
X3180Y11680
X2180Y11680
X2180Y10680
X3180Y10680
X3180Y9680
X2180Y9680
X2180Y8680
X2180Y7680
X3180Y7680
X3180Y8680
X3180Y6680
X2180Y6680
X2180Y5680
X3180Y5680
X3180Y4680
X2180Y4680
X10680Y24680
X15680Y26680
X26680Y24680
X31680Y29680
X32680Y29680
X33680Y29680
X34680Y29680
X34680Y32680
X33680Y32680
X32680Y32680
X31680Y32680
X35180Y20200
X36180Y19660
X35180Y19110
X36180Y18570
X35180Y18030
X36180Y17480
X35180Y16940
X36180Y16400
X35180Y15850
X34380Y15830
X34380Y14830
X35180Y14770
X36180Y15310
X36180Y14220
X35180Y13680
X36180Y13140
X35180Y12590
X36180Y12050
X35180Y11510
X36180Y10960
X35180Y10420
X36180Y9880
X35180Y9330
X36180Y8790
X35180Y8250
X36180Y7700
X35180Y7160
X34180Y13180
T06
X38361Y26680
X37180Y28570
T07
X29097Y31708
X29097Y22652
X6263Y22652
X6263Y31708
T08
X1680Y1680
X35960Y26680
X38680Y32680
X1680Y32680
X38680Y1680
T09
X35680Y4420
X35680Y22940
M30
