G75*
%MOIN*%
%OFA0B0*%
%FSLAX24Y24*%
%IPPOS*%
%LPD*%
%AMOC8*
5,1,8,0,0,1.08239X$1,22.5*
%
%ADD10C,0.0000*%
D10*
X000680Y000680D02*
X000680Y033680D01*
X039680Y033680D01*
X039680Y000680D01*
X000680Y000680D01*
X001055Y001680D02*
X001057Y001730D01*
X001063Y001779D01*
X001073Y001828D01*
X001086Y001875D01*
X001104Y001922D01*
X001125Y001967D01*
X001149Y002010D01*
X001177Y002051D01*
X001208Y002090D01*
X001242Y002126D01*
X001279Y002160D01*
X001319Y002190D01*
X001360Y002217D01*
X001404Y002241D01*
X001449Y002261D01*
X001496Y002277D01*
X001544Y002290D01*
X001593Y002299D01*
X001643Y002304D01*
X001692Y002305D01*
X001742Y002302D01*
X001791Y002295D01*
X001840Y002284D01*
X001887Y002270D01*
X001933Y002251D01*
X001978Y002229D01*
X002021Y002204D01*
X002061Y002175D01*
X002099Y002143D01*
X002135Y002109D01*
X002168Y002071D01*
X002197Y002031D01*
X002223Y001989D01*
X002246Y001945D01*
X002265Y001899D01*
X002281Y001852D01*
X002293Y001803D01*
X002301Y001754D01*
X002305Y001705D01*
X002305Y001655D01*
X002301Y001606D01*
X002293Y001557D01*
X002281Y001508D01*
X002265Y001461D01*
X002246Y001415D01*
X002223Y001371D01*
X002197Y001329D01*
X002168Y001289D01*
X002135Y001251D01*
X002099Y001217D01*
X002061Y001185D01*
X002021Y001156D01*
X001978Y001131D01*
X001933Y001109D01*
X001887Y001090D01*
X001840Y001076D01*
X001791Y001065D01*
X001742Y001058D01*
X001692Y001055D01*
X001643Y001056D01*
X001593Y001061D01*
X001544Y001070D01*
X001496Y001083D01*
X001449Y001099D01*
X001404Y001119D01*
X001360Y001143D01*
X001319Y001170D01*
X001279Y001200D01*
X001242Y001234D01*
X001208Y001270D01*
X001177Y001309D01*
X001149Y001350D01*
X001125Y001393D01*
X001104Y001438D01*
X001086Y001485D01*
X001073Y001532D01*
X001063Y001581D01*
X001057Y001630D01*
X001055Y001680D01*
X038055Y001680D02*
X038057Y001730D01*
X038063Y001779D01*
X038073Y001828D01*
X038086Y001875D01*
X038104Y001922D01*
X038125Y001967D01*
X038149Y002010D01*
X038177Y002051D01*
X038208Y002090D01*
X038242Y002126D01*
X038279Y002160D01*
X038319Y002190D01*
X038360Y002217D01*
X038404Y002241D01*
X038449Y002261D01*
X038496Y002277D01*
X038544Y002290D01*
X038593Y002299D01*
X038643Y002304D01*
X038692Y002305D01*
X038742Y002302D01*
X038791Y002295D01*
X038840Y002284D01*
X038887Y002270D01*
X038933Y002251D01*
X038978Y002229D01*
X039021Y002204D01*
X039061Y002175D01*
X039099Y002143D01*
X039135Y002109D01*
X039168Y002071D01*
X039197Y002031D01*
X039223Y001989D01*
X039246Y001945D01*
X039265Y001899D01*
X039281Y001852D01*
X039293Y001803D01*
X039301Y001754D01*
X039305Y001705D01*
X039305Y001655D01*
X039301Y001606D01*
X039293Y001557D01*
X039281Y001508D01*
X039265Y001461D01*
X039246Y001415D01*
X039223Y001371D01*
X039197Y001329D01*
X039168Y001289D01*
X039135Y001251D01*
X039099Y001217D01*
X039061Y001185D01*
X039021Y001156D01*
X038978Y001131D01*
X038933Y001109D01*
X038887Y001090D01*
X038840Y001076D01*
X038791Y001065D01*
X038742Y001058D01*
X038692Y001055D01*
X038643Y001056D01*
X038593Y001061D01*
X038544Y001070D01*
X038496Y001083D01*
X038449Y001099D01*
X038404Y001119D01*
X038360Y001143D01*
X038319Y001170D01*
X038279Y001200D01*
X038242Y001234D01*
X038208Y001270D01*
X038177Y001309D01*
X038149Y001350D01*
X038125Y001393D01*
X038104Y001438D01*
X038086Y001485D01*
X038073Y001532D01*
X038063Y001581D01*
X038057Y001630D01*
X038055Y001680D01*
X038055Y032680D02*
X038057Y032730D01*
X038063Y032779D01*
X038073Y032828D01*
X038086Y032875D01*
X038104Y032922D01*
X038125Y032967D01*
X038149Y033010D01*
X038177Y033051D01*
X038208Y033090D01*
X038242Y033126D01*
X038279Y033160D01*
X038319Y033190D01*
X038360Y033217D01*
X038404Y033241D01*
X038449Y033261D01*
X038496Y033277D01*
X038544Y033290D01*
X038593Y033299D01*
X038643Y033304D01*
X038692Y033305D01*
X038742Y033302D01*
X038791Y033295D01*
X038840Y033284D01*
X038887Y033270D01*
X038933Y033251D01*
X038978Y033229D01*
X039021Y033204D01*
X039061Y033175D01*
X039099Y033143D01*
X039135Y033109D01*
X039168Y033071D01*
X039197Y033031D01*
X039223Y032989D01*
X039246Y032945D01*
X039265Y032899D01*
X039281Y032852D01*
X039293Y032803D01*
X039301Y032754D01*
X039305Y032705D01*
X039305Y032655D01*
X039301Y032606D01*
X039293Y032557D01*
X039281Y032508D01*
X039265Y032461D01*
X039246Y032415D01*
X039223Y032371D01*
X039197Y032329D01*
X039168Y032289D01*
X039135Y032251D01*
X039099Y032217D01*
X039061Y032185D01*
X039021Y032156D01*
X038978Y032131D01*
X038933Y032109D01*
X038887Y032090D01*
X038840Y032076D01*
X038791Y032065D01*
X038742Y032058D01*
X038692Y032055D01*
X038643Y032056D01*
X038593Y032061D01*
X038544Y032070D01*
X038496Y032083D01*
X038449Y032099D01*
X038404Y032119D01*
X038360Y032143D01*
X038319Y032170D01*
X038279Y032200D01*
X038242Y032234D01*
X038208Y032270D01*
X038177Y032309D01*
X038149Y032350D01*
X038125Y032393D01*
X038104Y032438D01*
X038086Y032485D01*
X038073Y032532D01*
X038063Y032581D01*
X038057Y032630D01*
X038055Y032680D01*
X001055Y032680D02*
X001057Y032730D01*
X001063Y032779D01*
X001073Y032828D01*
X001086Y032875D01*
X001104Y032922D01*
X001125Y032967D01*
X001149Y033010D01*
X001177Y033051D01*
X001208Y033090D01*
X001242Y033126D01*
X001279Y033160D01*
X001319Y033190D01*
X001360Y033217D01*
X001404Y033241D01*
X001449Y033261D01*
X001496Y033277D01*
X001544Y033290D01*
X001593Y033299D01*
X001643Y033304D01*
X001692Y033305D01*
X001742Y033302D01*
X001791Y033295D01*
X001840Y033284D01*
X001887Y033270D01*
X001933Y033251D01*
X001978Y033229D01*
X002021Y033204D01*
X002061Y033175D01*
X002099Y033143D01*
X002135Y033109D01*
X002168Y033071D01*
X002197Y033031D01*
X002223Y032989D01*
X002246Y032945D01*
X002265Y032899D01*
X002281Y032852D01*
X002293Y032803D01*
X002301Y032754D01*
X002305Y032705D01*
X002305Y032655D01*
X002301Y032606D01*
X002293Y032557D01*
X002281Y032508D01*
X002265Y032461D01*
X002246Y032415D01*
X002223Y032371D01*
X002197Y032329D01*
X002168Y032289D01*
X002135Y032251D01*
X002099Y032217D01*
X002061Y032185D01*
X002021Y032156D01*
X001978Y032131D01*
X001933Y032109D01*
X001887Y032090D01*
X001840Y032076D01*
X001791Y032065D01*
X001742Y032058D01*
X001692Y032055D01*
X001643Y032056D01*
X001593Y032061D01*
X001544Y032070D01*
X001496Y032083D01*
X001449Y032099D01*
X001404Y032119D01*
X001360Y032143D01*
X001319Y032170D01*
X001279Y032200D01*
X001242Y032234D01*
X001208Y032270D01*
X001177Y032309D01*
X001149Y032350D01*
X001125Y032393D01*
X001104Y032438D01*
X001086Y032485D01*
X001073Y032532D01*
X001063Y032581D01*
X001057Y032630D01*
X001055Y032680D01*
M02*
